<?xml version="1.0" encoding="UTF-8" standalone="no"?>
<!DOCTYPE svg PUBLIC "-//W3C//DTD SVG 1.1//EN" "http://www.w3.org/Graphics/SVG/1.1/DTD/svg11.dtd">
<svg width="100%" height="100%" viewBox="0 0 307 407" version="1.1" xmlns="http://www.w3.org/2000/svg" xmlns:xlink="http://www.w3.org/1999/xlink" xml:space="preserve" xmlns:serif="http://www.serif.com/" style="fill-rule:evenodd;clip-rule:evenodd;stroke-linecap:round;stroke-linejoin:round;stroke-miterlimit:10;">
    <g transform="matrix(1,0,0,1,-2923.224778,-648.449057)">
        <g transform="matrix(0.044849,0,0,0.044849,2925.817402,494.590033)">
            <g id="Frame-10" serif:id="Frame 10" transform="matrix(8.333333,0,0,8.333333,-587.264832,-466.689805)">
                <g transform="matrix(2.481818,0,0,2.481818,-7180.353066,-1059.606063)">
                    <g transform="matrix(1.078109,0,0,1.078109,-230.566562,-82.163966)">
                        <path d="M3142.14,1044.468C3141.092,1047.074 3138.963,1050.27 3134.467,1051.273C3132.358,1051.743 3125.692,1051.544 3114.965,1051.941C3104.949,1052.311 3098.437,1052.994 3098.128,1053.004C3097.681,1053.02 3097.232,1053.046 3096.786,1053.011C3093.223,1052.726 3091.388,1050.286 3091.075,1049.869C3088.927,1047.012 3089.538,1044.021 3089.642,1043.51C3090.357,1040.008 3093.002,1038.483 3093.454,1038.222C3093.841,1037.999 3094.249,1037.808 3094.669,1037.653C3095.368,1037.395 3099.082,1036.6 3102.759,1036.245L3105.137,1036.021C3105.347,1036.01 3106.652,1035.942 3107.758,1036.211C3107.933,1036.254 3108.102,1036.301 3108.266,1036.351C3111.754,1036.158 3114.847,1036.046 3117.791,1035.967C3117.737,1034.94 3117.867,1033.923 3118.183,1033.025C3119.662,1028.817 3123.104,1027.97 3125.281,1026.637C3127.324,1025.387 3127.895,1024.175 3128.225,1023.385C3129.718,1019.327 3128.928,1016.807 3123.246,1010.902C3121.359,1008.94 3119.272,1006.877 3117.969,1004.607C3116.253,1001.616 3117.039,998.866 3117.177,998.383C3117.456,997.407 3117.925,996.463 3118.555,995.667C3120.624,993.049 3123.442,992.735 3123.931,992.68C3127.136,992.322 3129.306,994.027 3129.682,994.323C3130.644,995.08 3131.391,996.168 3131.65,996.57C3131.388,996.23 3131.32,996.843 3130.832,997.189L3131.7,996.648C3131.748,996.723 3131.762,996.749 3131.738,996.706C3131.726,996.685 3131.714,996.665 3131.703,996.646C3134.496,1000.399 3148.444,1010.52 3143.852,1026.686C3143.35,1028.453 3142.709,1030.018 3141.975,1031.408C3145.755,1034.069 3145.505,1037.882 3145.464,1038.515C3145.233,1042.039 3142.867,1043.907 3142.461,1044.227C3142.355,1044.311 3142.248,1044.392 3142.14,1044.468ZM3131.703,996.646L3131.7,996.648C3131.686,996.626 3131.67,996.6 3131.65,996.57C3131.667,996.591 3131.684,996.617 3131.703,996.646Z" style="fill:white;"/>
                    </g>
                    <g transform="matrix(1.078109,0,0,1.078109,-230.566562,-82.163966)">
                        <path d="M3142.768,1051.432C3139.944,1051.626 3139.159,1051.749 3137.31,1051.09C3136.23,1050.704 3136.243,1049.201 3137.214,1048.773C3136.468,1048.45 3136.302,1047.472 3136.736,1046.87C3136.735,1046.869 3136.734,1046.869 3136.734,1046.868C3136.736,1046.867 3136.738,1046.866 3136.74,1046.864C3136.832,1046.737 3136.952,1046.627 3137.099,1046.543C3137.39,1046.23 3137.633,1045.86 3137.983,1045.618C3138.009,1045.6 3138.294,1045.645 3140.663,1045.581C3140.746,1045.338 3140.902,1045.123 3141.108,1044.969C3140.96,1044.498 3141.106,1043.956 3141.487,1043.632C3141.931,1043.256 3142.154,1043.252 3144.027,1043.526C3143.627,1043.084 3143.286,1042.586 3143.24,1042.195C3143.146,1041.396 3143.931,1040.274 3145.384,1041.007C3146.558,1041.6 3148.666,1043.011 3151.169,1044.067C3151.193,1044.077 3151.836,1044.258 3152.06,1044.876C3152.273,1045.462 3152.005,1046.123 3151.462,1046.409C3151.846,1046.72 3151.971,1047.2 3151.878,1047.635C3152.237,1047.755 3152.751,1048.02 3152.895,1048.594C3152.921,1048.698 3152.933,1048.802 3152.932,1048.903C3153.738,1049.49 3153.543,1050.887 3152.466,1051.131C3152.466,1051.131 3152.368,1051.138 3152.189,1051.149L3152.19,1051.162C3152.123,1051.162 3152.057,1051.162 3151.991,1051.161C3150.497,1051.253 3145.808,1051.518 3142.768,1051.432Z" style="fill:white;"/>
                    </g>
                    <g transform="matrix(1.078109,0,0,1.078109,-230.566562,-82.163966)">
                        <path d="M2994.66,964.171C2985.899,946.443 2985.303,937.297 2987.446,927.955C2987.743,926.659 2988.11,925.202 2988.25,924.138C2988.272,923.978 2988.405,922.967 2988.777,922.195C2990.05,919.553 2992.548,919.227 2992.957,919.174C2993.366,919.121 2995.864,918.795 2997.771,921.022C2998.087,921.39 2998.325,921.783 2998.506,922.165C2999.298,922.506 2999.807,922.947 2999.957,923.077C3000.125,923.223 3001.043,924.019 3001.519,925.376C3001.664,925.789 3002.484,929.585 3002.525,933.929C3002.556,937.205 3002.234,941.527 3001.922,950.798C3002.495,953.328 3003.43,956.233 3004.896,960.265C3007.272,966.796 3010.256,974.301 3009.25,978.33C3009.013,979.278 3008.615,979.983 3008.295,980.439C3009.629,991.475 3010.718,1003.295 3011.358,1006.709L3011.324,1006.718C3011.417,1007.353 3011.584,1007.987 3011.534,1008.624C3011.508,1008.95 3011.359,1010.829 3009.709,1012.275C3009.457,1012.496 3008.006,1013.766 3005.736,1013.599C3003.535,1013.437 3002.3,1012.02 3002.086,1011.774C3001.931,1011.596 3001.146,1010.696 3000.798,1009.128C2999.689,1004.132 2996.918,970.58 2994.66,964.171Z" style="fill:white;"/>
                    </g>
                    <g transform="matrix(1.078109,0,0,1.078109,-230.566562,-82.163966)">
                        <path d="M2997.407,930.651C2997.209,932.64 2997.25,935.703 2997.115,936.152C2996.911,936.834 2996.833,937.568 2996.5,938.198C2996.348,938.487 2995.47,940.149 2993.365,940.811C2991.192,941.493 2989.478,940.587 2989.181,940.43C2988.74,940.197 2986.046,938.772 2986.353,934.864C2986.79,929.282 2985.221,921.846 2997.618,915.5C2999.189,914.695 3002.267,913.192 3008.213,911.184C3008.322,911.147 3009.143,910.87 3009.605,910.798C3010.49,910.659 3011.262,910.736 3011.917,910.92C3012.49,910.7 3013.04,910.495 3013.563,910.308C3026.285,905.74 3033.369,906.74 3036.445,907.322C3038.629,907.735 3039.71,909.343 3039.895,909.618C3040.282,910.192 3040.568,910.852 3040.707,911.531C3041.165,913.763 3040.087,915.379 3039.901,915.659C3039.625,916.073 3037.937,918.605 3034.115,917.906C3026.266,916.469 3014.55,921.066 3006.705,925.127C3002.937,927.547 2999.029,929.966 2998.252,930.328C2997.968,930.461 2997.686,930.568 2997.407,930.651Z" style="fill:white;"/>
                    </g>
                    <g transform="matrix(1.033126,0,0,1.107824,-92.29878,-106.255545)">
                        <path d="M3061.232,855.207C3060.854,853.988 3060.614,852.515 3060.762,850.85C3060.996,848.202 3063.624,840.82 3063.929,839.964C3068.064,828.351 3072.106,821.736 3077.007,807.141C3078.613,802.359 3082.697,800.356 3083.403,800.01C3084.88,799.287 3086.533,798.808 3088.194,798.663C3089.001,798.592 3093.653,798.186 3097.863,801.465C3098.466,801.936 3101.942,804.643 3102.437,809.579C3102.725,812.455 3102.561,812.473 3101.63,815.227C3100.307,819.138 3099.009,822.579 3097.783,825.64C3098.533,826.492 3098.955,827.193 3099.076,827.393C3099.203,827.604 3099.876,828.721 3100.301,830.193C3100.514,830.929 3101.656,834.882 3099.043,839.657C3097.394,842.669 3096.623,842.749 3092.816,848.175C3089.942,852.271 3088.487,855.062 3087.729,856.906C3090.223,860.439 3093.607,864.27 3094.303,868.008C3094.365,868.342 3094.677,869.074 3094.618,874.917C3094.585,878.21 3094.368,881.325 3094.078,884.166C3098.127,883.453 3105.379,883.541 3122.771,886.889C3132.155,888.695 3146.898,892.083 3157.809,895.863C3170.891,900.395 3173.46,903.665 3176.747,909.362C3185.386,924.336 3181.545,936.521 3179.387,940.494C3166.206,964.764 3166.226,964.77 3153.286,989.153C3150.147,995.069 3148.831,997.443 3146.123,1000.208C3144.245,1002.125 3144.235,1002.169 3141.701,1003.251C3136.869,1005.315 3132.618,1003.858 3131.88,1003.605C3131.119,1003.344 3126.73,1001.84 3124.446,997.188C3122.232,992.681 3123.795,988.717 3124.066,988.028C3124.162,987.784 3126.526,984.244 3126.744,983.917C3126.785,983.856 3126.851,983.813 3126.904,983.761C3127.971,982.133 3129.955,978.231 3136.447,965.989C3143.272,953.119 3153.595,934.132 3155.823,930.036C3155.965,929.506 3156.279,928.01 3155.736,925.665C3155.264,923.628 3154.328,921.807 3153.586,920.573C3144.932,916.414 3116.623,909.858 3103.154,908.415C3102.552,908.964 3101.876,909.497 3101.115,910.007C3097.119,912.686 3092.065,912.81 3091.047,913.09C3089.102,913.624 3078.545,917.105 3071.054,910.257C3064.48,904.246 3066.149,895.72 3066.996,890.148C3068.04,883.28 3068.532,879.317 3068.529,873.814C3064.393,868.102 3059.966,862.993 3061.108,855.917C3061.146,855.681 3061.187,855.444 3061.232,855.207Z" style="fill:white;"/>
                    </g>
                    <g transform="matrix(1.078109,0,0,1.078109,-230.566562,-82.163966)">
                        <path d="M3015.636,913.195C3000.363,913.642 2996.012,912.996 2990.029,909.449C2988.888,908.772 2988.867,908.806 2987.862,907.947C2983.631,904.332 2983.508,899.581 2983.487,898.768C2983.343,893.204 2986.792,889.934 2987.382,889.374C2990.541,886.379 2994.222,886.052 2994.877,885.994C2995.572,885.932 2996.272,885.959 2996.969,885.984C2998.435,886.036 3005.117,886.669 3005.825,886.736C3010.722,887.2 3014.005,887.597 3017.345,888.13C3021.891,887.977 3027.276,887.742 3033.3,887.471C3033.307,887.471 3033.334,887.469 3033.341,887.469C3040.502,887.122 3044.214,886.557 3046.509,885.903C3046.642,885.552 3046.798,885.142 3046.807,885.125C3047.868,883.079 3047.845,883.052 3049.378,881.327C3050.246,880.351 3051.546,879.558 3051.754,879.432C3057.407,875.986 3065.36,877.224 3069.557,884.081C3069.976,884.765 3070.344,885.462 3070.648,886.077C3072.158,887.792 3072.937,889.426 3073.143,889.859C3074.775,893.281 3076.191,898.347 3077.622,913.629C3077.816,915.702 3077.756,916.508 3077.737,916.758C3077.677,917.564 3077.327,922.262 3072.983,925.667C3068.64,929.073 3063.993,928.29 3063.197,928.156C3057.754,927.24 3055.202,923.279 3054.764,922.6C3053.856,921.19 3053.955,921.139 3053.285,919.601C3051.498,915.497 3050.668,914.015 3049.698,910.823C3049.595,910.843 3049.491,910.864 3049.387,910.884C3049.227,911.176 3049.052,911.469 3048.86,911.762C3048.447,912.392 3046.069,916.023 3041.087,917.081C3039.475,917.423 3037.791,917.227 3036.144,917.157C3035.496,917.13 3022.865,914.474 3015.636,913.195Z" style="fill:white;"/>
                    </g>
                    <g transform="matrix(1.078109,0,0,1.078109,-230.566562,-82.163966)">
                        <path d="M2958.163,879.552C2958.365,876.566 2957.126,873.531 2957.516,870.551C2957.724,868.966 2958.848,867.592 2959.903,866.39C2963.371,862.439 2967.844,862.165 2968.619,862.117C2973.703,861.805 2976.964,864.668 2977.531,865.165C2977.945,865.529 2979.998,867.331 2981.342,870.914C2985.485,881.958 2982.369,903.078 2989.292,955.547C2992.246,977.941 2993.196,978.742 2994.571,993.187C2995.574,1003.731 2996.379,1015.226 2997.128,1021.245C2998.52,1023.696 2998.685,1025.952 2998.723,1026.475C2998.766,1027.066 2999,1030.279 2997.127,1033.707C2995.392,1036.884 2992.935,1038.316 2992.66,1038.512C2992.642,1038.524 2991.195,1039.308 2991.178,1039.315C2988.368,1040.365 2988.341,1040.343 2985.342,1040.453C2985.325,1040.454 2983.289,1040.192 2983.272,1040.187C2980.812,1039.467 2980.783,1039.499 2978.607,1038.142C2978.531,1038.095 2976.955,1036.983 2975.689,1035.28C2972.854,1031.469 2972.395,1027.152 2970.893,1009.378C2969.235,989.744 2969.135,989.455 2967.887,981.73C2958.177,921.624 2959.872,892.099 2958.149,880.827C2958.057,880.226 2958.052,880.23 2957.916,879.636L2958.163,879.552ZM2974.516,1023.399C2974.493,1023.39 2974.469,1023.382 2974.445,1023.373L2974.407,1023.486C2974.443,1023.457 2974.48,1023.428 2974.516,1023.399Z" style="fill:white;"/>
                    </g>
                    <g transform="matrix(1.078109,0,0,1.078109,-230.566562,-82.163966)">
                        <path d="M3102.448,845.887C3101.633,847.53 3090.785,868.984 3090.051,874.557C3089.965,875.211 3089.906,876.416 3089.61,878.02C3088.633,883.309 3084.876,885.813 3084.221,886.25C3082.891,887.137 3081.365,887.791 3079.797,888.104C3074.644,889.133 3070.938,886.637 3070.295,886.203C3066.08,883.364 3065.22,879.105 3065.071,878.366C3064.671,876.39 3064.926,874.223 3065.017,873.571C3064.997,874 3065.459,873.555 3066.064,873.624L3065.033,873.46C3065.047,873.369 3065.051,873.347 3065.039,873.41C3065.035,873.428 3065.032,873.444 3065.03,873.46C3065.671,867.101 3066.672,861.61 3080.081,834.719C3080.423,834.034 3082.386,830.097 3087.32,828.452C3088.836,827.947 3090.48,827.717 3092.076,827.828C3097.32,828.19 3100.25,831.581 3100.758,832.169C3102.903,834.651 3103.065,835.967 3103.112,836.348C3103.701,841.131 3101.861,841.105 3102.447,845.879L3102.451,845.881C3102.45,845.883 3102.449,845.885 3102.448,845.887ZM3065.03,873.46L3065.033,873.46C3065.029,873.49 3065.023,873.527 3065.017,873.571C3065.019,873.539 3065.023,873.502 3065.03,873.46Z" style="fill:white;"/>
                    </g>
                    <g transform="matrix(1.078109,0,0,1.078109,-230.566562,-82.163966)">
                        <path d="M2968.993,930.29C2964.391,926.434 2959.306,920.465 2954.941,910.572C2953.152,906.519 2953.601,903.74 2953.702,902.749C2953.704,902.721 2953.932,901.527 2953.938,901.505C2953.972,901.393 2954.356,900.121 2954.367,900.097C2954.423,899.97 2955.066,898.529 2955.079,898.509C2956.221,896.721 2956.166,896.671 2957.662,895.169C2958.757,894.069 2960.317,893.287 2960.569,893.161C2960.598,893.146 2960.646,893.123 2960.71,893.091C2961.264,890.687 2962.19,888.136 2963.551,885.317C2964.901,882.52 2964.777,882.377 2967.129,880.344C2970.983,877.014 2975.313,877.313 2976.065,877.365C2981.309,877.728 2984.233,881.115 2984.74,881.703C2985.4,882.468 2985.918,883.252 2986.323,884.023C2987.783,885.592 2989.037,887.601 2989.968,890.078C2991.097,893.084 2992.317,898.046 2992.904,907.78C2995.428,909.84 2996.635,910.807 2997.62,911.52C2997.613,911.53 2997.607,911.54 2997.601,911.55C2998.737,912.122 2999.906,912.65 3000.858,913.481C3001.426,913.977 3004.697,916.833 3005.07,921.906C3005.127,922.679 3005.455,927.14 3002.004,931.105C3000.99,932.27 2999.885,933.111 2998.816,933.718C2996.633,937.562 2993.138,938.915 2992.472,939.173C2989.937,940.155 2987.636,940.149 2985.857,939.842C2983.804,940.495 2982.133,940.448 2981.677,940.435C2980.845,940.411 2975.956,940.273 2972.34,935.835C2971.293,934.551 2971.378,934.494 2970.564,933.049C2970.025,932.094 2969.502,931.175 2968.993,930.29Z" style="fill:white;"/>
                    </g>
                    <g transform="matrix(1.078109,0,0,1.078109,-230.566562,-82.163966)">
                        <path d="M3132.673,798.484C3132.293,798.151 3132.104,797.591 3132.36,797.01C3132.684,796.276 3133.15,795.415 3133.677,794.546C3133.601,794.508 3133.533,794.465 3133.473,794.417C3132.272,793.428 3133.467,792.161 3133.599,792.021C3134.257,791.323 3136.615,789.316 3137.028,789.167C3137.391,789.036 3137.776,789.09 3138.086,789.273C3138.791,788.149 3139.441,787.166 3140.268,786.026C3140.51,785.691 3140.851,785.525 3141.196,785.501C3141.245,785.363 3141.275,785.28 3141.283,785.266C3141.611,784.655 3142.289,784.499 3142.833,784.703C3143.063,784.62 3143.321,784.612 3143.611,784.698C3144.286,784.9 3144.991,785.618 3144.943,789.407C3144.937,789.858 3144.91,790.328 3144.867,790.803C3144.992,791.683 3145.112,792.62 3145.22,793.506C3145.438,793.576 3145.543,793.643 3146.738,794.213C3146.812,794.05 3146.917,793.891 3147.061,793.736C3148.116,792.599 3151.146,793.752 3151.885,794.635C3152.192,795.002 3152.327,795.408 3152.298,795.808C3152.741,797.051 3152.468,798.614 3152.426,798.86C3152.301,799.577 3152.166,799.996 3152.068,800.451L3152.156,800.529L3152.168,800.54L3152.158,800.551L3152.351,802.287C3151.762,802.312 3151.182,802.456 3150.593,802.481C3150.591,802.481 3150.269,802.226 3150.054,801.968C3149.559,801.376 3149.464,800.745 3149.591,800.07C3149.709,799.448 3149.994,798.608 3150.056,797.8C3149.847,797.853 3149.624,797.896 3149.387,797.927C3148.593,798.034 3148.039,797.815 3147.736,797.45C3147.176,797.192 3146.398,796.822 3145.738,796.505C3145.627,797.92 3145.656,798.065 3145.302,798.423C3144.703,799.03 3143.657,798.855 3143.287,798.087C3143.172,797.849 3143.151,797.709 3143.082,797.026C3142.26,797.348 3141.197,796.682 3141.383,795.641C3141.392,795.59 3141.411,795.482 3141.438,795.328C3141.171,795.443 3140.874,795.454 3140.601,795.378C3140.6,795.382 3140.599,795.386 3140.597,795.39C3140.596,795.395 3140.595,795.401 3140.594,795.407L3140.591,795.407C3140.409,795.93 3140.182,796.23 3139.674,796.357C3138.814,796.572 3137.96,795.813 3138.15,794.881C3138.242,794.429 3138.342,793.953 3138.447,793.467C3136.913,796.007 3136.829,796.067 3136.412,796.208C3136.358,796.226 3136.304,796.24 3136.251,796.251C3135.886,796.741 3135.472,797.29 3134.999,797.908C3134.987,797.924 3134.335,799.139 3133.303,798.876C3133.061,798.815 3132.84,798.675 3132.673,798.484Z" style="fill:white;"/>
                    </g>
                    <g transform="matrix(1.078109,0,0,1.078109,-230.566562,-82.163966)">
                        <path d="M3116.88,790.516C3116.339,791.057 3113.234,794.162 3108.041,794.162C3106.442,794.162 3104.81,793.86 3103.332,793.251C3100.821,792.216 3100.829,792.143 3098.911,790.224C3098.37,789.684 3095.264,786.579 3095.264,781.386C3095.264,779.787 3095.567,778.155 3096.176,776.676C3098.179,771.815 3102.321,770.108 3103.039,769.812C3107.749,767.872 3111.762,769.525 3112.458,769.812C3114.97,770.847 3114.961,770.92 3116.88,772.838C3117.421,773.379 3120.526,776.484 3120.526,781.677C3120.526,786.87 3117.421,789.975 3116.88,790.516Z" style="fill:white;"/>
                    </g>
                    <g transform="matrix(1.078109,0,0,1.078109,-230.566562,-82.163966)">
                        <path d="M3121.826,787.617C3122.482,790.217 3122.537,790.248 3122.143,792.903C3121.396,797.942 3117.919,800.54 3117.316,800.991C3113.104,804.138 3108.672,803.481 3107.904,803.367C3102.866,802.619 3100.267,799.143 3099.816,798.539C3097.981,796.083 3098.233,795.933 3097.385,792.985C3097.045,791.805 3096.394,790.664 3093.107,783.231C3092.798,782.531 3091.022,778.515 3092.895,773.672C3093.472,772.18 3094.343,770.767 3095.444,769.608C3095.979,769.045 3099.066,765.797 3104.322,765.683C3105.075,765.666 3109.414,765.572 3113.107,769.08C3115.561,771.413 3115.303,771.632 3116.681,774.722C3119.883,781.901 3120.738,783.305 3121.826,787.617Z" style="fill:white;"/>
                    </g>
                    <g transform="matrix(1.078109,0,0,1.078109,-230.566562,-82.163966)">
                        <path d="M2962.957,858.289C2963.368,859.197 2963.596,860.222 2963.789,861.186C2963.941,861.948 2964.819,866.342 2961.885,870.705C2959.043,874.932 2954.787,875.782 2954.048,875.929C2953.569,876.025 2951.222,876.494 2947.95,875.693C2944.917,874.951 2937.969,872.813 2935.777,864.769C2934.55,860.265 2936.275,855.986 2936.56,855.28C2937.614,852.667 2938.941,850.962 2939.909,848.593C2939.909,848.592 2939.909,848.592 2939.909,848.592C2940.808,847.209 2941.459,845.63 2942.606,844.446C2943.13,843.904 2946.152,840.784 2951.235,840.67C2952.01,840.653 2956.48,840.553 2960.262,844.203C2963.927,847.739 2964.021,852.078 2964.037,852.832C2964.099,855.698 2964.001,855.809 2962.957,858.289Z" style="fill:white;"/>
                    </g>
                    <g transform="matrix(1.078109,0,0,1.078109,-232.771774,-83.709164)">
                        <path d="M2954.199,849.897C2954.311,850.194 2955.178,852.505 2955.199,854.752C2955.206,855.506 2955.246,859.848 2951.701,863.498C2951.16,864.054 2948.043,867.264 2942.787,867.318C2942.034,867.326 2937.694,867.37 2934.042,863.82C2931.908,861.746 2931.989,861.643 2930.864,858.886C2924.068,842.239 2920.626,809.039 2937.997,786.472C2948.102,773.344 2969.178,752.554 2994.579,740.093C3022.989,726.155 3042.132,730.859 3048.355,732.626C3054.959,733.363 3073.856,735.189 3097.942,756.969C3106.206,764.442 3108.868,768.386 3112.892,771.815C3116.306,774.724 3116.624,774.422 3119.333,777.996C3119.795,778.606 3122.442,782.098 3121.72,787.257C3121.498,788.841 3120.973,790.415 3120.164,791.795C3117.507,796.331 3113.167,797.447 3112.415,797.641C3111.685,797.828 3107.482,798.909 3103.087,796.335C3100.822,795.008 3100.645,794.741 3099.368,793.049C3092.489,787.513 3092.514,786.737 3085.694,779.818C3085.686,779.81 3085.654,779.778 3085.646,779.77C3081.047,775.252 3065.789,760.101 3048.004,757.757C3044.65,757.315 3044.611,757.528 3041.35,756.622C3036.265,755.21 3023.851,752.999 3003.238,763.723C2987.545,771.887 2969.818,786.419 2957.878,801.63C2957.862,801.651 2957.845,801.673 2957.825,801.697C2956.966,802.783 2948.952,812.612 2950.503,832.992C2951.279,843.195 2954.02,849.518 2954.199,849.897ZM2954.199,849.897C2954.183,849.855 2954.183,849.854 2954.202,849.899C2954.211,849.922 2954.21,849.921 2954.199,849.897Z" style="fill:white;"/>
                    </g>
                    <g transform="matrix(1.078109,0,0,1.078109,-232.771774,-83.709164)">
                        <path d="M2949.63,835.216C2949.51,835.306 2949.39,835.396 2949.269,835.487C2947.949,836.48 2948.003,836.565 2946.536,837.324C2945.818,837.696 2941.634,839.863 2936.456,837.95C2931.278,836.037 2929.507,831.67 2929.204,830.922C2928.9,830.173 2927.13,825.806 2929.513,820.827C2929.656,820.529 2930.337,819.106 2931.894,817.441C2933.537,815.684 2943.897,805.529 2975.619,772.586C2997.357,750.011 3000.762,746.277 3012.713,740.263C3013.399,739.918 3017.338,737.935 3022.282,739.583C3023.799,740.089 3025.252,740.892 3026.462,741.937C3027.291,742.654 3027.961,743.415 3028.503,744.179C3030.169,744.069 3034.03,744.172 3037.534,747.218C3038.15,747.753 3041.747,750.88 3041.833,756.462C3041.843,757.121 3041.899,760.827 3039.234,764.284C3038.217,765.603 3038.111,765.502 3036.933,766.678C3033.341,770.266 3030.566,774.842 2997.832,798.616C2993.408,803.809 2989.582,808.658 2986.288,813.607C2987.246,812.779 2987.335,812.623 2988.684,811.839C2993.702,808.926 2998.373,810.595 2999.166,810.878C3004.629,812.83 3006.37,817.475 3006.665,818.263C3006.961,819.052 3008.702,823.696 3005.866,828.758C3004.794,830.673 3003.394,831.882 3003.133,832.108C2992.404,841.377 2982.989,850.102 2977.189,856.163C2977.218,857.353 2977.078,858.68 2976.648,860.094C2976.182,861.624 2975.418,863.098 2974.407,864.338C2973.378,865.598 2971.91,866.424 2970.652,867.458L2970.658,867.468C2970.64,867.478 2970.621,867.488 2970.603,867.498C2970.593,867.505 2970.583,867.512 2970.572,867.515C2967.309,869.333 2966.548,870.339 2962.803,871.12C2962.389,871.206 2960.953,871.335 2960.665,871.324C2959.129,871.268 2959.134,871.244 2957.828,871.044C2957.799,871.039 2956.132,870.559 2956.109,870.548C2955.969,870.485 2954.387,869.771 2954.362,869.754C2954.228,869.667 2952.712,868.677 2952.689,868.656C2952.571,868.55 2951.244,867.349 2951.223,867.323C2950.909,866.938 2946.315,862.497 2948.204,854.731C2948.594,853.124 2949.261,851.396 2950.634,849.196C2949.201,847.15 2948.869,845.398 2948.606,844.449C2948.524,844.149 2948.266,842.249 2948.416,840.719C2948.468,840.184 2948.565,839.201 2949.63,835.216Z" style="fill:white;"/>
                    </g>
                    <g transform="matrix(1.078109,0,0,1.078109,-232.771774,-83.709164)">
                        <path d="M3077.425,835.176C3075.911,837.254 3075.216,837.899 3074.966,838.131C3074.355,838.7 3070.758,842.042 3065.049,841.395C3059.34,840.747 3056.583,836.685 3056.114,835.993C3052.888,831.24 3054.176,826.501 3054.395,825.695C3054.583,825.003 3054.849,824.333 3055.136,823.676C3055.141,823.665 3059.85,813.583 3064.207,804.402C3076.972,777.509 3078.862,774.744 3079.82,772.482C3080.776,770.227 3081.896,768.964 3082.132,768.699C3085.756,764.614 3090.415,764.515 3091.216,764.498C3092.016,764.481 3096.675,764.382 3100.47,768.309C3100.92,768.774 3103.44,771.383 3103.907,775.632C3103.982,776.313 3103.984,777.003 3103.962,777.688C3103.955,777.934 3103.903,779.573 3103.833,780.912C3108.829,783.047 3110.398,787.418 3110.671,788.177C3112.583,793.503 3110.242,797.733 3109.842,798.454C3109.327,799.387 3108.766,800.085 3108.66,800.218C3099.553,811.582 3090.987,821.775 3082.545,831.613C3082.17,832.05 3080.457,834.047 3077.425,835.176Z" style="fill:white;"/>
                    </g>
                    <g transform="matrix(1.078109,0,0,1.078109,-232.771774,-83.709164)">
                        <path d="M3093.697,893.112C3092.127,893.54 3090.606,894.258 3088.984,894.367C3088.232,894.418 3083.899,894.711 3080.049,891.389C3079.461,890.882 3076.076,887.961 3075.713,882.718C3075.361,877.636 3078.199,874.352 3078.691,873.782C3079.599,872.732 3080.089,872.203 3080.646,871.795C3080.962,871.211 3081.258,870.361 3081.298,869.167C3081.334,868.105 3080.798,865.597 3081.349,861.156C3081.153,860.709 3080.975,860.235 3080.82,859.733C3080.507,858.716 3078.542,852.976 3083.775,842.709C3086.428,837.503 3087.696,837.369 3089.385,832.196C3090.277,829.462 3090.981,827.462 3092.142,825.065C3090.738,818.605 3090.894,811.906 3096.699,804.67C3098.612,802.286 3099.426,801.632 3103.185,797.304C3105.122,795.074 3115.026,786.337 3124.733,784.123C3128.215,783.329 3130.745,783.547 3131.988,783.698C3132.77,783.792 3137.308,784.342 3140.518,788.622C3141.477,789.901 3142.214,791.389 3142.614,792.937C3143.928,798.024 3141.642,801.856 3141.245,802.521C3139.57,805.329 3138.371,805.902 3138.026,806.068C3134.191,807.9 3133.302,806.769 3130.172,807.893C3130.212,808.086 3130.255,808.286 3130.299,808.495C3128.783,808.992 3125.712,810.6 3121.767,814.035C3118.624,817.651 3117.587,818.636 3116.585,819.845C3116.879,821.224 3117.397,822.741 3117.439,822.916C3117.602,823.595 3117.799,824.269 3117.893,824.961C3117.954,825.415 3118.268,827.734 3117.412,830.44C3117.636,830.808 3117.849,831.199 3118.047,831.616C3118.134,831.8 3118.594,832.768 3118.899,834.014C3120.286,839.686 3117.253,844.091 3116.258,845.625C3114.383,848.515 3111.304,852.773 3108.533,856.564C3106.915,860.387 3105.966,863.824 3106.099,865.343C3106.213,866.63 3108.083,879.727 3097.757,890.285C3096.833,891.23 3095.999,891.809 3095.833,891.924C3095.556,892.117 3094.307,892.82 3094.173,892.896C3093.98,893.005 3093.941,893.001 3093.798,893.073C3093.792,893.085 3093.779,893.09 3093.763,893.094C3093.759,893.095 3093.755,893.096 3093.751,893.097C3093.736,893.106 3093.72,893.114 3093.703,893.124L3093.697,893.112ZM3128.848,808.447C3128.82,808.46 3128.791,808.474 3128.762,808.488L3128.841,808.498L3128.848,808.447Z" style="fill:white;"/>
                    </g>
                    <g transform="matrix(1.078109,0,0,1.078109,-232.771774,-83.709164)">
                        <path d="M3142.25,851.123C3139.769,850.017 3136.42,848.265 3132.013,845.486C3115.363,834.987 3110.039,825.475 3109.939,825.317C3104.914,817.359 3105.368,811.705 3105.854,808.536C3107.546,797.503 3118.705,790.337 3131.327,797.336C3131.656,797.519 3136.532,799.788 3147.004,810.35C3153.69,817.093 3158.24,823.085 3161.84,828.677C3166.136,828.914 3168.858,829.172 3170.916,829.607C3171.272,829.661 3171.624,829.726 3171.968,829.792C3172.727,829.938 3177.09,830.781 3180.003,835.148C3181.117,836.819 3181.663,838.493 3181.906,839.953C3182.319,841.879 3182.252,843.873 3181.773,845.974C3181.505,847.147 3181.005,847.953 3180.491,849.953C3179.673,853.132 3178.064,862.506 3165.695,865.086C3165.575,865.111 3164.323,865.372 3164.199,865.367C3162.552,865.309 3160.863,865.565 3159.259,865.191C3154.299,864.032 3151.994,860.355 3151.594,859.716C3150.993,858.756 3150.568,857.8 3150.274,856.884C3147.983,855.834 3145.964,854.279 3144.085,852.706C3143.505,852.22 3142.89,851.688 3142.25,851.123Z" style="fill:white;"/>
                    </g>
                    <g transform="matrix(1.078109,0,0,1.078109,-232.771774,-83.709164)">
                        <path d="M3066.669,705.232C3066.393,705.237 3065.34,705.205 3065.051,704.326C3064.813,703.604 3065.294,702.749 3066.172,702.687C3067.809,702.571 3069.291,702.533 3070.646,702.544C3072.288,702.084 3073.403,700.906 3076.2,698.481C3078.559,696.435 3078.738,696.28 3079.231,696.265C3079.87,696.245 3080.438,696.737 3080.512,697.371C3080.605,698.178 3080.327,698.217 3076.293,702.874C3077.699,703.017 3078.944,703.173 3080.099,703.272C3083.739,703.584 3083.829,703.391 3084.317,703.831C3085.014,704.457 3084.814,705.716 3083.747,705.981C3083.461,706.052 3083.179,706.116 3082.899,706.174L3083.607,706.882C3083.076,707.138 3082.888,707.877 3082.356,708.132C3082.298,708.16 3075.969,708.069 3074.421,708.018C3074.23,708.011 3074.112,708.006 3074.087,708.001C3073.424,707.877 3073.038,707.273 3073.075,706.679C3071.752,706.666 3070.262,706.651 3068.55,706.648C3067.578,706.646 3067.576,706.656 3067.56,706.647C3066.774,706.207 3067.096,705.834 3066.311,705.396C3066.434,705.348 3066.553,705.292 3066.669,705.232Z" style="fill:white;"/>
                    </g>
                    <g transform="matrix(1.078109,0,0,1.078109,-232.771774,-83.709164)">
                        <path d="M3125.597,737.016C3125.522,737.293 3125.445,737.524 3125.385,737.703C3125.364,737.762 3125.377,737.85 3125.322,737.88C3124.807,738.167 3124.235,738.342 3123.72,738.628C3123.5,738.083 3123.191,737.576 3122.971,737.03C3122.946,736.968 3123.394,736.229 3123.408,734.678C3123.42,733.335 3123.304,732.332 3124.666,730.335C3125.446,729.19 3126.643,729.651 3126.961,730.488C3128.616,726.16 3129.869,724.383 3133.044,724.212C3133.813,724.171 3134.492,724.14 3135.103,724.123C3134.964,723.293 3135.705,722.395 3136.748,722.722C3137.119,722.838 3137.389,722.922 3137.613,722.99C3137.511,722.764 3137.404,722.524 3137.291,722.267C3136.738,721.013 3138.309,719.901 3139.308,720.86C3140.173,721.69 3143.216,724.91 3143.443,725.534C3143.508,725.712 3143.529,725.892 3143.513,726.065C3144.004,726.311 3144.357,726.492 3144.613,726.628C3144.709,726.675 3144.806,726.721 3144.905,726.769L3144.898,726.784C3145.12,726.91 3145.219,726.981 3145.272,727.038C3146.19,728.011 3145.091,729.61 3143.821,729.022C3143.813,729.018 3143.806,729.015 3143.799,729.011C3143.536,728.889 3143.288,728.773 3143.054,728.662C3142.903,728.735 3142.731,728.781 3142.543,728.787C3137.06,728.986 3132.037,728.696 3130.501,728.614C3130.221,729.137 3129.924,729.807 3129.582,730.664C3128.488,733.411 3127.57,736.428 3127.277,736.785C3126.844,737.314 3126.103,737.36 3125.597,737.016Z" style="fill:white;"/>
                    </g>
                    <g transform="matrix(1.078109,0,0,1.078109,-232.771774,-83.709164)">
                        <path d="M3099.069,684.885C3098.698,684.956 3098.511,684.908 3098.21,684.729C3097.514,684.314 3097.364,683.286 3098.045,682.701C3098.076,682.531 3098.111,682.361 3098.157,682.195C3098.158,682.193 3098.47,681.983 3098.753,681.848C3098.915,681.771 3099.326,681.617 3099.882,681.42C3102.818,679.502 3104.558,678.966 3105.069,678.808C3105.124,678.791 3105.189,678.772 3105.261,678.751C3105.365,678.714 3105.477,678.68 3105.598,678.649C3105.683,678.628 3105.779,678.605 3105.887,678.58C3106.291,678.472 3106.679,678.373 3106.756,678.354C3106.836,678.333 3106.913,678.314 3106.987,678.295C3107.668,678.028 3108.58,677.727 3109.649,677.535C3109.875,677.494 3110.081,677.507 3110.262,677.56C3111.392,677.271 3112.754,676.901 3114.391,676.424C3115.297,676.16 3115.292,676.143 3115.488,676.12C3116.883,675.957 3117.47,677.963 3116.074,678.531C3115.484,678.771 3114.155,679.232 3112.996,679.635C3112.998,679.859 3112.981,680.079 3112.946,680.278C3113.076,680.533 3113.125,680.83 3113.075,681.112C3113.413,681.19 3113.787,681.283 3114.215,681.398C3114.646,681.512 3115.753,681.65 3115.892,682.644C3115.975,683.24 3115.594,683.884 3114.92,684.035C3115.608,684.241 3115.771,684.351 3115.956,684.614C3116.275,685.067 3116.245,685.703 3115.898,686.128C3115.902,686.143 3115.907,686.158 3115.911,686.173C3115.921,686.205 3115.495,687.018 3114.591,687.052C3113.88,687.079 3113.042,686.805 3109.481,686.293C3108.899,686.21 3107.677,686.24 3107.425,685.21C3107.416,685.172 3107.409,685.136 3107.403,685.1C3106.159,685.054 3105.525,685.128 3105.105,684.699C3104.863,684.757 3104.613,684.818 3104.352,684.88C3104.238,684.908 3103.29,685.135 3102.766,685.252C3102.757,685.255 3102.748,685.258 3102.739,685.261L3102.739,685.258C3102.573,685.295 3102.455,685.32 3102.427,685.322C3102.312,685.329 3102.203,685.323 3102.1,685.304C3101.063,685.598 3100.344,685.763 3100.105,685.736C3099.588,685.676 3099.214,685.319 3099.069,684.885Z" style="fill:white;"/>
                    </g>
                    <g transform="matrix(1.078109,0,0,1.078109,-232.771774,-83.709164)">
                        <path d="M3167.251,711.053C3165.394,711.008 3161.404,710.808 3160.457,709.981C3159.986,709.57 3159.746,708.633 3160.156,707.964C3160.174,707.879 3160.201,707.798 3160.235,707.723C3160.102,707.354 3160.107,706.945 3160.29,706.489C3160.321,706.412 3160.821,705.528 3161.869,705.096C3161.582,704.548 3161.318,703.931 3161.097,703.238C3160.234,700.539 3160.789,700.269 3161.522,699.5L3162.319,700.164L3162.329,700.155C3162.115,699.401 3161.937,698.514 3161.808,697.3C3161.586,695.215 3161.604,694.789 3162.028,694.372C3162.261,694.143 3163.293,693.55 3163.993,694.664C3164.504,693.97 3165.674,693.965 3166.12,694.844C3166.123,694.85 3166.126,694.856 3166.13,694.863C3166.606,695.801 3167.044,696.671 3167.448,697.479C3168.012,698.255 3168.503,698.931 3168.946,699.543C3169.396,699.382 3169.932,699.467 3170.326,699.951C3172.426,702.542 3173.614,704.401 3173.873,704.806C3174.324,705.513 3174.741,706.252 3175.174,707.046C3175.235,707.146 3175.294,707.243 3175.353,707.339C3175.371,707.366 3175.39,707.392 3175.409,707.419C3176.607,709.124 3179.943,712.389 3180.086,713.412C3180.221,714.381 3179.208,715.131 3178.32,714.718C3178.237,714.679 3178.174,714.643 3178.093,714.578C3177.599,714.789 3176.971,714.705 3176.585,714.188C3176.329,713.847 3176.073,713.504 3175.817,713.16C3175.595,713.168 3175.357,713.112 3175.117,712.971C3175.054,712.934 3174.58,712.647 3173.885,712.214C3173.673,712.305 3173.426,712.34 3173.157,712.294C3173.044,712.275 3170.172,711.73 3167.578,711.108C3167.44,711.085 3167.329,711.066 3167.251,711.053Z" style="fill:white;"/>
                    </g>
                    <g transform="matrix(1.078109,0,0,1.078109,-232.771774,-83.709164)">
                        <path d="M3104.038,682.539C3103.756,682.868 3103.498,683.22 3103.18,683.514C3103.163,683.53 3100.938,683.887 3100.73,682.3C3100.548,680.919 3102.336,680.132 3106.668,677.84C3107.642,676.962 3108.517,676.175 3108.696,676.014C3114.781,670.539 3115.89,670.09 3117.076,670.861C3117.704,671.268 3118.372,672.866 3115.861,675.068C3114.904,675.908 3113.652,676.753 3112.299,677.57C3113.917,677.167 3115.133,677.034 3116.78,676.955C3118.384,676.879 3118.631,679.097 3117.129,679.428C3116.813,679.497 3115.931,679.656 3114.964,679.831C3115.24,679.949 3115.526,680.084 3115.821,680.237C3119.629,682.207 3118.831,684.655 3116.622,684.896C3116.614,684.897 3116.607,684.898 3116.599,684.898C3117.259,685.155 3117.862,685.439 3118.528,685.805C3119.105,686.122 3119.395,686.682 3119.357,687.203C3120.18,687.573 3121.052,687.983 3121.976,688.438C3122.103,688.501 3123.296,688.881 3123.261,689.919C3123.236,690.69 3122.424,691.459 3121.339,690.979C3121.302,690.962 3121.243,690.965 3121.228,690.927C3121.217,690.897 3121.205,690.868 3121.195,690.84C3120.512,690.497 3117.933,689.221 3115.079,688.137C3112.498,687.693 3109.226,686.897 3108.653,686.761C3108.45,686.713 3105.524,686.003 3104.528,685.73C3104.5,685.724 3104.472,685.718 3104.444,685.712L3104.446,685.707C3104.323,685.673 3104.24,685.647 3104.211,685.634C3103.048,685.11 3103.36,683.349 3104.61,683.253C3104.61,683.047 3104.657,682.841 3104.747,682.657C3104.487,682.691 3104.245,682.644 3104.038,682.539ZM3106.965,682.117C3108.115,682.251 3110.159,682.459 3112.3,682.518C3113.294,682.546 3114.126,682.536 3114.779,682.513C3113.749,681.927 3112.21,681.375 3110.475,681.61C3109.313,681.767 3107.974,682.103 3106.965,682.117Z" style="fill:white;"/>
                    </g>
                    <g transform="matrix(1.078109,0,0,1.078109,-232.771774,-83.709164)">
                        <path d="M3195.494,850.346C3193.909,852.088 3193.333,852.58 3192.132,853.172C3191.005,853.728 3189.842,852.409 3190.538,851.359C3190.807,850.954 3191.545,849.842 3192.588,848.271C3192.482,848.046 3192.443,847.781 3192.505,847.494C3192.73,846.444 3192.99,845.81 3193.872,844.39C3193.597,843.808 3193.632,842.974 3194.177,842.144C3196.37,838.804 3199.738,833.995 3203.071,829.199C3203.214,828.717 3203.394,828.177 3203.618,827.569C3203.402,827.225 3203.347,826.778 3203.575,826.34C3203.693,826.114 3203.934,825.651 3204.276,824.997C3203.677,824.217 3203.259,823.658 3203.1,823.446C3202.698,822.91 3202.276,822.335 3201.847,821.732C3201.043,821.705 3200.425,820.89 3200.709,820.076C3200.601,819.913 3200.494,819.749 3200.388,819.584C3200.22,819.617 3200.067,819.595 3199.886,819.553C3199.43,819.447 3199.102,819.1 3198.978,818.69C3198.888,818.719 3198.842,818.715 3198.801,818.719C3198.363,818.767 3197.978,818.584 3197.726,818.288C3196.988,818.362 3196.246,817.759 3196.356,816.865C3196.747,813.676 3196.966,813.008 3197.072,812.686C3197.08,812.662 3197.088,812.638 3197.096,812.614C3196.507,810.068 3196.944,807.811 3199.36,806.463C3200.217,805.984 3201.751,805.338 3205.064,805.367C3207.404,802.322 3208.263,801.721 3211.556,801.339C3211.699,801.185 3211.819,801.059 3211.907,800.972C3212.149,800.732 3212.247,800.619 3212.952,800.245C3214.341,796.888 3216.919,793.6 3218.294,793.25C3218.682,793.151 3219.55,793.21 3219.933,793.913C3220.242,793.97 3220.509,794.143 3220.694,794.381C3221.329,794.574 3221.82,795.242 3221.516,796.038C3221.395,796.355 3221.276,796.662 3221.159,796.96C3221.165,796.988 3221.17,797.018 3221.175,797.047C3221.251,797.544 3221.196,797.788 3220.014,799.744C3219.606,800.688 3219.233,801.496 3218.899,802.184C3219.554,802.451 3219.966,803.02 3220.164,803.903C3220.279,803.914 3220.397,803.933 3220.517,803.961C3221.749,804.243 3223.717,805.574 3224.92,806.59C3225.19,806.651 3225.48,806.726 3225.797,806.811C3226.357,806.962 3226.651,807.348 3226.727,807.771C3226.794,807.805 3226.855,807.848 3226.925,807.902C3227.69,808.502 3227.606,810.02 3226.104,810.154C3226.057,810.158 3226.011,810.161 3225.966,810.164C3225.913,810.324 3225.852,810.495 3225.784,810.677C3225.553,812.569 3225.082,815.384 3224.378,817.672C3224.421,817.891 3224.403,818.134 3224.302,818.385C3223.226,821.082 3222.499,822.694 3222.009,823.684C3221.843,824.172 3221.665,824.699 3221.49,825.227C3221.795,825.557 3221.928,826.05 3221.712,826.577C3221.616,826.809 3220.817,828.756 3220.298,829.384C3220.278,829.408 3220.258,829.431 3220.238,829.453C3219.825,830.513 3219.521,831.209 3218.496,831.109C3217.743,831.035 3217.393,830.357 3217.256,829.676C3216.962,829.649 3216.688,829.512 3216.48,829.307C3216.267,829.637 3216.113,829.867 3216.037,829.966C3215.364,830.839 3214.424,830.618 3213.984,830.016C3213.959,830.024 3213.934,830.032 3213.909,830.04C3213.797,830.073 3213.684,830.098 3213.572,830.114C3213.276,830.756 3212.946,831.47 3212.594,832.23C3212.601,832.767 3212.468,833.234 3211.934,835.026C3212.139,835.314 3212.225,835.693 3212.097,836.112C3211.686,837.466 3210.817,839.932 3209.091,845.994C3209.004,846.296 3208.73,847.719 3208.03,848.505C3207.881,848.735 3207.737,848.82 3207.527,848.908C3207.497,848.92 3207.467,848.932 3207.437,848.942C3206.962,849.132 3206.359,849.041 3205.595,848.428C3205.503,848.492 3205.409,848.557 3205.312,848.622C3203.884,849.585 3202.354,848.6 3202.976,846.754C3203.011,846.648 3203.177,845.987 3204.589,843.548C3204.666,843.382 3204.75,843.203 3204.839,843.012C3204.687,842.846 3204.575,842.64 3204.528,842.413C3201.551,846.31 3198.675,850.068 3197.831,851.153L3197.785,851.224L3197.778,851.22C3197.661,851.37 3197.594,851.455 3197.584,851.464C3196.664,852.318 3195.313,851.4 3195.494,850.346ZM3200.497,840.886C3201.626,839.694 3202.627,838.634 3203.515,837.691C3205.322,834.884 3207.057,832.192 3208.238,830.364C3208.274,830.269 3208.31,830.172 3208.346,830.075C3208.255,829.966 3208.165,829.858 3208.074,829.75C3206.722,831.692 3205.936,832.832 3205.405,833.498L3200.497,840.886ZM3203.801,820.157C3204.365,820.96 3204.956,821.764 3205.556,822.556C3205.762,822.165 3205.98,821.751 3206.209,821.317C3205.815,821.57 3205.584,821.561 3205.26,821.487C3204.388,821.288 3203.986,820.22 3204.56,819.49C3204.851,819.12 3205.194,818.688 3205.574,818.21C3205.405,818.391 3205.227,818.581 3205.036,818.784C3204.519,819.336 3204.119,819.788 3203.801,820.157ZM3220.164,807.859C3220.142,807.849 3220.121,807.839 3220.1,807.83C3220.096,807.859 3220.091,807.889 3220.087,807.919C3220.113,807.898 3220.138,807.878 3220.164,807.859Z" style="fill:white;"/>
                    </g>
                    <g transform="matrix(1.078109,0,0,1.078109,-232.771774,-83.709164)">
                        <path d="M3109.475,766.459C3095.741,761.744 3095.722,761.156 3093.938,759.689C3093.669,759.467 3092.552,758.243 3092.27,757.837C3091.028,756.05 3090.6,754.751 3090.505,754.462C3089.177,750.436 3090.254,747.139 3090.451,746.536C3092.114,741.443 3096.237,739.472 3096.948,739.132C3100.711,737.333 3104.278,738.033 3104.908,738.157C3106.679,738.505 3111.949,740.289 3118.665,743.183C3121.28,744.071 3123.221,744.706 3123.267,744.733C3124.695,745.556 3126.307,746.121 3127.548,747.203C3127.603,747.251 3127.684,747.321 3127.784,747.413C3136.273,751.642 3145.492,757.093 3152.543,763.303C3159.587,769.507 3162.398,774.313 3165.542,780.599C3166.579,782.672 3169.416,788.498 3170.788,795.157C3172.892,805.375 3171.305,808.127 3175.898,822.96C3175.903,822.969 3175.906,822.981 3175.908,822.993C3175.91,822.998 3175.911,823.004 3175.913,823.009L3175.91,823.01C3176.085,824.643 3176.572,826.274 3176.427,827.91C3176.361,828.66 3175.979,832.985 3172.092,836.271C3171.499,836.773 3168.08,839.663 3162.843,839.204C3162.092,839.138 3157.769,838.759 3154.481,834.868C3152.467,832.485 3152.627,832.355 3151.71,829.375C3149.021,820.634 3148.028,814.332 3147.412,808.65C3146.487,800.118 3146.528,797.542 3140.969,787.657L3141.027,787.758C3141,787.709 3137.58,780.223 3116.745,769.851C3114.344,768.656 3111.857,767.502 3109.475,766.459Z" style="fill:white;"/>
                    </g>
                    <g transform="matrix(1.078109,0,0,1.078109,-232.771774,-83.709164)">
                        <path d="M2939.91,914.136C2938.486,897.08 2937.68,880.282 2938.994,871.957C2939.756,867.134 2941.086,863.938 2943.84,861.097C2947.374,857.45 2951.914,857.45 2952.679,857.45C2954.278,857.45 2955.91,857.752 2957.389,858.362C2962.243,860.362 2963.924,864.474 2964.216,865.189C2965.449,868.206 2965.19,869.511 2965.115,869.886C2964.552,872.72 2963.713,873.648 2962.928,874.949C2963.465,875.093 2963.798,875.174 2963.808,875.177C2962.342,882.505 2964.275,910.883 2967.694,940.924C2971.554,960.26 2977.615,984.281 2981.222,1006.465C2983.306,1006.142 2985.398,1005.953 2987.361,1005.956C2986.145,1000.995 2983.661,990.715 2983.373,989.521C2982.756,986.969 2979.933,975.286 2976.364,957.449C2975.307,952.165 2975.033,947.646 2974.345,945.318C2974.379,945.304 2974.412,945.291 2974.445,945.278C2974.754,942.179 2973.395,939.033 2973.781,935.936C2973.978,934.351 2975.086,932.969 2976.129,931.76C2976.635,931.173 2979.552,927.79 2984.794,927.427C2989.875,927.075 2993.159,929.913 2993.729,930.406C2994.121,930.744 2996.046,932.407 2997.426,935.715C2999.7,941.162 2999.749,947.044 3000.94,952.848C3004.386,969.641 3005.46,974.505 3008.163,985.662C3008.709,986.437 3009.205,987.335 3009.606,988.371C3009.866,989.044 3010.034,989.749 3010.209,990.448C3010.225,990.511 3011.13,995.065 3011.666,998.078C3013.766,1009.884 3013.282,1010.924 3015.017,1028.694C3015.179,1030.346 3016.563,1040.052 3008.702,1045.696C3005.502,1047.994 3002.352,1048.727 2996.017,1049.582C2983.425,1051.28 2979.031,1042.829 2978.168,1039.213C2977.917,1038.166 2977.779,1037.181 2977.726,1036.253C2970.25,1036.186 2967.179,1034.237 2966.352,1033.712C2962.668,1031.374 2960.587,1027.845 2960.141,1024.147C2957.583,1019.352 2957.216,1014.737 2956.97,1013.119C2954.13,994.421 2948.578,971.676 2944.425,951.841C2944.234,951.428 2944.064,951.004 2943.919,950.573C2943.69,949.892 2943.553,949.183 2943.41,948.48C2943.407,948.465 2942.94,945.428 2942.334,941.408C2940.75,933.04 2939.602,925.52 2939.266,919.486C2939.19,918.117 2939.145,918.118 2939.309,916.758C2939.424,915.801 2939.635,914.928 2939.91,914.136ZM2961.557,878.581C2961.544,878.645 2961.531,878.709 2961.518,878.774L2961.633,878.655L2961.557,878.581ZM2974.396,945.434L2974.421,945.486C2974.424,945.463 2974.427,945.441 2974.43,945.418L2974.396,945.434Z" style="fill:white;"/>
                    </g>
                    <g transform="matrix(1.078109,0,0,1.078109,-232.771774,-83.709164)">
                        <path d="M2985.61,990.549C2984.714,988.731 2983.645,986.964 2983.256,984.995C2982.946,983.432 2983.551,981.775 2984.153,980.3C2984.444,979.586 2986.12,975.48 2990.972,973.481C2995.682,971.54 2999.694,973.194 3000.391,973.481C3000.793,973.646 3003.107,974.6 3004.86,976.568C3009.555,981.839 3009.5,988.068 3012.724,1001.038C3015.516,1012.267 3017.858,1015.16 3018.348,1016.037C3018.68,1016.631 3019.05,1017.207 3019.327,1017.829C3019.449,1018.102 3019.791,1018.872 3020.058,1019.992C3022.653,1023.601 3022.393,1027.357 3022.345,1028.052C3022.309,1028.575 3022.121,1031.298 3020.261,1034.27C3019.201,1035.966 3017.882,1037.309 3016.411,1038.306C3016.43,1038.65 3016.443,1038.902 3016.444,1039.032C3016.451,1039.731 3016.46,1040.433 3016.381,1041.127C3016.288,1041.936 3015.746,1046.665 3011.201,1049.894C3006.656,1053.123 3002.012,1052.078 3001.217,1051.899C2996.963,1050.941 2994.641,1048.059 2994.228,1047.546C2992.32,1045.178 2985.094,1032.347 2990.934,1019.848C2991.085,1019.524 2991.359,1018.937 2991.8,1018.205C2991.35,1016.971 2990.891,1015.624 2990.428,1014.15C2987.525,1004.902 2986,994.962 2984.754,990.875C2985.074,990.752 2985.356,990.644 2985.61,990.549ZM2986.794,993.662L2986.704,993.749L2986.843,993.893C2986.828,993.816 2986.811,993.739 2986.794,993.662Z" style="fill:white;"/>
                    </g>
                    <g transform="matrix(1.078109,0,0,1.078109,-232.771774,-83.709164)">
                        <path d="M3088.919,1021.855C3087.942,1018.534 3087.725,1014.387 3088.614,1008.459C3090.094,998.583 3094.906,980.757 3106.883,940.738C3107.225,939.593 3107.533,938.438 3107.912,937.305C3108.135,936.636 3108.375,935.969 3108.688,935.337C3109,934.708 3110.609,931.465 3114.47,929.621C3116.322,924.334 3118.279,918.959 3120.34,913.568C3121.094,911.596 3121.505,910.9 3121.634,910.682C3122.047,909.982 3124.463,905.894 3129.915,904.79C3130.712,904.628 3135.367,903.686 3139.836,906.997C3140.49,907.481 3144.306,910.308 3144.838,915.844C3144.85,915.968 3144.86,916.091 3144.868,916.215C3147.439,914.765 3149.823,914.639 3150.376,914.61C3151.184,914.567 3155.897,914.318 3159.827,918.207C3163.757,922.095 3163.558,926.811 3163.524,927.619C3163.495,928.312 3163.379,928.999 3163.264,929.683C3163.238,929.837 3160.582,942.327 3158.467,951.908C3155.843,963.799 3153.462,974.286 3151.287,983.524C3151.322,983.559 3151.356,983.594 3151.391,983.629C3151.885,984.134 3154.677,986.986 3154.944,991.704C3155.182,995.91 3152.741,1001.438 3150.586,1008.528C3149.576,1011.853 3149.316,1013.437 3149.239,1014.182C3149.862,1016.116 3150.809,1020.62 3149.888,1029.171C3149.005,1037.356 3147.286,1039.79 3145.383,1041.966C3145.094,1042.296 3143.943,1043.322 3143.692,1043.491C3141.624,1044.882 3141.593,1044.845 3139.235,1045.645C3139.213,1045.653 3137.207,1046.001 3137.178,1046.002C3134.107,1046.144 3134.04,1046.25 3131.198,1045.066C3130.921,1044.951 3130.118,1044.616 3129.128,1043.958C3128.503,1044.438 3127.793,1044.887 3126.987,1045.281C3126.28,1045.627 3122.307,1047.572 3117.419,1045.874C3117.191,1046.243 3116.942,1046.596 3116.656,1046.924C3113.312,1050.766 3108.983,1051.082 3108.232,1051.136C3107.074,1051.221 3099.904,1051.744 3095.714,1043.796C3094.441,1041.379 3090.36,1032.084 3088.919,1021.855Z" style="fill:white;"/>
                    </g>
                    <g transform="matrix(1.078109,0,0,1.078109,-232.771774,-83.709164)">
                        <path d="M3158.264,927.326C3153.483,924.938 3146.833,921.48 3135.793,915.095C3124.331,908.466 3119.335,905.512 3099.841,899.151C3099.06,898.896 3094.488,897.404 3092.25,892.237C3091.923,891.483 3090.011,887.07 3092.398,881.97C3092.746,881.226 3094.785,876.869 3100.186,875.278C3102.236,874.674 3104.033,874.767 3104.37,874.785C3104.711,874.803 3105.638,874.851 3108.575,875.56C3134.083,881.722 3152.527,893.499 3159.685,897.926C3164.102,900.18 3169.279,903.085 3173.655,907.045C3176.3,908.354 3178.019,909.234 3179.3,910.168C3183.647,913.337 3187.606,919.866 3183.545,928.27C3183.44,928.487 3183.331,928.696 3183.218,928.9C3183.09,931.331 3182.657,933.934 3181.862,936.722C3180.648,940.98 3179.871,942.63 3173.713,957.263C3169.229,967.917 3162.771,982.533 3157.646,992.083C3153.998,998.882 3152.353,1001.128 3150.209,1004.211C3150.068,1004.126 3149.933,1004.046 3149.805,1003.969C3147.825,1005.939 3146.575,1008.682 3144.362,1010.405C3143.102,1011.385 3141.343,1011.58 3139.75,1011.698C3138.978,1011.756 3134.529,1012.086 3130.567,1008.637C3129.998,1008.142 3126.725,1005.292 3126.354,1000.212C3126.317,999.701 3126.127,997.09 3127.476,993.905C3129.569,988.963 3130.944,989.713 3137.79,976.05C3142.971,965.71 3147.624,954.816 3155.228,936.769C3156.724,933.22 3158.301,929.276 3158.264,927.326ZM3150.593,1003.263L3150.644,1003.28L3150.671,1003.202C3150.645,1003.222 3150.619,1003.242 3150.593,1003.263Z" style="fill:white;"/>
                    </g>
                    <g transform="matrix(1.078109,0,0,1.078109,-232.771774,-83.709164)">
                        <path d="M3036.709,938.511C3020.226,936.277 3006.321,933.275 2999.382,930.033C2994.171,927.6 2991.92,924.854 2990.502,922.206C2988.099,917.717 2989.462,913.409 2989.693,912.679C2990.175,911.155 2990.956,909.69 2991.983,908.464C2995.352,904.443 2999.759,904.09 3000.527,904.028C3003.764,903.768 3004.933,904.409 3005.268,904.592C3007.649,905.895 3008.359,906.923 3009.272,907.984C3009.397,907.767 3009.537,907.526 3009.697,907.254C3012.506,908.632 3019.487,910.396 3029.247,912.07C3030.148,910.415 3032.104,907.715 3035.871,906.311C3036.521,906.069 3037.192,905.88 3037.872,905.749C3039.57,905.422 3039.582,905.555 3041.312,905.485C3050.899,905.1 3062.024,902.651 3072.928,902.385C3087.028,902.041 3092.249,903.13 3099.611,904.629C3104.546,905.166 3109.377,906.266 3117.393,907.51C3118.884,907.742 3118.902,907.668 3120.333,908.151C3125.79,909.992 3127.625,914.56 3127.937,915.337C3127.951,915.373 3127.966,915.41 3127.98,915.446C3129.725,915.936 3133.238,917.346 3135.492,921.324C3138.318,926.311 3136.665,930.921 3136.384,931.706C3136.175,932.288 3135.936,932.827 3135.674,933.327C3136.019,935.071 3136.111,937.414 3135.187,940.008C3133.479,944.807 3129.566,946.684 3128.886,947.009C3126.201,948.297 3126.128,948.15 3123.151,948.297C3083.713,950.244 3056.677,943.474 3041.299,940.004C3040.822,939.897 3040.339,939.815 3039.868,939.684C3039.174,939.49 3038.473,939.306 3037.807,939.03C3037.624,938.954 3037.229,938.79 3036.709,938.511ZM3012.551,910.609C3012.597,910.635 3012.643,910.66 3012.69,910.686L3012.626,910.569L3012.551,910.609Z" style="fill:white;"/>
                    </g>
                    <g transform="matrix(1.078109,0,0,1.078109,-232.771774,-83.709164)">
                        <path d="M2940.944,932.535C2940.651,931.817 2940.395,931.057 2940.18,930.254C2938.768,924.982 2937.994,914.975 2939.019,889.339C2939.311,882.016 2939.816,873.602 2939.832,873.492C2940.129,871.445 2939.965,871.397 2940.756,869.484C2942.848,864.418 2947.239,862.802 2947.992,862.525C2953.136,860.632 2957.299,862.767 2958.013,863.134C2958.728,863.5 2962.89,865.635 2964.355,870.917C2964.526,871.535 2964.658,872.322 2964.76,873.315C2965.839,871.25 2966.952,869.203 2968.098,867.195C2969.287,865.11 2970.502,863.075 2971.75,861.075C2964.897,859.198 2959.965,852.191 2962.497,843.024C2963.204,840.465 2964.671,837.094 2967.425,832.386C2967.456,832.306 2967.481,832.24 2967.501,832.191C2967.634,831.856 2968.277,830.234 2969.87,828.391C2972.622,824.067 2976.272,818.813 2981.084,812.364C2990.18,800.175 3006.216,780.547 3022.516,764.522C3036.381,750.891 3045.349,744.992 3048.349,743.96C3048.646,743.858 3050.648,743.169 3052.192,743.148C3053.397,743.132 3053.907,743.14 3054.516,743.234C3062.717,737.615 3066.453,736.511 3070.785,736.844C3072.921,737.008 3074.696,737.808 3075.014,737.951C3079.913,740.157 3084.093,745.871 3082.31,753.418C3082.948,753.67 3083.385,753.903 3083.578,754.006C3084.31,754.396 3088.611,756.69 3089.882,762.25C3091.152,767.811 3088.275,771.745 3087.785,772.415C3086.78,773.789 3086.7,773.719 3085.475,774.9C3085.29,775.079 3085.105,775.257 3084.918,775.437C3089.352,777.115 3091.211,780.702 3091.554,781.365C3094.15,786.374 3092.408,790.867 3092.111,791.634C3091.989,791.948 3091.394,793.482 3089.944,795.254C3089.498,795.799 3088.205,797.303 3086.09,799.766C3087.722,801.988 3089.012,804.848 3089.07,808.443C3089.075,808.713 3089.366,810.643 3087.222,817.344C3085.951,821.314 3084.295,825.276 3082.342,829.194C3084.651,833.361 3083.733,837.317 3083.563,838.047C3083.258,839.364 3082.381,841.437 3081.507,843.323C3080.967,844.689 3080.303,846.381 3079.43,848.421C3080.271,848.973 3081.113,849.676 3081.907,850.567C3082.454,851.182 3085.598,854.715 3084.979,860.383C3084.505,864.718 3083.929,869.042 3083.405,873.372C3083.312,874.133 3082.781,878.513 3078.694,881.717C3077.436,882.703 3075.965,883.472 3074.426,883.904C3073.7,884.108 3072.998,884.238 3072.326,884.308C3071.506,885.878 3070.848,887.164 3069.886,888.859C3067.11,893.75 3064.092,894.919 3062.085,895.686C3061.634,895.858 3059.704,896.333 3058.093,896.335C3056.342,896.336 3054.432,895.954 3052.606,895.086C3051.959,894.989 3051.33,894.856 3050.725,894.691C3049.914,894.469 3047.83,893.926 3045.715,892.206C3039.153,894.314 3033.835,893.328 3029.949,890.805C3026.801,893.518 3023.879,895.926 3022.492,896.822C3018.471,899.419 3014.567,900.162 3012.31,901.136C3012.31,901.135 3012.309,901.134 3012.309,901.133L3010.847,902.123C3010.146,902.515 3006.062,904.797 3000.853,903.088C3000.258,902.893 2997.425,901.963 2995.129,899.198C2994.123,899.464 2993.38,899.614 2993.217,899.627C2990.839,899.81 2990.828,899.854 2988.476,899.451C2987.324,899.253 2985.949,898.58 2985.74,898.478C2985.28,898.252 2983.623,897.441 2982.018,895.716C2981.791,895.945 2981.578,896.144 2981.386,896.314C2979.206,901.144 2976.994,906.431 2974.668,912.332C2969.385,925.734 2968.216,930.119 2966.169,933.664C2968.166,952.79 2968.207,958.472 2968.221,958.826L2968.065,958.84C2966.905,961.691 2967.255,965.053 2965.991,967.869C2965.336,969.325 2963.871,970.321 2962.518,971.17C2961.862,971.582 2958.08,973.957 2952.963,972.762C2952.229,972.591 2948.003,971.604 2945.298,967.288C2945.024,966.85 2943.667,964.684 2943.329,961.14C2943.092,958.654 2943.463,957.116 2941.303,936.243C2941.171,934.967 2941.051,933.742 2940.944,932.535ZM2968.157,958.62L2968.197,958.614L2968.187,958.553C2968.177,958.575 2968.167,958.598 2968.157,958.62Z" style="fill:white;"/>
                    </g>
                    <g transform="matrix(1.078109,0,0,1.078109,-232.771774,-83.709164)">
                        <path d="M3099.22,887.992L3099.399,888.888C3099.202,888.925 3097.657,889.216 3096.904,889.176C3094.442,889.045 3094.426,889.07 3092.078,888.309C3090.716,887.867 3089.195,886.714 3088.967,886.541C3088.321,886.05 3084.594,883.223 3084.157,877.608C3084.132,877.287 3084.005,875.649 3084.493,873.598C3085.474,869.481 3087.787,860.313 3088.078,859.159C3092.916,839.985 3096.888,829.255 3113.724,821.788C3117.678,820.034 3121.818,818.647 3124.182,817.852C3124.91,817.608 3129.089,816.203 3133.749,818.534C3135.179,819.249 3136.504,820.249 3137.554,821.455C3138.064,822.041 3141.006,825.42 3140.624,830.664C3140.385,833.936 3139.569,834.981 3139.333,835.284C3136.37,839.079 3135.086,837.765 3132.13,841.545L3132.133,841.554C3132.128,841.556 3132.123,841.558 3132.118,841.559C3124.341,844.197 3119.946,845.914 3117.96,848.785C3115.312,852.614 3113.267,861.391 3109.496,876.642C3109.479,879.127 3108.72,880.92 3108.53,881.369C3107.911,882.832 3107.163,884.42 3105.845,885.308C3103.873,886.635 3101.434,887.107 3099.22,887.992ZM3097.353,888.906C3097.24,888.975 3097.127,889.047 3097.016,889.122L3097.359,889.112L3097.353,888.906Z" style="fill:white;"/>
                    </g>
                    <g transform="matrix(1.078109,0,0,1.078109,-232.771774,-83.709164)">
                        <path d="M2951.521,799.665C2951.893,802.863 2950.891,805.295 2950.673,805.823C2950.501,806.241 2949.459,808.769 2947.421,810.442C2947.285,810.553 2946.133,811.499 2945.668,811.762C2945.49,811.862 2944.005,812.702 2943.376,812.893C2942.866,813.048 2942.365,813.239 2941.845,813.356C2939.839,813.806 2938.289,813.677 2937.98,813.651C2937.125,813.58 2932.118,813.162 2928.663,808.335C2926.323,805.066 2926.301,801.288 2926.297,800.645C2926.258,793.951 2932.155,771.252 2944.688,758.507C2945.971,757.201 2978.875,725.614 3012.682,708.053C3036.764,695.544 3047.243,696.732 3054.687,693.894C3059.939,691.892 3064.271,688.802 3067.142,687.74C3078.939,683.377 3094.911,692.184 3111.262,697.966C3115.719,699.543 3117.746,699.884 3118.459,699.989C3118.466,699.989 3118.474,699.99 3118.482,699.992C3118.513,699.997 3118.542,700.001 3118.567,700.004L3118.565,700.02C3120.105,700.533 3121.764,700.781 3123.171,701.588C3123.824,701.963 3127.593,704.124 3128.953,709.023C3129.161,709.77 3130.358,714.077 3127.751,718.641C3127.378,719.295 3125.225,723.064 3120.316,724.423C3119.857,724.551 3117.634,725.166 3114.358,724.656C3102.43,722.8 3083.714,713.036 3075.169,711.66C3070.62,714.194 3065.856,716.645 3060.517,718.318C3054.907,720.076 3053.024,719.744 3044.152,722.081C3044.141,722.084 3044.095,722.097 3044.084,722.1C3040.313,723.162 3029.856,726.159 3012.373,737.021C2987.623,752.399 2965.862,772.898 2963.071,775.494C2962.083,776.464 2958.882,779.421 2955.245,787.994C2953.626,791.81 2952.165,796.477 2951.521,799.665ZM2930.638,792.193C2930.592,792.145 2930.547,792.097 2930.5,792.048L2930.261,792.275C2930.387,792.25 2930.513,792.223 2930.638,792.193Z" style="fill:white;"/>
                    </g>
                    <g transform="matrix(1.078109,0,0,1.078109,-232.771774,-83.709164)">
                        <path d="M3028.787,739.699C3024.235,738.282 3022.167,734.777 3021.783,734.127C3021.357,733.404 3018.848,729.152 3020.734,723.693C3022.207,719.429 3025.482,717.441 3026.062,717.089C3027.461,716.24 3027.507,716.335 3029.026,715.727C3042.72,710.245 3055.42,701.729 3070.657,697.48C3075.595,696.103 3080.019,695.246 3085.675,693.92C3101.899,690.118 3111.055,699.886 3112.348,710.186C3114.37,709.946 3116.351,709.809 3118.271,709.756C3122.044,709.652 3124.285,710.784 3124.774,710.986C3124.808,711 3125.97,711.611 3125.994,711.627C3127.516,712.669 3127.557,712.625 3128.848,713.946C3130.091,715.217 3130.862,716.865 3130.992,717.144C3131.053,717.274 3131.176,717.537 3131.321,717.914C3134.075,718.635 3137.381,720.424 3143.116,724.693C3152.265,731.504 3148.178,742.68 3147.525,744.63C3145.78,749.845 3142.358,756.556 3139.136,762.715C3139.002,764.287 3138.74,766.064 3138.349,767.928C3138.474,768.158 3138.598,768.395 3138.719,768.641C3140.233,771.689 3140.487,774.549 3140.256,776.947C3140.742,777.516 3141.277,778.184 3141.886,778.99C3142.349,779.603 3145.01,783.122 3144.271,788.29C3144.045,789.873 3143.515,791.446 3142.703,792.823C3140.033,797.352 3135.695,798.453 3134.943,798.644C3130.01,799.896 3126.268,797.694 3125.618,797.312C3123.302,795.948 3123.188,795.624 3121.832,793.908C3120.533,793.94 3119.11,793.888 3117.513,793.776C3097.612,792.381 3091.94,779.318 3095.03,768.579C3095.116,768.28 3095.206,767.982 3095.3,767.686C3091.567,767.024 3089.281,765.256 3088.224,764.383C3087.269,763.593 3086.116,762.356 3085.149,760.693C3079.561,760.333 3074.796,758.814 3071.896,756.391C3069.376,754.284 3068.522,752.416 3067.968,751.192C3062.834,752.359 3058.442,753.19 3055.95,753.31C3049.664,753.612 3045.298,751.424 3042.197,750.861C3042.197,750.855 3042.198,750.848 3042.198,750.842C3041.558,750.834 3040.915,750.931 3040.275,750.884C3039.446,750.824 3034.595,750.472 3031.178,745.86C3029.58,743.702 3028.968,741.505 3028.787,739.699Z" style="fill:white;"/>
                    </g>
                    <g transform="matrix(1.078109,0,0,1.078109,-232.771774,-83.709164)">
                        <path d="M3148.804,784.021C3144.049,777.759 3139.352,771.788 3136.088,769.912C3135.736,769.709 3130.814,767.098 3130.53,766.836C3129.319,765.719 3127.875,764.807 3126.905,763.475C3126.462,762.866 3123.907,759.358 3124.679,754.323C3125.476,749.128 3129.094,746.495 3129.722,746.039C3133.836,743.046 3138.129,743.699 3138.874,743.813C3142.318,744.337 3142.169,744.808 3145.241,746.452C3151.06,749.567 3155.356,751.378 3167.539,767.349C3171.26,772.228 3174.956,776.433 3176.112,793.184C3176.27,795.479 3176.377,798.028 3176.473,800.644C3182.774,806.46 3183.365,812.649 3185.632,815.416C3186.178,816.083 3186.833,816.708 3187.488,817.261C3187.611,817.215 3187.74,817.167 3187.876,817.118C3188.274,816.909 3188.749,816.668 3189.348,816.351C3194.12,813.827 3194.451,813.82 3198.024,811.753C3199.447,810.93 3199.405,810.842 3200.948,810.276C3201.741,809.985 3206.41,808.273 3211.458,811.162C3212.191,811.581 3216.507,814.05 3217.549,819.773C3218.591,825.495 3215.422,829.328 3214.884,829.978C3213.502,831.649 3210.084,834.205 3209.639,834.538C3209.2,834.866 3208.777,835.169 3208.365,835.451C3208.074,835.689 3207.692,835.98 3206.936,836.611C3197.857,844.186 3185.455,863.17 3169.675,864.025C3165.06,864.275 3162.762,863.039 3160.688,862.669C3154.519,861.567 3144.794,861.639 3135.058,846.06C3132.036,841.225 3131.471,839.503 3131.269,838.886C3129.509,833.513 3131.029,829.421 3132.294,827.159C3131.624,824.762 3131.15,822.21 3130.858,819.581C3130.48,816.175 3130.492,813.269 3130.772,810.789C3129.363,807.805 3128.621,804.336 3129.412,800.267C3131.115,791.504 3139.912,787.074 3142.828,785.624C3144.902,784.591 3146.914,784.119 3148.804,784.021Z" style="fill:white;"/>
                    </g>
                    <g transform="matrix(1.078109,0,0,1.078109,-232.771774,-83.709164)">
                        <path d="M3111.112,719.94C3105.513,720.578 3101.939,717.342 3101.323,716.786C3097.957,713.738 3097.425,709.916 3097.331,709.24C3096.706,704.742 3098.751,701.471 3099.113,700.892C3099.77,699.84 3099.961,699.694 3102.645,696.682C3103.124,695.497 3103.829,694.261 3104.909,693.003C3104.342,690.399 3104.445,687.133 3105.863,683.099C3108.451,675.738 3113.857,670.314 3116.958,666.643C3122.209,660.429 3123.923,657.882 3134.073,651.507C3135.155,650.828 3135.131,650.789 3136.307,650.285C3140.982,648.283 3145.023,649.841 3145.726,650.112C3146.646,650.467 3148.23,651.383 3148.442,651.505C3158.365,657.238 3159.698,658.481 3169.316,668.248C3179.798,678.893 3172.152,694.369 3166.69,703.956C3163.783,709.06 3162.953,709.993 3162.543,710.454C3162.256,710.776 3161.242,711.915 3159.532,712.925C3159.306,714.508 3158.993,715.63 3158.93,715.882C3158.338,718.258 3157.808,719.312 3157.667,719.592C3157.294,720.334 3155.102,724.691 3149.568,726.092C3149.335,726.151 3148.774,726.293 3147.98,726.386C3147.718,726.827 3147.421,727.301 3147.074,727.815C3143.483,733.156 3138.519,735.87 3134.083,737.686C3131.637,738.688 3131.608,738.718 3128.966,738.69C3128.213,738.683 3123.873,738.637 3120.296,735.011C3119.75,734.458 3116.603,731.269 3116.658,726.011C3116.664,725.51 3116.698,725.029 3116.757,724.568C3115.317,723.973 3114.381,723.28 3114.087,723.063C3112.784,722.098 3111.822,721.012 3111.112,719.94Z" style="fill:white;"/>
                    </g>
                    <g transform="matrix(1.078109,0,0,1.078109,-232.771774,-83.709164)">
                        <path d="M3197.384,846.149C3197.236,846.322 3197.091,846.478 3197.016,846.526C3195.921,847.222 3194.571,845.939 3195.299,844.787C3196.726,842.528 3198.01,840.689 3199.09,839.238C3199.017,839.237 3198.946,839.229 3198.872,839.218C3198.385,839.145 3197.379,838.557 3197.943,837.179C3199.934,832.322 3200.774,832.2 3204.184,829.46C3204.199,829.448 3204.976,828.596 3205.862,829.019C3205.875,829.025 3205.898,829.036 3205.929,829.053C3206.887,827.978 3207.556,827.22 3207.611,827.168C3207.671,827.111 3207.732,827.061 3207.793,827.016C3208.329,826.041 3208.794,825.112 3209.164,824.247C3209.218,824.121 3209.205,823.937 3209.324,823.867C3209.832,823.569 3210.45,823.493 3210.958,823.195C3211.102,823.766 3211.487,824.259 3211.631,824.83C3211.656,824.93 3210.898,826.476 3210.829,826.617C3210.619,827.045 3210.365,827.538 3210.051,828.111C3210.726,828.399 3211.155,829.263 3210.582,830.031C3210.491,830.153 3206.707,834.95 3201.251,842.632C3201.22,842.676 3201.047,842.919 3200.866,843.156C3200.846,843.189 3200.827,843.22 3200.81,843.249L3200.799,843.242C3200.662,843.418 3200.529,843.575 3200.459,843.624C3200.066,843.902 3199.631,843.909 3199.27,843.751C3198.816,844.34 3198.344,844.946 3197.855,845.571C3197.821,845.615 3197.63,845.859 3197.433,846.092C3197.419,846.113 3197.405,846.134 3197.392,846.155L3197.384,846.149Z" style="fill:white;"/>
                    </g>
                    <g transform="matrix(1.078109,0,0,1.078109,-230.566562,-82.163966)">
                        <path d="M3126.917,1024.137C3125.363,1020.789 3122.477,1016.662 3122.407,1016.488C3122.017,1015.518 3121.434,1014.605 3121.238,1013.578C3121.148,1013.108 3120.63,1010.401 3122.432,1007.718C3122.442,1007.703 3122.453,1007.687 3122.466,1007.668C3122.708,1007.197 3123.024,1006.752 3123.331,1006.336C3125.313,1003.649 3128.128,1003.236 3128.616,1003.165C3131.816,1002.696 3134.034,1004.331 3134.419,1004.615C3134.935,1004.996 3136.572,1006.204 3138.876,1011.281C3139.678,1013.05 3139.69,1013.299 3141.508,1017.856C3141.898,1018.717 3142.197,1019.471 3142.433,1020.146C3142.977,1021.701 3142.963,1022.862 3142.96,1023.102C3142.916,1026.728 3140.549,1028.729 3140.146,1029.069C3137.375,1031.41 3134.314,1030.929 3133.792,1030.848C3133.271,1030.766 3130.209,1030.285 3128.289,1027.208C3127.823,1026.46 3127.708,1026.178 3126.917,1024.137Z" style="fill:white;"/>
                    </g>
                </g>
                <g>
                    <g transform="matrix(-0.864233,-0.503091,-0.503091,0.864233,674.726279,1506.733388)">
                        <path d="M-4.61,1.244C-1.578,1.303 -0.065,1.261 0.336,1.244" style="fill:none;fill-rule:nonzero;stroke:black;stroke-width:6.69px;"/>
                    </g>
                    <g transform="matrix(1,0,0,1,673.8102,1543.2045)">
                        <path d="M0,-35.565C4.274,-33.077 11.994,-27.325 14.542,-17.135C16.255,-10.281 14.767,-1.352 14.542,0" style="fill:none;fill-rule:nonzero;stroke:black;stroke-width:6.69px;"/>
                    </g>
                    <g transform="matrix(0.749596,-0.661896,-0.661896,-0.749596,233.813934,1453.131008)">
                        <path d="M-1.283,3.393C4.95,3.253 8.122,3.354 8.967,3.393" style="fill:none;fill-rule:nonzero;stroke:black;stroke-width:6.69px;"/>
                    </g>
                    <g transform="matrix(1,0,0,1,238.2908,1541.643)">
                        <path d="M0,-96.991C-2.012,-94.967 -21.565,-74.518 -26.145,-46.729C-29.225,-28.037 -26.55,-3.687 -26.145,0" style="fill:none;fill-rule:nonzero;stroke:black;stroke-width:6.69px;"/>
                    </g>
                    <g transform="matrix(1,0,0,1,536.5747,1549.4651)">
                        <path d="M0,-77.956C-24.777,-63.98 -23.047,-9.044 -23.364,-5.88C-23.951,0 0.309,-5.238 5.563,-3.596" style="fill:none;fill-rule:nonzero;stroke:black;stroke-width:6.69px;"/>
                    </g>
                    <g transform="matrix(1,0,0,1,282.7324,1541.5952)">
                        <path d="M0,-98.482C28.701,-80.113 26.121,-6.617 27.064,-3.754C28.3,0 -52.443,-12.869 -69.523,-0.821" style="fill:none;fill-rule:nonzero;stroke:black;stroke-width:6.69px;"/>
                    </g>
                    <g transform="matrix(1,0,0,1,533.5623,1554.7532)">
                        <path d="M0,-84.703C5.699,-72.433 25.918,-81.067 35.229,-80.087C44.742,-79.086 103.618,0 123.567,-16.88C124.738,-17.871 143.173,-38.958 144.128,-40.868" style="fill:none;fill-rule:nonzero;stroke:black;stroke-width:6.69px;"/>
                    </g>
                    <g transform="matrix(-0.992766,0.120061,0.120061,0.992766,237.204456,1460.27603)">
                        <path d="M-50.954,-13.057C-40.961,1.979 -13.739,-12.744 -0.421,-13.057" style="fill:none;fill-rule:nonzero;stroke:black;stroke-width:6.69px;"/>
                    </g>
                    <g transform="matrix(-0.9694,-0.245487,-0.245487,0.9694,303.251256,1502.028017)">
                        <path d="M-20.232,-11.862C-16.325,5.764 -10.374,-16.367 2.164,-11.862" style="fill:none;fill-rule:nonzero;stroke:black;stroke-width:6.69px;"/>
                    </g>
                    <g transform="matrix(1,0,0,1,666.9789,1076.2195)">
                        <path d="M0,445.257C-1.628,430.849 9.221,389.322 3.135,376.433C-2.262,365.004 -1.139,357.083 6.063,345.09C25.06,313.456 39.816,277.221 57.333,243.424C68.152,222.55 83.399,193.22 92.333,171.424C99.571,153.766 102.825,131.33 98,112.09C92.33,89.483 64.236,70.728 45.134,59.09C2.07,32.853 -61.667,22.757 -108.465,4.09C-115.658,1.221 -121.476,0.996 -129.156,0" style="fill:none;fill-rule:nonzero;stroke:black;stroke-width:6.69px;"/>
                    </g>
                    <g transform="matrix(-0.956265,-0.292501,-0.319351,1.044046,468.236874,1479.657569)">
                        <path d="M-15.381,-213.779C-15.381,-213.779 -14.036,-183.538 -19.451,-111.526C-20.405,-98.823 -16.897,-86.474 -15.381,-73.967C-13.618,-59.426 -16.711,-47.566 -21.988,-34.039C-26.856,-21.557 -41.438,-2.367 -51.628,6.814" style="fill:none;fill-rule:nonzero;stroke:black;stroke-width:6.39px;"/>
                    </g>
                    <g transform="matrix(0.92855,-0.371208,-0.371208,-0.92855,251.993266,1473.81756)">
                        <path d="M-54.489,-7.639C-68.505,-19.916 -85.843,9.496 -89.283,22.321C-92.768,35.311 -77.713,78.277 -66.771,134.218C-55.811,190.25 -61.371,264.244 -40.536,301.306" style="fill:none;fill-rule:nonzero;stroke:black;stroke-width:6.69px;"/>
                    </g>
                    <g transform="matrix(2.67567,0,0,2.67567,-7758.050222,-1267.356964)">
                        <path d="M3140.584,942.411C3135.478,943.839 3134.407,945.233 3122.381,946.106C3096.785,947.965 3043.243,943.674 3038.862,940.947C3038.117,940.483 3038.199,939.677 3027.87,938.182C3010.946,935.731 2981.551,933.427 2966.36,926.025C2963.925,924.838 2962.547,924.975 2962.178,923.471C2961.911,922.382 2962.977,921.346 2963.053,921.265C2963.113,921.202 2963.148,921.087 2963.234,921.078C2964.118,920.987 2964.12,921.155 2965.002,921.064C2964.948,921.633 2964.988,922.208 2964.948,922.777C2965.684,923.065 2965.998,923.066 2967.458,923.779C2987.297,933.47 3033.536,934.247 3039.781,938.499C3039.97,938.628 3040.124,938.763 3040.198,938.831C3047.396,941.732 3118.091,947.198 3134.612,941.705C3141.406,939.445 3141.48,939.577 3141.911,939.722C3142.485,939.915 3142.988,940.615 3142.676,941.441C3142.54,941.8 3142.545,941.799 3142.416,942.154C3142.415,942.157 3142.415,942.159 3142.414,942.161L3142.407,942.159L3140.835,942.945C3140.767,942.76 3140.679,942.584 3140.584,942.411ZM3039.952,939.157C3039.926,939.183 3039.905,939.212 3039.891,939.246L3039.952,939.157Z"/>
                    </g>
                    <g transform="matrix(2.67567,0,0,2.67567,-7758.050222,-1267.356964)">
                        <path d="M3002.547,945.608C3003.022,944.134 3005.139,937.846 3004.662,934.39C3004.468,932.987 3006.264,932.383 3006.976,933.552C3007.106,933.766 3007.152,933.912 3007.139,934.058C3007.461,936.364 3007.003,940.075 3004.921,946.393C3004.62,947.305 3004.192,946.759 3003.338,947.189L3002.547,945.608Z"/>
                    </g>
                    <g transform="matrix(2.67567,0,0,2.67567,-7758.050222,-1267.356964)">
                        <path d="M2989.232,938.939C2989.038,938.934 2988.845,938.927 2988.651,938.911C2988.635,938.91 2988.364,938.584 2988.299,938.321C2988.067,937.386 2988.843,936.215 2990.329,936.931C2990.433,936.981 2996.989,940.515 2998.9,941.902C3013.611,952.58 3008.44,978.634 3017.651,1006.437C3024.23,1026.295 3024.046,1031.406 3022.496,1034.623C3022.463,1034.691 3022.464,1034.798 3022.394,1034.828C3021.579,1035.181 3021.531,1035.04 3020.718,1035.392C3020.609,1034.812 3020.264,1034.295 3020.155,1033.715C3020.075,1033.286 3021.845,1032.809 3020.183,1024.504C3018.425,1015.724 3015.162,1007.727 3013.244,1000.322C3006.529,974.4 3010.127,951.065 2995.749,942.84C2990.242,939.689 2989.796,939.463 2989.163,939.146C2989.188,939.072 2989.21,939.003 2989.232,938.939Z"/>
                    </g>
                    <g transform="matrix(2.67567,0,0,2.67567,-7758.050222,-1267.356964)">
                        <path d="M2942.339,924.249L2942.893,925.909C2941.697,926.293 2941.622,926.823 2940.756,926.187C2939.027,924.916 2936.2,920.503 2935.209,898.029C2935.021,893.78 2934.71,881.021 2935.522,877.588C2937.494,869.247 2932.383,869.884 2932.868,867.083C2932.884,866.989 2932.966,866.519 2933.418,866.026C2933.452,865.988 2933.472,865.919 2933.523,865.915C2934.406,865.851 2934.406,865.955 2935.291,865.89C2935.283,866.313 2935.289,866.735 2935.29,867.157C2936.359,868.407 2939.69,870.586 2938.009,877.931C2937.79,878.886 2937.406,880.564 2937.504,890.166C2937.678,907.243 2939.542,922.46 2942.345,924.238L2942.339,924.249Z"/>
                    </g>
                    <g transform="matrix(2.67567,0,0,2.67567,-7758.050222,-1267.356964)">
                        <path d="M3099.951,876.774C3103.437,883.73 3104.414,886.246 3097.262,891.092C3087.544,897.677 3086.931,898.12 3078.599,899.876C3075.062,900.621 3051.608,906.627 2987.935,896.714C2970.095,893.937 2946.299,889.136 2941.994,886.507C2938.101,884.129 2935.717,878.258 2937.466,876.664C2937.553,876.584 2937.648,876.517 2937.75,876.457C2937.876,876.383 2937.876,876.495 2939.498,876.978L2938.52,877.815C2938.879,878.12 2938.913,878.058 2939.372,878.171C2939.38,879.696 2940.99,883.523 2944.253,884.851C2955.761,889.535 3037.795,905.495 3076.201,897.812C3086.713,895.71 3086.644,895.193 3095.552,889.229C3100.833,885.694 3100.817,884.533 3099.001,880.533C3098.704,879.881 3097.617,877.698 3097.413,877.289C3097.414,877.289 3097.415,877.289 3097.415,877.289C3097.414,877.288 3097.413,877.287 3097.412,877.287C3097.404,877.27 3097.397,877.257 3097.392,877.247C3097.387,877.237 3097.392,877.264 3097.4,877.279C3097.22,877.168 3096.008,876.493 3096.474,875.394C3096.896,874.4 3098.197,874.541 3098.577,874.698C3099.431,875.051 3099.54,875.713 3099.599,876.074C3099.609,876.093 3099.619,876.111 3099.628,876.13C3099.723,876.319 3099.817,876.505 3099.908,876.687L3100.043,876.689C3100.011,876.717 3099.981,876.746 3099.951,876.774ZM3097.4,877.279C3097.405,877.282 3097.409,877.284 3097.412,877.287C3097.412,877.287 3097.413,877.288 3097.413,877.289C3097.409,877.292 3097.404,877.287 3097.4,877.279Z"/>
                    </g>
                    <g transform="matrix(2.67567,0,0,2.67567,-7758.050222,-1267.356964)">
                        <path d="M2941.803,869.671C2941.515,869.98 2941.267,870.336 2940.925,870.583C2940.925,870.583 2939.015,870.588 2938.003,870.513C2937.736,870.493 2936.274,870.501 2936.074,869.315C2935.871,868.107 2937.204,867.778 2937.363,867.739C2942.603,866.448 2999.727,863.128 3017.755,868.829C3022.966,870.476 3066.839,879.933 3084.332,877.493C3089.545,876.766 3089.546,876.816 3094.772,876.219C3102.703,875.312 3105.269,874.234 3109.512,863.499C3112.531,855.862 3113.1,856.054 3115.122,848.091C3116.19,843.882 3122.441,841.449 3124.632,840.643C3124.727,840.608 3125.267,840.422 3125.269,840.423C3125.819,840.634 3126.304,840.997 3126.854,841.208C3126.546,841.711 3126.375,842.289 3126.067,842.792C3126.048,842.824 3119.643,844.771 3117.828,847.989C3117.157,849.179 3117.193,851.882 3114.413,858.261C3110.892,866.343 3110.798,867.516 3108.82,870.923C3103.92,879.366 3098.804,877.865 3085.116,879.905C3083.852,880.093 3071.704,882.532 3030.922,874.391C3020.425,872.295 3018.096,871.559 3017.008,871.214C3001.804,866.404 2956.255,868.249 2941.803,869.671Z"/>
                    </g>
                    <g transform="matrix(2.67567,0,0,2.67567,-7758.050222,-1267.356964)">
                        <path d="M2939.506,871.502L2939.496,871.679C2938.908,871.603 2938.308,871.644 2937.72,871.568C2937.7,871.566 2936.249,869.676 2939.469,868.893C2946.406,867.205 2964.971,870.076 2965.908,870.155C2973.301,870.785 2981.155,871.061 2992.542,873.544C3009.391,877.22 3048.427,886.599 3071.236,879.365C3071.925,879.147 3071.899,878.999 3080.246,877.793C3080.752,877.72 3080.751,877.695 3080.79,877.715C3081.587,878.113 3081.407,878.374 3082.207,878.774C3081.775,879.176 3081.577,879.788 3081.145,880.189C3081.145,880.19 3080.069,880.342 3078.293,880.605C3072.317,881.491 3072.345,881.636 3071.996,881.747C3045.457,890.163 2999.25,877.049 2986.132,874.829C2976.658,873.227 2966.658,872.811 2964.911,872.566C2962.628,872.246 2954.017,870.999 2946.865,870.876C2941.439,870.782 2940.074,871.282 2939.506,871.502ZM2939.59,869.994L2939.631,869.962L2939.595,869.914L2939.59,869.994Z"/>
                    </g>
                    <g transform="matrix(2.67567,0,0,2.67567,-7758.050222,-1267.356964)">
                        <path d="M2979.893,782.035L2980.28,782.116C2980.046,782.657 2979.95,783.251 2979.716,783.792C2979.716,783.792 2979.334,783.991 2979.09,784.071C2978.234,784.353 2976.849,783.89 2977.309,782.048C2983.804,756.021 2986.33,756.687 3002.455,735.252C3003.3,734.128 3005.164,735.091 3004.601,736.5C3003.66,738.853 3001.216,743.677 2999.518,746.996C2999.614,747.29 2999.714,747.584 2999.698,747.886C2999.698,747.89 2998.466,749.732 2998.059,750.291C2997.803,750.643 2997.364,751.365 2996.595,751.36C2996.068,751.356 2994.857,750.838 2995.538,749.303C2995.84,748.624 2996.328,747.691 2996.961,746.486C2992.183,752.598 2989.565,755.891 2987.297,760.17C2984.735,765.006 2982.745,770.658 2979.893,782.035Z"/>
                    </g>
                    <g transform="matrix(2.67567,0,0,2.67567,-7758.050222,-1267.356964)">
                        <path d="M2937.255,869.216C2937.297,869.211 2937.181,869.257 2937.144,869.277C2937.223,869.272 2937.237,869.203 2937.279,869.268C2937.341,869.365 2937.451,869.413 2937.546,869.468L2936.972,870.563L2938.085,871.135C2937.515,871.285 2936.977,871.542 2936.407,871.693C2936.4,871.695 2935.994,871.482 2935.719,871.24C2934.755,870.391 2934.736,869.693 2934.634,867.193C2933.619,842.303 2944.054,827.829 2952.156,815.84C2968.349,791.882 2969.322,791.735 2971.953,789.053C2984.476,776.284 2983.434,774.695 2993.744,757.109C2994.228,756.284 2994.532,756.903 2995.457,756.663C2995.446,757.252 2995.911,757.785 2995.901,758.374C2995.897,758.57 2995.668,758.465 2989.781,769.224C2984.674,778.557 2982.827,781.686 2971.735,792.825C2968.081,796.494 2950.661,822.252 2947.383,827.705C2937.512,844.126 2936.55,857.691 2937.255,869.216Z"/>
                    </g>
                    <g transform="matrix(2.67567,0,0,2.67567,-7758.050222,-1267.356964)">
                        <path d="M2939.659,844.951L2939.645,844.969C2939.046,844.596 2934.117,842.153 2932.876,846.138C2932.698,846.71 2931.433,850.118 2935.508,861.18C2936.041,862.628 2937.841,866.869 2937.814,866.93C2937.576,867.469 2937.334,868.007 2937.096,868.546C2936.628,868.188 2935.949,868.186 2935.481,867.829C2935.463,867.815 2935.231,867.106 2934.154,864.529C2933.381,862.681 2929.746,853.765 2930.076,847.848C2930.538,839.559 2938.091,840.993 2940.977,842.852C2941.08,842.918 2941.179,842.992 2941.271,843.072C2941.295,843.092 2941.338,843.104 2941.34,843.135C2941.399,844.02 2941.334,844.019 2941.393,844.902L2939.659,844.951Z"/>
                    </g>
                    <g transform="matrix(2.67567,0,0,2.67567,-7758.050222,-1267.356964)">
                        <path d="M2931.549,842.843C2931.945,842.841 2932.341,842.837 2932.736,842.841C2932.714,843.824 2933.433,843.997 2932.695,844.648C2931.686,845.541 2930.159,845.595 2924.651,840.206C2923.765,839.339 2922.598,838.778 2923.627,828.685C2925.075,814.483 2929.383,794.308 2930.543,787.403C2933.975,766.978 2932.748,761.916 2960.045,742.172C2991.102,719.709 3020.357,703.181 3023.639,701.532C3044.567,691.018 3050.371,700.998 3062.974,688.768C3063.191,688.557 3063.405,688.343 3063.622,688.132C3063.623,688.131 3063.624,688.13 3063.625,688.129L3063.628,688.132L3065.39,688.132C3065.296,688.714 3065.483,689.318 3065.39,689.9C3065.388,689.911 3064.198,691.08 3063.36,691.808C3049.82,703.582 3043.79,693.024 3022.189,705.141C3004.383,715.13 2975.776,733.432 2957.215,747.355C2932.712,765.735 2936.624,770.169 2931.8,794.423C2927.153,817.79 2924.813,835.076 2926.049,838.064C2926.05,838.066 2926.051,838.068 2926.051,838.07C2926.052,838.073 2926.053,838.075 2926.054,838.077C2926.586,838.601 2930.005,841.958 2931.48,842.56C2931.507,842.571 2931.553,842.562 2931.563,842.59C2931.583,842.643 2931.534,842.707 2931.554,842.761L2931.572,842.669C2931.564,842.735 2931.556,842.792 2931.549,842.843ZM2931.007,842.842C2931.001,842.835 2930.994,842.829 2930.988,842.823C2930.982,842.816 2930.96,842.841 2930.969,842.841C2930.981,842.841 2930.994,842.842 2931.007,842.842Z"/>
                    </g>
                    <g transform="matrix(2.67567,0,0,2.67567,-7758.050222,-1267.356964)">
                        <path d="M3149.015,745.91C3149.148,745.955 3148.977,746.025 3148.493,747.67C3147.949,747.445 3147.361,747.336 3146.816,747.11C3146.811,747.108 3146.569,746.648 3146.528,746.174C3146.337,743.972 3149.053,738.534 3149.202,737.356C3150.085,730.373 3129.641,717.294 3119.316,708.508C3117.254,706.753 3100.945,692.032 3072.547,688.83C3068.776,688.405 3066.067,688.356 3066.055,688.347C3065.59,687.985 3065.321,687.41 3064.856,687.048C3065.503,686.741 3066.004,686.176 3066.652,685.869C3066.671,685.859 3070.158,686.011 3073.49,686.423C3103.571,690.14 3119.229,705.268 3123.121,708.42C3135.26,718.252 3154.644,730.54 3151.374,738.919C3150.594,740.916 3149.084,744.59 3149.015,745.91ZM3148.934,745.94L3148.895,745.947C3148.908,745.952 3148.921,745.947 3148.934,745.94Z"/>
                    </g>
                    <g transform="matrix(2.67567,0,0,2.67567,-7758.050222,-1267.356964)">
                        <path d="M3114.679,821.595C3113.833,825.556 3116.276,840.159 3119.327,846.366C3119.389,846.492 3119.286,846.487 3118.766,848.04C3118.225,847.806 3117.63,847.714 3117.089,847.48C3117.004,847.443 3115.192,843.597 3113.743,836.89C3113.317,834.92 3110.598,822.109 3112.963,819.391C3113.556,818.71 3114.827,818.178 3116.308,819.674C3116.451,819.819 3117.056,820.001 3121.482,828.056C3128.498,840.827 3127.47,843.033 3139.703,852.291C3141.37,853.409 3158.416,862.498 3161.085,863.92C3168.308,864.578 3173.131,865.25 3177.18,863.734C3181.546,862.099 3186.691,857.058 3189.174,855.375C3196.16,850.64 3219.123,836.081 3208.768,823.581C3206.019,820.263 3201.755,818.02 3199.793,817.032C3198.5,816.38 3191.227,816.018 3187.893,816.555L3188.092,817.019C3187.531,817.2 3187.027,817.535 3186.466,817.715C3186.465,817.716 3185.943,817.513 3185.593,817.26C3184.65,816.578 3184.228,814.857 3186.639,814.248C3189.426,813.544 3198.556,813.616 3200.92,814.8C3219.358,824.031 3218.876,837.815 3195.237,854.278C3190.87,857.32 3190.771,857.181 3189.1,858.568C3177.648,868.07 3176.172,867.872 3160.606,866.386C3160.238,866.351 3159.552,865.938 3159.239,865.771C3157.559,864.875 3139.961,855.492 3138.333,854.385C3138.19,854.288 3133.344,850.719 3130.406,847.65C3124.276,841.246 3124.478,837.728 3115.855,823.269C3115.334,822.396 3114.949,821.892 3114.679,821.595Z"/>
                    </g>
                    <g transform="matrix(2.67567,0,0,2.67567,-7758.050222,-1267.356964)">
                        <path d="M3187.012,817.464L3186.666,819.193C3185.729,819.004 3185.459,819.643 3184.929,818.842C3167.313,792.193 3172.659,772.33 3151.843,751.59C3136.763,736.564 3116.876,736.526 3108.992,734.486C3083.635,727.925 3082.153,697.083 3066.653,698.836C3066.528,698.85 3066.403,698.868 3066.278,698.884C3066.138,698.902 3066.175,698.807 3064.867,697.823C3065.26,697.384 3065.536,696.848 3065.929,696.409C3065.987,696.344 3067.151,696.285 3067.258,696.279C3084.088,695.428 3085.659,725.51 3109.044,731.911C3115.688,733.73 3126.956,733.706 3139.999,740.12C3149.362,744.724 3155.182,751.03 3159.204,756.119C3173.73,774.499 3171.941,794.281 3186.228,816.264C3186.488,816.664 3186.753,817.06 3187.013,817.46C3187.013,817.461 3187.014,817.462 3187.014,817.463L3187.012,817.464Z"/>
                    </g>
                    <g transform="matrix(2.67567,0,0,2.67567,-7758.050222,-1267.356964)">
                        <path d="M3142.238,745.097C3139.716,742.55 3118.246,741.747 3107.527,738.436C3082.596,730.735 3075.818,709.05 3069.087,701.618C3067.05,699.369 3065.742,699.218 3065.709,699.152C3065.447,698.624 3065.181,698.098 3064.919,697.571C3066.331,696.873 3066.299,696.709 3066.512,696.784C3076.432,700.292 3078.946,723.134 3102.537,733.873C3110.925,737.691 3118.811,738.239 3132.024,740.072C3140.724,741.279 3144.562,742.354 3144.705,744.816C3144.707,744.862 3144.74,744.919 3144.709,744.953C3144.117,745.614 3144.051,745.545 3143.459,746.204L3142.568,744.954C3142.443,744.994 3142.36,745.036 3142.238,745.097Z"/>
                    </g>
                    <g transform="matrix(2.67567,0,0,2.67567,-7758.050222,-1267.356964)">
                        <path d="M3097.06,683.659C3102.119,683.527 3110.149,684.823 3122.093,692.015C3126.436,694.63 3130.782,697.914 3130.783,697.924L3131.034,699.675C3130.447,699.631 3129.872,699.969 3129.285,699.925C3129.04,699.907 3108.991,683.382 3093.453,686.547C3092.953,686.648 3091.804,687.076 3091.2,686.251C3090.877,685.81 3090.82,685.04 3091.436,684.529C3096.156,680.617 3102.17,678.593 3106.189,675.131C3109.834,671.992 3110.608,669.403 3113.143,666.226C3121.062,656.302 3139.387,645.197 3144.897,649.423C3144.931,649.449 3145.3,649.732 3145.302,649.774C3145.332,650.363 3145.273,650.953 3145.302,651.542C3144.715,651.525 3144.127,651.564 3143.54,651.548C3143.539,651.548 3142.582,650.221 3137.99,651.652C3131.185,653.772 3118.543,661.734 3113.068,670.707C3108.222,678.651 3102.865,680.15 3097.06,683.659Z"/>
                    </g>
                    <g transform="matrix(2.67567,0,0,2.67567,-7758.050222,-1267.356964)">
                        <path d="M3178.837,713.806C3174.411,707.156 3173.056,705.11 3172.39,704.202C3167.564,697.621 3169.063,696.218 3172.035,689.169C3173.233,686.328 3178.977,673.378 3159.567,659.359C3152.418,654.195 3144.907,651.198 3143.307,650.94C3143.168,650.917 3143.227,650.839 3142.217,649.561C3142.7,649.223 3143.115,648.795 3143.598,648.457C3143.973,648.194 3159.685,653.569 3169.674,665.155C3179.273,676.289 3175.671,686.344 3175.211,687.797C3173.741,692.441 3171.084,695.73 3171.996,698.616C3172.55,700.371 3173.756,701.667 3175.925,704.925C3182.819,715.281 3182.834,715.271 3182.913,715.45C3183.328,716.396 3182.445,717.442 3181.422,717.153C3169.345,713.749 3169.406,713.482 3154.451,710.511C3150.027,709.633 3143.289,708.723 3137.689,704.957C3134.534,702.835 3135.004,701.9 3131.74,701.239C3131.173,701.124 3128.751,700.916 3128.88,699.126C3128.927,698.465 3129.327,697.888 3129.975,697.218C3130.019,697.173 3130.045,697.087 3130.109,697.083C3130.992,697.019 3130.991,697.146 3131.877,697.082L3131.877,698.715C3133.226,698.996 3135.06,699.364 3136.58,700.828C3136.654,700.899 3140.001,704.721 3148.23,706.7C3150.6,707.27 3159.805,708.906 3166.679,710.524C3170.222,711.357 3175.246,712.774 3178.837,713.806Z"/>
                    </g>
                    <g transform="matrix(2.67567,0,0,2.67567,-7758.050222,-1267.356964)">
                        <path d="M3109.503,678.28C3109.502,678.317 3109.502,678.354 3109.502,678.392C3108.913,678.365 3108.322,678.419 3107.733,678.392C3107.574,678.384 3106.647,676.953 3107.872,676.11C3107.946,676.059 3108.72,674.839 3118.278,677.489C3127.571,680.067 3132.674,683.27 3133.815,683.987C3138.952,687.213 3139.37,689.264 3140.968,690.771C3148.389,697.773 3168.363,697.051 3170.619,697.885C3171.662,698.271 3171.801,699.318 3171.339,699.957C3171.307,700.002 3171.289,700.08 3171.234,700.086C3170.485,700.171 3170.369,700.099 3169.812,700.136C3169.8,700.168 3169.787,700.202 3169.774,700.237C3165.531,699.514 3144.12,700.022 3137.718,690.805C3137.702,690.783 3135.146,685.669 3121.113,680.977C3116.453,679.419 3111.613,678.328 3109.503,678.28ZM3109.476,676.678C3109.489,676.666 3109.503,676.654 3109.517,676.642C3109.486,676.606 3109.476,676.603 3109.476,676.678Z"/>
                    </g>
                    <g transform="matrix(2.67567,0,0,2.67567,-7758.050222,-1267.356964)">
                        <path d="M3146.104,668.95C3146.612,668.504 3147.621,667.793 3148.546,668.179C3151.27,669.313 3148.545,675.442 3146.8,677.122C3144.597,679.243 3142.304,677.927 3141.396,674.516C3140.393,670.746 3143.656,668.971 3146.104,668.95ZM3146.823,671.04C3146.805,671.081 3146.767,671.176 3146.621,671.509C3146.042,671.399 3142.793,671.391 3143.989,674.426C3144.342,675.322 3144.587,675.559 3144.671,675.625C3144.677,675.622 3144.683,675.619 3144.69,675.616C3145.489,675.233 3146.762,672.831 3147.107,671.04L3146.823,671.04Z"/>
                    </g>
                    <g transform="matrix(2.67567,0,0,2.67567,-7758.050222,-1267.356964)">
                        <path d="M3160.446,674.871C3161.189,674.683 3162.428,674.656 3163.034,676.061C3163.494,677.125 3163.157,678.239 3162.797,679.14C3161.69,681.906 3159.551,681.345 3157.178,681.317C3157.152,681.317 3156.277,681.431 3155.834,680.742C3155.722,680.569 3155.517,680.251 3155.561,678.185C3155.562,678.147 3155.41,674.076 3158.112,673.977C3158.359,673.968 3159.231,673.935 3160.446,674.871ZM3160.625,677.752C3160.334,677.726 3160.042,677.7 3159.752,677.66C3159.747,677.659 3159.367,677.191 3158.775,676.767L3158.708,676.721C3158.682,676.704 3158.469,676.561 3158.328,676.497C3158.07,677.063 3158.041,678.053 3158.065,678.841C3159.309,678.878 3159.878,678.921 3160.117,678.782C3160.295,678.678 3160.491,678.168 3160.625,677.752Z"/>
                    </g>
                    <g transform="matrix(2.67567,0,0,2.67567,-7758.050222,-1267.356964)">
                        <path d="M3104.54,696.742L3102.81,697.088C3102.784,696.499 3102.489,695.943 3102.463,695.355C3102.455,695.161 3105.02,692.055 3105.571,690.83C3106.18,689.474 3106.397,687.264 3106.422,687.239C3106.836,686.82 3107.422,686.599 3107.836,686.18C3108.112,686.701 3108.619,687.075 3108.896,687.595C3108.899,687.6 3108.721,688.79 3108.581,689.459C3107.915,692.625 3107.329,692.693 3104.543,696.741C3104.543,696.742 3104.543,696.743 3104.542,696.743L3104.54,696.742Z"/>
                    </g>
                    <g transform="matrix(2.67567,0,0,2.67567,-7758.050222,-1267.356964)">
                        <path d="M3135.244,703.791L3136.032,702.214C3136.531,702.527 3137.114,702.692 3137.613,703.005C3137.613,703.005 3137.822,703.621 3137.976,704.249C3139.309,709.672 3136.099,713.025 3126.732,708.36C3121.626,705.818 3119.295,703.373 3117.23,702.232C3112.108,699.401 3104.071,699.095 3107.35,688.87C3107.377,688.786 3107.358,688.667 3107.432,688.62C3108.184,688.15 3108.26,688.301 3109.013,687.83C3109.23,688.377 3109.588,688.861 3109.804,689.409C3109.869,689.571 3107.992,693.556 3110.044,695.799C3111.98,697.914 3116.876,698.554 3120.445,701.353C3128.677,707.811 3134.694,708.897 3135.532,707.563C3136.191,706.514 3135.327,704.068 3135.241,703.796C3135.241,703.794 3135.24,703.793 3135.24,703.792L3135.244,703.791Z"/>
                    </g>
                    <g transform="matrix(2.67567,0,0,2.67567,-7758.050222,-1267.356964)">
                        <path d="M3142.753,723.714L3142.703,724.782C3141.377,724.647 3140.866,725.225 3140.576,723.99C3140.204,722.402 3143.303,719.524 3141.985,715.397C3141.912,715.169 3139.396,708.466 3142.659,707.228C3144.041,706.704 3144.931,707.834 3144.897,707.955C3144.737,708.522 3144.498,709.065 3144.338,709.632L3143.59,708.614C3143.238,709.049 3143.361,709.211 3143.644,709.505C3142.98,710.899 3144.388,714.5 3144.605,715.538C3145.433,719.491 3143.492,722.439 3143.034,723.756L3142.753,723.714Z"/>
                    </g>
                    <g transform="matrix(2.67567,0,0,2.67567,-7758.050222,-1267.356964)">
                        <path d="M3150.736,730.05L3150.736,731.773C3150.148,731.736 3149.556,731.811 3148.968,731.773C3148.968,731.773 3148.538,731.353 3148.284,730.96C3147.117,729.153 3148.992,728.134 3149.209,728.016C3152.085,726.452 3154.546,726.346 3158.707,716.752C3159.721,714.413 3160.212,712.988 3160.459,712.144C3160.377,711.923 3160.299,711.7 3160.242,711.47C3160.242,711.47 3160.539,710.865 3160.764,710.556C3161.637,709.359 3163.501,709.89 3163.137,711.767C3162.957,712.693 3159.74,723.021 3155.076,727.299C3153.374,728.86 3151.894,729.467 3150.736,730.05Z"/>
                    </g>
                    <g transform="matrix(2.67567,0,0,2.67567,-7758.050222,-1267.356964)">
                        <path d="M3197.498,813.7C3197.575,813.985 3197.653,814.269 3197.693,814.561C3197.714,814.716 3196.686,815.603 3195.802,814.844C3195.648,814.711 3195.09,814.532 3195.418,811.394C3196.088,804.984 3199.134,803.433 3202.17,804.864C3202.412,804.978 3202.419,805.001 3202.649,805.061C3202.653,805.056 3202.657,805.051 3202.662,805.045C3203.667,803.932 3204.331,800.952 3209.556,800.215C3211.845,798.846 3217.385,789.066 3222.562,793.111C3224.387,794.537 3224.778,796.698 3222.007,798.252C3221.118,799.327 3219.456,802.936 3222.549,804.206C3223.681,804.671 3230.871,806.725 3229.116,809.901C3228.444,811.119 3226.837,811.153 3226.446,811.742C3225.06,813.828 3228.546,820.552 3224.541,823.046C3222.998,825.375 3219.945,830.329 3214.115,831.456C3212.351,831.797 3211.706,829.83 3213.173,829.024C3213.212,829.003 3213.249,828.951 3213.292,828.963C3213.399,828.992 3213.505,829.025 3213.611,829.06C3213.61,829.043 3213.609,829.025 3213.608,829.007C3214.725,828.756 3218.129,828.201 3221.723,822.77C3222.529,821.551 3222.588,821.3 3223.272,820.9C3225.693,819.488 3221.062,810.829 3226.121,808.996C3226.334,808.918 3226.473,808.877 3226.613,808.816C3225.219,807.632 3221.873,806.79 3220.668,806.042C3216.172,803.249 3219.086,796.989 3220.73,796.102C3220.796,796.067 3221.32,795.784 3221.482,795.539C3221.475,795.531 3221.469,795.522 3221.461,795.512C3221.319,795.307 3220.731,794.734 3220.098,794.666C3216.935,794.328 3212.741,801.976 3210.219,802.628C3209.087,802.92 3207.145,802.748 3205.497,805.307C3204.879,806.267 3203.867,808.421 3201.295,807.218C3200.721,806.949 3199.241,805.928 3198.298,809.443C3197.756,811.462 3197.82,813.289 3197.831,813.625L3197.498,813.7ZM3209.564,800.214C3209.575,800.212 3209.587,800.21 3209.598,800.209C3209.61,800.207 3209.562,800.202 3209.564,800.214ZM3195.822,813.17L3195.717,813.075L3195.579,813.226L3195.822,813.17Z"/>
                    </g>
                    <g transform="matrix(2.67567,0,0,2.67567,-7758.050222,-1267.356964)">
                        <path d="M3224.144,823.519C3224.186,823.515 3224.234,823.512 3224.292,823.508C3224.663,824.894 3225.404,826.948 3221.873,830.473C3220.071,832.271 3217.318,831.089 3216.632,833.662C3215.36,838.438 3214.964,838.29 3213.234,841.807C3211.011,846.325 3210.85,849.841 3208.35,851.323C3206.205,852.594 3203.662,851.049 3200.89,849.188C3198.761,847.758 3200.797,846.127 3200.867,846.069C3200.868,846.068 3200.868,846.068 3200.869,846.067L3200.87,846.069L3202.635,846.069C3202.59,846.494 3202.643,846.925 3202.651,847.353C3206.121,849.65 3206.92,849.717 3207.762,848.465C3208.971,846.665 3209.081,844.186 3211.682,839.368C3213.586,835.843 3213.436,835.771 3214.221,833.002C3215.393,828.871 3219.155,829.665 3220.146,828.665C3223.301,825.482 3221.674,824.77 3221.801,823.36C3221.814,823.214 3221.867,822.732 3222.269,822.286C3222.292,822.259 3222.306,822.21 3222.341,822.209C3223.225,822.172 3223.223,822.246 3224.109,822.209C3224.052,822.641 3224.132,823.082 3224.144,823.519Z"/>
                    </g>
                    <g transform="matrix(2.67567,0,0,2.67567,-7758.050222,-1267.356964)">
                        <path d="M3209.474,848.991C3208.988,848.658 3208.379,848.532 3207.893,848.199C3207.728,848.086 3207.633,846.286 3206.388,845.704C3205.738,845.4 3204.809,845.296 3204.805,845.292C3204.43,844.837 3204.128,844.326 3203.753,843.871C3204.305,843.581 3204.763,843.13 3205.316,842.84C3205.318,842.839 3206.015,842.946 3206.59,843.118C3209.043,843.85 3209.604,845.436 3210.136,847.021C3210.18,847.151 3210.309,847.281 3210.266,847.41C3210.078,847.969 3209.662,848.432 3209.474,848.991Z"/>
                    </g>
                </g>
            </g>
        </g>
    </g>
</svg>
