<?xml version="1.0" encoding="UTF-8" standalone="no"?>
<!DOCTYPE svg PUBLIC "-//W3C//DTD SVG 1.1//EN" "http://www.w3.org/Graphics/SVG/1.1/DTD/svg11.dtd">
<svg width="100%" height="100%" viewBox="0 0 327 518" version="1.1" xmlns="http://www.w3.org/2000/svg" xmlns:xlink="http://www.w3.org/1999/xlink" xml:space="preserve" xmlns:serif="http://www.serif.com/" style="fill-rule:evenodd;clip-rule:evenodd;stroke-linecap:round;stroke-linejoin:round;stroke-miterlimit:10;">
    <g transform="matrix(1,0,0,1,-2942.628988,-537.389836)">
        <g transform="matrix(0.044849,0,0,0.044849,2925.817402,494.590033)">
            <g id="Frame-12" serif:id="Frame 12" transform="matrix(8.333333,0,0,8.333333,-566.888815,-492.988972)">
                <g transform="matrix(2.481818,0,0,2.481818,-7196.176538,-1056.450163)">
                    <g transform="matrix(1.078109,0,0,1.078109,-230.566562,-82.163966)">
                        <path d="M3142.14,1044.468C3141.092,1047.074 3138.963,1050.27 3134.467,1051.273C3132.358,1051.743 3125.692,1051.544 3114.965,1051.941C3104.949,1052.311 3098.437,1052.994 3098.128,1053.004C3097.681,1053.02 3097.232,1053.046 3096.786,1053.011C3096.266,1052.969 3093.223,1052.726 3091.075,1049.869C3090.762,1049.452 3088.927,1047.012 3089.642,1043.51C3089.746,1042.999 3090.357,1040.008 3093.454,1038.222C3093.841,1037.999 3094.249,1037.808 3094.669,1037.653C3095.368,1037.395 3099.082,1036.6 3102.759,1036.245L3105.137,1036.021C3105.347,1036.01 3106.652,1035.942 3107.758,1036.211C3107.933,1036.254 3108.102,1036.301 3108.266,1036.351C3111.754,1036.158 3114.847,1036.046 3117.791,1035.967C3117.737,1034.94 3117.867,1033.923 3118.183,1033.025C3119.662,1028.817 3123.104,1027.97 3125.281,1026.637C3127.324,1025.387 3127.895,1024.175 3128.225,1023.385C3129.718,1019.327 3128.928,1016.807 3123.246,1010.902C3121.359,1008.94 3119.272,1006.877 3117.969,1004.607C3116.253,1001.616 3117.039,998.866 3117.177,998.383C3117.456,997.407 3117.925,996.463 3118.555,995.667C3120.624,993.049 3123.442,992.735 3123.931,992.68C3127.136,992.322 3129.306,994.027 3129.682,994.323C3130.644,995.08 3131.391,996.168 3131.65,996.57C3131.388,996.23 3131.32,996.843 3130.832,997.189L3131.7,996.648C3131.748,996.723 3131.762,996.749 3131.738,996.706C3131.726,996.685 3131.714,996.665 3131.703,996.646C3134.496,1000.399 3148.444,1010.52 3143.852,1026.686C3143.35,1028.453 3142.709,1030.018 3141.975,1031.408C3145.755,1034.069 3145.505,1037.882 3145.464,1038.515C3145.43,1039.03 3145.233,1042.039 3142.461,1044.227C3142.402,1044.274 3142.294,1044.359 3142.14,1044.468ZM3131.703,996.646L3131.7,996.648C3131.686,996.626 3131.67,996.6 3131.65,996.57C3131.667,996.591 3131.684,996.617 3131.703,996.646Z" style="fill:white;"/>
                    </g>
                    <g transform="matrix(1.078109,0,0,1.078109,-230.566562,-82.163966)">
                        <path d="M3142.768,1051.432C3139.944,1051.626 3139.159,1051.749 3137.31,1051.09C3136.23,1050.704 3136.243,1049.201 3137.214,1048.773C3136.468,1048.45 3136.302,1047.472 3136.736,1046.87C3136.735,1046.869 3136.734,1046.869 3136.734,1046.868C3136.736,1046.867 3136.738,1046.866 3136.74,1046.864C3136.832,1046.737 3136.952,1046.627 3137.099,1046.543C3137.39,1046.23 3137.633,1045.86 3137.983,1045.618C3138.009,1045.6 3138.294,1045.645 3140.663,1045.581C3140.746,1045.338 3140.902,1045.123 3141.108,1044.969C3140.96,1044.498 3141.106,1043.956 3141.487,1043.632C3141.931,1043.256 3142.154,1043.252 3144.027,1043.526C3143.627,1043.084 3143.286,1042.586 3143.24,1042.195C3143.146,1041.396 3143.931,1040.274 3145.384,1041.007C3146.558,1041.6 3148.666,1043.011 3151.169,1044.067C3151.193,1044.077 3151.836,1044.258 3152.06,1044.876C3152.273,1045.462 3152.005,1046.123 3151.462,1046.409C3151.846,1046.72 3151.971,1047.2 3151.878,1047.635C3152.237,1047.755 3152.751,1048.02 3152.895,1048.594C3152.921,1048.698 3152.933,1048.802 3152.932,1048.903C3153.738,1049.49 3153.543,1050.887 3152.466,1051.131C3152.466,1051.131 3152.368,1051.138 3152.189,1051.149L3152.19,1051.162C3152.123,1051.162 3152.057,1051.162 3151.991,1051.161C3150.497,1051.253 3145.808,1051.518 3142.768,1051.432Z" style="fill:white;"/>
                    </g>
                    <g transform="matrix(1.078109,0,0,1.078109,-230.566562,-82.163966)">
                        <path d="M2994.66,964.171C2985.899,946.443 2985.303,937.297 2987.446,927.955C2987.743,926.659 2988.11,925.202 2988.25,924.138C2988.272,923.978 2988.405,922.967 2988.777,922.195C2990.05,919.553 2992.548,919.227 2992.957,919.174C2995.864,918.795 2997.503,920.709 2997.771,921.022C2998.087,921.39 2998.325,921.783 2998.506,922.165C2999.298,922.506 2999.807,922.947 2999.957,923.077C3000.125,923.223 3001.043,924.019 3001.519,925.376C3001.664,925.789 3002.484,929.585 3002.525,933.929C3002.556,937.205 3002.234,941.527 3001.922,950.798C3002.495,953.328 3003.43,956.233 3004.896,960.265C3007.272,966.796 3010.256,974.301 3009.25,978.33C3009.013,979.278 3008.615,979.983 3008.295,980.439C3009.629,991.475 3010.718,1003.295 3011.358,1006.709L3011.324,1006.718C3011.417,1007.353 3011.584,1007.987 3011.534,1008.624C3011.508,1008.95 3011.359,1010.829 3009.709,1012.275C3009.457,1012.496 3008.006,1013.766 3005.736,1013.599C3005.411,1013.575 3003.535,1013.437 3002.086,1011.774C3001.931,1011.596 3001.146,1010.696 3000.798,1009.128C2999.689,1004.132 2996.918,970.58 2994.66,964.171Z" style="fill:white;"/>
                    </g>
                    <g transform="matrix(1.078109,0,0,1.078109,-232.771774,-83.709164)">
                        <path d="M2985.61,990.549C2984.714,988.731 2983.645,986.964 2983.256,984.995C2982.946,983.432 2983.551,981.775 2984.153,980.3C2984.444,979.586 2986.12,975.48 2990.972,973.481C2995.682,971.54 2999.694,973.194 3000.391,973.481C3000.793,973.646 3003.107,974.6 3004.86,976.568C3009.555,981.839 3009.5,988.068 3012.724,1001.038C3015.516,1012.267 3017.858,1015.16 3018.348,1016.037C3018.68,1016.631 3019.05,1017.207 3019.327,1017.829C3019.658,1018.574 3019.899,1019.304 3020.068,1020.008C3021.057,1021.401 3022.611,1024.213 3022.345,1028.052C3022.309,1028.575 3022.121,1031.298 3020.261,1034.27C3019.201,1035.966 3017.882,1037.309 3016.411,1038.306C3016.43,1038.65 3016.443,1038.902 3016.444,1039.032C3016.451,1039.731 3016.46,1040.433 3016.381,1041.127C3016.288,1041.936 3015.746,1046.665 3011.201,1049.894C3006.656,1053.123 3002.012,1052.078 3001.217,1051.899C2996.963,1050.941 2994.641,1048.059 2994.228,1047.546C2992.32,1045.178 2985.094,1032.347 2990.934,1019.848C2991.085,1019.524 2991.359,1018.937 2991.8,1018.205C2991.35,1016.971 2990.891,1015.624 2990.428,1014.15C2987.525,1004.902 2986,994.962 2984.754,990.875C2985.074,990.752 2985.356,990.644 2985.61,990.549ZM2986.794,993.662L2986.704,993.749L2986.843,993.893C2986.828,993.816 2986.811,993.739 2986.794,993.662Z" style="fill:white;"/>
                    </g>
                    <g transform="matrix(1.078109,0,0,1.078109,-230.566562,-82.163966)">
                        <path d="M3126.917,1024.137C3125.363,1020.789 3122.477,1016.662 3122.407,1016.488C3122.017,1015.518 3121.434,1014.605 3121.238,1013.578C3121.148,1013.108 3120.63,1010.401 3122.432,1007.718C3122.442,1007.703 3122.453,1007.687 3122.466,1007.668C3122.708,1007.197 3123.024,1006.752 3123.331,1006.336C3125.313,1003.649 3128.128,1003.236 3128.616,1003.165C3131.816,1002.696 3134.034,1004.331 3134.419,1004.615C3134.935,1004.996 3136.572,1006.204 3138.876,1011.281C3139.678,1013.05 3139.69,1013.299 3141.508,1017.856C3141.898,1018.717 3142.197,1019.471 3142.433,1020.146C3142.977,1021.701 3142.963,1022.862 3142.96,1023.102C3142.916,1026.728 3140.549,1028.729 3140.146,1029.069C3139.743,1029.41 3137.375,1031.41 3133.792,1030.848C3130.209,1030.285 3128.569,1027.656 3128.289,1027.208C3127.823,1026.46 3127.708,1026.178 3126.917,1024.137Z" style="fill:white;"/>
                    </g>
                    <g transform="matrix(1.078109,0,0,1.078109,-227.38123,-83.709164)">
                        <path d="M2963.301,1010.344C2963.3,1010.34 2963.299,1010.337 2963.298,1010.334L2963.305,1010.332C2964.366,1007.331 2963.659,1003.888 2964.725,1000.888C2965.26,999.382 2966.646,998.274 2967.929,997.319C2968.107,997.187 2968.529,996.873 2969.162,996.511C2969.812,994.603 2970.463,992.601 2971.069,990.462C2974.889,976.974 2975.482,963.986 2975.697,960.862C2975.179,957.882 2974.614,954.444 2974.033,950.603C2973.716,948.504 2973.751,947.567 2973.761,947.302C2973.974,941.636 2977.737,938.584 2978.378,938.064C2978.929,937.617 2979.52,937.216 2980.138,936.869C2981.383,936.172 2981.91,936.034 2982.075,935.991C2984.13,935.454 2984.196,935.81 2986.253,935.272L2986.253,948.707C2986.574,948.657 2986.887,948.62 2987.193,948.596L2986.314,947.827L2998.644,946.135C2998.877,947.681 3000.247,956.77 3001.969,965.395C3002.481,967.962 3002.906,969.879 3003.24,971.29C3003.319,971.595 3003.4,971.907 3003.484,972.227C3004.172,974.843 3004.189,974.837 3004.238,975.067C3004.388,975.771 3004.548,976.477 3004.611,977.195C3005.112,982.946 3001.647,986.46 3001.059,987.057C3000.706,987.415 2999.32,988.821 2997.026,989.799C2995.369,997.217 2993.362,1003.111 2991.21,1009.241C2990.377,1011.614 2989.887,1013.145 2989.635,1014.241C2989.801,1015.515 2989.955,1016.957 2990.172,1018.936C2990.36,1020.651 2990.472,1020.648 2990.363,1022.369C2990.001,1028.119 2986.063,1031.076 2985.393,1031.579C2984.724,1032.081 2980.786,1035.038 2975.163,1033.782C2974.174,1033.561 2968.144,1032.214 2965.899,1025.135C2964.721,1021.424 2964.311,1018.123 2964.414,1015C2964.012,1013.135 2963.382,1010.672 2963.301,1010.344Z" style="fill:white;"/>
                    </g>
                    <g transform="matrix(1.078109,0,0,1.078109,-227.38123,-83.709164)">
                        <path d="M2998.247,1029.434C2999.504,1031.78 2999.658,1033.893 2999.695,1034.397C2999.755,1035.219 3000.074,1039.594 2996.512,1044.199C2992.984,1048.759 2985.922,1050.925 2979.861,1047.416C2972.561,1043.189 2971.704,1033.494 2973.61,1025.537C2973.79,1024.786 2974.823,1020.474 2979.338,1017.766C2980.709,1016.943 2982.264,1016.363 2983.845,1016.125C2989.041,1015.341 2992.625,1018.012 2993.247,1018.475C2997.323,1021.512 2997.979,1025.807 2998.093,1026.552C2998.319,1028.03 2998.346,1028.681 2998.247,1029.434Z" style="fill:white;"/>
                    </g>
                    <g transform="matrix(1.078109,0,0,1.078109,-227.38123,-83.709164)">
                        <path d="M2985.113,953.828C2975.924,925.262 2982.298,900.244 2985.804,888.887C2991.141,871.599 2999.634,858.496 2999.791,858.243C3000.564,856.997 3000.509,856.956 3001.478,855.856C3002.008,855.254 3005.098,851.748 3010.572,851.623C3016.046,851.499 3019.291,854.86 3019.849,855.437C3022.826,858.52 3023.215,862.136 3023.285,862.781C3023.589,865.605 3022.49,874.19 3022.364,875.176C3019.836,894.917 3014.027,911.093 3012.975,927.781C3012.503,935.283 3011.031,943.819 3009.994,949.296C3010.15,949.716 3010.311,950.137 3010.477,950.558C3012.871,956.652 3015.544,966.332 3017.988,1002.801C3018.624,1012.277 3018.871,1016.678 3019.145,1019.121C3018.83,1019.171 3018.515,1019.22 3018.2,1019.267C3018.34,1021.53 3018.832,1023.82 3018.456,1026.044C3018.19,1027.609 3017.058,1028.946 3015.983,1030.114C3015.464,1030.679 3012.493,1033.909 3007.256,1034.073C3002.165,1034.232 2998.991,1031.273 2998.439,1030.759C2998.015,1030.363 2995.724,1028.227 2994.755,1024.514C2993.716,1020.528 2993.415,1005.359 2991.598,986.142C2989.465,963.599 2987.401,960.231 2986.763,958.546C2986.23,957.137 2985.736,955.734 2985.279,954.34C2985.215,954.158 2985.16,953.987 2985.113,953.828ZM3018.245,1016.821L3018.437,1016.741L3018.304,1016.419C3018.281,1016.553 3018.261,1016.687 3018.245,1016.821Z" style="fill:white;"/>
                    </g>
                    <g transform="matrix(1.078109,0,0,1.078109,-227.38123,-83.709164)">
                        <path d="M3086.219,663.637C3084.585,664.304 3082.317,664.837 3079.602,664.428C3074.565,663.669 3071.975,660.187 3071.525,659.582C3071.236,659.193 3069.566,656.948 3069.163,654.003C3068.591,649.827 3069.59,646.97 3071.431,644.212C3073.223,641.527 3076.063,640.125 3076.544,639.888C3076.621,639.85 3076.699,639.812 3076.777,639.776C3077.669,638.527 3078.766,637.324 3080.082,636.196C3082.444,634.172 3084.864,633.64 3089.943,631.701C3094.943,629.792 3096.72,628.755 3100.661,628.653C3103.378,628.583 3110.403,628.654 3127.546,637.367C3134.351,640.825 3135.352,641.996 3136.397,643.187C3136.879,643.737 3139.596,646.836 3139.407,651.813C3139.373,652.709 3139.169,658.081 3134.002,661.641C3133.244,662.163 3128.747,665.261 3122.585,663.091C3118.34,661.595 3104.671,654.963 3103.106,654.259C3103.125,654.211 3103.145,654.163 3103.164,654.116C3102.766,654 3102.389,653.901 3102.039,653.82C3101.448,654.054 3100.911,654.265 3100.407,654.461C3099.968,656.074 3099.319,657.205 3099.173,657.457C3098.99,657.777 3097.937,659.608 3096.182,660.962C3093.586,662.965 3091.322,663.407 3090.051,663.64C3088.643,663.899 3087.292,663.813 3086.219,663.637Z" style="fill:white;"/>
                    </g>
                    <g transform="matrix(1.078109,0,0,1.078109,-227.38123,-83.709164)">
                        <path d="M3144.149,668.88C3143.754,668.506 3143.296,668.073 3143.286,668.06C3142.299,666.808 3142.223,666.86 3141.469,665.452C3139.446,661.67 3140.032,657.856 3140.134,657.194C3141.01,651.505 3145.895,646.245 3152.829,635.043C3154.735,631.579 3156.745,627.99 3158.753,624.62C3159.423,623.304 3159.774,622.544 3159.817,622.467C3160.171,621.841 3160.5,621.196 3160.92,620.611C3161.323,620.048 3161.749,619.547 3162.187,619.101C3164.37,615.774 3166.475,612.96 3168.358,611.128C3169.23,610.28 3170.22,609.41 3171.604,608.542C3172.267,608.125 3176.098,605.72 3181.279,607.015C3182.831,607.403 3184.341,608.092 3185.627,609.042C3189.854,612.162 3190.497,616.577 3190.608,617.344C3191.079,620.58 3190.51,621.78 3190.346,622.126C3188.527,625.965 3187.124,625.65 3185.405,628.491L3185.865,628.974C3184.667,630.328 3183.131,632.623 3181.415,635.442C3180.179,638.224 3178.196,642.645 3177.053,645.189C3178.518,645.266 3180.212,645.613 3181.975,646.495C3186.624,648.819 3188.008,652.983 3188.25,653.709C3188.491,654.434 3189.876,658.597 3187.556,663.237C3186.84,664.668 3185.84,665.993 3184.635,667.044C3183.399,668.121 3181.798,668.687 3180.376,669.504L3180.378,669.509C3180.37,669.512 3180.362,669.514 3180.354,669.517C3180.342,669.522 3180.331,669.527 3180.32,669.528C3175.689,671.117 3170.236,673.324 3164.787,671.694C3163.197,672.418 3161.604,673.137 3160.004,673.84C3156.056,675.573 3152.61,674.757 3151.983,674.608C3151.221,674.428 3146.853,673.393 3144.149,668.88ZM3184.724,629.76C3184.71,629.788 3184.696,629.817 3184.683,629.846L3184.751,629.804L3184.724,629.76Z" style="fill:white;"/>
                    </g>
                    <g transform="matrix(1.078109,0,0,1.078109,-227.38123,-83.709164)">
                        <path d="M3167.991,695.958C3165.172,698.729 3160.878,701.505 3153.268,704.058C3141.262,708.084 3131.867,698.608 3134.187,687.604C3134.531,685.971 3135.63,680.369 3144.543,668.175C3149.413,661.512 3151.987,659.697 3152.157,659.614C3153.637,658.89 3155.027,657.903 3156.623,657.497C3157.354,657.312 3161.56,656.242 3165.948,658.829C3170.473,661.497 3171.563,665.819 3171.753,666.569C3172.552,669.737 3172.11,670.99 3171.982,671.352C3171.867,671.68 3171.751,671.98 3171.635,672.257C3173.156,673.097 3174.033,673.973 3174.255,674.166C3174.265,674.174 3175.235,675.214 3175.242,675.223C3176.85,677.43 3176.824,677.463 3177.73,680.035L3178.093,682.044C3178.522,686.358 3176.604,689.375 3176.257,689.921C3173.924,693.589 3170.71,695.014 3167.991,695.958ZM3145.378,680.335C3145.373,680.324 3145.357,680.335 3145.341,680.347C3145.354,680.343 3145.366,680.339 3145.378,680.335Z" style="fill:white;"/>
                    </g>
                    <g transform="matrix(1.078109,0,0,1.078109,-227.38123,-83.709164)">
                        <path d="M3225.704,736.098C3225.352,736.296 3224.676,736.674 3224.594,736.703C3223.431,737.124 3222.36,735.712 3223.244,734.687C3224.076,733.721 3224.961,732.834 3225.838,732.036C3225.814,731.626 3225.985,731.205 3226.416,730.936C3226.421,730.933 3226.426,730.929 3226.431,730.926C3227.354,730.35 3233.606,726.444 3238.449,723.427C3238.494,723.383 3238.545,723.339 3238.6,723.298C3238.605,723.294 3238.612,723.289 3238.619,723.284C3238.721,723.209 3239.019,722.994 3239.465,722.671C3239.275,722.618 3239.058,722.504 3238.875,722.337C3238.342,722.554 3237.831,722.77 3237.345,722.989C3236.94,723.172 3235.945,723.86 3235.171,723.161C3234.686,722.723 3234.627,721.953 3235.039,721.445C3235.063,721.415 3235.212,721.278 3235.467,721.05C3234.683,721.474 3234.19,721.734 3234.123,721.756C3233.141,722.088 3232.192,721.112 3232.551,720.139C3232.589,720.036 3232.627,719.944 3232.669,719.854C3232.389,720.104 3232.1,720.362 3231.802,720.627C3231.739,720.684 3231.257,721.114 3230.933,721.394C3230.907,721.419 3230.882,721.443 3230.856,721.468L3230.852,721.464C3230.747,721.554 3230.668,721.619 3230.644,721.634C3229.416,722.396 3228.053,720.736 3229.114,719.675C3229.348,719.442 3229.694,719.104 3230.118,718.695C3229.56,718.302 3229.341,717.461 3229.869,716.847C3230.165,716.503 3231.541,714.904 3233.205,712.972C3233.797,712.034 3234.386,711.211 3234.947,710.494C3235.235,709.414 3235.515,708.508 3235.808,707.681C3235.634,707.267 3235.624,706.686 3235.919,705.903C3236.674,703.901 3239.363,699.88 3239.451,699.784C3239.98,699.209 3240.804,699.302 3241.27,699.769C3242.815,698.697 3245.082,697.579 3248.329,696.489C3250.063,695.907 3252.193,695.29 3253.636,694.928C3255.542,692.992 3256.664,692.065 3257.725,691.374C3258.134,690.953 3258.579,690.479 3259.21,689.821C3259.47,689.55 3259.92,689.098 3260.658,689.149C3261.2,689.187 3261.362,689.335 3261.466,689.659C3262.321,689.891 3262.756,691.039 3262.004,691.774C3261.637,692.133 3261.283,692.473 3260.942,692.795C3261.441,693.209 3261.592,693.993 3261.098,694.582C3261.039,694.652 3260.98,694.723 3260.92,694.793C3261.047,694.801 3261.168,694.825 3261.28,694.864C3261.314,694.825 3261.349,694.786 3261.384,694.746C3261.417,694.709 3262.023,693.78 3262.792,693.772C3263.727,693.762 3264.427,694.816 3263.835,695.73C3263.676,695.976 3263.641,695.996 3262.255,698.116C3262.498,698.487 3262.538,699.051 3262.115,699.844C3262.044,699.976 3261.967,700.114 3261.883,700.258C3262.491,700.461 3262.875,701.124 3262.702,701.769C3262.698,701.785 3262.629,701.95 3262.526,702.191C3262.607,702.119 3262.686,702.049 3262.762,701.981C3262.816,701.933 3263.538,701.033 3264.421,701.306C3264.484,701.325 3264.763,701.412 3264.992,701.67C3267.09,699.941 3267.607,699.712 3268.02,699.699C3268.932,699.671 3269.928,700.689 3268.948,701.995C3268.912,702.043 3268.872,702.095 3268.827,702.151C3269.177,702.693 3269.064,703.466 3268.486,703.866C3267.828,704.322 3267.252,704.716 3266.711,705.082C3266.795,705.383 3266.765,705.727 3266.567,706.068C3266.418,706.325 3266.09,706.849 3265.6,707.559C3265.752,707.679 3265.882,707.845 3265.975,708.072C3266.387,709.083 3265.358,709.762 3265.23,709.847C3264.973,710.017 3264.562,710.251 3264.028,710.539C3264.086,710.8 3264.058,711.094 3263.907,711.4C3263.889,711.436 3263.87,711.473 3263.851,711.51C3264.748,712.263 3264.065,713.558 3263.983,713.715C3263.976,713.729 3263.968,713.742 3263.961,713.756C3264.345,714.228 3264.409,714.963 3263.857,715.469C3263.389,715.9 3260.667,718.4 3257.87,720.965C3257.846,721.013 3257.829,721.045 3257.82,721.059C3257.728,721.198 3257.607,721.311 3257.469,721.397C3255.402,725.111 3252.21,730.783 3249.706,734.963C3248.908,736.565 3248.172,737.744 3246.717,739.668C3246.231,740.358 3245.817,740.894 3245.447,741.3C3245.292,741.486 3245.097,741.706 3244.993,741.773C3244.967,741.789 3244.941,741.805 3244.915,741.819C3244.693,742.006 3244.485,742.139 3244.284,742.225C3244.174,742.736 3243.762,743.182 3243.132,743.216C3238.348,743.475 3238.336,743.494 3237.939,743.373C3237.141,743.131 3234.881,742.53 3235.359,740.935C3235.621,740.062 3236.475,739.812 3237.953,739.579C3238.959,738.526 3240.748,736.733 3243.941,733.463C3244.122,733.223 3244.388,732.869 3244.719,732.429C3241.732,733.705 3240.344,734.704 3235.889,737.62C3232.282,739.98 3232.279,739.992 3231.914,740.072C3231.756,740.107 3231.603,740.111 3231.46,740.089C3230.947,740.477 3230.923,740.504 3230.765,740.586C3229.535,741.219 3228.308,739.612 3229.311,738.589C3230.142,737.74 3230.938,736.952 3231.693,736.223C3230.405,736.976 3228.954,737.856 3227.272,738.924C3227.259,738.932 3226.214,739.867 3225.329,739.257C3224.885,738.951 3224.584,738.262 3224.965,737.587C3225.082,737.38 3225.128,737.321 3225.783,736.187C3225.756,736.159 3225.729,736.129 3225.704,736.098ZM3244.557,736.464C3243.887,737.145 3243.152,737.896 3242.346,738.725C3242.518,738.693 3242.706,738.658 3242.915,738.62C3243.029,738.541 3243.14,738.454 3243.25,738.36C3243.648,738.017 3244.072,737.948 3244.436,738.05C3244.531,737.887 3244.632,737.715 3244.737,737.537C3244.709,737.297 3244.753,737.039 3244.892,736.781C3244.763,736.697 3244.649,736.589 3244.557,736.464ZM3247.04,728.809C3247.223,728.741 3247.41,728.671 3247.602,728.6C3247.674,728.505 3247.746,728.41 3247.818,728.314C3247.742,728.356 3247.675,728.386 3247.614,728.409C3247.428,728.538 3247.237,728.672 3247.04,728.809ZM3252.431,701.009C3252.038,701.312 3251.609,701.636 3251.141,701.981C3251.595,701.828 3252.016,701.693 3252.407,701.574C3252.453,701.516 3252.502,701.456 3252.555,701.392C3252.494,701.272 3252.451,701.143 3252.431,701.009ZM3255.571,703.345C3255.574,703.341 3255.577,703.337 3255.58,703.333C3255.575,703.333 3255.57,703.334 3255.565,703.335C3255.567,703.339 3255.569,703.342 3255.571,703.345ZM3251.106,721.885C3251.18,721.947 3251.248,722.016 3251.308,722.092C3251.777,721.691 3252.262,721.278 3252.753,720.858C3252.82,720.763 3252.888,720.669 3252.957,720.574C3252.365,720.995 3251.748,721.432 3251.106,721.885Z" style="fill:white;"/>
                    </g>
                    <g transform="matrix(1.078109,0,0,1.078109,-227.38123,-83.709164)">
                        <path d="M3144.981,572.096C3144.915,572.046 3144.855,571.989 3144.798,571.921C3144.16,571.164 3144.63,569.941 3145.682,569.868C3145.819,569.858 3145.971,569.848 3146.134,569.838C3147.78,569.039 3149.324,568.465 3150.643,567.943C3151.695,567.408 3153.012,566.711 3154.863,565.685C3154.914,565.558 3154.98,565.425 3155.065,565.285C3155.409,564.716 3156.913,563.013 3159.927,559.505C3165.956,552.488 3165.89,552.412 3166.322,552.166C3166.763,551.914 3167.245,551.971 3167.61,552.207C3168.358,551.367 3168.782,550.901 3169.046,550.632C3169.349,550.322 3169.441,550.275 3169.574,550.221C3170.718,549.75 3171.838,551.112 3171.02,552.165C3170.786,552.467 3170.399,552.92 3169.892,553.494C3170.095,553.329 3170.306,553.158 3170.526,552.981C3170.566,552.949 3170.779,552.778 3171.002,552.612C3171.031,552.586 3171.056,552.562 3171.079,552.541L3171.086,552.55C3171.262,552.422 3171.431,552.308 3171.515,552.279C3172.759,551.845 3173.763,553.447 3172.775,554.378C3171.137,555.92 3168.692,558.154 3166.062,560.664C3165.613,561.529 3165.102,562.513 3164.52,563.637C3169.256,560.767 3169.437,560.643 3170.049,560.742C3171.079,560.909 3171.457,562.226 3170.676,562.914C3170.662,563.063 3170.621,563.217 3170.548,563.375C3169.725,565.14 3168.29,567.041 3166.939,568.618C3167.441,568.561 3167.996,568.561 3168.713,568.624C3169.817,568.722 3170.333,570.208 3169.264,570.93C3169.253,570.938 3168.712,571.277 3167.914,571.761C3168.031,572.107 3168,572.509 3167.761,572.866C3167.736,572.903 3167.708,572.945 3167.676,572.992C3168.318,573.201 3168.971,573.422 3169.638,573.658C3169.66,573.666 3171.025,573.918 3171.097,574.978C3171.143,575.656 3170.609,576.285 3169.89,576.31C3169.791,576.499 3169.649,576.653 3169.481,576.741C3169.461,576.751 3169.442,576.76 3169.422,576.769C3169.095,576.969 3168.672,577.214 3167.556,577.257C3167.89,577.731 3167.811,578.352 3167.475,578.768C3168.012,579.097 3168.605,579.46 3169.274,579.864C3169.323,579.894 3170.487,580.361 3170.476,581.309C3170.465,582.233 3169.446,582.854 3168.603,582.377C3168.596,582.373 3168.589,582.369 3168.582,582.365C3167.162,581.563 3165.42,580.527 3163.616,579.507C3163.605,579.682 3163.556,579.861 3163.462,580.035C3160.422,585.682 3158,588.338 3157.418,588.977C3155.354,591.242 3154.725,591.746 3151.471,595.413C3150.835,596.129 3150.658,595.465 3149.704,595.526C3149.818,594.947 3149.481,594.339 3149.595,593.761C3149.606,593.705 3150.227,593.024 3151.091,592.094C3150.929,592.09 3150.76,592.051 3150.587,591.963C3150.087,591.708 3149.813,591.126 3149.938,590.57C3149.589,590.706 3149.219,590.655 3148.914,590.484C3148.86,590.54 3148.821,590.578 3148.804,590.591C3148.614,590.738 3148.414,590.819 3148.217,590.847C3146.517,591.995 3146.231,592.016 3145.698,591.799C3144.994,591.513 3144.662,590.603 3145.162,589.901C3146.942,587.404 3149.162,584.43 3149.515,583.958C3151.541,581.244 3152.953,579.621 3156.132,576.52C3154.101,575.973 3150.914,574.974 3147.089,573.077C3146.831,572.949 3146.65,572.773 3146.536,572.573C3146.461,572.571 3146.389,572.562 3146.32,572.548C3145.843,572.62 3145.671,572.586 3145.369,572.424C3145.212,572.34 3145.082,572.227 3144.981,572.096ZM3164.807,566.432C3163.888,566.985 3163.053,567.491 3162.295,567.951C3161.97,568.585 3161.629,569.248 3161.273,569.944C3161.307,570.076 3161.322,570.213 3161.316,570.35C3161.442,570.313 3161.565,570.276 3161.685,570.239C3162.08,569.672 3162.541,569.064 3163.071,568.449C3163.336,568.141 3163.652,568.006 3163.961,567.995C3164.306,567.355 3164.575,566.85 3164.807,566.432Z" style="fill:white;"/>
                    </g>
                    <g transform="matrix(1.078109,0,0,1.078109,-227.38123,-83.709164)">
                        <path d="M3183.307,622.56C3183.188,622.641 3183.093,622.704 3183.062,622.719C3181.752,623.349 3180.603,621.542 3181.732,620.622C3182.044,620.368 3183.021,619.572 3184.379,618.467C3183.484,618.607 3182.626,617.682 3183.035,616.735C3183.085,616.619 3183.134,616.51 3183.186,616.406C3182.278,616.422 3181.484,615.356 3182.116,614.442C3182.122,614.433 3182.198,614.352 3182.337,614.208L3182.331,614.203C3182.353,614.185 3182.374,614.167 3182.395,614.148C3184.36,612.112 3196.144,600.069 3200.173,595.975C3200.139,595.962 3200.11,595.95 3200.076,595.934C3198.973,595.434 3199.22,593.873 3200.247,593.591C3200.265,593.53 3200.287,593.47 3200.313,593.413C3198.517,592.534 3198.443,592.236 3198.332,592.049C3198.328,592.042 3197.883,591.776 3198.272,589.743C3199.115,585.339 3202.389,586.132 3210.586,582.819C3210.642,582.742 3210.698,582.665 3210.754,582.589C3210.727,582.426 3210.713,582.297 3210.71,582.208C3210.684,581.263 3211.376,580.581 3212.159,580.674C3212.337,580.433 3212.51,580.198 3212.679,579.97C3212.675,579.906 3212.671,579.847 3212.667,579.791C3212.659,579.711 3212.651,579.63 3212.643,579.548L3212.653,579.547C3212.645,579.399 3212.641,579.313 3212.643,579.299C3212.72,578.533 3213.378,578.147 3214,578.194C3215.619,576.036 3216.634,574.758 3216.921,574.546C3217.968,573.771 3219.503,574.842 3218.759,576.277C3218.577,576.628 3217.162,578.872 3215.385,581.569C3215.411,581.8 3215.438,582.03 3215.467,582.26C3216.341,581.379 3216.957,580.788 3217.154,580.66C3218.33,579.899 3219.718,581.421 3218.775,582.532L3216.155,585.564C3216.483,586.6 3216.954,587.682 3217.659,588.849C3218.715,590.597 3221.621,594.764 3221.753,595.354C3221.862,595.838 3221.682,596.265 3221.371,596.543C3221.378,596.549 3221.385,596.556 3221.392,596.563C3222.163,596.888 3222.289,597.007 3222.452,597.295C3222.504,597.387 3222.542,597.48 3222.569,597.574C3222.829,597.682 3223.084,597.79 3223.333,597.901C3224.115,598.25 3224.315,599.016 3224.068,599.596C3224.067,599.662 3224.061,599.731 3224.048,599.802C3223.929,600.441 3223.305,600.903 3222.648,600.81C3222.412,601.245 3221.933,601.547 3221.284,601.413C3220.965,601.347 3220.603,601.25 3220.192,601.127C3218.53,600.69 3217.18,600.333 3216.06,600.038C3214.187,599.587 3211.514,598.922 3207.683,597.935C3206.745,597.726 3205.942,597.554 3205.253,597.411C3205.155,597.507 3205.056,597.603 3204.956,597.7C3205.099,597.915 3205.18,598.19 3205.16,598.52C3205.114,599.286 3205.077,599.461 3205.028,600.414C3205.088,600.454 3205.144,600.499 3205.196,600.548C3206.064,600.081 3207.225,600.807 3207.007,601.914C3205.399,610.111 3200.65,614.232 3199.744,615.017C3197.896,616.621 3196.587,617.309 3193.78,618.911C3192.918,619.403 3192.008,618.869 3191.884,618.04C3190.597,618.775 3189.104,619.387 3187.68,619.407C3187.229,619.739 3186.764,620.079 3186.284,620.428C3186.271,620.44 3186.257,620.452 3186.243,620.464L3186.24,620.46C3185.548,620.963 3184.824,621.484 3184.069,622.024C3184.015,622.062 3183.621,622.344 3183.339,622.538L3183.309,622.562L3183.307,622.56ZM3207.924,586.478C3205.302,587.374 3203.998,587.608 3202.397,588.254C3201.015,588.813 3200.787,589.473 3200.648,590.777C3200.983,590.973 3201.672,591.328 3203.108,591.943C3203.194,591.809 3203.278,591.678 3203.361,591.551C3202.631,591.092 3202.477,590.829 3202.296,590.53C3201.831,589.76 3201.919,588.007 3204.402,588.292C3204.773,588.335 3205.27,588.43 3205.856,588.569C3206.029,588.554 3206.204,588.576 3206.367,588.63C3206.903,587.888 3207.422,587.171 3207.924,586.478ZM3212.315,590.006C3212.192,590.148 3212.042,590.319 3211.868,590.516C3212.248,590.666 3212.626,590.822 3212.998,590.982C3212.782,590.671 3212.555,590.346 3212.315,590.006Z" style="fill:white;"/>
                    </g>
                    <g transform="matrix(1.078109,0,0,1.078109,-227.38123,-83.709164)">
                        <path d="M3250.37,724.027C3248.563,725.479 3246.739,726.932 3246.338,727.211C3245.034,728.118 3244.108,726.966 3244.22,726.124C3244.228,726.06 3244.206,725.971 3244.26,725.936C3244.369,725.864 3244.464,725.806 3244.548,725.757C3244.315,725.253 3244.387,724.609 3244.962,724.214C3245.045,724.157 3245.238,724.024 3245.512,723.836C3246.541,722.796 3247.693,721.688 3248.813,720.636C3248.249,721.085 3247.62,721.569 3246.918,722.085C3246.883,722.111 3246.197,722.783 3245.4,722.455C3244.76,722.191 3244.398,721.384 3244.793,720.674C3245.483,719.434 3251.113,709.909 3252.862,705.072C3250.707,707.606 3247.792,712.574 3247.781,712.59C3246.952,713.873 3245.131,712.931 3245.504,711.612C3245.506,711.602 3245.554,711.496 3245.637,711.316L3245.632,711.313C3245.641,711.297 3245.651,711.281 3245.66,711.266C3245.883,710.782 3246.32,709.844 3246.818,708.785C3246.472,709.02 3246.055,709.151 3245.578,708.94C3244.891,708.636 3244.535,707.683 3245.159,706.955C3245.292,706.8 3247.37,704.633 3250.973,699.63C3251.007,699.583 3251.347,698.902 3251.979,698.707C3252.421,698.214 3252.562,698.163 3252.718,698.106C3253.423,697.849 3254.117,698.273 3254.33,698.892C3254.502,698.938 3254.667,699 3254.824,699.089C3255.336,699.38 3255.318,700.252 3255.83,700.542L3253.672,700.884C3253.58,701.044 3253.481,701.218 3253.375,701.405C3253.89,701.194 3254.279,701.235 3254.623,701.328C3256.177,701.749 3255.835,703.687 3255.796,703.91C3255.345,706.47 3252.712,711.635 3250.16,716.265C3251.662,714.982 3252.253,714.511 3253.455,714.474C3254.015,714.457 3257.069,714.82 3256.43,716.819C3256.274,717.308 3255.571,717.903 3254.734,718.625C3254.754,718.622 3254.774,718.618 3254.794,718.615C3256.126,718.374 3256.844,720.198 3255.653,720.92C3255.65,720.922 3255.647,720.924 3255.644,720.925C3254.33,721.722 3252.254,722.939 3250.37,724.027Z" style="fill:white;"/>
                    </g>
                    <g transform="matrix(1.078109,0,0,1.078109,-227.38123,-83.709164)">
                        <path d="M3046.61,827.097C3046.289,826.961 3045.968,826.825 3045.648,826.687C3047.887,820.699 3062.158,774.524 3081.605,725.775C3093.039,697.111 3097.516,688.049 3105.341,655.856C3105.522,655.113 3106.558,650.848 3110.989,648.145C3112.354,647.312 3113.904,646.72 3115.483,646.47C3116.25,646.348 3120.674,645.647 3124.916,648.754C3125.524,649.199 3129.025,651.763 3129.822,656.794C3130.312,659.891 3130.088,659.917 3129.342,662.962C3116.322,716.104 3109.939,714.319 3078.851,806.164C3069.6,833.492 3069.213,836.74 3066.67,839.857C3062.695,844.73 3057.429,844.583 3056.535,844.558C3054.937,844.513 3053.314,844.165 3051.853,843.515C3048.695,842.11 3048.007,840.994 3047.798,840.656C3046.952,839.284 3045.826,838.049 3045.262,836.539C3044.131,833.509 3044.423,832.206 3044.507,831.834C3045.09,829.228 3045.86,828.246 3046.61,827.097ZM3048.199,823.4C3048.231,823.27 3048.263,823.135 3048.294,822.996L3048.045,823.246L3048.199,823.4Z" style="fill:white;"/>
                    </g>
                    <g transform="matrix(1.078109,0,0,1.078109,-227.38123,-83.709164)">
                        <path d="M2985.805,936.825C2982.462,972.545 2982.701,996.897 2986.177,1007.252C2986.576,1008.439 2986.898,1009.026 2986.903,1009.043C2987.341,1010.631 2988.058,1012.178 2988.163,1013.822C2988.212,1014.574 2988.49,1018.905 2985.141,1022.743C2981.685,1026.705 2977.213,1026.992 2976.438,1027.042C2971.355,1027.369 2968.085,1024.515 2967.517,1024.02C2967.15,1023.7 2965.397,1022.17 2963.987,1019.063C2957.87,1005.583 2955.579,977.378 2963.382,911.487C2966.676,883.676 2971.261,855.273 2973.87,839.914C2974.679,830.878 2975.047,827.377 2975.749,821.423C2975.96,819.641 2976.174,817.943 2976.39,816.317C2976.58,814.676 2976.782,813.057 2976.996,811.464C2977.445,808.122 2978.272,802.449 2979.53,796.561C2979.809,795.258 2979.769,795.248 2980.268,794.017C2980.381,793.738 2980.693,792.968 2981.3,792.012C2981.926,777.741 2983.232,757.356 2985.906,744.266C2986.059,743.518 2987.251,737.683 2988.572,735.093C2990.199,723.803 2991.358,716.726 2991.808,710.58C2991.827,710.161 2991.846,709.741 2991.89,709.324C2991.967,708.603 2992.04,707.878 2992.208,707.173C2992.36,706.538 2993.084,703.496 2995.815,700.941C2996.209,697.111 2996.579,693.289 2997.032,689.164C2997.715,682.949 2998.298,679.54 2998.882,677.091C2999.181,675.405 2999.688,674.101 2999.809,673.79C3000.072,673.114 3000.329,672.432 3000.674,671.794C3003.442,666.678 3008.312,665.672 3009.139,665.501C3009.965,665.33 3014.835,664.324 3019.404,667.925C3020.067,668.447 3023.973,671.525 3024.161,677.339C3024.173,677.693 3024.23,679.442 3023.526,681.695C3023.518,681.719 3023.51,681.743 3023.502,681.768C3021.452,688.212 3021.141,709.434 3016.233,734.292C3015.962,735.664 3016.014,735.679 3015.51,736.985C3015.333,737.446 3014.641,739.24 3012.982,741.027C3012.477,744.603 3011.95,748.424 3011.417,752.474C3009.214,784.841 3002.657,879.652 3000.565,893.38C3000.241,895.507 2999.351,901.205 2993.331,904.329C2992.938,908.794 2992.521,913.51 2992.077,918.497C2991.808,921.518 2991.587,924.544 2991.27,927.561C2990.92,930.89 2989.435,933.071 2989.152,933.487C2988.139,934.974 2986.963,936.048 2985.805,936.825Z" style="fill:white;"/>
                    </g>
                    <g transform="matrix(1.078109,0,0,1.078109,-227.38123,-83.709164)">
                        <path d="M3025.715,968.551C3026.569,984.004 3027.245,986.107 3020.44,1037.866C3020.214,1039.578 3020.028,1041.296 3019.764,1043.003C3019.428,1045.172 3018.74,1046.579 3018.598,1046.869C3016.238,1051.689 3011.871,1053.062 3011.118,1053.298C3010.365,1053.535 3005.998,1054.907 3001.305,1052.303C3001.022,1052.146 2999.652,1051.386 2998.137,1049.799C2997.848,1049.496 2994.881,1046.389 2994.606,1045.929C2993.76,1044.515 2992.628,1043.237 2992.07,1041.687C2991.815,1040.978 2990.347,1036.893 2992.501,1032.278C2993.598,1029.925 2995.182,1028.365 2996.592,1027.356C2999.649,1003.793 3001.435,988.863 3001.215,979.398C3001.155,976.854 3000.995,974.411 3000.75,969.882C3000.709,969.117 3000.472,964.722 3003.952,960.855C3005.022,959.667 3006.338,958.656 3007.78,957.965C3008.48,957.629 3012.521,955.691 3017.474,957.454C3018.98,957.991 3020.631,958.644 3021.584,959.927C3023.482,962.484 3023.814,965.985 3025.709,968.543L3025.714,968.543C3025.714,968.546 3025.715,968.548 3025.715,968.551Z" style="fill:white;"/>
                    </g>
                    <g transform="matrix(1.078109,0,0,1.078109,-227.38123,-83.709164)">
                        <path d="M3041.107,844.225C3040.096,847.546 3039.083,852.069 3038.591,855.022C3029.825,907.688 3031.512,907.91 3025.675,968.834C3025.602,969.596 3025.183,973.971 3021.174,977.276C3019.94,978.294 3018.488,979.098 3016.96,979.569C3011.935,981.115 3007.984,979.005 3007.299,978.639C3002.807,976.239 3001.529,972.091 3001.308,971.371C3000.823,969.796 3000.842,968.102 3000.789,966.455C3000.783,966.293 3001.965,954.892 3004.032,930.482C3006.438,902.058 3007.134,891.724 3013.936,850.886C3014.541,847.254 3016.839,835.705 3019.991,829.721C3023.557,822.953 3028.787,822.105 3030.157,821.802C3030.201,821.792 3031.519,821.635 3031.561,821.635C3032.977,821.616 3032.974,821.618 3034.381,821.762C3034.424,821.767 3035.811,822.066 3035.852,822.08C3037.681,822.688 3040.294,823.519 3043.013,827.091C3043.363,827.552 3045.248,830.028 3045.514,833.877C3045.866,838.959 3043.028,842.243 3042.535,842.813C3042.074,843.347 3041.594,843.815 3041.107,844.225ZM3021.99,840.347C3021.949,840.323 3021.907,840.299 3021.865,840.275L3021.92,840.383C3021.943,840.371 3021.966,840.359 3021.99,840.347Z" style="fill:white;"/>
                    </g>
                    <g transform="matrix(1.078109,0,0,1.078109,-227.38123,-83.709164)">
                        <path d="M3005.18,881.91C3001.662,881.247 2999.477,879.229 2999.014,878.8C2994.846,874.949 2994.979,870.103 2995.001,869.276C2995.021,868.567 2995.128,867.862 2995.24,867.162C2995.243,867.147 2998.119,853.042 3003.174,826.086C3002.504,825.837 3001.819,825.516 3001.128,825.106C3000.409,824.681 2996.182,822.178 2995.186,816.516C2995.061,815.81 2994.998,815.089 2994.997,814.372C2994.996,814.086 2994.994,813.107 2995.436,810.819C2995.827,808.792 2997.001,802.999 2998.682,794.92C3003.588,769.778 3006.941,748.12 3009.249,730.348C3009.018,729.687 3008.906,729.192 3008.858,728.976C3008.698,728.268 3008.635,727.54 3008.567,726.817C3008.556,726.707 3008.187,718.758 3008.02,713.31C3007.277,689.013 3008.338,684.236 3010.474,679.426L3010.803,679.567C3012.382,678.117 3013.481,676.158 3014.867,674.504C3015.247,673.283 3016.779,669.089 3021.604,666.89C3026.796,664.524 3031.229,666.55 3031.984,666.895C3032.736,667.239 3037.128,669.246 3038.757,674.657C3039.098,674.699 3040.355,674.861 3040.375,674.866C3040.505,674.901 3041.977,675.293 3042.003,675.304C3042.124,675.353 3043.482,675.912 3043.508,675.927C3045.037,676.791 3050.291,679.388 3050.909,687.856C3051.292,693.101 3050.267,700.666 3050.117,701.771C3049.525,706.139 3048.5,712.795 3047.147,721.116C3048.927,720.31 3050.418,720.131 3050.844,720.079C3056.623,719.384 3060.258,722.783 3060.875,723.36C3065.126,727.335 3064.864,732.305 3064.82,733.148C3064.782,733.872 3064.662,734.592 3064.517,735.303C3064.018,737.738 3054.835,776.978 3053.988,780.601C3051.918,789.443 3050.096,797.196 3048.498,803.997C3051.38,801.93 3054.309,801.728 3054.928,801.685C3060.38,801.307 3063.775,804.503 3064.359,805.052C3068.337,808.797 3068.298,813.46 3068.291,814.261C3068.285,814.947 3068.223,815.635 3068.104,816.311C3067.682,818.722 3065.646,823.402 3065.385,824C3064.19,826.746 3064.16,826.73 3048.651,857.491C3045.362,864.014 3041.117,870.569 3037.364,876.044C3037.577,876.895 3038.547,881.022 3036.007,885.318C3034.448,887.953 3034.283,887.853 3031.825,889.675C3026.382,893.71 3021.95,896.791 3016.327,896.086C3012.71,895.632 3010.271,893.683 3010.191,893.63C3010.172,893.618 3008.963,892.584 3008.947,892.568C3008.861,892.472 3007.881,891.395 3007.866,891.373C3007.393,890.701 3004.576,887.339 3005.18,881.91ZM3010.317,679.983L3010.265,679.965L3010.237,680.047C3010.264,680.026 3010.291,680.005 3010.317,679.983Z" style="fill:white;"/>
                    </g>
                    <g transform="matrix(1.078109,0,0,1.078109,-227.38123,-83.709164)">
                        <path d="M3008.188,746.271C3008.47,747.441 3008.611,748.788 3008.471,750.284C3007.978,755.55 3004.61,758.342 3004.016,758.834C3001.39,761.011 2998.682,761.515 2998.174,761.609C2991.345,762.88 2983.148,758.231 2983.013,747.993C2982.884,738.241 2988.623,726.66 2990.048,723.795C2990.388,723.11 2992.343,719.178 2997.267,717.526C2998.783,717.017 3000.427,716.784 3002.022,716.891C3002.797,716.943 3007.268,717.243 3010.713,721.215C3011.207,721.784 3014.051,725.062 3013.71,730.144C3013.479,733.582 3013.076,733.499 3011.612,736.619C3009.288,741.57 3008.486,744.609 3008.188,746.271ZM2985.296,743.141C2985.243,743.111 2985.189,743.08 2985.135,743.05L2984.984,743.316C2985.089,743.259 2985.193,743.201 2985.296,743.141Z" style="fill:white;"/>
                    </g>
                    <g transform="matrix(1.078109,0,0,1.078109,-227.38123,-83.709164)">
                        <path d="M2965.222,749.059C2964.733,749.668 2964.191,750.345 2963.987,750.55C2963.42,751.12 2960.115,754.439 2954.632,754.221C2949.149,754.003 2946.118,750.431 2945.598,749.818C2945.178,749.323 2942.819,746.544 2942.64,742.253C2942.59,741.051 2942.924,738.638 2942.967,738.326C2945.601,719.318 2949.936,713.77 2955.5,710.882C2955.959,710.644 2956.416,710.445 2956.867,710.279C2957.618,709.209 2958.539,708.178 2959.668,707.206C2960.453,706.529 2965.482,702.197 2972.339,704.482C2973.856,704.988 2975.309,705.791 2976.519,706.836C2980.497,710.274 2980.806,714.744 2980.86,715.519C2981.086,718.792 2980.426,719.942 2980.235,720.275C2979.726,721.162 2979.26,721.81 2978.818,722.32C2979.128,726.908 2980.575,734.475 2976.687,741.738C2974.736,745.38 2971.14,747.823 2967.883,748.612C2966.793,748.875 2966.012,749 2965.222,749.059Z" style="fill:white;"/>
                    </g>
                    <g transform="matrix(1.078109,0,0,1.078109,-227.38123,-83.709164)">
                        <path d="M3044.139,629.748C3044.171,629.811 3044.203,629.874 3044.235,629.938C3044.524,630.518 3046.145,633.774 3045.3,637.975C3043.827,645.292 3028.778,667.86 3022.47,673.114C3019.76,675.371 3013.187,679.599 3006.549,688.184C3001.437,694.795 2995.876,704.755 2976.743,718.171C2968.282,724.104 2961.967,727.021 2954.738,723.692C2951.36,722.136 2943.592,715.607 2949.274,703.393C2950.565,700.615 2952.629,697.185 2955.394,693.125C2960.387,684.104 2970.665,666.813 2972.529,664.428C2972.597,664.341 2974.048,662.145 2980.833,656.062C2982.041,654.135 2983.685,651.77 2985.086,649.925C2995.006,636.868 3013.527,618.321 3054.834,592.76C3091.535,570.048 3109.221,568.835 3139.39,579.868C3146.593,582.502 3152.623,584.985 3163.869,589.491C3164.579,589.775 3168.655,591.409 3170.7,596.18C3171.329,597.65 3171.695,599.269 3171.717,600.867C3171.728,601.644 3171.791,606.123 3168.113,609.879C3167.585,610.417 3164.548,613.517 3159.455,613.589C3157.808,613.612 3156.189,613.109 3154.592,612.706C3153.6,612.455 3133.717,603.886 3122.503,600.58C3103.752,595.053 3092.733,597.183 3052.483,624.017C3049.539,625.98 3046.761,627.891 3044.139,629.748Z" style="fill:white;"/>
                    </g>
                    <g transform="matrix(1.078109,0,0,1.078109,-227.38123,-83.709164)">
                        <path d="M3021.033,696.095C3020.912,696.066 3020.79,696.034 3020.667,696.001C3020.043,695.831 3016.551,694.882 3013.966,691.472C3013.796,691.248 3012.899,690.065 3012.258,688.402C3011.965,687.641 3010.3,683.323 3012.709,678.212C3015.705,671.858 3033.201,647.825 3046.737,630.633C3079.149,589.466 3089.923,584.484 3094.504,582.658C3101.366,579.922 3107.907,581.406 3112.168,585.65C3112.55,585.263 3112.881,584.949 3113.154,584.717C3118.867,579.854 3124.174,581.164 3125.533,581.453C3125.979,581.547 3127.826,582.11 3129.389,583.126C3130.729,583.996 3132.13,585.308 3133.225,587.017C3134.466,585.808 3135.529,585.195 3135.774,585.054C3136.469,584.653 3140.517,582.319 3145.743,583.95C3146.509,584.189 3150.97,585.582 3153.315,590.53C3154.523,593.08 3154.645,595.468 3154.437,597.285C3154.634,597.136 3154.835,596.992 3155.042,596.858C3159.885,593.724 3164.609,595.137 3165.412,595.377C3170.939,597.029 3172.93,601.54 3173.268,602.307C3173.607,603.074 3175.597,607.585 3173.092,612.781C3171.256,616.588 3164.447,623.448 3163.606,624.295C3158.547,629.391 3157.011,630.779 3154.532,634.089C3151.315,640.177 3144.141,654.812 3126.953,677.472C3120.739,685.665 3114.37,694.187 3108.323,702.642C3103.956,712.367 3097.39,724.366 3086.324,741.216C3083.309,745.807 3080.388,750.15 3077.354,754.566C3078.775,756.418 3079.299,758.175 3079.436,758.637C3079.534,758.965 3080.052,760.702 3079.941,762.862C3079.999,762.909 3080.047,762.948 3080.084,762.978C3080.711,763.493 3084.37,766.498 3084.636,772.038C3084.67,772.732 3084.749,773.453 3084.562,774.122C3084.225,775.329 3083.885,776.535 3083.543,777.74L3083.559,777.746C3083.543,777.781 3083.527,777.817 3083.511,777.852C3081.479,785.004 3079.363,792.133 3077.255,799.264C3077.456,799.218 3077.656,799.172 3077.857,799.127C3079.465,798.767 3081.161,798.627 3082.793,798.854C3087.837,799.557 3090.466,803.01 3090.923,803.61C3094.108,807.793 3093.489,812.231 3093.382,813C3093.278,813.746 3092.679,818.045 3088.627,821.13C3087.316,822.128 3085.769,822.837 3084.191,823.312C3076.961,825.485 3069.585,827.137 3062.282,829.05C3057.079,830.412 3053.184,827.989 3052.512,827.571C3051.841,827.153 3047.945,824.73 3046.869,819.46C3046.733,818.797 3046.651,818.121 3046.625,817.445C3046.596,816.712 3046.614,816.12 3046.737,815.371C3045.559,813.903 3044.402,811.794 3044.085,808.958C3044.047,808.614 3043.845,806.8 3044.357,804.639C3044.917,802.279 3045.479,799.919 3046.042,797.56C3045.577,796.255 3045.12,794.599 3044.708,792.435C3042.811,792.459 3039.683,792.073 3036.72,789.708C3036.502,789.535 3035.854,789.018 3035.106,788.154C3029.355,789.039 3022.34,786.669 3018.817,778.296C3010.783,759.202 3023.385,734.373 3035.933,715.084C3038.824,710.639 3042.141,705.939 3045.521,701.395C3045.431,701.182 3045.37,701.019 3045.332,700.918C3045.194,700.551 3044.585,698.934 3044.538,696.731C3041.784,698.712 3040.306,699.415 3039.333,699.888C3031.183,703.842 3024.399,700.713 3021.033,696.095Z" style="fill:white;"/>
                    </g>
                    <g transform="matrix(1.078109,0,0,1.078109,-227.38123,-83.709164)">
                        <path d="M3082.84,833.681C3080.987,833.155 3079.753,832.35 3079.401,832.121C3074.735,829.078 3074.003,824.378 3073.877,823.574C3073.77,822.884 3073.72,822.183 3073.73,821.485C3073.751,819.832 3073.862,819.844 3074.147,818.212C3077.392,799.568 3074.725,784.357 3090.684,744.266C3092.885,738.737 3095.21,733.291 3097.58,727.998C3100.646,715.078 3103.697,704.092 3105.839,699.135C3107.879,694.413 3109.353,692.929 3111.126,691.443C3111.473,691.152 3112.76,690.319 3113.03,690.192C3113.136,690.143 3114.325,689.584 3114.356,689.574C3114.489,689.531 3115.991,689.045 3116.021,689.041C3116.289,688.996 3116.511,688.956 3116.703,688.92C3118.669,685.114 3120.468,681.644 3122.025,678.577C3127.402,667.986 3129.748,664.045 3140.848,651.451C3141.898,650.259 3141.839,650.198 3143.082,649.205C3147.605,645.592 3152.462,646.544 3153.287,646.705C3154.112,646.867 3158.968,647.819 3161.793,652.872C3163.999,656.818 3163.296,660.593 3163.171,661.261C3163.12,661.536 3162.96,662.396 3162.122,664.598C3160.732,668.255 3158.507,673.911 3155.758,680.898C3160.31,680.784 3163.333,683.178 3163.894,683.621C3167.888,686.783 3168.406,691.092 3168.496,691.84C3168.692,693.476 3168.364,695.138 3168.13,696.769C3168.123,696.815 3163.726,712.359 3160.58,723.275C3140.609,792.569 3136.991,800.463 3134.836,803.857C3134.388,804.563 3131.754,808.711 3126.046,809.52C3121.708,810.135 3118.532,808.392 3117.01,807.306C3116.065,809.617 3115.409,811.144 3115.107,811.697C3114.904,812.069 3113.664,814.337 3111.739,815.791C3110.159,816.985 3108.828,817.521 3108.556,817.631C3108.43,817.682 3108.302,817.73 3108.174,817.777C3107.536,828.138 3107.626,837.465 3108.791,844.733C3109.703,850.422 3110.956,852.479 3110.993,852.615C3111.435,854.202 3112.15,855.749 3112.257,857.393C3112.587,862.476 3109.736,865.748 3109.241,866.316C3105.786,870.28 3101.315,870.57 3100.54,870.62C3095.457,870.95 3092.185,868.099 3091.617,867.604C3091.265,867.297 3089.543,865.796 3088.187,862.875C3085.601,857.303 3083.21,848.681 3082.84,833.681Z" style="fill:white;"/>
                    </g>
                    <g transform="matrix(1.078109,0,0,1.078109,-227.38123,-83.709164)">
                        <path d="M3065.502,881.38C3057.48,857.428 3053.445,848.988 3050.497,844.577C3049.632,843.283 3048.381,841.433 3047.604,838.595C3047.395,837.831 3046.175,833.377 3048.931,828.783C3049.754,827.412 3050.853,826.168 3052.136,825.214C3056.351,822.079 3060.758,822.75 3061.523,822.867C3062.104,822.956 3062.612,823.057 3063.057,823.166C3062.935,819.857 3062.951,816.478 3063.138,813.059C3063.165,812.551 3063.632,804.899 3064.663,799.601C3066.09,792.274 3068.861,788.662 3073.615,786.438C3077.229,784.748 3085.336,784.164 3090.411,792.054C3091.759,794.15 3092.986,797.296 3094.26,801.819C3095.064,796.255 3096.078,793.878 3098.023,791.359C3098.5,790.74 3099.69,789.605 3100.092,789.316C3101.767,788.114 3101.784,788.134 3103.678,787.324C3103.704,787.314 3105.286,786.86 3105.312,786.856C3105.451,786.835 3107.017,786.605 3107.048,786.605C3107.191,786.604 3108.798,786.592 3108.829,786.597C3108.967,786.615 3110.523,786.821 3110.554,786.829C3111.748,787.152 3118.283,788.351 3120.779,796.948C3122.977,804.518 3123.592,822.116 3124.782,836.834C3130.402,906.368 3141.782,909.751 3134.874,950.576C3133.076,961.207 3126.877,992.303 3136.676,1014.205C3140.169,1022.012 3144.577,1026.313 3147.032,1033.023C3147.17,1033.399 3147.949,1035.527 3147.853,1037.965C3147.677,1042.435 3145.374,1045.103 3145.053,1045.548C3144.687,1046.058 3143.958,1046.737 3143.855,1046.832C3143.453,1047.207 3141.244,1049.263 3137.738,1049.956C3136.085,1050.283 3133.989,1050.156 3133.633,1050.081C3133.296,1050.009 3129.411,1049.658 3126.005,1046.134C3125.391,1045.498 3124.754,1044.706 3124.17,1043.935C3122.024,1042.606 3120.037,1041.102 3118.178,1039.393C3115.761,1042.093 3112.993,1044.162 3110.374,1045.827C3108.398,1047.084 3106.719,1047.491 3106.38,1047.574C3101.16,1048.839 3097.312,1046.352 3096.649,1045.923C3092.138,1043.007 3091.294,1038.504 3091.149,1037.728C3091.024,1037.063 3090.954,1036.387 3090.938,1035.711C3090.899,1034.023 3091.019,1034.032 3091.239,1032.359C3091.317,1031.768 3091.386,1031.207 3091.445,1030.665C3090.65,1029.954 3089.877,1029.076 3089.196,1027.99C3089.002,1027.68 3088.071,1026.196 3087.508,1023.742C3084.711,1011.541 3083.884,999.272 3083.162,985.764C3082.693,983.053 3082.162,980.046 3081.546,976.475C3080.007,967.541 3078.801,958.973 3077.657,948.924C3077.589,948.329 3077.496,947.738 3077.457,947.141C3077.41,946.432 3077.358,945.719 3077.4,945.01C3077.545,942.538 3078.356,940.579 3079.279,939.114C3076.913,922.487 3072.878,903.6 3065.511,881.409C3065.51,881.404 3065.503,881.385 3065.502,881.38ZM3107.179,967.346C3107.186,967.278 3107.193,967.211 3107.2,967.143C3107.188,967.133 3107.176,967.123 3107.164,967.112C3107.169,967.19 3107.174,967.268 3107.179,967.346Z" style="fill:white;"/>
                    </g>
                    <g transform="matrix(1.078109,0,0,1.078109,-227.38123,-83.709164)">
                        <path d="M3135.647,1003.776C3133.972,1006.412 3133.778,1009.844 3132.043,1012.448C3131.158,1013.777 3129.55,1014.518 3128.077,1015.133C3127.362,1015.432 3123.244,1017.153 3118.395,1015.134C3117.699,1014.844 3113.692,1013.176 3111.734,1008.473C3111.532,1007.988 3110.538,1005.601 3110.809,1001.969C3111.653,990.624 3121.981,963.154 3121.965,933.447C3121.959,923.076 3120.687,916.631 3119.269,907.489C3103.987,808.955 3102.033,809.266 3100.908,798.432C3100.829,797.668 3100.373,793.279 3103.679,789.238C3104.691,788.001 3105.959,786.929 3107.366,786.17C3111.994,783.677 3116.276,784.979 3117.018,785.205C3121.887,786.686 3123.95,790.507 3124.308,791.17C3126.042,794.382 3125.522,794.561 3126.065,798.168C3126.769,802.842 3130.749,818.563 3143.238,898.923C3145.624,914.279 3146.696,919.775 3146.934,930.481C3147.66,963.255 3136.65,995.303 3135.747,1003.721L3135.747,1003.777L3135.647,1003.776ZM3135.747,1003.698L3135.748,1003.698L3135.748,1003.62C3135.732,1003.645 3135.715,1003.67 3135.699,1003.695L3135.746,1003.696L3135.747,1003.698Z" style="fill:white;"/>
                    </g>
                    <g transform="matrix(1.078109,0,0,1.078109,-227.38123,-83.709164)">
                        <path d="M3165.566,605.299C3163.643,605.533 3161.526,605.425 3159.285,604.729C3154.12,603.126 3152.08,599.076 3151.724,598.37C3151.005,596.942 3150.541,595.348 3150.42,593.753C3150.024,588.529 3152.919,585.229 3153.424,584.652C3154.075,583.91 3154.767,583.299 3155.464,582.795C3155.341,580.039 3156.009,576.623 3158.21,573.429C3157.537,570.398 3157.834,566.748 3159.719,562.547C3162.271,556.858 3168.366,548.275 3173.149,545.314C3174.677,544.368 3181.602,540.792 3188.24,539.926C3197.864,538.669 3203.272,542.724 3206.058,544.845C3210.215,546.958 3224.725,554.625 3224,569.719C3223.444,581.288 3213.565,589.408 3209.805,593.355C3208.954,594.249 3208.979,594.274 3207.997,595.014C3207.762,595.191 3207.12,595.675 3206.139,596.173C3206.052,596.374 3205.96,596.576 3205.861,596.78C3203.823,600.975 3201.736,605.146 3199.604,609.293C3196.394,615.538 3190.512,616.066 3189.541,616.153C3189.372,616.168 3189.033,616.199 3188.565,616.203C3185.684,618.5 3183.835,619.154 3182.097,619.631C3173.855,621.894 3164.71,615.591 3165.566,605.299Z" style="fill:white;"/>
                    </g>
                    <g transform="matrix(1.078109,0,0,1.078109,-227.38123,-83.709164)">
                        <path d="M3156.681,718.008C3156.357,716.33 3156.235,714.388 3156.406,712.143C3156.864,706.157 3159.657,694.734 3164.9,686.436C3164.899,682.345 3165.093,677.864 3165.547,672.963C3166.086,667.142 3167.699,664.629 3169.132,662.757C3169.19,662.682 3169.248,662.608 3169.307,662.535C3159.457,643.049 3167.503,633.823 3172.279,619.758C3173.546,616.024 3174.194,613.217 3174.214,613.175C3174.926,611.689 3175.366,610.039 3176.351,608.717C3176.801,608.113 3179.395,604.631 3184.428,603.871C3185.195,603.755 3189.621,603.087 3193.839,606.224C3197.926,609.264 3198.573,613.556 3198.685,614.301C3199.153,617.403 3198.949,617.43 3198.154,620.462C3195.459,630.746 3192.15,637.258 3190.575,641.56C3190.733,641.649 3190.851,641.721 3190.929,641.768C3191.627,642.19 3195.689,644.919 3199.981,651.82C3210.035,667.989 3215.026,697.135 3215.805,715.914C3228.342,710.369 3232.721,710.902 3236.518,712.142C3238.153,712.676 3239.555,713.623 3240.389,714.267C3240.478,714.304 3240.568,714.342 3240.658,714.38C3243.345,715.529 3245.036,717.473 3245.341,717.824C3247.956,720.829 3251.533,728.163 3244.552,736.64C3241.357,740.52 3234.944,745.995 3225.962,753.193C3212.122,764.284 3194.938,765.585 3178.873,751.24C3176.685,749.285 3175.537,748.05 3174.102,746.649C3168.006,742.497 3154.228,732.491 3156.681,718.008Z" style="fill:white;"/>
                    </g>
                    <g transform="matrix(1.078109,0,0,1.078109,-227.38123,-83.709164)">
                        <path d="M3179.106,718.278C3179.342,718.409 3179.591,718.548 3179.855,718.695C3177.339,723.477 3173.973,728.879 3160.383,744.785C3154.662,751.481 3156.238,753.128 3152.715,764.93C3150.239,773.223 3146.921,780.329 3144.347,785.504C3144.005,786.191 3142.044,790.135 3137.103,791.782C3135.586,792.288 3133.942,792.517 3132.347,792.406C3127.102,792.044 3124.172,788.653 3123.665,788.065C3121.52,785.583 3121.358,784.267 3121.311,783.886C3120.722,779.105 3122.56,779.129 3121.977,774.362L3121.969,774.358C3121.971,774.354 3121.973,774.351 3121.975,774.347C3129.633,758.796 3129.325,754.746 3131.647,746.286C3134.618,735.462 3139.667,730.7 3146.032,723.031C3157.923,708.705 3157.034,707.69 3159.095,704.82C3159.812,703.821 3160.524,703.094 3160.61,703.003C3161.153,702.434 3164.29,699.149 3169.653,699.149C3171.252,699.149 3172.884,699.451 3174.362,700.06C3179.22,702.062 3180.913,706.189 3181.207,706.905C3182.448,709.929 3182.187,711.232 3182.112,711.608C3181.345,715.441 3180.067,715.777 3179.106,718.278ZM3178.512,720.371C3178.506,720.405 3178.499,720.439 3178.492,720.473L3178.553,720.411L3178.512,720.371Z" style="fill:white;"/>
                    </g>
                    <g transform="matrix(1.078109,0,0,1.078109,-227.38123,-83.709164)">
                        <path d="M3126,627.194C3125.726,627.087 3125.454,626.899 3125.299,626.57C3124.916,625.757 3125.516,624.755 3126.489,624.789C3126.563,624.791 3126.635,624.794 3126.708,624.796C3126.771,624.745 3126.841,624.699 3126.918,624.66C3127.045,624.404 3127.267,624.187 3127.591,624.067C3127.624,624.055 3127.721,624.033 3127.872,624.002L3127.872,623.999C3127.881,623.998 3127.89,623.997 3127.899,623.996C3129.412,623.686 3135.843,622.576 3137.557,622.166L3137.559,622.177C3137.693,622.148 3137.773,622.132 3137.791,622.131C3138.045,622.118 3138.268,622.173 3138.454,622.276C3138.821,622.069 3139.545,621.802 3140.244,622.409C3140.269,622.431 3140.315,622.444 3140.317,622.477C3140.363,623.253 3140.316,623.348 3140.34,623.955C3140.756,624.186 3141.02,624.481 3141.179,624.84C3141.642,625.891 3140.72,626.804 3140.596,626.926C3140.416,627.105 3140.229,627.284 3140.026,627.456C3140.027,627.457 3140.027,627.457 3140.028,627.457C3140.935,627.961 3140.861,629.397 3139.853,629.72C3140.39,629.892 3140.625,629.948 3140.948,629.995C3140.969,629.984 3141.001,629.986 3141.021,629.973L3141.019,629.968L3141.025,629.97C3141.028,629.968 3141.031,629.965 3141.033,629.961L3141.04,629.975L3142.696,630.527C3142.227,631.749 3142.644,632.268 3141.353,632.47C3140.292,632.637 3138.406,631.861 3133.809,630.342C3131.091,629.444 3129.669,629.009 3128.883,628.753C3128.594,628.729 3128.293,628.704 3127.981,628.679C3127.926,628.675 3127.616,628.65 3127.313,628.614C3127.295,628.615 3127.277,628.615 3127.26,628.615L3127.26,628.608C3127.024,628.579 3126.803,628.545 3126.722,628.509C3126.16,628.261 3125.93,627.707 3126,627.194Z" style="fill:white;"/>
                    </g>
                    <g transform="matrix(1.078109,0,0,1.078109,-227.38123,-83.709164)">
                        <path d="M3194.524,724.256C3194.424,724.201 3194.324,724.129 3194.228,724.038C3191.686,721.642 3190.305,718.495 3189.833,717.716C3188.599,715.679 3187.129,714.95 3186.181,713.805C3184.63,711.932 3179.703,705.628 3179.54,705.289C3179.494,705.194 3179.194,704.57 3179.63,703.968C3179.669,703.914 3179.693,703.821 3179.759,703.816C3180.642,703.745 3180.642,703.887 3181.527,703.816L3181.527,704.144L3181.699,704.034C3181.939,704.353 3182.309,704.84 3182.76,705.428C3182.576,704.583 3182.618,703.636 3183.553,703.28C3185.028,702.717 3185.812,704.826 3186.159,705.465C3187.987,708.827 3189.831,710.521 3191.461,712.193C3191.742,712.408 3192.033,712.68 3192.388,713.18C3193.966,714.948 3195.273,717.029 3196.063,721.194C3197.342,724.589 3198.425,728.034 3198.353,728.145C3198.031,728.639 3197.647,729.091 3197.325,729.584L3195.9,728.566L3195.889,728.568C3195.888,728.564 3195.887,728.56 3195.886,728.556C3195.654,727.596 3195.151,726.021 3194.524,724.256ZM3181.527,704.832L3181.527,705.583L3181.636,704.848L3181.527,704.832Z" style="fill:white;"/>
                    </g>
                    <g transform="matrix(1.078109,0,0,1.078109,-227.38123,-83.709164)">
                        <path d="M3144.11,1044.435C3142.832,1043.242 3142.191,1042.325 3139.384,1039.693C3138.884,1039.224 3138.9,1038.599 3139.186,1038.14C3139.145,1038.055 3139.105,1037.97 3139.067,1037.883C3139.067,1037.883 3139.217,1037.294 3139.393,1036.886C3139.775,1036.005 3140.499,1035.545 3141.228,1035.721C3141.562,1034.99 3142.601,1034.631 3143.305,1035.382C3143.6,1035.697 3143.874,1036 3144.133,1036.295C3144.392,1036.367 3144.64,1036.528 3144.835,1036.799C3144.864,1036.839 3146.555,1039.476 3149.871,1043.201C3150.094,1043.437 3150.329,1043.679 3150.576,1043.93C3152.872,1046.255 3153.469,1046.697 3153.361,1047.506C3153.272,1048.177 3152.393,1049.092 3151.303,1048.287C3151.273,1048.298 3151.242,1048.307 3151.211,1048.315C3151.002,1048.826 3150.649,1049.274 3150.461,1049.793C3149.964,1049.478 3149.377,1049.321 3148.88,1049.006C3148.877,1049.004 3148.874,1049.001 3148.871,1048.997C3148.521,1049.029 3148.151,1048.911 3147.85,1048.584C3147.127,1047.8 3145.718,1046.182 3144.11,1044.435Z" style="fill:white;"/>
                    </g>
                </g>
                <g>
                    <g transform="matrix(-0.864233,-0.415006,-0.503091,0.712917,662.463799,1511.924312)">
                        <path d="M-4.61,1.244C-1.578,1.303 -0.065,1.261 0.336,1.244" style="fill:none;fill-rule:nonzero;stroke:black;stroke-width:6.76px;"/>
                    </g>
                    <g transform="matrix(1,0,0,0.824913,661.54772,1542.009789)">
                        <path d="M0,-35.565C1.119,-34.823 11.994,-27.325 14.542,-17.135C16.255,-10.281 14.767,-1.352 14.542,0" style="fill:none;fill-rule:nonzero;stroke:black;stroke-width:7.3px;"/>
                    </g>
                    <g transform="matrix(0.749596,-0.661896,-0.661896,-0.749596,232.254234,1456.287008)">
                        <path d="M-1.283,3.393C4.95,3.253 8.122,3.354 8.967,3.393" style="fill:none;fill-rule:nonzero;stroke:black;stroke-width:6.69px;"/>
                    </g>
                    <g transform="matrix(2.67567,0,0,2.67567,-7760.495344,-1264.201064)">
                        <path d="M2980.662,1023.963C2978.178,1025.31 2978.468,1025.938 2977.631,1027.668C2977.27,1028.414 2976.493,1029.884 2972.644,1029.691C2960.634,1029.09 2949.676,1010.045 2961.458,916.093C2963.935,896.341 2966.513,880.518 2966.707,877.542C2968.991,842.501 2971.214,836.868 2975.357,814.089C2978.446,797.103 2979.911,783.672 2979.967,783.593C2980.306,783.111 2981.024,782.991 2981.363,782.509C2981.559,783.376 2982.113,784.136 2982.309,785.003C2982.311,785.011 2981.563,790.912 2980.825,796.015C2975.543,832.523 2971.954,834.228 2969.202,877.699C2968.694,885.729 2948.291,1001.223 2966.391,1023.667C2966.7,1024.051 2969.499,1027.883 2974.534,1027.112C2975.742,1026.926 2975.326,1026.069 2976.402,1024.387C2976.9,1023.607 2977.732,1022.682 2979.299,1021.853C2979.38,1021.81 2979.454,1021.707 2979.543,1021.727C2980.409,1021.923 2980.354,1022.091 2981.221,1022.286L2980.667,1023.948L2980.672,1023.958C2980.668,1023.96 2980.665,1023.961 2980.662,1023.963Z"/>
                    </g>
                    <g transform="matrix(2.67567,0,0,2.67567,-7760.495344,-1264.201064)">
                        <path d="M3022.288,1033.104L3022.4,1033.005C3022.357,1033.593 3022.443,1034.185 3022.4,1034.773C3022.4,1034.774 3022.142,1035.036 3021.871,1035.204C3020.935,1035.784 3019.203,1035.368 3019.747,1033.053C3022.984,1019.282 3023.054,991.384 3024.379,961.554C3025.675,932.387 3027.741,929.496 3028.6,926.197C3031.138,916.457 3030.418,901.371 3030.775,899.502C3033.779,883.79 3048.58,852.805 3054.478,849.532C3054.527,849.505 3054.572,849.44 3054.626,849.453C3055.484,849.667 3055.449,849.774 3056.31,849.989C3056.093,850.55 3055.947,851.136 3055.729,851.697C3055.728,851.699 3053.901,852.403 3049.164,860.627C3043.967,869.649 3035.937,886.892 3033.241,899.914C3032.841,902.427 3033.867,918.225 3030.373,929.001C3027.023,939.331 3026.633,970.465 3025.531,997.599C3024.425,1024.851 3022.862,1030.501 3022.288,1033.104Z"/>
                    </g>
                    <g transform="matrix(2.67567,0,0,2.67567,-7760.495344,-1264.201064)">
                        <path d="M3076.05,926.973C3073.933,919.046 3058.233,862.395 3052.976,851.671C3052.914,851.544 3053.016,851.55 3053.536,849.998C3054.07,850.247 3054.68,850.308 3055.214,850.558C3055.318,850.606 3056.179,852.71 3056.256,852.9C3062.608,868.428 3078.478,926.055 3078.533,926.662C3079.892,941.728 3080.129,955.86 3081.296,967.255C3082.523,979.241 3084.164,987.393 3084.463,991.653C3085.453,1005.757 3082.044,1019.579 3093.638,1031.354C3093.818,1031.537 3095.245,1032.866 3094.349,1034.053C3094.192,1034.262 3093.919,1034.43 3093.911,1034.428C3093.335,1034.301 3092.784,1034.071 3092.208,1033.944L3092.347,1033.459C3092.304,1033.481 3092.259,1033.503 3092.211,1033.527C3091.055,1031.966 3084.74,1027.137 3082.855,1014.6C3081.505,1005.619 3082.818,996.38 3081.573,988.246C3079.969,977.758 3079.075,970.906 3078.435,963.525C3077.494,952.666 3077.944,950.461 3076.05,926.973Z"/>
                    </g>
                    <g transform="matrix(2.67567,0,0,2.67567,-7760.495344,-1264.201064)">
                        <path d="M3125.315,805.834L3125.312,805.832C3125.313,805.832 3125.313,805.831 3125.314,805.83C3125.745,804.93 3125.963,804.244 3126.639,804.052C3127.448,803.822 3128.226,804.465 3128.233,805.233C3128.406,825.2 3141.981,856.766 3146.678,901.113C3152.138,952.664 3140.146,987.932 3136.319,999.907C3131.585,1014.714 3143.252,1013.655 3149.339,1032.221C3150.765,1036.569 3151.419,1041.426 3151.413,1041.44C3151.165,1041.974 3150.603,1042.322 3150.355,1042.856C3149.909,1042.357 3149.338,1041.979 3148.892,1041.48C3148.733,1041.302 3148.17,1032.937 3143.271,1024.813C3137.295,1014.902 3129.534,1012.506 3134.078,998.713C3146.852,959.944 3149.214,921.194 3140.088,874.269C3134.352,844.776 3126.545,823.062 3125.791,807.262L3125.315,805.834Z"/>
                    </g>
                    <g transform="matrix(2.67567,0,0,2.67567,-7760.495344,-1264.201064)">
                        <path d="M3011.722,692.087C3004.856,700.234 2999.055,704.011 2992.754,707.946C2986.515,711.841 2983.376,714.203 2982.067,722.993C2982.047,723.132 2981.965,723.069 2980.654,724.051C2980.378,723.53 2979.869,723.157 2979.593,722.635C2979.588,722.626 2979.805,721.218 2979.986,720.381C2983.803,702.709 2997.124,710.635 3016.712,681.242C3028.924,662.917 3027.739,662.221 3034.696,641.325C3035.03,640.321 3035.563,639.539 3038.537,635.102L3048.687,619.928C3048.976,619.496 3050.677,618.08 3054.043,615.322C3054.638,614.835 3055.326,614.188 3055.792,614.113C3056.881,613.938 3057.71,615.225 3056.937,616.164C3055.198,618.278 3051.103,622.394 3050.58,622.92C3046.35,627.173 3045.336,629.059 3043.265,637.114C3035.468,667.442 2995.495,719.317 2994.206,720.435C2994.091,720.534 2989.707,722.688 2986.234,739.163C2984.149,749.05 2983.413,759.671 2984.303,762.143C2983.971,762.356 2983.949,762.354 2983.698,762.614L2983.491,762.984L2984.586,763.589C2984.02,763.755 2983.473,763.982 2982.908,764.148C2982.903,764.149 2982.513,763.961 2982.234,763.545C2981.882,763.021 2980.952,761.4 2981.739,752.314C2982.163,747.416 2983.356,738.873 2985.642,731.303C2988.525,721.76 2991.446,719.403 2992.532,718.574C2994.552,716.162 3002.643,705.592 3011.722,692.087ZM3031.423,659.429C3035.673,651.219 3039.092,643.286 3040.845,636.488C3040.892,636.304 3040.939,636.123 3040.986,635.944C3037.344,641.391 3037.259,641.548 3037.099,642.022C3034.364,650.131 3032.907,655.188 3031.423,659.429Z"/>
                    </g>
                    <g transform="matrix(2.67567,0,0,2.67567,-7760.495344,-1264.201064)">
                        <path d="M2982.701,785.146L2981.793,786.659C2981.354,786.266 2980.716,786.143 2980.277,785.75C2980.273,785.746 2979.781,783.785 2979.584,782.478C2978.941,778.191 2980.083,777.489 2980.755,771.214C2981.01,768.829 2981.578,762.041 2985.277,762.775C2985.324,762.785 2985.392,762.767 2985.419,762.807C2985.917,763.539 2985.83,763.589 2986.328,764.323C2985.823,764.619 2985.33,764.938 2984.825,765.235C2984.814,765.241 2984.808,765.236 2984.803,765.226C2984.8,765.23 2984.795,765.236 2984.787,765.242C2983.618,766.182 2983.249,771.93 2982.963,773.688C2982.5,776.53 2981.986,778.341 2981.913,779.701C2981.806,781.706 2982.388,783.807 2982.702,785.143C2982.702,785.144 2982.703,785.145 2982.703,785.145L2982.701,785.146ZM2984.792,765.168C2984.789,765.153 2984.787,765.139 2984.783,765.13C2984.784,765.145 2984.787,765.157 2984.792,765.168Z"/>
                    </g>
                    <g transform="matrix(2.67567,0,0,2.67567,-7760.495344,-1264.201064)">
                        <path d="M2991.568,720.077L2992.167,720.276C2991.694,721.557 2992.065,722.046 2991.001,722.124C2988.038,722.341 2988.806,715.741 2990.83,711.836C2992.351,708.901 2993.866,708.552 2996.245,704.79C2996.823,703.876 2997.185,703.13 2997.186,703.129C2997.734,702.911 2998.319,702.796 2998.866,702.578C2998.954,703.203 2999.251,703.787 2999.339,704.412C2999.343,704.435 2997.813,707.521 2994.845,710.563C2994.54,710.876 2993.198,712.03 2992.258,714.893C2991.719,716.535 2991.335,718.824 2991.657,720.042L2991.573,720.074C2991.572,720.075 2991.57,720.076 2991.568,720.077Z"/>
                    </g>
                    <g transform="matrix(2.67567,0,0,2.67567,-7760.495344,-1264.201064)">
                        <path d="M2982.7,784.859C2982.605,785.03 2982.506,785.198 2982.399,785.361C2982.397,785.365 2981.825,785.542 2981.463,785.608C2981.425,785.615 2980.231,785.928 2979.67,785.058C2979.462,784.737 2979.058,783.627 2980.585,782.93C2983.547,781.58 2996.867,779.235 3019.884,790.558C3024.548,792.852 3024.795,792.45 3048.501,801.382C3076.538,811.945 3081.46,814.253 3094.553,818.097C3115.927,824.372 3129.191,824.996 3129.285,825.078C3129.728,825.467 3129.974,826.048 3130.417,826.437C3129.911,826.738 3129.564,827.266 3129.057,827.568C3129.031,827.584 3116.745,826.674 3100.085,822.235C3079.869,816.848 3071.532,812.431 3034.047,798.672C3022.62,794.478 3022.546,794.654 3018.785,792.803C2999.16,783.149 2986.961,783.755 2982.7,784.859Z"/>
                    </g>
                    <g transform="matrix(2.67567,0,0,2.67567,-7760.495344,-1264.201064)">
                        <path d="M3129.481,806.79C3122.115,806.521 3103.133,805.268 3086.69,800.259C3069.544,795.035 3059.741,787.861 3038.087,779.106C3030.171,775.906 3029.328,774.819 3023.315,771.4C3015.573,766.997 3007,764.318 2982.808,764.28C2981.855,764.279 2982.235,763.707 2981.558,763.03C2982.07,762.737 2982.298,762.074 2982.809,761.78C2982.818,761.775 2986.867,761.784 2989.847,761.871C3023.067,762.832 3022.085,769.969 3037.998,776.376C3061.478,785.83 3069.8,792.38 3086.824,797.684C3102.497,802.567 3121.247,804.031 3130.122,804.306C3130.957,804.309 3132.382,804.319 3132.719,804.351C3134.165,804.486 3134.441,806.843 3132.408,806.857C3132.04,806.859 3131.221,806.848 3130.03,806.81C3129.848,806.827 3129.648,806.904 3129.502,806.805C3129.495,806.8 3129.488,806.795 3129.481,806.79Z"/>
                    </g>
                    <g transform="matrix(2.67567,0,0,2.67567,-7760.495344,-1264.201064)">
                        <path d="M2982.576,764.079C2982.37,764.179 2981.151,763.71 2981.344,762.612C2981.441,762.064 2981.936,761.585 2982.575,761.579C2987.364,761.534 2996.405,761.549 2997.608,761.551C3001.788,761.557 3007.611,761.477 3025.737,763.363C3062.733,767.213 3114.017,808.094 3129.198,803.062C3130.799,802.532 3131.385,801.823 3133.58,799.214C3153.361,775.699 3142.966,767.038 3160.685,744.347C3161.404,743.426 3162.867,742.403 3163.96,741.538C3164.15,741.198 3164.379,740.831 3165.039,740.656C3166.129,740.366 3167.536,741.822 3165.944,743.152C3165.875,743.21 3165.808,743.265 3165.743,743.319C3165.66,743.41 3165.571,743.49 3165.482,743.541C3165.466,743.55 3165.45,743.559 3165.435,743.568C3163.969,744.732 3163.393,744.926 3162.245,746.414C3145.353,768.321 3155.911,776.724 3135.001,801.404C3133.218,803.508 3131.373,806.292 3125.287,805.951C3105.354,804.836 3059.435,769.222 3025.012,765.801C3003.861,763.699 3003.829,764.056 2982.576,764.079ZM3165.372,741.906C3165.373,741.905 3165.373,741.905 3165.372,741.906Z"/>
                    </g>
                    <g transform="matrix(2.67567,0,0,2.67567,-7760.495344,-1264.201064)">
                        <path d="M3218.836,713.943C3218.657,714.138 3218.477,714.33 3218.274,714.498C3218.274,714.498 3217.766,714.501 3217.397,714.46C3215.855,714.291 3215.338,712.359 3217.318,711.747C3219.373,711.113 3230.926,709.364 3231.849,709.362C3237.676,709.349 3243.72,717.928 3246.857,720.379C3252.298,724.629 3250.345,731.234 3242.818,738.558C3241.938,739.413 3234.462,746.98 3217.787,756.216C3213.469,758.607 3207.86,761.365 3204.978,762.146C3201.299,763.142 3200.917,764.301 3199.037,764.316C3197.206,764.331 3196.202,762.385 3195.879,761.766C3195.842,761.695 3195.751,761.63 3195.769,761.553C3195.974,760.69 3196.123,760.739 3196.328,759.875C3196.872,760.099 3197.459,760.206 3198.003,760.43C3198.006,760.431 3198.497,761.469 3198.928,761.771C3198.942,761.78 3198.956,761.789 3198.971,761.797C3199.051,761.838 3198.973,761.864 3198.976,761.951C3199.03,761.876 3198.98,761.821 3199.072,761.817C3199.747,761.791 3201.511,760.483 3203.911,759.841C3213.437,757.293 3249.745,736.002 3247.351,725.298C3246.895,723.256 3245.429,722.614 3243.872,721.072C3241.438,718.661 3235.342,711.363 3231.502,711.881C3231.093,711.937 3226.285,712.627 3222.626,713.24C3220.615,713.577 3219.485,713.799 3218.836,713.943Z"/>
                    </g>
                    <g transform="matrix(2.67567,0,0,2.67567,-7760.495344,-1264.201064)">
                        <path d="M3197.797,763.821C3193.396,762.274 3192.933,761.756 3186.956,758.72C3163.413,746.76 3147.458,716.362 3147.239,712.84C3147.164,711.638 3148.293,710.948 3149.277,711.483C3149.31,711.501 3149.364,711.504 3149.374,711.541C3149.541,712.147 3149.551,712.33 3149.627,712.692C3149.665,712.688 3149.701,712.684 3149.733,712.683C3151,717.629 3166.44,745.55 3188.084,756.489C3194.507,759.735 3194.381,760.037 3199.531,761.779C3199.549,761.785 3200.85,762.001 3200.941,763.045C3201,763.726 3200.467,764.394 3199.695,764.403C3198.5,764.417 3198.493,764.449 3198.4,764.403C3198.021,764.217 3197.9,764.019 3197.797,763.821Z"/>
                    </g>
                    <g transform="matrix(2.67567,0,0,2.67567,-7760.495344,-1264.201064)">
                        <path d="M3145.583,713.025C3145.444,712.93 3145.296,712.838 3145.141,712.759C3145.444,712.242 3145.695,711.695 3145.999,711.179C3146.041,711.107 3148.026,710.677 3148.087,712.91C3148.158,715.465 3147.366,721.294 3154.366,735.376C3158.611,743.915 3161.369,745.194 3161.556,745.373C3162.289,746.075 3162.119,747.107 3161.251,747.584C3161.218,747.602 3161.188,747.646 3161.152,747.636C3160.483,747.445 3160.355,747.359 3159.921,747.214C3159.913,747.223 3159.905,747.232 3159.897,747.242C3159.879,747.228 3159.842,747.206 3159.787,747.171C3159.697,747.142 3159.594,747.111 3159.474,747.077L3159.507,746.98C3158.367,746.155 3154.901,743.064 3150.154,732.301C3145.053,720.735 3145.618,715.098 3145.583,713.025ZM3160.568,746.468L3160.571,746.474C3160.57,746.472 3160.569,746.47 3160.568,746.468ZM3160.054,745.39C3160.051,745.381 3160.051,745.381 3160.054,745.39Z"/>
                    </g>
                    <g transform="matrix(2.67567,0,0,2.67567,-7760.495344,-1264.201064)">
                        <path d="M2981.113,724.604C2978.49,725.009 2974.701,725.549 2971.705,724.138C2969.383,723.045 2969.293,723.313 2965.635,722.937C2964.986,722.871 2951.856,721.689 2945.196,718.268C2943.172,717.228 2943.82,713.212 2946.893,705.311C2948.427,701.368 2950.958,695.841 2952.434,693.48C2983.108,644.399 2987.727,642.726 2998.669,631.844C3058.613,572.227 3096.335,575.632 3107.021,576.913C3109.322,574.474 3109.232,574.132 3111.588,571.224C3112.189,570.481 3112.397,571.14 3113.349,571.041C3113.333,571.629 3113.546,572.21 3113.529,572.799C3113.529,572.83 3112.992,573.39 3111.543,575.387C3111.314,575.703 3110.06,577.431 3108.39,579.101C3107.792,579.699 3107.256,579.419 3104.913,579.193C3056.534,574.528 3005.48,628.86 2997.033,636.95C2987.717,645.871 2981.673,651.499 2954.552,694.807C2952.252,698.481 2946.005,712.7 2946.563,716.155C2954.393,719.882 2968.325,720.567 2969.894,720.852C2972.943,721.407 2972.911,722.972 2978.416,722.442C2981.984,722.099 2983.958,721.187 2984.66,722.633C2985.143,723.63 2984.141,724.477 2984.016,724.583C2983.626,724.913 2983.175,725.218 2983.099,725.27C2982.971,725.357 2982.869,725.536 2982.715,725.531C2981.824,725.498 2981.869,725.224 2980.978,725.192C2981.045,725.002 2981.084,724.804 2981.113,724.604ZM2946.401,716.077C2946.407,716.066 2946.356,716.055 2946.367,716.06C2946.379,716.066 2946.39,716.072 2946.401,716.077Z"/>
                    </g>
                    <g transform="matrix(2.67567,0,0,2.67567,-7760.495344,-1264.201064)">
                        <path d="M2975.512,725.208L2973.95,724.688C2974.395,723.492 2973.955,722.945 2975.222,722.791C2978.73,722.365 2981.884,730.145 2981.43,734.13C2981.258,735.646 2979.399,735.896 2973.901,736.026C2964.949,736.237 2944.646,735.387 2944.014,735.206C2943.144,734.956 2942.15,734.099 2943.947,727.379C2944.025,727.085 2946.511,717.566 2949.498,715.939C2949.682,715.839 2950.943,715.153 2952.104,716.222C2952.126,716.242 2952.167,716.253 2952.168,716.283C2952.213,717.169 2952.152,717.167 2952.197,718.051C2951.419,718.054 2950.799,718.258 2950.511,718.296C2948.471,720.208 2945.606,729.429 2945.442,732.817C2953.26,733.242 2974.325,734.024 2978.965,733.188C2978.92,729.788 2976.712,725.783 2975.506,725.27C2975.508,725.247 2975.51,725.227 2975.512,725.208Z"/>
                    </g>
                    <g transform="matrix(2.67567,0,0,2.67567,-7760.495344,-1264.201064)">
                        <path d="M2953.834,736.96C2950.805,741.485 2950.32,743.179 2953.287,747.217C2953.548,747.573 2955.435,750.141 2956.896,751.393C2957.808,752.175 2961.267,755.281 2964.692,749.248C2967.764,743.836 2967.959,736.01 2966.297,735.157C2966.072,735.041 2965.637,735.174 2965.582,735.19C2965.447,735.231 2965.468,735.132 2964.009,734.397C2964.302,733.886 2964.507,733.327 2964.8,732.816C2964.862,732.708 2969.439,731.203 2969.822,738.125C2970.239,745.674 2965.319,758.589 2957.331,754.697C2956.718,754.399 2954.762,753.446 2951.277,748.704C2947.028,742.923 2948.561,740.18 2953.043,733.676C2953.103,733.59 2953.675,732.758 2953.846,732.632C2954.696,732.002 2955.928,732.675 2955.835,733.749C2955.513,737.455 2955.572,737.465 2955.469,737.771C2955.171,738.663 2954.41,738.011 2954.111,738.903L2953.834,736.96Z"/>
                    </g>
                    <g transform="matrix(2.67567,0,0,2.67567,-7760.495344,-1264.201064)">
                        <path d="M2979.553,735.406C2979.66,735.437 2979.739,735.459 2979.763,735.465C2979.473,737.468 2979.149,749.749 2969.638,749.279C2968.936,749.244 2968.28,749.131 2968.28,749.13C2967.888,748.691 2967.645,748.132 2967.252,747.692L2968.684,746.669L2968.685,746.663C2968.687,746.664 2968.689,746.664 2968.691,746.664C2971.891,747.088 2975.908,746.735 2977.056,737.091C2977.236,735.572 2977.158,734.075 2978.34,733.789C2979.29,733.559 2979.86,734.481 2979.842,734.54C2979.755,734.831 2979.654,735.118 2979.553,735.406Z"/>
                    </g>
                    <g transform="matrix(2.67567,0,0,2.67567,-7760.495344,-1264.201064)">
                        <path d="M2951.664,740.47C2953.841,746.41 2956.969,754.37 2954.415,756.463C2953.88,756.902 2952.097,758.362 2946.632,752.674C2941.973,747.826 2941.01,735.25 2946.553,732.239C2946.607,732.209 2946.658,732.137 2946.718,732.153C2947.575,732.373 2947.534,732.491 2948.395,732.712C2948.191,733.262 2948.047,733.834 2947.844,734.384C2947.819,734.451 2945.712,735.078 2945.308,739.859C2945.006,743.435 2946.052,748.542 2948.535,751.045C2950.106,752.629 2951.101,753.37 2951.342,753.55C2952.129,754.136 2952.594,754.339 2952.823,754.41C2953.426,751.576 2949.357,741.585 2949.229,741.062C2948.879,739.628 2950.808,738.748 2951.603,740.229C2951.631,740.282 2951.701,740.332 2951.685,740.39C2951.679,740.417 2951.671,740.444 2951.664,740.47Z"/>
                    </g>
                    <g transform="matrix(2.67567,0,0,2.67567,-7760.495344,-1264.201064)">
                        <path d="M3189.294,636.356C3191.721,632.31 3200.928,626.94 3190.878,620.119C3182.355,614.335 3178.084,610.662 3172.321,603.164C3169.175,599.07 3167.277,596.133 3159.07,589.989C3142.447,577.543 3131.728,577.91 3130.704,577.584C3130.018,577.366 3122.756,574.782 3114.265,575.062C3113.285,575.094 3113.278,575.159 3113.206,575.115C3112.703,574.807 3112.386,574.249 3111.883,573.942C3112.44,573.561 3112.839,572.979 3113.395,572.599C3113.416,572.585 3118.574,572.226 3124.84,573.465C3128.054,574.1 3129.967,574.718 3131.421,575.189C3135.663,575.631 3146.536,576.882 3162.812,589.717C3171.972,596.94 3172.201,599.652 3177.908,606.057C3184.596,613.561 3191.702,617.314 3194.336,619.639C3202.906,627.201 3193.991,634.232 3191.838,637.035C3191.384,637.628 3191.402,637.782 3191.177,638.008C3190.735,638.452 3190.195,638.382 3189.79,638.367C3189.787,638.367 3189.783,638.367 3189.78,638.367L3189.78,638.357L3188.54,637.117C3188.809,636.882 3189.048,636.616 3189.294,636.356Z"/>
                    </g>
                    <g transform="matrix(2.67567,0,0,2.67567,-7760.495344,-1264.201064)">
                        <path d="M3190.675,640.223C3186.746,636.475 3182.926,632.68 3170.714,629.398C3157.328,625.801 3144.499,624.918 3135.512,611.486C3131.586,605.619 3127.827,594.147 3123.148,589.045C3120.36,586.006 3116.941,584.566 3112.866,583.502C3112.769,583.477 3112.634,583.509 3112.574,583.428C3112.038,582.72 3112.2,582.621 3111.665,581.913C3112.221,581.716 3112.626,581.2 3113.182,581.003C3113.183,581.003 3114.519,581.333 3115.807,581.752C3127.341,585.502 3128.776,593.269 3135.643,606.733C3147.722,630.412 3173.487,620.434 3190.812,636.893C3193.419,639.369 3193.436,639.409 3193.557,639.699C3194.017,640.789 3192.794,642.248 3191.006,640.859C3190.754,640.664 3190.572,640.411 3190.534,640.363L3190.675,640.223Z"/>
                    </g>
                    <g transform="matrix(2.67567,0,0,2.67567,-7760.495344,-1264.201064)">
                        <path d="M3217.247,714.396C3216.531,711.824 3216.767,711.078 3215.155,703.621C3211.862,688.383 3207.882,678.863 3207.246,670.314C3206.827,664.689 3204.59,664.34 3203.114,660.516C3199.91,652.219 3195.031,642.118 3182.529,637.068C3171.124,632.461 3157.415,632.905 3145.797,624.649C3144.813,623.95 3129.092,613.077 3124.946,601.115C3124.493,599.809 3122.677,594.569 3115.692,586.521C3113.124,583.563 3112.149,582.831 3111.794,582.564L3111.902,582.387L3111.267,580.872C3111.85,580.738 3112.408,580.505 3112.992,580.371C3113.116,580.342 3115.439,582.092 3119.737,587.484C3126.093,595.459 3127.39,600.53 3127.484,600.778C3131.436,611.22 3145.419,621.84 3150.484,624.642C3169.752,635.305 3192.821,626.545 3205.226,659.037C3206.595,662.622 3207.662,662.662 3208.796,665.567C3209.961,668.553 3209.412,669.93 3210.368,674.749C3212.287,684.418 3216.427,694.37 3219.361,712.57C3219.569,713.862 3220.398,715.09 3219.424,715.873C3218.522,716.597 3217.586,715.744 3217.47,715.638C3217.459,715.628 3217.244,715.426 3217.243,715.42C3217.222,715.079 3217.237,714.738 3217.247,714.396Z"/>
                    </g>
                    <g transform="matrix(2.67567,0,0,2.67567,-7760.495344,-1264.201064)">
                        <path d="M3139.146,571.582C3138.501,571.589 3138.657,571.028 3137.957,570.53C3138.394,570.136 3138.546,569.487 3138.983,569.092C3139.12,568.969 3145.599,568.359 3150.04,565.733C3155.451,562.533 3159.311,556.789 3172.713,543.383C3180.906,535.188 3195.402,536.609 3200.881,540.459C3214.513,550.038 3223.388,554.054 3224.829,562.928C3225.885,569.429 3221.863,575.989 3220.436,579.316C3215.855,589.995 3220.406,590.999 3228.124,603.068C3229.317,604.931 3229.35,605.088 3229.303,605.492C3229.21,606.281 3228.38,606.8 3227.62,606.515C3220.478,603.839 3211.012,600.126 3209.656,599.953C3207.158,599.636 3197.062,599.425 3189.669,596.302C3183.546,593.715 3178.426,589.32 3170.332,583.479C3167.037,581.101 3142.704,572.837 3139.572,571.755L3139.554,571.764L3139.561,571.752C3139.359,571.682 3139.248,571.643 3139.24,571.639C3139.208,571.621 3139.176,571.602 3139.146,571.582ZM3143.998,570.641C3169.895,579.544 3171.245,581.049 3172.571,582.017C3188.555,593.69 3189.658,595.914 3209.366,597.415C3210.603,597.509 3211.226,597.735 3212.805,598.283C3214.114,598.738 3219.9,600.924 3224.985,602.847C3219.482,594.577 3215.809,591.773 3216.122,585.758C3216.396,580.501 3219.718,575.633 3221.25,571.394C3226.187,557.737 3216.078,554.217 3199.438,542.501C3194.954,539.344 3181.786,537.841 3174.475,545.156C3156.223,563.418 3155.263,567.956 3143.998,570.641Z"/>
                    </g>
                    <g transform="matrix(2.67567,0,0,2.67567,-7760.495344,-1264.201064)">
                        <path d="M3156.016,564.033C3156.015,564.208 3156.014,564.406 3156.013,564.631C3155.424,564.603 3154.833,564.658 3154.244,564.63C3154.24,564.63 3153.914,564.301 3153.752,563.984C3153.251,562.999 3153.594,561.486 3155.959,561.523C3160.662,561.597 3173.887,565.96 3181.008,571.96C3186.985,576.996 3196.166,583.276 3213.84,586.893C3216.743,587.487 3217.938,587.571 3218.207,588.632C3218.484,589.723 3217.335,590.268 3217.257,590.232C3216.985,590.108 3216.72,589.969 3216.454,589.831C3216.431,589.883 3216.405,589.938 3216.377,589.998C3212.538,588.915 3194.774,586.918 3179.62,574.061C3172.384,567.922 3159.691,564.107 3156.016,564.033Z"/>
                    </g>
                    <g transform="matrix(2.67567,0,0,2.67567,-7760.495344,-1264.201064)">
                        <path d="M3195.293,557.944C3199.109,559.094 3197.571,563.804 3193.793,564.181C3193.332,564.227 3191.799,564.228 3191.011,563.28C3189.217,561.12 3191.36,555.951 3194.835,557.636C3195.013,557.723 3195.277,557.888 3195.278,557.892C3195.283,557.909 3195.288,557.926 3195.293,557.944ZM3193.207,560.08C3193.189,560.106 3193.171,560.136 3193.153,560.168C3192.777,560.833 3192.865,561.402 3192.916,561.615C3194.402,562.038 3195.098,560.651 3195.013,560.574C3194.518,560.122 3193.349,560.214 3193.323,560.19C3193.284,560.153 3193.245,560.117 3193.207,560.08Z"/>
                    </g>
                    <g transform="matrix(2.67567,0,0,2.67567,-7760.495344,-1264.201064)">
                        <path d="M3209.565,564.487C3209.906,566.556 3208.193,569.947 3203.543,567.718C3200.734,566.372 3204.455,561.714 3207.076,561.713C3209.228,561.711 3209.732,564.189 3209.725,564.203C3209.674,564.299 3209.621,564.393 3209.565,564.487ZM3206.87,564.274C3206.526,564.426 3205.81,564.881 3205.285,565.744C3206.04,566.013 3207.064,566.186 3207.099,565.12L3206.847,565.114C3206.868,564.835 3206.87,564.554 3206.87,564.274Z"/>
                    </g>
                    <g transform="matrix(2.67567,0,0,2.67567,-7760.495344,-1264.201064)">
                        <path d="M3150.7,583.147L3150.7,583.606C3150.112,583.564 3149.52,583.647 3148.932,583.606C3148.922,583.605 3148.199,582.898 3148.808,581.93C3149.379,581.022 3152.062,578.165 3152.903,576.654L3153.822,576.903L3154.165,575.654C3155.032,576.691 3155.672,576.605 3155.192,577.66C3154.54,579.092 3152.057,581.749 3150.925,583.259L3150.7,583.147Z"/>
                    </g>
                    <g transform="matrix(2.67567,0,0,2.67567,-7760.495344,-1264.201064)">
                        <path d="M3180.971,592.789L3181.995,591.356C3182.433,591.75 3182.995,591.99 3183.433,592.384C3183.435,592.386 3183.681,593.759 3183.584,594.702C3183.164,598.794 3178.519,596.79 3177.928,596.571C3175.05,595.502 3171.549,593.658 3164.513,590.706C3162.946,590.048 3156.292,587.242 3153.608,582.049C3152.198,579.322 3152.711,576.911 3154.551,576.454C3154.693,576.419 3154.663,576.523 3156.102,577.417L3155.037,578.5C3155.135,578.606 3155.222,578.668 3155.343,578.753C3154.927,580.349 3157.42,585 3165.228,588.294C3175.307,592.546 3179.56,594.974 3181.034,594.766C3181.036,594.766 3181.039,594.765 3181.041,594.765C3181.185,594.344 3180.993,592.974 3180.967,592.795C3180.967,592.793 3180.967,592.791 3180.966,592.79L3180.971,592.789Z"/>
                    </g>
                    <g transform="matrix(2.67567,0,0,2.67567,-7760.495344,-1264.201064)">
                        <path d="M3186.123,613.532L3186.101,614.744C3184.752,614.666 3184.409,615.167 3183.955,614.154C3182.87,611.732 3187.686,609.708 3187.903,607.869C3188.219,605.184 3185.839,598.043 3187.29,595.861C3188.396,594.198 3190.462,595.514 3190.484,595.597C3190.634,596.167 3190.68,596.761 3190.83,597.33C3190.324,597.417 3189.826,597.544 3189.322,597.641C3189.138,599.863 3190.659,605.52 3190.395,608.073C3190.129,610.651 3187.306,612.134 3186.27,613.586C3186.213,613.565 3186.165,613.547 3186.123,613.532Z"/>
                    </g>
                    <g transform="matrix(2.67567,0,0,2.67567,-7760.495344,-1264.201064)">
                        <path d="M3191.343,620.62L3189.589,620.46C3189.688,619.879 3189.651,619.281 3189.749,618.7C3189.764,618.61 3190.686,617.992 3190.77,617.935C3197.372,613.512 3204.278,617.974 3206.457,599.503C3206.475,599.345 3206.404,599.146 3206.511,599.028C3207.11,598.369 3207.293,598.583 3207.891,597.925C3208.18,598.439 3208.707,598.792 3208.995,599.306C3208.999,599.313 3208.8,601.014 3208.623,602.119C3206.366,616.255 3200.977,616.615 3195.401,618.497C3192.863,619.354 3191.973,620.137 3191.35,620.62C3191.348,620.621 3191.347,620.622 3191.346,620.623L3191.343,620.62Z"/>
                    </g>
                    <g transform="matrix(2.67567,0,0,2.67567,-7760.495344,-1264.201064)">
                        <path d="M3249.702,727.889C3249.347,727.135 3248.288,726.876 3247.933,726.122C3247.933,726.121 3248.974,725.072 3249.218,724.845C3251.282,722.923 3253.463,722.909 3256.894,721.084C3258.583,720.185 3259.315,719.547 3262.412,714.209C3263.814,711.793 3261.479,709.398 3263.77,707.084C3264.29,706.559 3266.125,705.734 3265.951,703.539C3265.861,702.396 3265.176,701.421 3264.25,701.408C3263.993,701.404 3257.253,701.699 3257.497,697.873C3257.608,696.134 3259.325,695.098 3260.864,691.985C3261.741,690.21 3262.003,688.587 3260.338,689.245C3257.966,690.183 3255.3,693.885 3254.141,694.852C3252.229,696.448 3251.472,695.666 3247.488,697.978C3243.659,700.2 3242.913,700.47 3240.366,699.453C3240.007,699.309 3238.661,698.693 3237.432,702.406C3236.429,705.439 3236.083,709.608 3235.342,711.278C3235.315,711.338 3235.319,711.43 3235.259,711.456C3234.442,711.797 3234.401,711.672 3233.582,712.015C3233.41,711.454 3233.189,710.91 3233.017,710.35C3233.01,710.326 3233.04,710.305 3233.049,710.282C3234.157,707.659 3234.238,697.124 3239.661,696.819C3241.559,696.712 3241.805,698.151 3243.856,697.124C3247.331,695.383 3247.133,694.932 3251.039,693.706C3253.419,692.96 3253.341,691.459 3256.841,688.542C3257.216,688.229 3260.656,685.176 3263.122,687.427C3266.333,690.358 3260.264,697.327 3260.061,697.798C3260.017,697.902 3259.746,698.173 3260.726,698.506C3262.705,699.177 3264.485,698.552 3265.977,699.329C3269.038,700.923 3269.502,705.993 3266.046,708.466C3264.952,709.248 3265.144,709.472 3265.335,711.319C3265.624,714.116 3264.889,714.978 3263.07,717.98C3260.266,722.609 3259.146,723.043 3253.237,725.361C3251.185,726.166 3251.259,726.325 3249.702,727.889Z"/>
                    </g>
                    <g transform="matrix(2.67567,0,0,2.67567,-7760.495344,-1264.201064)">
                        <path d="M3244.761,741.925C3245.066,741.596 3245.327,741.414 3245.644,740.923C3247.246,738.441 3253.491,725.305 3254.94,723.428C3255.723,722.414 3255.96,723.118 3257.214,723.463L3256.202,724.214C3256.548,724.596 3256.551,724.588 3256.929,724.942C3254.832,728.073 3248.967,740.85 3247.342,742.809C3246.656,743.636 3246.405,743.731 3246.027,744.523C3246.001,744.577 3245.741,745.466 3244.912,745.588C3244.657,745.626 3243.924,745.608 3243.571,744.822C3243.119,743.813 3243.059,743.849 3242.425,742.941C3241.3,741.329 3240.024,740.775 3240.022,740.77C3239.806,740.221 3239.684,739.639 3239.468,739.09C3240.04,738.948 3240.576,738.68 3241.148,738.538C3241.157,738.535 3243.011,739.388 3244.482,741.52C3244.584,741.669 3244.677,741.803 3244.761,741.925Z"/>
                    </g>
                    <g transform="matrix(2.67567,0,0,2.67567,-7760.495344,-1264.201064)">
                        <path d="M3238.418,742.635C3239.447,742.967 3241.022,743.352 3241.876,743.26C3242.717,743.17 3243.072,742.791 3243.167,742.702C3243.269,742.605 3243.295,742.702 3244.929,742.707C3244.897,743.296 3244.96,743.887 3244.928,744.476C3244.926,744.52 3243.271,746.268 3240.213,745.651C3236.69,744.939 3235.353,744.308 3235.525,742.981C3235.612,742.31 3236.135,741.999 3236.22,741.948C3237.303,741.304 3237.312,741.953 3238.456,742.572L3238.418,742.635Z"/>
                    </g>
                    <g transform="matrix(2.67567,0,0,2.67567,-7760.495344,-1264.201064)">
                        <path d="M3262.899,691.938L3261.797,690.78C3261.93,690.665 3262.901,689.82 3263.987,690.715C3265.148,691.671 3266.128,695.848 3265.249,697.404C3263.386,700.701 3263.008,700.852 3262.68,700.983C3261.923,701.284 3261.051,700.827 3260.94,699.94C3260.934,699.894 3260.901,699.835 3260.932,699.8C3261.249,699.445 3261.416,699.301 3261.593,699.142C3261.528,699.082 3261.452,699.01 3261.359,698.92C3262.037,697.971 3262.645,696.915 3263.068,696.177C3263.147,695.47 3262.947,693.693 3262.334,692.586C3262.414,692.511 3262.5,692.443 3262.579,692.368C3262.61,692.339 3262.826,692.134 3262.899,691.938Z"/>
                    </g>
                    <g transform="matrix(1,0,0,1,236.7311,1544.799)">
                        <path d="M0,-96.991C-2.012,-94.967 -21.565,-74.518 -26.145,-46.729C-29.225,-28.037 -26.55,-3.687 -26.145,0" style="fill:none;fill-rule:nonzero;stroke:black;stroke-width:6.69px;"/>
                    </g>
                    <g transform="matrix(1,0,0,0.824913,524.31232,1547.174236)">
                        <path d="M0,-77.956C-24.777,-63.98 -23.047,-9.044 -23.364,-5.88C-23.951,0 0.309,-5.238 5.563,-3.596" style="fill:none;fill-rule:nonzero;stroke:black;stroke-width:7.3px;"/>
                    </g>
                    <g transform="matrix(1,0,0,1,281.1726,1544.7512)">
                        <path d="M0,-98.482C28.701,-80.113 26.121,-6.617 27.064,-3.754C28.3,0 -52.443,-12.869 -69.523,-0.821" style="fill:none;fill-rule:nonzero;stroke:black;stroke-width:6.69px;"/>
                    </g>
                    <g transform="matrix(1,0,0,0.824913,521.29992,1551.536456)">
                        <path d="M0,-84.703C5.699,-72.433 25.918,-81.067 35.229,-80.087C44.742,-79.086 103.618,0 123.567,-16.88C124.738,-17.871 143.173,-38.958 144.128,-40.868" style="fill:none;fill-rule:nonzero;stroke:black;stroke-width:7.3px;"/>
                    </g>
                    <g transform="matrix(-0.992766,0.120061,0.120061,0.992766,235.644756,1463.43203)">
                        <path d="M-50.954,-13.057C-40.961,1.979 -13.739,-12.744 -0.421,-13.057" style="fill:none;fill-rule:nonzero;stroke:black;stroke-width:6.69px;"/>
                    </g>
                    <g transform="matrix(-0.9694,-0.245487,-0.245487,0.9694,301.691433,1505.184902)">
                        <path d="M-20.232,-11.863C-16.325,5.763 -10.374,-16.367 2.164,-11.863" style="fill:none;fill-rule:nonzero;stroke:black;stroke-width:6.69px;"/>
                    </g>
                </g>
            </g>
        </g>
    </g>
</svg>
