<?xml version="1.0" encoding="UTF-8" standalone="no"?>
<!DOCTYPE svg PUBLIC "-//W3C//DTD SVG 1.1//EN" "http://www.w3.org/Graphics/SVG/1.1/DTD/svg11.dtd">
<svg width="100%" height="100%" viewBox="0 0 279 394" version="1.1" xmlns="http://www.w3.org/2000/svg" xmlns:xlink="http://www.w3.org/1999/xlink" xml:space="preserve" xmlns:serif="http://www.serif.com/" style="fill-rule:evenodd;clip-rule:evenodd;stroke-linecap:round;stroke-linejoin:round;stroke-miterlimit:10;">
    <g transform="matrix(1,0,0,1,-2900.849803,-659.626128)">
        <g transform="matrix(0.044849,0,0,0.044849,2925.817402,494.590033)">
            <g id="Frame-8" serif:id="Frame 8" transform="matrix(8.333333,0,0,8.333333,-606.639419,-474.412305)">
                <g transform="matrix(2.481818,0,0,2.481818,-7183.50105,-1062.514262)">
                    <g transform="matrix(1.078109,0,0,1.078109,-230.566562,-82.163966)">
                        <path d="M3142.14,1044.469C3141.092,1047.074 3138.963,1050.27 3134.467,1051.273C3132.358,1051.743 3125.692,1051.544 3114.965,1051.941C3104.949,1052.311 3098.437,1052.994 3098.128,1053.004C3097.681,1053.02 3097.232,1053.046 3096.786,1053.011C3093.223,1052.726 3091.388,1050.286 3091.075,1049.869C3088.927,1047.012 3089.538,1044.021 3089.642,1043.51C3089.746,1042.999 3090.357,1040.008 3093.454,1038.222C3093.841,1037.999 3094.249,1037.808 3094.669,1037.653C3095.368,1037.395 3099.082,1036.6 3102.759,1036.245L3105.137,1036.021C3105.347,1036.01 3106.652,1035.942 3107.758,1036.211C3107.855,1036.235 3108.031,1036.278 3108.265,1036.351C3111.749,1036.158 3114.838,1036.046 3117.778,1035.967C3117.743,1035.272 3117.798,1034.53 3117.977,1033.751C3118.962,1029.468 3123.029,1027.827 3123.571,1027.555C3125.921,1026.378 3127.33,1025.5 3128.226,1023.383C3129.718,1019.326 3128.926,1016.806 3123.246,1010.902C3121.359,1008.94 3119.272,1006.877 3117.969,1004.607C3116.253,1001.616 3117.039,998.866 3117.177,998.383C3117.456,997.407 3117.925,996.463 3118.555,995.667C3120.624,993.049 3123.442,992.735 3123.931,992.68C3127.136,992.322 3129.306,994.027 3129.682,994.323C3130.644,995.08 3131.391,996.168 3131.65,996.57C3131.388,996.23 3131.32,996.843 3130.832,997.189L3131.7,996.648C3131.748,996.723 3131.762,996.749 3131.738,996.706C3131.726,996.685 3131.714,996.665 3131.703,996.646C3134.496,1000.399 3148.444,1010.52 3143.852,1026.686C3143.35,1028.453 3142.709,1030.018 3141.975,1031.408C3145.755,1034.069 3145.505,1037.882 3145.464,1038.515C3145.233,1042.039 3142.867,1043.907 3142.461,1044.227C3142.355,1044.312 3142.247,1044.392 3142.14,1044.469ZM3131.703,996.646L3131.7,996.648C3131.686,996.626 3131.67,996.6 3131.65,996.57C3131.667,996.591 3131.684,996.617 3131.703,996.646Z" style="fill:white;"/>
                    </g>
                    <g transform="matrix(1.078109,0,0,1.078109,-230.566562,-82.163966)">
                        <path d="M3142.768,1051.432C3139.944,1051.626 3139.159,1051.749 3137.31,1051.09C3136.23,1050.704 3136.243,1049.201 3137.214,1048.773C3136.468,1048.45 3136.302,1047.472 3136.736,1046.87C3136.735,1046.869 3136.734,1046.869 3136.734,1046.868C3136.736,1046.867 3136.738,1046.866 3136.74,1046.864C3136.832,1046.737 3136.952,1046.627 3137.099,1046.543C3137.39,1046.23 3137.633,1045.86 3137.983,1045.618C3138.009,1045.6 3138.294,1045.645 3140.663,1045.581C3140.746,1045.338 3140.902,1045.123 3141.108,1044.969C3140.96,1044.498 3141.106,1043.956 3141.487,1043.632C3141.931,1043.256 3142.154,1043.252 3144.027,1043.526C3143.627,1043.084 3143.286,1042.586 3143.24,1042.195C3143.146,1041.396 3143.931,1040.274 3145.384,1041.007C3146.558,1041.6 3148.666,1043.011 3151.169,1044.067C3151.193,1044.077 3151.836,1044.258 3152.06,1044.876C3152.273,1045.462 3152.005,1046.123 3151.462,1046.409C3151.846,1046.72 3151.971,1047.2 3151.878,1047.635C3152.237,1047.755 3152.751,1048.02 3152.895,1048.594C3152.921,1048.698 3152.933,1048.802 3152.932,1048.903C3153.738,1049.49 3153.543,1050.887 3152.466,1051.131C3152.466,1051.131 3152.368,1051.138 3152.189,1051.149L3152.19,1051.162C3152.123,1051.162 3152.057,1051.162 3151.991,1051.161C3150.497,1051.253 3145.808,1051.518 3142.768,1051.432Z" style="fill:white;"/>
                    </g>
                    <g transform="matrix(1.078109,0,0,1.078109,-230.566562,-82.163966)">
                        <path d="M2994.66,964.171C2985.899,946.443 2985.303,937.297 2987.446,927.955C2987.743,926.659 2988.11,925.202 2988.25,924.138C2988.272,923.978 2988.405,922.967 2988.777,922.195C2990.05,919.553 2992.548,919.227 2992.957,919.174C2995.864,918.795 2997.503,920.709 2997.771,921.022C2998.087,921.39 2998.325,921.783 2998.506,922.165C2999.298,922.506 2999.807,922.947 2999.957,923.077C3001.043,924.019 3001.446,925.166 3001.519,925.376C3001.664,925.789 3002.484,929.585 3002.525,933.929C3002.556,937.205 3002.234,941.527 3001.922,950.798C3002.495,953.328 3003.43,956.233 3004.896,960.265C3007.272,966.796 3010.256,974.301 3009.25,978.33C3009.013,979.278 3008.615,979.983 3008.295,980.439C3009.629,991.475 3010.718,1003.295 3011.358,1006.709L3011.324,1006.718C3011.417,1007.353 3011.584,1007.987 3011.534,1008.624C3011.508,1008.95 3011.359,1010.829 3009.709,1012.275C3009.457,1012.496 3008.006,1013.766 3005.736,1013.599C3005.411,1013.575 3003.535,1013.437 3002.086,1011.774C3001.931,1011.596 3001.146,1010.696 3000.798,1009.128C2999.689,1004.132 2996.918,970.58 2994.66,964.171Z" style="fill:white;"/>
                    </g>
                    <g transform="matrix(1.078109,0,0,1.078109,-230.566562,-82.163966)">
                        <path d="M2997.407,930.651C2997.209,932.64 2997.25,935.703 2997.115,936.152C2996.911,936.834 2996.833,937.568 2996.5,938.198C2996.348,938.487 2995.47,940.149 2993.365,940.811C2991.192,941.493 2989.478,940.587 2989.181,940.43C2988.74,940.197 2986.046,938.772 2986.353,934.864C2986.79,929.282 2985.221,921.846 2997.618,915.5C2999.189,914.695 3002.267,913.192 3008.213,911.184C3008.322,911.147 3009.143,910.87 3009.605,910.798C3010.49,910.659 3011.262,910.736 3011.917,910.92C3012.49,910.7 3013.04,910.495 3013.563,910.308C3026.285,905.74 3033.369,906.74 3036.445,907.322C3038.629,907.735 3039.71,909.343 3039.895,909.618C3040.282,910.192 3040.568,910.852 3040.707,911.531C3040.775,911.861 3041.165,913.763 3039.901,915.659C3039.625,916.073 3037.937,918.605 3034.115,917.906C3026.266,916.469 3014.55,921.066 3006.705,925.127C3002.937,927.547 2999.029,929.966 2998.252,930.328C2997.968,930.461 2997.686,930.568 2997.407,930.651Z" style="fill:white;"/>
                    </g>
                    <g transform="matrix(1.078109,0,0,1.078109,-230.566562,-82.163966)">
                        <path d="M3081.122,933.603C3079.959,933.389 3078.746,933.182 3077.482,932.983C3069.464,931.723 3067.367,931.897 3065.185,929.422C3064.01,928.091 3063.937,926.2 3063.925,925.901C3063.842,923.749 3065.282,922.309 3065.516,922.075C3066.006,921.585 3066.599,921.178 3067.239,920.911C3069.333,920.038 3071.076,920.781 3071.381,920.911C3071.59,921 3071.774,921.088 3071.936,921.172C3078.272,922.405 3098.755,923.787 3112.039,934.347C3115.034,935.687 3117.689,937.334 3119.59,938.588C3119.737,938.685 3120.674,939.303 3121.238,940.051C3121.492,940.388 3123.056,942.461 3121.963,945.274C3121.834,945.607 3121.079,947.551 3118.786,948.396C3117.321,948.936 3113.762,948.981 3111.8,951.276C3111.127,952.576 3110.395,953.996 3109.647,955.484C3108.495,958.465 3107.214,962.574 3105.08,967.786C3105.028,967.915 3104.607,968.943 3104.347,969.355C3104.005,969.897 3103.619,970.324 3103.218,970.659C3101.747,975.82 3101.061,980.145 3098.953,1004.611C3097.618,1020.106 3097.472,1025.21 3097.797,1027.449C3098.197,1028.016 3098.674,1028.546 3098.936,1029.188C3099.059,1029.49 3099.77,1031.231 3098.924,1033.269C3098.051,1035.374 3096.252,1036.108 3095.941,1036.235C3095.371,1036.467 3091.844,1037.906 3088.753,1033.509C3086.251,1029.95 3086.318,1025.317 3088.159,1003.687C3090.483,976.386 3091.335,972.974 3092.736,967.91C3093.477,965.236 3094.491,962.498 3095.757,959.562C3096.361,957.474 3097.206,955.027 3098.377,952.373C3100.045,948.592 3101.949,945.355 3103.413,943.128C3103.026,942.947 3102.632,942.765 3102.234,942.584C3100.531,942.275 3098.625,942.037 3096.005,941.535C3090.996,940.576 3086.778,938.901 3084.79,938.075C3084.625,938.007 3083.566,937.567 3082.87,936.938C3081.657,935.841 3081.238,934.588 3081.122,933.603ZM3074.627,925.699C3074.668,925.764 3074.712,925.831 3074.758,925.9L3074.75,925.695L3074.627,925.699Z" style="fill:white;"/>
                    </g>
                    <g transform="matrix(1.078109,0,0,1.078109,-230.566562,-82.163966)">
                        <path d="M3125.79,919.31C3125.797,919.304 3125.804,919.298 3125.811,919.291C3128.272,917.149 3131.011,916.529 3131.509,916.417C3135.26,915.568 3137.582,916.396 3138.431,916.6C3138.79,916.686 3140.656,917.417 3141.963,918.339C3143.465,919.399 3144.422,920.622 3144.602,920.852C3144.997,921.357 3147.21,924.185 3147.264,928.424C3147.267,928.679 3147.284,930.02 3146.899,931.582C3146.836,931.837 3146.54,933.041 3145.704,934.637C3144.239,937.435 3141.531,939.18 3141.082,939.47C3136.259,942.578 3119.855,949.023 3107.901,953.586C3083.026,963.08 3026.515,970.801 3004.751,965.885C2997.196,964.179 2993.19,961.081 2990.682,957.032C2988.004,952.709 2989.103,948.314 2989.288,947.572C2989.676,946.021 2990.365,944.511 2991.315,943.224C2994.433,938.999 2998.836,938.363 2999.601,938.252C3002.83,937.786 3004.033,938.354 3004.379,938.517C3006.995,939.754 3007.687,940.796 3008.761,941.878C3008.868,941.635 3008.972,941.399 3009.073,941.171C3016.823,943.827 3047.839,942.277 3077.052,936.204C3092.764,932.937 3099.144,930.178 3103.013,928.686C3116.621,923.438 3123.011,920.622 3125.79,919.31ZM3011.972,944.099C3012.02,944.122 3012.069,944.145 3012.119,944.169L3012.047,944.052L3011.972,944.099ZM3137.952,940.547C3137.953,940.55 3137.954,940.553 3137.955,940.556C3137.96,940.57 3138.015,940.54 3138,940.541C3137.984,940.543 3137.968,940.545 3137.952,940.547Z" style="fill:white;"/>
                    </g>
                    <g transform="matrix(1.078109,0,0,1.078109,-230.566562,-82.163966)">
                        <path d="M3079.588,1033.812C3078.183,1029.819 3077.205,1023.606 3080.777,1016.363C3084.191,1009.44 3084.085,1009.009 3085.081,1006.091C3085.754,1004.12 3086.734,1002.813 3086.925,1002.558C3087.229,1002.154 3087.623,1001.694 3087.685,1001.621C3087.898,1001.373 3087.93,1001.38 3088.123,1001.161C3088.083,1001.12 3088.095,1001.122 3088.136,1001.141C3088.137,1001.141 3088.138,1001.142 3088.139,1001.142C3088.143,1001.137 3088.147,1001.133 3088.151,1001.128L3088.148,1001.126C3089.442,999.357 3090.872,996.393 3092.825,992.809C3092.154,989.53 3091.994,987.192 3094.455,978.891C3095.851,974.181 3098.618,966.181 3101.469,958.172C3101.446,958.113 3101.423,958.054 3101.399,957.995L3101.387,957.993C3101.388,957.987 3101.389,957.981 3101.39,957.975C3103.556,946.86 3103.555,944.388 3110.24,934.315C3111.109,933.005 3111.042,932.953 3112.12,931.812C3116.03,927.673 3120.891,927.872 3121.72,927.906C3122.061,927.92 3122.394,927.947 3122.716,927.986C3123.43,927.785 3124.203,927.637 3125.036,927.565C3125.839,927.495 3130.516,927.088 3134.569,930.806C3135.049,931.246 3137.741,933.715 3138.449,937.961C3138.563,938.641 3138.594,939.334 3138.62,940.024C3138.62,940.045 3138.621,940.287 3138.621,940.707C3139.226,940.924 3139.779,941.175 3140.278,941.44C3140.966,940.182 3141.692,938.862 3142.459,937.473C3142.96,936.565 3143.966,934.75 3143.969,934.745C3144.344,934.141 3144.713,933.529 3145.158,932.975C3145.677,932.33 3148.719,928.543 3154.401,928.315C3160.082,928.087 3163.418,931.618 3163.987,932.22C3164.556,932.821 3167.892,936.352 3167.344,942.011C3167.275,942.719 3167.145,943.423 3166.958,944.108C3166.77,944.793 3166.495,945.453 3166.221,946.108C3165.795,947.127 3165.733,947.098 3160.403,958.626C3148.149,985.133 3142.154,998.137 3138.29,1002.602C3137.375,1003.659 3136.38,1004.514 3135.351,1005.199C3134.927,1005.991 3134.61,1006.573 3134.492,1006.77C3134.133,1007.369 3133.779,1007.976 3133.35,1008.528C3131.577,1010.814 3129.446,1012.005 3127.691,1012.631C3127.173,1016.438 3126.782,1020.38 3126.556,1024.435C3126.171,1031.331 3125.38,1041.981 3112.586,1047.025C3108.672,1048.568 3108.324,1048.297 3103.409,1050.553C3102.211,1051.103 3092.149,1056.109 3084.16,1049.872C3079.767,1046.441 3078.857,1041.657 3078.764,1039.639C3078.658,1037.341 3079.013,1035.411 3079.588,1033.812ZM3088.272,1001.229C3088.279,1001.234 3088.286,1001.237 3088.294,1001.241L3088.241,1001.199L3088.272,1001.229ZM3092.729,1038.839L3092.538,1038.951C3092.544,1038.948 3092.621,1038.93 3092.73,1038.84L3092.729,1038.839Z" style="fill:white;"/>
                    </g>
                    <g transform="matrix(1.033126,0,0,1.107824,-92.29878,-106.255545)">
                        <path d="M3061.232,855.208C3060.568,853.036 3060.723,851.283 3060.762,850.85C3060.996,848.202 3063.624,840.82 3063.929,839.964C3068.064,828.351 3072.106,821.736 3077.007,807.141C3078.613,802.359 3082.697,800.356 3083.403,800.01C3084.88,799.287 3086.533,798.808 3088.194,798.663C3089.001,798.592 3093.653,798.186 3097.863,801.465C3098.466,801.936 3101.942,804.643 3102.437,809.579C3102.725,812.455 3102.561,812.473 3101.63,815.227C3100.307,819.138 3099.009,822.579 3097.783,825.64C3098.533,826.492 3098.955,827.193 3099.076,827.393C3099.203,827.604 3099.876,828.721 3100.301,830.193C3100.514,830.929 3101.656,834.882 3099.043,839.657C3097.394,842.669 3096.623,842.749 3092.816,848.175C3089.942,852.271 3088.487,855.062 3087.729,856.906C3090.223,860.439 3093.607,864.27 3094.303,868.008C3094.365,868.342 3094.677,869.074 3094.618,874.917C3094.582,878.462 3094.334,881.801 3094.01,884.814C3096.259,884.643 3098.428,885.06 3101.949,885.711C3107.446,886.727 3157.798,896.519 3168.013,900.893C3168.839,901.246 3170.914,902.065 3174.218,904.869C3185.05,914.06 3185.928,927.976 3179.686,939.934C3176.226,946.561 3175.429,947.255 3153.969,987.863C3149.884,995.594 3148.832,997.453 3145.899,1000.434C3142.275,1004.118 3137.625,1004.285 3136.827,1004.314C3135.16,1004.374 3133.446,1004.141 3131.88,1003.605C3126.73,1001.84 3124.783,997.875 3124.446,997.188C3124.118,996.521 3122.232,992.681 3124.066,988.028C3124.162,987.784 3126.526,984.244 3126.744,983.917C3126.785,983.856 3126.851,983.813 3126.904,983.761C3129.066,980.467 3130.593,976.351 3156.063,929.595C3157.261,927.397 3157.508,925.623 3157.504,924.771C3157.498,923.818 3157.216,923.331 3156.647,922.848C3147.215,919.712 3113.594,912.754 3099.05,909.988C3097.393,910.999 3095.434,911.825 3092.626,912.637C3089.429,913.563 3079.367,917.047 3071.715,910.826C3064.504,904.964 3066.131,895.984 3066.795,891.484C3067.785,884.77 3068.526,880.604 3068.527,873.811C3064.392,868.1 3059.966,862.992 3061.108,855.917C3061.146,855.681 3061.187,855.445 3061.232,855.208Z" style="fill:white;"/>
                    </g>
                    <g transform="matrix(1.078109,0,0,1.078109,-230.566562,-82.163966)">
                        <path d="M2957.965,864.018C2952.862,869.033 2949.41,870.385 2945.48,870.7C2944.726,870.76 2943.108,870.656 2942.546,870.542C2940.461,870.121 2939.861,869.854 2938.259,869.046C2936.476,868.145 2929.266,863.126 2932.061,852.271C2934.622,842.321 2947.325,821.253 2961.75,815.094C2963.251,813.595 2965.043,812.059 2967.227,810.471C2971.439,807.411 2975.377,804.47 2979.063,801.648C2986.653,785.374 2993.243,774.762 2994.162,773.268C2995.962,770.344 2996.82,769.278 2997.773,768.377C3001.232,765.109 3006.459,764.401 3009.264,764.909C3012.769,765.543 3014.6,766.722 3016.658,768.642C3016.789,768.764 3016.948,768.926 3017.127,769.125C3017.32,768.94 3017.511,768.756 3017.7,768.573C3018.362,766.722 3019.053,764.797 3019.775,762.792C3020.06,761.999 3020.316,761.195 3020.632,760.414C3020.898,759.758 3021.171,759.1 3021.52,758.484C3021.928,757.766 3024.316,753.558 3029.863,752.413C3030.348,752.313 3032.245,751.921 3034.661,752.359C3036.38,750.968 3037.964,749.899 3039.54,749.141C3043.229,747.368 3047.023,747.012 3050.433,747.949C3051.358,747.045 3052.375,746.229 3053.492,745.514C3058.683,742.196 3065.452,741.58 3071.931,744.941C3087.136,752.829 3089.637,770.628 3084.483,779.351C3083.777,780.545 3082.955,781.597 3082.045,782.5C3081.743,783.748 3081.337,785.028 3080.799,786.323C3078.789,791.162 3077.965,790.979 3075.627,797.685C3075.622,797.698 3075.605,797.75 3075.601,797.763C3070.655,812.907 3065.086,832.209 3068.719,845.519C3070.815,853.199 3076.406,860.574 3077.544,866.791C3079.589,877.967 3072.81,894.346 3065.226,901.386C3063.863,902.652 3060.903,905.234 3056.514,906.311C3056.577,907.028 3056.638,907.743 3056.696,908.457C3060.592,907.726 3064.464,907.215 3068.27,906.931C3070.522,906.251 3072.762,905.612 3075.347,905.019C3086.199,902.532 3092.824,903.978 3103.199,905.131C3116.449,906.604 3133.798,908.149 3145.425,909.142C3148.461,908.844 3151.757,908.825 3155.063,909.53C3156.576,909.852 3157.358,910.113 3158.044,910.201C3160.429,910.51 3161.986,911.285 3162.304,911.443C3163.019,911.799 3167.065,913.814 3168.649,918.854C3169.014,919.294 3169.347,919.758 3169.642,920.242C3172.377,924.731 3171.303,929.077 3171.117,929.831C3169.896,934.772 3166.19,937.034 3165.547,937.426C3162.723,939.15 3162.585,938.859 3159.316,939.397C3146.406,941.521 3134.707,944.86 3130.547,945.036C3127.22,945.177 3124.776,943.996 3124.651,943.947C3124.599,943.928 3124.548,943.907 3124.496,943.885C3123.191,944.156 3122.114,944.371 3121.708,944.433C3121.008,944.538 3120.306,944.653 3119.599,944.674C3118.774,944.698 3113.942,944.837 3110.086,940.694C3107.648,938.074 3106.947,935.186 3106.781,933.21C3106.667,933.618 3106.562,933.908 3106.509,934.057C3106.233,934.819 3104.628,939.267 3099.505,941.374C3098.863,941.638 3098.197,941.849 3097.52,942.003C3095.877,942.376 3095.862,942.258 3094.183,942.371C3089.499,942.684 3086.99,943.253 3083.56,943.526C3081.689,944.502 3080.073,944.748 3079.627,944.816C3078.079,945.052 3078.074,944.968 3076.509,944.936C3065.032,944.701 3052.197,944.809 3045.326,944.539C3039.926,945.268 3033.723,946.476 3026.542,948.384C3019.459,950.266 3013.762,952.234 3013.644,952.262C3012.95,952.428 3012.268,952.653 3011.562,952.759C3005.912,953.603 3002.207,950.424 3001.576,949.883C3000.945,949.342 2997.24,946.163 2997.215,940.45C2997.211,939.619 2997.19,934.737 3001.493,930.98C3001.595,930.892 3001.697,930.805 3001.801,930.72C3001.866,930.48 3001.946,930.213 3002.045,929.925C3001.495,928.679 3001.08,927.181 3001.006,925.433C3000.976,924.744 3001.037,924.053 3001.089,923.365C3001.248,921.242 3001.825,919.388 3003.528,899.683C3003.625,898.571 3003.72,897.478 3003.816,896.401C3003.497,896.878 3003.159,897.363 3002.801,897.859C3000.51,901.033 3000.347,900.927 2999.322,902.901C2998.987,903.546 2998.7,904.218 2998.308,904.829C2995.157,909.727 2990.217,910.359 2989.379,910.466C2983.602,911.204 2979.941,907.828 2979.32,907.256C2979.056,907.012 2978.81,906.764 2978.58,906.513C2977.197,907.461 2975.37,908.304 2973.05,908.586C2972.276,908.68 2967.977,909.202 2963.96,906.117C2963.672,906.05 2963.455,905.999 2963.444,905.994C2963.296,905.934 2961.629,905.26 2961.599,905.241C2960.831,904.785 2954.778,902.021 2954.355,893.29C2954.195,889.98 2954.913,878.985 2957.965,864.018Z" style="fill:white;"/>
                    </g>
                    <g transform="matrix(1.078109,0,0,1.078109,-230.566562,-82.163966)">
                        <path d="M3015.636,913.195C3000.363,913.642 2996.012,912.996 2990.029,909.449C2988.888,908.772 2988.867,908.806 2987.862,907.947C2987.244,907.419 2983.631,904.332 2983.487,898.768C2983.466,897.954 2983.343,893.204 2987.382,889.374C2990.541,886.379 2994.222,886.052 2994.877,885.994C2995.572,885.932 2996.272,885.959 2996.969,885.984C2998.435,886.036 3005.117,886.669 3005.825,886.736C3010.722,887.2 3014.005,887.597 3017.345,888.13C3021.891,887.977 3027.276,887.742 3033.3,887.471C3033.307,887.471 3033.334,887.469 3033.341,887.469C3040.502,887.122 3044.214,886.557 3046.509,885.903C3046.642,885.552 3046.798,885.142 3046.807,885.125C3047.868,883.079 3047.845,883.052 3049.378,881.327C3050.246,880.351 3051.546,879.558 3051.754,879.432C3057.407,875.986 3065.36,877.224 3069.557,884.081C3069.976,884.765 3070.344,885.462 3070.648,886.077C3072.158,887.792 3072.937,889.426 3073.143,889.859C3074.775,893.281 3076.191,898.347 3077.622,913.629C3077.816,915.702 3077.756,916.508 3077.737,916.758C3077.677,917.564 3077.327,922.262 3072.983,925.667C3068.64,929.073 3063.993,928.29 3063.197,928.156C3057.754,927.24 3055.202,923.279 3054.764,922.6C3053.856,921.19 3053.955,921.139 3053.285,919.601C3051.498,915.497 3050.668,914.015 3049.698,910.823C3049.595,910.843 3049.491,910.864 3049.387,910.884C3049.227,911.176 3049.052,911.469 3048.86,911.762C3046.069,916.023 3041.824,916.924 3041.087,917.081C3039.475,917.423 3037.791,917.227 3036.144,917.157C3035.496,917.13 3022.865,914.474 3015.636,913.195Z" style="fill:white;"/>
                    </g>
                    <g transform="matrix(1.078109,0,0,1.078109,-230.566562,-82.163966)">
                        <path d="M2958.163,879.552C2958.365,876.566 2957.126,873.531 2957.516,870.551C2957.724,868.966 2958.848,867.592 2959.903,866.39C2963.371,862.439 2967.844,862.165 2968.619,862.117C2969.371,862.071 2973.703,861.805 2977.531,865.165C2977.945,865.529 2979.998,867.331 2981.342,870.914C2985.485,881.958 2982.369,903.078 2989.292,955.547C2992.246,977.941 2993.196,978.742 2994.571,993.187C2995.574,1003.736 2996.379,1015.236 2997.129,1021.253C2997.896,1022.592 2998.567,1024.336 2998.723,1026.475C2998.766,1027.066 2999,1030.279 2997.127,1033.707C2995.392,1036.884 2992.935,1038.316 2992.66,1038.512C2992.642,1038.524 2991.195,1039.308 2991.178,1039.315C2988.368,1040.365 2988.341,1040.343 2985.342,1040.453C2985.325,1040.454 2983.289,1040.192 2983.272,1040.187C2980.812,1039.467 2980.783,1039.499 2978.607,1038.142C2978.531,1038.095 2976.955,1036.983 2975.689,1035.28C2972.854,1031.469 2972.395,1027.152 2970.893,1009.378C2969.235,989.744 2969.135,989.455 2967.887,981.73C2958.177,921.624 2959.872,892.099 2958.149,880.827C2958.057,880.226 2958.052,880.23 2957.916,879.636L2958.163,879.552ZM2974.516,1023.399C2974.493,1023.39 2974.469,1023.382 2974.445,1023.373L2974.407,1023.486C2974.443,1023.457 2974.48,1023.428 2974.516,1023.399Z" style="fill:white;"/>
                    </g>
                    <g transform="matrix(1.078109,0,0,1.078109,-230.566562,-82.163966)">
                        <path d="M2925.206,892.142C2921.761,888.225 2922.086,883.78 2922.144,882.994C2922.248,881.573 2922.37,881.227 2922.598,880.373C2922.66,876.043 2923.67,872.346 2924.336,870.137C2925.306,866.92 2927.261,864.907 2928.804,863.748C2930.583,859.956 2933.726,858.321 2934.346,857.998C2935.091,857.611 2939.476,855.33 2944.831,857.511C2945.46,857.768 2949.012,859.215 2951.14,863.197C2952.413,865.58 2953.645,870.97 2953.804,871.662C2953.824,871.753 2953.845,871.843 2953.865,871.933C2954.724,872.189 2955.316,872.464 2955.551,872.574C2956.316,872.93 2960.819,875.026 2962.34,880.633C2962.403,880.865 2962.641,881.744 2962.8,883.601C2962.94,885.238 2963.104,887.377 2963.284,889.836C2963.522,889.981 2963.748,890.118 2963.966,890.248C2965.713,887.691 2968.254,884.795 2972.888,883.093C2976.405,881.802 2985.333,881.131 2990.363,891.503C2990.885,892.579 2991.388,893.825 2991.874,895.17C2992.147,894.628 2992.411,894.079 2992.743,893.572C2995.862,888.808 3000.683,888.147 3001.504,888.035C3007.146,887.262 3010.808,890.465 3011.432,891.011C3015.718,894.761 3015.703,899.627 3015.701,900.456C3015.699,901.167 3015.636,901.881 3015.512,902.582C3015.383,903.318 3015.149,904.649 3012.373,911.384C3010.695,915.456 3009.072,918.905 3007.452,921.803C3006.799,924.491 3006.258,927.861 3005.833,932.454C3005.689,934.006 3004.792,942.288 3005.121,961.888C3005.589,962.505 3005.866,962.99 3005.979,963.189C3007.47,965.8 3007.321,965.886 3007.681,968.872C3010.136,989.227 3009.969,1010.35 3010.17,1017.51C3010.209,1018.873 3010.267,1018.874 3010.083,1020.227C3009.975,1021.027 3009.342,1025.692 3004.806,1028.829C3004.142,1029.288 3000.27,1031.965 2994.895,1030.729C2994.108,1030.548 2989.52,1029.493 2986.81,1024.689C2986.47,1024.087 2986.179,1023.454 2985.944,1022.803C2985.357,1021.184 2985.469,1021.155 2985.156,1019.459C2982.435,1004.718 2981.61,1004.776 2980.543,977.054C2979.747,956.389 2979.944,942.009 2980.82,931.503C2979.265,930.219 2977.768,928.499 2976.442,926.22C2974.683,923.197 2973.288,919.454 2972.096,915.739C2970.618,916.209 2968.981,916.518 2967.17,916.604C2966.849,916.619 2966.53,916.626 2966.212,916.625C2967.761,923.69 2969.262,929.27 2969.49,931.175C2969.806,933.814 2969.349,935.483 2969.257,935.977C2968.962,937.559 2968.016,939.164 2967.865,939.419C2967.791,939.544 2967.6,939.868 2967.289,940.302C2969.532,957.522 2973.234,982.355 2973.23,982.443C2973.139,984.088 2973.363,985.782 2972.957,987.379C2972.772,988.109 2971.703,992.316 2967.337,994.937C2966.671,995.337 2962.83,997.643 2957.734,996.349C2957.004,996.164 2952.797,995.096 2950.176,990.729C2949.328,989.316 2948.926,987.671 2948.496,986.08C2948.496,986.08 2944.963,962.148 2942.719,945.199C2942.508,943.599 2942.319,942.151 2942.15,940.832C2941.478,940.698 2940.797,940.505 2940.109,940.247C2932.659,937.449 2931.189,929.481 2930.618,927.058C2927.587,914.175 2928.125,905.149 2928.994,897.592C2927.538,896.002 2926.247,894.204 2925.206,892.142Z" style="fill:white;"/>
                    </g>
                    <g transform="matrix(1.078109,0,0,1.078109,-230.566562,-82.163966)">
                        <path d="M2984.196,963.07C2982.751,956.58 2979.95,947.478 2985.555,940.684C2992.481,932.287 3006.032,935.111 3009.866,944.457C3011.08,947.415 3011.253,949.811 3011.282,954.45C3011.375,969.689 3011.734,977.054 3013.12,995.101C3013.12,995.104 3013.121,995.107 3013.121,995.109L3013.116,995.11C3011.576,997.897 3011.712,1001.411 3010.17,1004.197C3009.395,1005.596 3007.846,1006.462 3006.424,1007.193C3005.733,1007.548 3001.749,1009.598 2996.748,1007.974C2996.032,1007.741 2991.904,1006.4 2989.574,1001.87C2988.821,1000.405 2988.563,998.729 2988.202,997.122C2988.196,997.096 2987.454,988.121 2986.933,978.403C2986.079,977.659 2985.247,976.726 2984.527,975.558C2983.688,974.196 2983.089,972.648 2982.833,971.07C2982.247,967.473 2983.329,964.659 2984.196,963.07Z" style="fill:white;"/>
                    </g>
                    <g transform="matrix(1.078109,0,0,1.078109,-230.566562,-82.163966)">
                        <path d="M2964.871,1037.834C2964.219,1037.702 2963.544,1037.51 2962.851,1037.246C2962.067,1036.947 2957.451,1035.185 2955.524,1029.737C2954.929,1028.055 2955.085,1028.019 2954.728,1026.277C2952.784,1016.8 2946.089,996.274 2945.586,993.187C2944.436,986.143 2944.436,983.772 2940.274,965.436C2937.93,955.111 2935.369,945.401 2941.263,937.572C2944.419,933.381 2948.789,931.515 2952.523,930.632C2956.903,924.467 2958.614,919.419 2963.542,915.291C2962.922,914.161 2962.263,912.977 2961.574,911.716C2958.748,906.551 2953.719,897.482 2959.469,888.764C2960.002,887.956 2963.312,882.937 2970.023,882.854C2971.622,882.835 2973.257,883.117 2974.743,883.708C2979.616,885.646 2981.327,889.715 2981.626,890.424C2982.883,893.413 2982.642,894.725 2982.573,895.101C2982.434,895.859 2982.274,896.483 2982.099,897.014C2984.801,902.791 2992.61,913.579 2994.055,927.1C2994.312,929.504 2993.903,931.239 2993.82,931.589C2992.554,936.95 2988.448,939.24 2987.744,939.633C2982.934,942.316 2978.473,940.831 2977.708,940.577C2977.541,940.521 2976.99,940.338 2976.26,939.986C2974.456,942.929 2972.133,946.499 2969.095,950.051C2967.513,951.901 2966.1,952.76 2965.801,952.942C2964.901,953.489 2964.02,953.853 2963.349,954.085C2964.668,960.43 2967.561,970.9 2970.185,988.668C2971.312,992.731 2973.374,999.345 2975.335,1006.181C2975.522,1006.128 2975.743,1006.071 2976.02,1006.001C2976.834,1005.796 2981.622,1004.593 2986.326,1007.947C2986.385,1007.989 2986.47,1008.05 2986.575,1008.128C2986.739,1007.895 2986.863,1007.739 2986.924,1007.662C2990.325,1003.368 2994.986,1003.018 2995.786,1002.958C2996.587,1002.898 3001.248,1002.547 3005.252,1006.285C3005.493,1006.509 3006.776,1007.707 3007.755,1009.546C3007.927,1009.869 3007.797,1009.928 3009.647,1013.707C3011.346,1017.178 3011.576,1018.704 3012.366,1021.875C3012.551,1022.617 3013.613,1026.878 3010.938,1031.329C3010.115,1032.7 3009.015,1033.943 3007.731,1034.896C3007.695,1034.923 3007.649,1034.957 3007.593,1034.998C3007.658,1044.342 3000.119,1051.807 2989.709,1049.037C2986.518,1048.188 2985.504,1047.462 2983.007,1047.851C2977.245,1048.747 2973.161,1047.754 2969.499,1044.875C2967.915,1043.63 2965.856,1041.189 2964.871,1037.834ZM2979.14,903.973C2979.134,904.004 2979.128,904.036 2979.122,904.068L2979.178,904.008C2979.165,903.996 2979.153,903.985 2979.14,903.973Z" style="fill:white;"/>
                    </g>
                    <g transform="matrix(1.078109,0,0,1.078109,-230.566562,-82.163966)">
                        <path d="M3103.223,1008.341C3103.222,1008.333 3103.221,1008.323 3103.219,1008.311C3103.164,1007.919 3103.561,1010.772 3102.915,1013.258C3102.725,1013.987 3101.632,1018.191 3097.264,1020.793C3096.598,1021.19 3092.757,1023.477 3087.668,1022.164C3086.939,1021.975 3082.736,1020.89 3080.133,1016.512C3079.884,1016.094 3078.657,1014.03 3078.332,1010.697C3077.287,999.966 3083.072,990.205 3084.946,987.141C3093.206,970.178 3097.691,954.757 3103.791,949.363C3103.921,949.247 3105.137,948.171 3105.513,948.018C3107.038,947.396 3108.473,946.469 3110.09,946.152C3110.829,946.008 3115.088,945.173 3119.326,948C3119.972,948.431 3123.699,950.917 3124.71,956.076C3125.341,959.296 3124.829,960.519 3124.68,960.873C3123.304,964.16 3122.078,964.502 3120.78,966.256C3121.014,966.421 3121.275,966.605 3121.568,966.814C3118.559,971.729 3111.027,991.425 3106.783,999.337C3106.665,999.557 3103.561,1004.205 3103.225,1007.698C3103.195,1008.009 3103.216,1008.27 3103.223,1008.341ZM3103.223,1008.341C3103.226,1008.367 3103.225,1008.365 3103.223,1008.341Z" style="fill:white;"/>
                    </g>
                    <g transform="matrix(1.078109,0,0,1.078109,-230.566562,-82.163966)">
                        <path d="M3102.448,845.887C3101.633,847.53 3090.785,868.984 3090.051,874.557C3089.965,875.211 3089.906,876.416 3089.61,878.02C3088.633,883.309 3084.876,885.813 3084.221,886.25C3082.891,887.137 3081.365,887.791 3079.797,888.104C3074.644,889.133 3070.938,886.637 3070.295,886.203C3066.08,883.364 3065.22,879.105 3065.071,878.366C3064.671,876.39 3064.926,874.223 3065.017,873.571C3064.997,874 3065.459,873.555 3066.064,873.624L3065.033,873.46C3065.047,873.369 3065.051,873.347 3065.039,873.41C3065.035,873.428 3065.032,873.444 3065.03,873.46C3065.671,867.101 3066.672,861.61 3080.081,834.719C3080.423,834.034 3082.386,830.097 3087.32,828.452C3088.836,827.947 3090.48,827.717 3092.076,827.828C3097.32,828.19 3100.25,831.581 3100.758,832.169C3102.903,834.651 3103.065,835.967 3103.112,836.348C3103.701,841.131 3101.861,841.105 3102.447,845.879L3102.451,845.881C3102.45,845.883 3102.449,845.885 3102.448,845.887ZM3065.03,873.46L3065.033,873.46C3065.029,873.49 3065.023,873.527 3065.017,873.571C3065.019,873.539 3065.023,873.502 3065.03,873.46Z" style="fill:white;"/>
                    </g>
                    <g transform="matrix(1.078109,0,0,1.078109,-230.566562,-82.163966)">
                        <path d="M2968.993,930.29C2964.391,926.434 2959.306,920.465 2954.941,910.572C2953.152,906.519 2953.601,903.74 2953.702,902.749C2953.704,902.721 2953.932,901.527 2953.938,901.505C2953.972,901.393 2954.356,900.121 2954.367,900.097C2954.423,899.97 2955.066,898.529 2955.079,898.509C2956.221,896.721 2956.166,896.671 2957.662,895.169C2958.757,894.069 2960.317,893.287 2960.569,893.161C2960.598,893.146 2960.646,893.123 2960.71,893.091C2961.264,890.687 2962.19,888.136 2963.551,885.317C2964.901,882.52 2964.777,882.377 2967.129,880.344C2967.699,879.851 2970.983,877.014 2976.065,877.365C2981.309,877.728 2984.233,881.115 2984.74,881.703C2985.4,882.468 2985.918,883.252 2986.323,884.023C2987.783,885.592 2989.037,887.601 2989.968,890.078C2991.097,893.084 2992.317,898.046 2992.904,907.781C2993.179,908.004 2993.457,908.23 2993.74,908.46C2996.733,910.895 2997.145,911.176 2997.62,911.52C2997.613,911.53 2997.607,911.54 2997.601,911.55C2998.737,912.122 2999.906,912.65 3000.858,913.481C3001.426,913.977 3004.697,916.833 3005.07,921.906C3005.127,922.679 3005.455,927.14 3002.004,931.105C3001.718,931.433 3000.645,932.665 2998.81,933.718C2997.839,935.411 2995.934,937.833 2992.472,939.173C2989.943,940.152 2987.647,940.149 2985.869,939.844C2984.662,940.235 2983.263,940.48 2981.677,940.435C2980.845,940.411 2975.956,940.273 2972.34,935.835C2971.293,934.551 2971.378,934.494 2970.564,933.049C2970.025,932.094 2969.502,931.175 2968.993,930.29Z" style="fill:white;"/>
                    </g>
                    <g transform="matrix(1.078109,0,0,1.078109,-230.566562,-82.163966)">
                        <path d="M2905.478,825.193C2904.282,823.001 2903.365,819.696 2903.227,819.199C2899.881,807.138 2906.179,801.174 2909.535,795.827C2910.476,794.326 2910.348,794.241 2911.487,792.884C2912.844,791.268 2914.371,790.241 2915.783,789.588C2917.646,786.046 2921.731,780.447 2931.043,769.423C2934.552,765.269 2958.49,737.328 2969.66,730.181C2970.111,729.893 2974.51,727.162 2980.375,725.002C2990.905,721.125 2999.119,721.69 3000.417,720.408C3001.501,719.337 3002.044,717.937 3002.951,716.357C3004.186,713.668 3007.706,708.399 3016.637,708.398C3022.535,708.398 3025.727,712.138 3026.277,712.782C3028.875,715.824 3029.288,719.11 3029.27,721.042C3029.375,721.29 3029.476,721.546 3029.574,721.811C3031.522,722.238 3034.433,723.353 3036.755,726.319C3037.246,726.946 3040.027,730.5 3039.296,735.726C3041.923,737.621 3043.053,740.025 3043.304,740.56C3045.705,745.666 3043.79,750.089 3043.464,750.844C3043.183,751.492 3042.847,752.118 3042.461,752.709C3041.556,754.096 3041.476,754.032 3040.352,755.247C3027.508,769.134 3015.669,782.763 3012.442,787.956C3012.43,788.107 3012.414,788.257 3012.395,788.408C3012.192,789.985 3011.102,791.365 3010.068,792.573L3006.242,795.593C3004.651,796.021 3003.112,796.763 3001.469,796.876C3001.339,796.885 3001.102,796.902 3000.779,796.906C2998.887,798.768 2996.856,800.748 2994.669,802.857C2988.476,808.833 2981.27,815.543 2981.243,815.565C2979.614,816.849 2979.7,816.997 2977.803,817.843C2977.186,818.118 2974.065,819.508 2970.094,818.651C2966.528,822.688 2960.432,827.966 2949.72,835.344C2949.556,835.838 2949.448,836.165 2949.437,836.192C2949.179,836.863 2948.924,837.539 2948.584,838.172C2945.857,843.242 2941.049,844.288 2940.232,844.466C2939.025,844.729 2937.896,844.798 2936.861,844.74C2938.893,848.796 2940.946,851.87 2942.304,853.43C2942.063,853.674 2941.847,853.893 2941.651,854.091C2943.22,855.54 2944.986,856.833 2946.141,858.61C2947.008,859.943 2947.072,861.699 2947.068,863.29C2947.066,864.059 2947.054,868.469 2943.304,872.134C2939.661,875.694 2935.321,875.661 2934.568,875.655C2933.993,875.65 2930.868,875.626 2927.686,873.596C2920.619,869.089 2913.082,854.6 2909.545,844.049C2907.218,837.106 2905.985,830.812 2905.478,825.193ZM2939.64,851.859L2939.692,851.743L2939.505,851.658C2939.549,851.726 2939.594,851.793 2939.64,851.859Z" style="fill:white;"/>
                    </g>
                    <g transform="matrix(1.078109,0,0,1.078109,-230.566562,-82.163966)">
                        <path d="M3028.563,733.587C3027.588,733.934 3026.479,734.189 3025.239,734.27C3021.424,734.518 3018.487,732.919 3017.963,732.633C3013.495,730.2 3012.269,726.851 3011.739,725.599C3011.224,724.381 3011.071,722.817 3011.047,722.57C3010.792,719.963 3011.457,717.856 3011.58,717.465C3012.659,714.044 3016.121,709.125 3023.443,708.527C3027.625,708.186 3041.041,708.917 3050.671,713.48C3054.396,714.404 3060.993,715.465 3063.487,716.102C3064.349,716.322 3069.481,717.632 3071.968,722.989C3073.796,722.82 3075.455,722.884 3076.361,723.053C3076.715,723.119 3079.232,723.589 3080.621,724.531C3081.938,725.426 3082.452,725.741 3083.062,726.325C3084.771,726.982 3086.819,727.803 3089.252,728.828C3089.5,728.933 3091.384,729.727 3092.286,730.301C3092.963,730.733 3096.911,733.246 3097.878,738.643C3098.246,740.696 3097.977,742.432 3097.927,742.758C3097.669,744.425 3097.558,744.396 3097.038,746C3094.796,752.919 3093.776,757.579 3093.323,760.568C3096.959,764.352 3097.305,769.377 3097.328,769.547C3098.014,774.604 3095.249,778.159 3094.78,778.763C3094.31,779.367 3091.569,782.89 3086.475,783.502C3085.897,783.571 3083.217,783.892 3080.171,782.634C3074.314,781.535 3068.376,776.504 3067.998,765.633C3067.848,761.322 3068.525,756.494 3069.518,751.866C3069.097,752.064 3068.793,752.202 3068.662,752.262C3065.657,753.627 3052.15,759.848 3042,752.624C3036.959,749.036 3033.854,742.253 3036.641,734.931C3034.193,734.304 3031.159,733.818 3028.563,733.587Z" style="fill:white;"/>
                    </g>
                    <g transform="matrix(1.078109,0,0,1.078109,-230.566562,-82.163966)">
                        <path d="M3065.117,837.733C3064.949,837.639 3064.783,837.542 3064.617,837.446C3059.595,834.518 3058.743,829.622 3058.598,828.791C3058.538,828.45 3058.221,826.625 3058.605,824.461C3058.732,823.747 3058.947,823.051 3059.17,822.362C3059.363,821.761 3059.467,821.491 3060.241,819.377C3060.205,818.19 3060.301,816.837 3060.589,815.29C3061.429,810.774 3063.746,801.488 3067.657,791.982C3075.383,773.203 3081.303,769.158 3084.823,767.684C3083.873,766.15 3082.949,763.933 3082.949,761.089C3082.949,759.49 3083.251,757.858 3083.86,756.38C3085.862,751.523 3089.988,749.83 3090.704,749.537C3092.181,748.931 3093.842,748.319 3095.407,748.632C3097.697,749.09 3099.707,750.48 3101.847,751.438L3102.281,750.71C3103.948,751.654 3107.874,753.375 3116.448,766.202C3120.086,771.645 3122.615,776.453 3124.634,782.486C3126.643,788.49 3127.607,793.39 3129.834,802.477C3130.03,802.005 3130.225,801.544 3130.422,801.095C3131.371,798.928 3132.572,797.634 3132.812,797.375C3136.549,793.349 3141.237,793.374 3142.042,793.379C3147.535,793.408 3150.687,796.879 3151.228,797.474C3153.359,799.821 3153.997,802.423 3154.115,802.901C3154.171,803.13 3154.722,806.527 3154.728,808.189C3154.753,814.821 3151.344,818.184 3151.015,820.522C3150.493,824.222 3152.589,832.652 3146.558,848.283C3145.506,851.01 3142.438,858.411 3139.972,862.068C3131.455,874.704 3114.433,876.182 3100.354,859.371C3097.195,855.599 3093.546,849.891 3092.484,844.384C3091.621,839.912 3092.53,836.713 3093.404,834.761C3092.76,832.948 3092.041,831.103 3091.244,828.55C3089.102,831.821 3086.892,834.634 3084.707,836.414C3078.53,841.448 3072.573,840.457 3070.514,840.015C3069.093,839.71 3067.697,839.107 3067.46,839.006C3066.654,838.658 3065.763,838.136 3065.117,837.733ZM3104.167,752.229C3104.202,752.236 3104.237,752.243 3104.273,752.251L3104.208,752.187L3104.167,752.229Z" style="fill:white;"/>
                    </g>
                    <g transform="matrix(1.078109,0,0,1.078109,-230.566562,-82.163966)">
                        <path d="M3062.6,710.948C3062.72,711.393 3062.81,711.939 3062.865,712.773C3063.203,717.856 3060.357,721.132 3059.863,721.701C3056.415,725.67 3051.944,725.967 3051.169,726.019C3050.417,726.069 3046.087,726.357 3042.242,723.016C3037.408,718.818 3037.395,712.536 3037.393,711.539C3037.386,708.001 3038.164,703.024 3044.725,686.817C3049.81,674.255 3056.25,661.648 3070.464,659.823C3077.916,658.867 3086.062,661.322 3097.001,666.827C3109.697,673.216 3116.5,698.825 3092.217,715.771C3088.782,718.169 3087.906,719.778 3086.971,726.514C3086.511,729.826 3086.114,733.205 3084.464,736.661C3084.125,737.369 3082.165,741.473 3077.113,743.158C3075.596,743.663 3073.952,743.892 3072.356,743.782C3067.115,743.419 3064.2,740.037 3063.694,739.451C3061.558,736.973 3061.394,735.655 3061.346,735.274C3060.787,730.787 3062.359,730.526 3062.069,726.573C3061.945,726.536 3061.816,726.498 3061.681,726.458C3062.876,720.961 3062.544,705.989 3077.526,695.537C3077.534,695.531 3081.05,693.239 3082.636,690.648C3083.335,689.507 3083.521,688.678 3083.493,688.052C3082.006,687.347 3080.063,686.47 3078.246,685.796C3075.834,684.901 3074.52,684.686 3073.929,684.639C3073.055,685.537 3071.459,687.79 3068.823,693.974C3068.674,694.323 3063.962,705.539 3062.6,710.948ZM3061.994,725.804C3061.991,725.777 3061.987,725.75 3061.984,725.723L3061.954,725.784L3061.994,725.804Z" style="fill:white;"/>
                    </g>
                    <g transform="matrix(1.078109,0,0,1.078109,-230.566562,-82.163966)">
                        <path d="M3058.529,734.024C3057.292,733.564 3055.988,732.85 3054.727,731.759C3050.329,727.954 3050.395,722.983 3050.407,722.14C3050.416,721.415 3050.489,720.688 3050.624,719.976C3050.675,719.711 3050.788,719.112 3051.25,717.81L3051.243,717.808C3051.28,717.712 3051.316,717.618 3051.353,717.523C3051.53,717.038 3051.751,716.465 3052.028,715.79C3055.027,708.133 3057.057,703.588 3059.163,700.112C3061.595,694.852 3064.991,687.506 3069.82,677.037C3070.14,676.343 3071.978,672.357 3076.852,670.559C3078.352,670.005 3079.988,669.724 3081.586,669.784C3082.362,669.812 3086.838,669.979 3090.399,673.847C3093.85,677.593 3093.688,681.93 3093.659,682.683C3093.598,684.33 3093.091,685.947 3092.527,687.495C3092.512,687.537 3091.499,689.733 3089.992,692.994C3090.233,693.703 3090.476,694.615 3090.591,695.643C3090.653,696.191 3090.667,696.863 3090.648,697.604C3092.15,697.948 3093.188,698.467 3093.511,698.628C3094.941,699.343 3096.265,700.343 3097.315,701.549C3100.759,705.505 3100.42,709.923 3100.361,710.692C3100.239,712.28 3100.037,714.03 3099.063,715.29C3098.039,716.613 3096.656,717.601 3095.29,718.605C3095.487,718.781 3095.703,718.975 3095.945,719.194C3091.838,724.511 3086.858,735.047 3082.968,738.938C3078.086,743.819 3074.336,745.013 3069.731,744.614C3068.243,744.486 3065.858,743.645 3064.788,742.966C3062.841,741.73 3061.269,740.52 3059.658,737.444C3059.072,736.325 3058.725,735.143 3058.529,734.024ZM3092.046,721.446C3091.989,721.514 3091.934,721.583 3091.88,721.653L3092.092,721.578L3092.046,721.446Z" style="fill:white;"/>
                    </g>
                    <g transform="matrix(1.078109,0,0,1.078109,-230.566562,-82.163966)">
                        <path d="M3041.687,695.826C3045.606,694.25 3046.003,694.021 3048.103,693.65C3048.297,693.616 3048.505,693.468 3048.684,693.549C3049.22,693.794 3049.59,694.328 3050.126,694.572C3049.625,695.006 3049.312,695.63 3048.811,696.063C3048.674,696.182 3047.975,695.992 3045.318,697.049C3039.688,699.289 3039.698,699.436 3039.127,699.356C3038.135,699.216 3037.687,697.975 3038.418,697.234C3038.942,696.702 3039.327,695.969 3040.002,695.649C3040.535,695.398 3041.237,695.901 3041.77,695.649L3041.687,695.826Z" style="fill:white;"/>
                    </g>
                    <g transform="matrix(1.078109,0,0,1.078109,-230.566562,-82.163966)">
                        <path d="M3034.75,699.641C3034.479,699.59 3034.192,699.539 3033.872,699.483C3033.831,699.475 3031.801,698.985 3031.361,698.182C3031.068,697.646 3031.046,696.148 3032.941,696.3C3033.46,696.342 3034.526,696.48 3035.936,696.565C3036.577,696.252 3037.192,695.931 3037.844,695.562C3039.728,694.159 3041.906,692.399 3042.543,691.295C3042.533,691.289 3042.54,691.276 3042.572,691.245C3042.578,691.233 3042.584,691.221 3042.59,691.21L3042.605,691.213C3042.74,691.089 3043.096,690.789 3043.828,690.069C3043.891,690.136 3043.952,690.197 3044.013,690.254C3044.833,689.529 3045.797,688.703 3046.934,687.76C3046.948,687.748 3047.781,686.803 3048.702,687.261C3049.199,687.509 3049.564,688.149 3049.309,688.837C3048.471,691.096 3047.616,692.711 3045.837,697.402C3045.272,698.894 3044.704,699.876 3044.07,700.518C3044.206,701.111 3043.942,701.789 3043.294,701.98C3043.037,702.357 3042.582,702.599 3042.062,702.514C3041.584,702.436 3036.289,701.57 3036.091,701.5C3035.808,701.4 3035.586,701.198 3035.442,700.951C3035.341,700.9 3035.27,700.843 3035.187,700.767C3034.855,700.467 3034.739,700.051 3034.797,699.663C3034.781,699.656 3034.766,699.648 3034.75,699.641ZM3042.011,698.938C3042.018,698.934 3042.024,698.93 3042.031,698.927C3042.021,698.928 3042.01,698.93 3042,698.931C3042.004,698.934 3042.008,698.936 3042.011,698.938ZM3043.128,697.423C3043.438,696.741 3043.663,696.033 3044.341,694.337C3043.777,694.731 3042.756,695.434 3041.677,696.135C3041.59,696.253 3041.513,696.366 3041.446,696.474C3041.45,696.473 3041.455,696.473 3041.459,696.472C3041.463,696.472 3042.389,696.238 3042.908,696.931C3043.02,697.08 3043.092,697.249 3043.128,697.423Z" style="fill:white;"/>
                    </g>
                    <g transform="matrix(1.078109,0,0,1.078109,-230.566562,-82.163966)">
                        <path d="M3095.654,717.44C3095.005,717.308 3094.839,717.165 3094.631,716.843C3094.086,715.999 3094.735,714.836 3095.793,714.92C3095.831,714.923 3095.87,714.926 3095.909,714.929C3095.84,714.831 3095.785,714.731 3095.745,714.629C3095.451,713.872 3095.763,712.935 3096.851,712.577C3097.628,712.321 3098.288,712.138 3098.867,712.024C3099.091,711.943 3099.345,711.834 3099.624,711.725C3099.494,711.477 3099.379,711.239 3099.283,711.016C3099.254,710.948 3099.226,710.881 3099.201,710.816C3098.748,710.298 3098.597,710.069 3098.545,709.851C3098.428,709.352 3098.624,708.897 3098.963,708.613C3098.391,706.837 3098.515,705.998 3098.622,705.282C3098.583,705.164 3098.549,705.044 3098.524,704.922C3098.517,704.888 3099.084,703.498 3100.248,703.838C3101.522,704.211 3101.073,705.832 3101.065,705.912C3101.042,706.134 3100.915,706.519 3101.336,707.822C3102.666,708.145 3103.316,708.864 3103.45,709.013C3104.065,709.694 3105.085,711.259 3105.247,711.808C3105.611,713.045 3105.849,713.84 3106.005,714.361C3106.025,714.389 3106.046,714.417 3106.067,714.445C3106.124,714.521 3106.655,715.232 3106.718,715.437C3106.76,715.573 3106.777,715.708 3106.772,715.839C3107.8,716.268 3107.738,717.36 3107.734,717.364C3107.333,717.797 3106.884,718.183 3106.484,718.615L3105.95,718.083C3105.944,718.114 3105.937,718.148 3105.929,718.185C3105.755,718.182 3105.523,718.188 3105.247,718.201C3105.03,718.445 3104.712,718.609 3104.32,718.615C3102.61,718.642 3101.767,718.564 3100.837,718.551C3099.365,718.68 3097.962,718.801 3097.17,718.828C3097.132,718.833 3097.094,718.838 3097.055,718.843L3097.054,718.831C3096.801,718.837 3096.626,718.831 3096.55,718.811C3095.882,718.627 3095.583,718.01 3095.654,717.44Z" style="fill:white;"/>
                    </g>
                    <g transform="matrix(1.078109,0,0,1.078109,-230.566562,-82.163966)">
                        <path d="M3132.673,798.484C3132.293,798.151 3132.104,797.591 3132.36,797.01C3132.684,796.276 3133.15,795.415 3133.677,794.546C3133.601,794.508 3133.533,794.465 3133.473,794.417C3132.272,793.428 3133.467,792.161 3133.599,792.021C3134.257,791.323 3136.615,789.316 3137.028,789.167C3137.391,789.036 3137.776,789.09 3138.086,789.273C3138.791,788.149 3139.441,787.166 3140.268,786.026C3140.51,785.691 3140.851,785.525 3141.196,785.501C3141.245,785.363 3141.275,785.28 3141.283,785.266C3141.611,784.655 3142.289,784.499 3142.833,784.703C3143.063,784.62 3143.321,784.612 3143.611,784.698C3144.286,784.9 3144.991,785.618 3144.943,789.407C3144.937,789.858 3144.91,790.328 3144.867,790.803C3144.992,791.683 3145.112,792.62 3145.22,793.506C3145.438,793.576 3145.543,793.643 3146.738,794.213C3146.812,794.05 3146.917,793.891 3147.061,793.736C3148.116,792.599 3151.146,793.752 3151.885,794.635C3152.192,795.002 3152.327,795.408 3152.298,795.808C3152.741,797.051 3152.468,798.614 3152.426,798.86C3152.301,799.577 3152.166,799.996 3152.068,800.451L3152.156,800.529L3152.168,800.54L3152.158,800.551L3152.351,802.287C3151.762,802.312 3151.182,802.456 3150.593,802.481C3150.591,802.481 3150.269,802.226 3150.054,801.968C3149.559,801.376 3149.464,800.745 3149.591,800.07C3149.709,799.448 3149.994,798.608 3150.056,797.8C3149.847,797.853 3149.624,797.896 3149.387,797.927C3148.593,798.034 3148.039,797.815 3147.736,797.45C3147.176,797.192 3146.398,796.822 3145.738,796.505C3145.627,797.92 3145.656,798.065 3145.302,798.423C3144.703,799.03 3143.657,798.855 3143.287,798.087C3143.172,797.849 3143.151,797.709 3143.082,797.026C3142.26,797.348 3141.197,796.682 3141.383,795.641C3141.392,795.59 3141.411,795.482 3141.438,795.328C3141.171,795.443 3140.874,795.454 3140.601,795.378C3140.6,795.382 3140.599,795.386 3140.597,795.39C3140.596,795.395 3140.595,795.401 3140.594,795.407L3140.591,795.407C3140.409,795.93 3140.182,796.23 3139.674,796.357C3138.814,796.572 3137.96,795.813 3138.15,794.881C3138.242,794.429 3138.342,793.953 3138.447,793.467C3136.913,796.007 3136.829,796.067 3136.412,796.208C3136.358,796.226 3136.304,796.24 3136.251,796.251C3135.886,796.741 3135.472,797.29 3134.999,797.908C3134.987,797.924 3134.335,799.139 3133.303,798.876C3133.061,798.815 3132.84,798.675 3132.673,798.484Z" style="fill:white;"/>
                    </g>
                    <g transform="matrix(1.078109,0,0,1.078109,-230.566562,-82.163966)">
                        <path d="M3116.88,790.516C3116.339,791.057 3113.234,794.162 3108.041,794.162C3106.442,794.162 3104.81,793.86 3103.332,793.251C3100.821,792.216 3100.829,792.143 3098.911,790.224C3098.37,789.684 3095.264,786.579 3095.264,781.386C3095.264,779.787 3095.567,778.155 3096.176,776.676C3096.472,775.958 3098.179,771.815 3103.039,769.812C3103.736,769.525 3107.749,767.872 3112.458,769.812C3114.97,770.847 3114.961,770.92 3116.88,772.838C3117.421,773.379 3120.526,776.484 3120.526,781.677C3120.526,786.87 3117.421,789.975 3116.88,790.516Z" style="fill:white;"/>
                    </g>
                    <g transform="matrix(1.078109,0,0,1.078109,-230.566562,-82.163966)">
                        <path d="M3121.826,787.617C3122.482,790.217 3122.537,790.248 3122.143,792.903C3122.033,793.649 3121.396,797.942 3117.316,800.991C3113.104,804.138 3108.672,803.481 3107.904,803.367C3102.866,802.619 3100.267,799.143 3099.816,798.539C3097.981,796.083 3098.233,795.933 3097.385,792.985C3097.045,791.805 3096.394,790.664 3093.107,783.231C3092.798,782.531 3091.022,778.515 3092.895,773.672C3093.472,772.18 3094.343,770.767 3095.444,769.608C3095.979,769.045 3099.066,765.797 3104.322,765.683C3109.414,765.572 3112.56,768.561 3113.107,769.08C3115.561,771.413 3115.303,771.632 3116.681,774.722C3119.883,781.901 3120.738,783.305 3121.826,787.617Z" style="fill:white;"/>
                    </g>
                    <g transform="matrix(0.970571,0,0,1.078109,101.543412,-82.163966)">
                        <path d="M3127.437,1036.91C3126.342,1038.754 3123.42,1042.167 3115.28,1046.618C3112.661,1048.049 3112.535,1047.878 3109.128,1048.574C3099.619,1050.515 3090.934,1052.895 3085.528,1047.708C3080.38,1042.769 3082.656,1034.448 3083.868,1027.467C3089.803,993.282 3087.137,991.985 3089.558,987.891C3090.891,985.638 3092.571,984.921 3092.92,984.772C3093.247,984.632 3095.134,983.827 3097.447,984.558C3099.833,985.313 3100.75,987.061 3100.91,987.365C3101.582,988.646 3101.49,989.215 3101.463,989.379C3101.184,991.104 3100.55,991.236 3100.153,992.433L3100.401,992.494C3099.941,995.63 3100.326,999.393 3097.751,1016.85C3095.594,1031.471 3093.927,1037.163 3094.404,1040.018C3096.951,1040.106 3101.394,1039.005 3108.595,1037.586C3111.581,1036.012 3115.274,1033.658 3116.699,1031.957C3120.137,1020.87 3121.101,1002.965 3123.106,998.489C3124.857,994.58 3129.167,994.421 3130.696,994.928C3131.835,995.307 3133.71,995.887 3134.855,998.367C3135.192,997.982 3135.558,997.672 3135.929,997.422C3142.254,978.475 3149.689,966.848 3153.105,946.731C3155.848,930.578 3158.98,930.799 3157.609,917.522C3157.231,913.866 3156.647,911.741 3158.686,909.102C3159.053,908.627 3160.075,907.835 3160.476,907.648C3160.968,907.419 3163.82,905.828 3167.351,907.824C3171.557,910.204 3175.151,920.466 3174.428,927.177C3172.48,945.267 3160.192,973.364 3151.001,995.737C3147.719,1003.728 3146.391,1007.101 3146.378,1007.12C3145.967,1007.728 3145.676,1008.419 3145.142,1008.944C3145.087,1008.999 3144.972,1009.112 3144.799,1009.256C3144.257,1011.244 3143.74,1013.305 3143.253,1015.452C3143.076,1016.236 3143.138,1016.25 3142.816,1016.994C3142.691,1017.283 3142.094,1018.663 3140.486,1019.592C3140.57,1024.96 3141.099,1037.657 3140.193,1040.702C3138.983,1044.767 3133.844,1046.108 3130.501,1043.778C3128.698,1042.521 3128.056,1040.903 3127.437,1036.91Z" style="fill:white;"/>
                    </g>
                    <g transform="matrix(1.078109,0,0,1.078109,-230.566562,-82.163966)">
                        <path d="M2962.957,858.289C2963.368,859.197 2963.596,860.222 2963.789,861.186C2963.941,861.948 2964.819,866.342 2961.885,870.705C2961.464,871.33 2959.043,874.932 2954.048,875.929C2953.569,876.025 2951.222,876.494 2947.95,875.693C2944.917,874.951 2937.969,872.813 2935.777,864.769C2934.55,860.265 2936.275,855.986 2936.56,855.28C2937.614,852.667 2938.941,850.962 2939.909,848.593C2939.909,848.592 2939.909,848.592 2939.909,848.592C2940.808,847.209 2941.459,845.63 2942.606,844.446C2943.13,843.904 2946.152,840.784 2951.235,840.67C2952.01,840.653 2956.48,840.553 2960.262,844.203C2963.927,847.739 2964.021,852.078 2964.037,852.832C2964.099,855.698 2964.001,855.809 2962.957,858.289Z" style="fill:white;"/>
                    </g>
                    <g transform="matrix(1.078109,0,0,1.078109,-230.566562,-82.163966)">
                        <path d="M3126.917,1024.137C3125.363,1020.789 3122.477,1016.662 3122.407,1016.488C3122.017,1015.518 3121.434,1014.605 3121.238,1013.578C3121.148,1013.108 3120.63,1010.401 3122.432,1007.718C3122.442,1007.703 3122.453,1007.687 3122.466,1007.668C3122.708,1007.197 3123.024,1006.752 3123.331,1006.336C3125.313,1003.649 3128.128,1003.236 3128.616,1003.165C3129.09,1003.095 3131.816,1002.696 3134.419,1004.615C3134.935,1004.996 3136.572,1006.204 3138.876,1011.281C3139.678,1013.05 3139.69,1013.299 3141.508,1017.856C3141.898,1018.717 3142.197,1019.471 3142.433,1020.146C3142.977,1021.701 3142.963,1022.862 3142.96,1023.102C3142.954,1023.63 3142.916,1026.728 3140.146,1029.069C3139.743,1029.41 3137.375,1031.41 3133.792,1030.848C3130.209,1030.285 3128.569,1027.656 3128.289,1027.208C3127.823,1026.46 3127.708,1026.178 3126.917,1024.137Z" style="fill:white;"/>
                    </g>
                </g>
                <g transform="matrix(1,0,0,1,-28.210271,0)">
                    <g transform="matrix(1,0,0,1,169.1485,1108.8505)">
                        <path d="M0,52.26C139.2,19.332 198.087,49.692 298.087,36.025C300.68,35.671 341.658,29.333 381.324,0" style="fill:none;fill-rule:nonzero;stroke:black;stroke-width:6.69px;"/>
                    </g>
                    <g transform="matrix(1,0,0,1,550.4728,967.2086)">
                        <path d="M0,141.642C14.4,113.975 2.244,81.513 0,73.334C-2.103,65.667 -27.945,24.667 -23.904,0" style="fill:none;fill-rule:nonzero;stroke:black;stroke-width:6.69px;"/>
                    </g>
                    <g transform="matrix(1,0,0,1,103.187,1184.6545)">
                        <path d="M0,-13.779C7.879,-1.604 10.775,4.888 27.049,9.888C81.283,26.551 154.506,40.668 211.049,42.554C277.786,44.781 326.949,37.812 387.382,7.554C400.734,0.869 425.75,-22.885 430.382,-37.112C433.638,-47.112 425.63,-46.444 419.319,-58.56" style="fill:none;fill-rule:nonzero;stroke:black;stroke-width:6.69px;"/>
                    </g>
                    <g transform="matrix(-0.864233,-0.503091,-0.503091,0.864233,675.848179,1507.660088)">
                        <path d="M-4.61,1.244C-1.578,1.303 -0.065,1.261 0.336,1.244" style="fill:none;fill-rule:nonzero;stroke:black;stroke-width:6.69px;"/>
                    </g>
                    <g transform="matrix(1,0,0,1,674.9321,1544.1312)">
                        <path d="M0,-35.565C4.274,-33.077 11.994,-27.325 14.542,-17.135C16.255,-10.281 14.767,-1.352 14.542,0" style="fill:none;fill-rule:nonzero;stroke:black;stroke-width:6.69px;"/>
                    </g>
                    <g transform="matrix(0.749596,-0.661896,-0.661896,-0.749596,234.935934,1454.057808)">
                        <path d="M-1.283,3.393C4.95,3.253 8.122,3.354 8.967,3.393" style="fill:none;fill-rule:nonzero;stroke:black;stroke-width:6.69px;"/>
                    </g>
                    <g transform="matrix(1,0,0,1,239.4128,1542.5698)">
                        <path d="M0,-96.991C-2.012,-94.967 -21.564,-74.518 -26.145,-46.729C-29.225,-28.037 -26.55,-3.687 -26.145,0" style="fill:none;fill-rule:nonzero;stroke:black;stroke-width:6.69px;"/>
                    </g>
                    <g transform="matrix(1,0,0,1,537.6967,1550.3918)">
                        <path d="M0,-77.956C-24.777,-63.98 -23.047,-9.044 -23.364,-5.88C-23.951,0 0.309,-5.238 5.563,-3.596" style="fill:none;fill-rule:nonzero;stroke:black;stroke-width:6.69px;"/>
                    </g>
                    <g transform="matrix(1,0,0,1,283.8543,1542.522)">
                        <path d="M0,-98.482C28.701,-80.113 26.121,-6.617 27.064,-3.754C28.3,0 -52.443,-12.869 -69.523,-0.821" style="fill:none;fill-rule:nonzero;stroke:black;stroke-width:6.69px;"/>
                    </g>
                    <g transform="matrix(1,0,0,1,534.6843,1555.68)">
                        <path d="M0,-84.703C5.699,-72.433 25.918,-81.067 35.229,-80.087C44.742,-79.086 103.618,0 123.567,-16.88C124.738,-17.871 143.173,-38.958 144.128,-40.868" style="fill:none;fill-rule:nonzero;stroke:black;stroke-width:6.69px;"/>
                    </g>
                    <g transform="matrix(-0.992766,0.120061,0.120061,0.992766,238.326356,1461.20283)">
                        <path d="M-50.954,-13.057C-40.961,1.979 -13.74,-12.744 -0.421,-13.057" style="fill:none;fill-rule:nonzero;stroke:black;stroke-width:6.69px;"/>
                    </g>
                    <g transform="matrix(2.67567,0,0,2.67567,-7727.515,-1266.430264)">
                        <path d="M2945.261,831.39C2945.224,831.836 2945.219,832.285 2945.153,832.727C2945.136,832.843 2943.805,833.544 2943.146,832.26C2942.372,830.754 2942.992,811.953 2944.243,802.77C2945.139,796.187 2945.734,795.836 2946.409,793.867C2947.139,791.738 2949.203,785.52 2949.69,783.361C2949.789,783.368 2949.887,783.379 2949.986,783.391C2950.104,783.015 2950.208,782.635 2950.353,782.268C2950.419,782.101 2951.857,781.916 2952.148,783.105C2952.261,783.567 2952.247,784.087 2949.812,791.578C2948.372,796.008 2948.243,795.957 2947.995,796.689C2945.67,803.569 2944.966,827.67 2945.459,831.331L2945.261,831.39ZM2951.307,784.451L2951.344,784.552L2951.47,784.505L2951.307,784.451Z"/>
                    </g>
                    <g transform="matrix(2.67567,0,0,2.67567,-7727.515,-1266.430264)">
                        <path d="M2937.746,906.786C2937.201,907.01 2936.71,907.353 2936.164,907.577C2936.052,907.623 2933.574,906.648 2930.149,902.642C2922.196,893.34 2917.238,879.339 2923.904,868.605C2924.602,867.481 2939.267,845.109 2949.576,810.737C2950.343,808.179 2950.935,806.014 2950.937,806.013C2951.387,805.632 2952.026,805.524 2952.476,805.143C2952.609,805.872 2953.055,806.519 2953.188,807.247C2953.191,807.265 2951.708,812.579 2949.896,818.036C2939,850.85 2926.802,868.235 2925.266,871.297C2918.017,885.751 2932.604,903.573 2936.882,905.179C2936.91,905.19 2936.953,905.183 2936.967,905.209C2937.385,905.986 2937.329,906.011 2937.746,906.786Z"/>
                    </g>
                    <g transform="matrix(2.67567,0,0,2.67567,-7727.515,-1266.430264)">
                        <path d="M2926.642,872.495L2927.018,872.621C2926.788,873.164 2926.688,873.756 2926.458,874.298C2926.439,874.345 2925.488,874.711 2924.888,873.915C2923.831,872.514 2903.292,843.344 2901.067,825.235C2901.035,824.976 2900.498,822.414 2901.324,815.449C2903.515,796.952 2911.677,789.768 2914.31,786.231C2915.436,784.719 2928.075,770.522 2936.732,762.703C2955.243,745.985 2951.639,739.329 2975.596,728.945C2981.739,726.282 2990.243,723.015 2996.187,721.658C2998.309,721.174 3000.244,720.857 3002.053,720.702C3002.077,720.677 3002.101,720.653 3002.126,720.628C3002.133,720.622 3003.002,720.519 3003.761,720.557C3003.922,720.565 3004.082,720.577 3004.241,720.592C3014.876,720.453 3021.606,726.41 3038.889,736.805C3045.916,741.031 3086.966,738.246 3091.866,739.856C3093.382,740.353 3093.791,742.049 3091.884,742.988C3089.989,743.92 3087.738,744.155 3079.116,746.651C3069.601,749.405 3066.173,750.885 3049.564,747.996C3019.651,742.792 3013.032,724.186 3004.141,723.1C2998.833,723.171 2992.529,724.9 2983.184,728.533C2954.603,739.644 2958.183,745.038 2942.787,760.407C2938.482,764.704 2935.338,766.812 2922.777,780.435C2916.653,787.077 2916.816,787.214 2914.583,789.858C2911.984,792.935 2904.196,801.644 2903.368,821.169C2902.79,834.789 2917.772,859.436 2926.842,872.351L2926.642,872.495ZM2926.11,872.318L2926.125,872.254L2925.341,872.062L2926.11,872.318ZM3011.72,724.241C3019.12,730.247 3027.727,741.841 3050.753,745.663C3069.128,748.713 3069.289,746.465 3085.127,742.401C3085.935,742.194 3086.64,742.016 3087.261,741.856C3075.624,741.423 3044.498,743.087 3037.599,738.946C3025.221,731.517 3018.43,726.395 3011.72,724.241Z"/>
                    </g>
                    <g transform="matrix(2.67567,0,0,2.67567,-7727.515,-1266.430264)">
                        <path d="M3009.38,711.517C3007.743,711.822 3003.8,718.955 3003.011,721.574L3001.93,721.455L3002.077,722.701C3001.587,722.373 3001.051,722.118 3000.561,721.79C3000.544,721.779 3000.522,721.533 3000.522,721.532C3000.44,720.216 3004.216,712.463 3007.06,710.034C3007.108,709.993 3008.068,709.113 3009.121,709.03C3047.041,706.055 3047.362,710.296 3060.069,715.74C3073.963,721.693 3075.951,721.449 3089.611,728.354C3093.568,730.354 3096.532,732.127 3097.714,734.741C3098.976,737.532 3098.385,740.79 3097.317,746.175L3095.869,745.885L3094.865,745.685C3096.574,736.902 3096.992,735.189 3090.428,731.602C3089.834,731.278 3082.616,727.483 3075.873,724.746C3069.892,722.317 3062.953,720.038 3053.67,715.526C3044.595,711.115 3040.005,709.222 3009.38,711.517Z"/>
                    </g>
                    <g transform="matrix(2.67567,0,0,2.67567,-7727.515,-1266.430264)">
                        <path d="M3095.516,748.618C3095.144,748.161 3094.637,747.825 3094.266,747.368C3094.205,747.293 3094.205,747.155 3094.266,747.08C3094.637,746.623 3095.144,746.287 3095.516,745.83L3095.516,748.618Z"/>
                    </g>
                    <g transform="matrix(2.67567,0,0,2.67567,-7727.515,-1266.430264)">
                        <path d="M3095.761,750.319C3095.414,749.842 3094.637,749.815 3094.29,749.338C3094.003,748.943 3093.889,748.376 3094.002,747.9C3094.139,747.327 3094.846,747.003 3094.983,746.43L3095.761,750.319Z"/>
                    </g>
                    <g transform="matrix(2.67567,0,0,2.67567,-7727.515,-1266.430264)">
                        <path d="M3089.807,741.802C3089.822,741.784 3089.837,741.765 3089.853,741.746C3094.254,745.002 3096.95,747.767 3097.324,747.933C3097.851,748.168 3099.708,748.705 3107.221,754.729C3110.566,757.411 3127.646,785.114 3134.241,810.858C3134.258,810.925 3135.325,815.973 3137.764,818.155C3138.476,818.792 3139.043,818.923 3139.049,818.934C3139.337,819.447 3139.547,820.001 3139.834,820.514C3139.294,820.75 3138.792,821.067 3138.252,821.304C3138.247,821.306 3137.594,821.089 3136.987,820.696C3134.022,818.777 3132.663,814.537 3132.121,812.648C3132.099,812.571 3128.14,794.32 3114.384,769.966C3109.727,761.721 3106.476,757.345 3105.697,756.712C3100.328,752.353 3098.21,751.181 3097.502,750.789C3096.493,750.232 3096.078,750.211 3095.544,749.736C3090.587,745.324 3090.393,745.312 3088.333,743.731C3087.142,742.816 3088.154,740.994 3089.576,741.566C3089.633,741.589 3089.719,741.589 3089.743,741.646C3089.766,741.702 3089.787,741.753 3089.807,741.802Z"/>
                    </g>
                    <g transform="matrix(2.67567,0,0,2.67567,-7727.515,-1266.430264)">
                        <path d="M3109.141,720.744C3107.001,717.643 3106.54,717.731 3105.5,714.82C3104.611,712.334 3102.174,711.51 3103.103,702.495C3104.401,689.909 3109.727,673.633 3090.257,666.994C3082.158,664.233 3062.029,655.59 3052.911,674.073C3051.463,677.009 3048.957,684.789 3042.946,691.527C3037.076,698.107 3031.14,699.664 3029.63,698.609C3028.562,697.863 3029.114,696.778 3029.123,696.775C3029.673,696.564 3030.25,696.427 3030.8,696.216L3030.358,697.419C3030.687,697.085 3030.661,696.874 3030.774,696.414C3033.043,696.473 3042.397,692.963 3049.3,676.078C3051.544,670.589 3057.931,655.576 3080.816,661.354C3085.796,662.611 3092.699,665.204 3093.876,665.721C3117.869,676.257 3101.098,703.062 3106.56,711.501C3107.923,713.606 3107.65,713.741 3108.263,715.054C3108.995,716.622 3111.234,719.176 3111.22,719.356C3111.177,719.944 3110.918,720.502 3110.874,721.09L3109.148,720.745L3109.144,720.748C3109.143,720.747 3109.142,720.745 3109.141,720.744Z"/>
                    </g>
                    <g transform="matrix(2.67567,0,0,2.67567,-7727.515,-1266.430264)">
                        <path d="M3092.388,719.872C3091.818,720.022 3091.375,720.51 3090.805,720.66C3090.695,720.689 3086.683,719.242 3086.327,719.114C3077.249,715.84 3076.409,714.503 3065.05,708.803C3058.549,705.541 3032.917,707.367 3029.513,697.705C3029.495,697.655 3029.298,697.096 3029.316,697.062C3029.59,696.54 3029.952,696.068 3030.226,695.546C3030.71,695.879 3031.256,696.117 3031.74,696.45C3031.924,696.577 3031.738,699.237 3038.105,701.338C3046.835,704.218 3060.985,703.989 3066.171,706.568C3078.13,712.518 3078.031,713.731 3090.979,718.082C3091.584,718.285 3091.589,718.277 3091.599,718.29C3092.153,718.993 3091.835,719.17 3092.388,719.872Z"/>
                    </g>
                    <g transform="matrix(2.67567,0,0,2.67567,-7727.515,-1266.430264)">
                        <path d="M3109.388,721.554C3107.99,721.216 3104.885,721.215 3093.195,721.013C3092.239,720.996 3092.629,720.427 3091.965,719.74L3093.238,718.513C3108.735,718.781 3110.322,718.641 3111.236,719.943C3111.35,720.104 3111.48,720.431 3111.497,720.707C3111.58,722.042 3110.948,721.71 3109.799,722.391L3109.388,721.554Z"/>
                    </g>
                    <g transform="matrix(2.67567,0,0,2.67567,-7727.515,-1266.430264)">
                        <path d="M3101.717,707.973C3101.692,708.023 3101.665,708.079 3101.634,708.141C3099.462,707.521 3091.5,707.827 3083.432,704.062C3077.879,701.47 3078.077,701.087 3076.825,700.036C3067.709,692.382 3044.724,692.23 3042.197,691.24C3040.812,690.697 3040.776,689.049 3042.36,688.49C3042.78,688.342 3043.294,688.224 3043.613,688.155C3043.769,688.121 3043.936,687.992 3044.082,688.057C3044.894,688.424 3044.745,688.666 3045.556,689.033C3045.488,689.101 3045.424,689.173 3045.362,689.247C3052.635,690.078 3071.296,691.106 3079.419,699.023C3079.792,699.386 3084.384,702.308 3090.155,703.821C3097.14,705.651 3102.027,704.943 3103.273,706.288C3103.319,706.338 3103.599,706.64 3103.656,707.036C3103.84,708.313 3103.15,707.965 3102.022,708.584L3101.717,707.973Z"/>
                    </g>
                    <g transform="matrix(2.67567,0,0,2.67567,-7727.515,-1266.430264)">
                        <path d="M3088.03,680.821C3088.852,681.49 3089.571,682.643 3089.965,684.181C3090.717,687.115 3089.369,688.858 3087.777,688.812C3085.471,688.745 3082.309,687.19 3083.945,683.729C3083.84,683.568 3083.742,683.403 3083.664,683.228C3083.663,683.227 3083.818,682.59 3084.051,682.048C3084.911,680.053 3086.465,679.723 3087.806,680.653C3087.89,680.649 3087.973,680.642 3088.056,680.63C3088.046,680.694 3088.037,680.757 3088.03,680.821ZM3087.042,683.519C3086.589,684.077 3086.114,684.774 3086.017,685.348C3085.905,686.008 3087.036,686.221 3087.606,686.288C3087.822,685.79 3087.571,684.475 3087.042,683.519Z"/>
                    </g>
                    <g transform="matrix(2.67567,0,0,2.67567,-7727.515,-1266.430264)">
                        <path d="M3095.805,685.875C3095.671,685.7 3095.542,685.522 3095.434,685.33C3095.433,685.329 3095.564,684.508 3095.815,683.87C3097.038,680.765 3100.332,682.077 3100.748,685.781C3101.164,689.48 3097.492,691.652 3096.115,687.628C3095.903,687.008 3095.804,686.416 3095.805,685.875Z"/>
                    </g>
                    <g transform="matrix(2.67567,0,0,2.67567,-7727.515,-1266.430264)">
                        <path d="M3041.922,707.104L3042.616,708.725C3042.058,708.914 3041.55,709.233 3040.992,709.421C3040.989,709.422 3040.523,709.232 3040.234,709.089C3037.944,707.951 3038.393,706.423 3039.238,704.074C3039.646,702.94 3039.999,702.456 3040.232,702.19C3041.099,701.203 3041.309,701.868 3042.569,702.229L3042.048,703.809L3042.096,703.856C3041.646,704.512 3041.166,706.116 3041.057,706.683C3041.358,706.884 3041.58,706.955 3041.92,707.1C3041.921,707.1 3041.922,707.101 3041.923,707.101L3041.922,707.104Z"/>
                    </g>
                    <g transform="matrix(2.67567,0,0,2.67567,-7727.515,-1266.430264)">
                        <path d="M3046.951,711.12C3046.128,709.649 3045.31,710.239 3044.772,708.631C3044.232,707.017 3044.179,702.372 3046.679,702.876C3047.144,702.97 3047.515,703.343 3047.516,703.351C3047.543,703.94 3047.488,704.53 3047.516,705.119C3047.371,705.117 3047.233,705.122 3047.101,705.132C3046.905,705.985 3046.934,707.1 3047.155,707.854C3047.574,708.094 3048.42,708.66 3049.048,709.742C3049.067,709.775 3049.19,709.994 3049.188,710.002C3049.04,710.572 3048.777,711.109 3048.629,711.679L3046.963,711.124L3046.956,711.128C3046.954,711.125 3046.953,711.123 3046.951,711.12Z"/>
                    </g>
                    <g transform="matrix(2.67567,0,0,2.67567,-7727.515,-1266.430264)">
                        <path d="M3081.697,717.304C3081.709,716.106 3081.258,715.744 3082.318,715.268C3083.513,714.732 3085.46,715.817 3083.479,719.433C3082.708,720.839 3081.106,722.577 3078.879,722.138C3070.504,720.491 3070.583,720.133 3065.056,717.433C3063.64,716.741 3063.574,716.912 3047.084,711.167C3046.181,710.852 3046.73,710.434 3046.314,709.574L3047.907,708.806C3064.639,714.636 3064.705,714.469 3066.027,715.124C3071.784,717.975 3071.754,718.183 3079.372,719.687C3080.273,719.866 3081.284,718.589 3081.697,717.304ZM3082.631,716.654C3082.622,716.644 3082.612,716.635 3082.602,716.625L3082.631,716.654Z"/>
                    </g>
                    <g transform="matrix(2.67567,0,0,2.67567,-7727.515,-1266.430264)">
                        <path d="M3084.99,726.963C3084.833,726.395 3084.447,725.907 3084.29,725.339C3084.284,725.317 3085.234,723.125 3085.634,721.401C3085.773,720.803 3086.498,717.214 3086.533,717.184C3086.985,716.805 3087.579,716.622 3088.03,716.244C3088.254,716.895 3088.658,717.476 3088.882,718.128C3088.884,718.135 3088.751,718.664 3088.433,720.241C3088.051,722.127 3087.914,722.973 3086.764,725.882C3086.714,726.009 3086.73,726.192 3086.613,726.263C3086.11,726.57 3085.493,726.656 3084.99,726.963Z"/>
                    </g>
                    <g transform="matrix(2.67567,0,0,2.67567,-7727.515,-1266.430264)">
                        <path d="M3089.565,728.39C3089.721,727.822 3088.745,727.32 3088.901,726.752C3089.617,724.142 3090.689,721.606 3092.064,719.276C3092.363,718.768 3093.403,719.119 3093.702,718.612L3089.565,728.39Z"/>
                    </g>
                    <g transform="matrix(2.67567,0,0,2.67567,-7727.515,-1266.430264)">
                        <path d="M3142.07,785.24C3141.545,786.31 3140.341,788.952 3140.147,790.3C3139.002,798.267 3132.883,801.89 3131.191,801.749C3130.223,801.668 3129.655,800.756 3129.989,799.867C3130.003,799.829 3129.999,799.771 3130.036,799.755C3130.678,799.483 3130.832,799.473 3131.263,799.314C3131.261,799.296 3131.259,799.278 3131.258,799.259C3132.762,798.732 3136.816,795.913 3137.672,789.951C3137.739,789.482 3137.929,788.161 3139.699,784.384C3140.191,783.333 3140.299,783.011 3142.062,782.657C3142.36,782.598 3144.972,781.972 3146.155,784.208C3147.006,785.816 3146.851,788.427 3146.598,791.612C3148.649,791.803 3151.673,792.258 3153.269,793.747C3155.222,795.57 3154.48,797.975 3153.989,800.125C3154.629,802.517 3158.831,809.591 3155.462,813.119C3155.149,813.447 3152.02,816.304 3152.064,820.877C3152.071,821.641 3152.224,822.155 3152.255,822.262C3152.237,822.272 3152.113,822.325 3151.96,822.403L3152.551,822.994C3152.112,823.387 3151.739,823.851 3151.3,824.244C3151.294,824.25 3150.361,824.286 3149.933,823.187C3149.203,821.308 3149.185,816.055 3153.333,811.723C3154.079,810.944 3155.143,809.923 3153.025,804.551C3151.803,801.451 3151.267,800.82 3151.584,799.407C3152.161,796.832 3152.733,795.667 3149.975,794.758C3147.947,794.09 3145.185,794.08 3144.782,793.917C3144.34,793.737 3143.965,793.258 3144.006,792.659C3144.168,790.309 3144.776,785.333 3143.546,785.062C3143.193,784.985 3142.523,785.124 3142.07,785.24Z"/>
                    </g>
                    <g transform="matrix(2.67567,0,0,2.67567,-7727.515,-1266.430264)">
                        <path d="M3133.87,797.945L3134.658,799.522C3134.102,799.717 3133.633,800.119 3133.077,800.313C3133.077,800.313 3131.988,799.969 3131.288,799.507C3128.768,797.844 3130.387,795.525 3131.523,792.729C3134.605,785.145 3138.181,788.017 3139.274,788.774L3139.14,789.054L3140.087,789.438C3139.504,790.64 3139.874,791.376 3138.559,791.154C3137.431,790.963 3136.76,789.102 3135.328,790.926C3134.405,792.101 3134.055,793.254 3133.018,795.588C3132.542,796.659 3132.453,797.114 3132.424,797.244C3132.489,797.287 3132.642,797.42 3132.84,797.522C3133.289,797.754 3133.734,797.894 3133.868,797.941C3133.869,797.942 3133.87,797.942 3133.871,797.942L3133.87,797.945ZM3138.525,788.805L3138.507,788.755L3138.449,788.774L3138.525,788.805Z"/>
                    </g>
                    <g transform="matrix(2.67567,0,0,2.67567,-7727.515,-1266.430264)">
                        <path d="M3137.309,814.977C3136.986,815.189 3136.677,815.427 3136.323,815.578C3136.32,815.579 3135.527,815.376 3135.116,815.189C3133.695,814.544 3133.864,812.685 3135.685,812.545C3149.132,811.518 3154.237,822.461 3148.882,842.063C3146.558,850.57 3141.783,860.726 3137.744,864.194C3123.456,876.463 3121.011,872.147 3114.774,871.978C3114.205,871.962 3113.605,871.945 3106.295,865.488C3103.58,863.09 3097.63,857.641 3096.522,855.945C3093.395,851.156 3093.375,851.174 3090.2,846.414C3084.5,837.868 3081.613,832.424 3082.172,815.972C3082.178,815.806 3082.088,815.606 3082.189,815.475C3082.732,814.768 3082.938,814.974 3083.481,814.268C3083.81,814.904 3084.342,815.419 3084.671,816.054C3084.787,816.278 3083.91,825.781 3086.208,833.367C3088.205,839.961 3091.973,844.199 3098.582,854.526C3099.822,856.464 3111.999,867.504 3115.058,869.485C3120.775,869.684 3122.364,872.826 3131.945,865.661C3133.082,864.811 3135.963,862.54 3136.816,861.619C3144.429,853.395 3156.685,818.901 3140.564,815.301C3139.371,815.035 3138.193,814.973 3137.309,814.977Z"/>
                    </g>
                    <g transform="matrix(-0.9694,-0.245487,-0.245487,0.9694,304.373033,1502.955702)">
                        <path d="M-20.232,-11.863C-16.325,5.763 -10.374,-16.367 2.164,-11.863" style="fill:none;fill-rule:nonzero;stroke:black;stroke-width:6.69px;"/>
                    </g>
                    <g transform="matrix(1,0,0,1,670.6525,1108.8505)">
                        <path d="M0,411.275C-1.628,396.867 4.28,362.126 0.583,344.729C-2.043,332.366 -4.771,324.661 3.511,313.386C26.095,282.643 39.483,249.573 57,215.775C67.819,194.902 80.223,175.26 88,153.025C94.998,133.017 105.825,119.051 101,99.812C95.33,77.205 84.601,61.163 65.5,49.525C22.436,23.288 -23.796,12.228 -73,3.525C-80.626,2.176 -112.499,0.997 -120.18,0" style="fill:none;fill-rule:nonzero;stroke:black;stroke-width:6.69px;"/>
                    </g>
                    <g transform="matrix(-0.943677,-0.330869,-0.330869,0.943677,482.986836,1473.692546)">
                        <path d="M-13.33,-193.724C-13.33,-193.724 -5.792,-160.201 -14.259,-104.151C-16.161,-91.555 -14.34,-85.823 -13.33,-73.265C-12.156,-58.665 -15.724,-46.939 -21.542,-33.638C-26.911,-21.362 -31.167,-9.557 -41.719,-0.796" style="fill:none;fill-rule:nonzero;stroke:black;stroke-width:6.69px;"/>
                    </g>
                    <g transform="matrix(1,0,0,1,324.7296,1496.4224)">
                        <path d="M0,-186.241C5.758,-162.832 6.609,-149.215 7.006,-129.343C8.201,-69.603 2.169,0 2.169,0" style="fill:none;fill-rule:nonzero;stroke:black;stroke-width:6.69px;"/>
                    </g>
                    <g transform="matrix(-0.14579,0.989316,0.989316,0.14579,329.424132,988.828226)">
                        <path d="M183.479,-195.6C203.712,-170.557 192.584,-128.117 188.663,-99.076C186.258,-81.272 183.55,-34.902 183.479,-16.952C183.327,21.333 182.362,66.988 165.697,102.167C156.986,120.554 149.879,137.969 136.769,153.689" style="fill:none;fill-rule:nonzero;stroke:black;stroke-width:6.69px;"/>
                    </g>
                    <g transform="matrix(1,0,0,1,214.2128,1263.7985)">
                        <path d="M0,230.84C-3.992,238.677 -15.143,246.595 -22.98,241.469C-31.746,235.736 -37.037,216.371 -37.037,216.371C-37.037,216.371 -53.69,147.827 -57.191,132.482C-65.395,96.515 -73.249,58.514 -78.638,-13.927" style="fill:none;fill-rule:nonzero;stroke:black;stroke-width:6.69px;"/>
                    </g>
                    <g transform="matrix(1,0,0,1,667.5692,1217.7488)">
                        <path d="M0,25.46C-24.57,46.288 -60.821,63.037 -107.906,77.541C-155.915,92.329 -226.527,101.378 -264,96.739C-283.635,94.308 -291.789,88.438 -311.433,90.793C-330.614,93.093 -397.092,94.587 -441.961,85.127C-470.226,79.167 -498.432,63.891 -520.842,46.006C-540.874,30.018 -554.354,7.889 -560.235,-16.984C-563.042,-28.851 -564.917,-41.943 -564.245,-54.167C-563.465,-68.37 -558.404,-61.638 -558.404,-75.918" style="fill:none;fill-rule:nonzero;stroke:black;stroke-width:6.69px;"/>
                    </g>
                    <g transform="matrix(0.736885,-0.676018,-0.676018,-0.736885,553.514048,1038.297465)">
                        <path d="M-2.027,5.209L13.383,5.209" style="fill:none;fill-rule:nonzero;stroke:black;stroke-width:6.69px;"/>
                    </g>
                </g>
            </g>
        </g>
    </g>
</svg>
