<?xml version="1.0" encoding="UTF-8" standalone="no"?>
<!DOCTYPE svg PUBLIC "-//W3C//DTD SVG 1.1//EN" "http://www.w3.org/Graphics/SVG/1.1/DTD/svg11.dtd">
<svg width="100%" height="100%" viewBox="0 0 288 395" version="1.1" xmlns="http://www.w3.org/2000/svg" xmlns:xlink="http://www.w3.org/1999/xlink" xml:space="preserve" xmlns:serif="http://www.serif.com/" style="fill-rule:evenodd;clip-rule:evenodd;stroke-linecap:round;stroke-linejoin:round;stroke-miterlimit:10;">
    <g transform="matrix(1,0,0,1,-2895.286127,-658.386338)">
        <g transform="matrix(0.044849,0,0,0.044849,2925.817402,494.590033)">
            <g id="Frame-7" serif:id="Frame 7" transform="matrix(8.333333,0,0,8.333333,-598.880926,-484.285639)">
                <g transform="matrix(2.481818,0,0,2.481818,-7184.432069,-1061.329462)">
                    <g transform="matrix(1.078109,0,0,1.078109,-230.566562,-82.163966)">
                        <path d="M3013.294,1041.092C3013.189,1042.064 3012.936,1043.053 3012.495,1044.062C3011.341,1046.703 3007.789,1050.05 3002.29,1048.974C2994.709,1047.492 2994.643,1047.789 2988.464,1048.556C2985.404,1048.936 2984.011,1049.078 2982.624,1048.755C2978.406,1047.771 2977.155,1044.264 2976.951,1043.691C2976.845,1043.395 2976.271,1041.784 2976.587,1039.784C2976.789,1038.511 2979.056,1031.866 2981.628,1028.03C2983.163,1025.742 2984.557,1024.725 2985.438,1024.164C2985.851,1023.9 2988.223,1022.389 2991.484,1023.149C2992.003,1023.27 2992.515,1023.444 2993.004,1023.667C2992.818,1018.713 2993.239,1011.95 2995.474,1003.835C2995.885,1002.34 2996.125,1001.836 2996.204,1001.671C2996.463,1001.127 2998.044,997.808 3002.283,997.222C3006.521,996.636 3008.944,999.402 3009.341,999.855C3011.081,1001.841 3011.261,1004.198 3011.293,1004.608C3011.658,1009.366 3011.694,1016.454 3013.132,1024.649C3013.233,1025.224 3013.392,1026.078 3013.576,1027.046C3014.099,1027.676 3014.592,1028.47 3014.936,1029.457C3015.281,1030.444 3015.349,1031.516 3015.381,1032.561C3015.421,1033.852 3015.258,1035.143 3015.154,1036.431C3015.117,1036.888 3014.935,1039.13 3013.294,1041.092Z" style="fill:white;"/>
                    </g>
                    <g transform="matrix(1.078109,0,0,1.078109,-230.566562,-82.163966)">
                        <path d="M3142.14,1044.469C3141.092,1047.074 3138.963,1050.27 3134.467,1051.273C3132.358,1051.743 3125.692,1051.544 3114.965,1051.941C3104.949,1052.311 3098.437,1052.994 3098.128,1053.004C3097.681,1053.02 3097.232,1053.046 3096.786,1053.011C3093.223,1052.726 3091.388,1050.286 3091.075,1049.869C3088.927,1047.012 3089.538,1044.021 3089.642,1043.51C3089.746,1042.999 3090.357,1040.008 3093.454,1038.222C3093.841,1037.999 3094.249,1037.808 3094.669,1037.653C3095.368,1037.395 3099.082,1036.6 3102.759,1036.245L3105.137,1036.021C3105.347,1036.01 3106.652,1035.942 3107.758,1036.211C3107.855,1036.235 3108.031,1036.278 3108.265,1036.351C3111.749,1036.158 3114.838,1036.046 3117.778,1035.967C3117.743,1035.272 3117.798,1034.53 3117.977,1033.751C3118.962,1029.468 3123.029,1027.827 3123.571,1027.555C3125.921,1026.378 3127.33,1025.5 3128.226,1023.383C3129.718,1019.326 3128.926,1016.806 3123.246,1010.902C3121.359,1008.94 3119.272,1006.877 3117.969,1004.607C3116.253,1001.616 3117.039,998.866 3117.177,998.383C3117.456,997.407 3117.925,996.463 3118.555,995.667C3120.624,993.049 3123.442,992.735 3123.931,992.68C3127.136,992.322 3129.306,994.027 3129.682,994.323C3130.644,995.08 3131.391,996.168 3131.65,996.57C3131.388,996.23 3131.32,996.843 3130.832,997.189L3131.7,996.648C3131.748,996.723 3131.762,996.749 3131.738,996.706C3131.726,996.685 3131.714,996.665 3131.703,996.646C3134.496,1000.399 3148.444,1010.52 3143.852,1026.686C3143.35,1028.453 3142.709,1030.018 3141.975,1031.408C3145.755,1034.069 3145.505,1037.882 3145.464,1038.515C3145.233,1042.039 3142.867,1043.907 3142.461,1044.227C3142.355,1044.312 3142.247,1044.392 3142.14,1044.469ZM3131.703,996.646L3131.7,996.648C3131.686,996.626 3131.67,996.6 3131.65,996.57C3131.667,996.591 3131.684,996.617 3131.703,996.646Z" style="fill:white;"/>
                    </g>
                    <g transform="matrix(1.078109,0,0,1.078109,-230.566562,-82.163966)">
                        <path d="M3142.768,1051.432C3139.944,1051.626 3139.159,1051.749 3137.31,1051.09C3136.23,1050.704 3136.243,1049.201 3137.214,1048.773C3136.468,1048.45 3136.302,1047.472 3136.736,1046.87C3136.735,1046.869 3136.734,1046.869 3136.734,1046.868C3136.736,1046.867 3136.738,1046.866 3136.74,1046.864C3136.832,1046.737 3136.952,1046.627 3137.099,1046.543C3137.39,1046.23 3137.633,1045.86 3137.983,1045.618C3138.009,1045.6 3138.294,1045.645 3140.663,1045.581C3140.746,1045.338 3140.902,1045.123 3141.108,1044.969C3140.96,1044.498 3141.106,1043.956 3141.487,1043.632C3141.931,1043.256 3142.154,1043.252 3144.027,1043.526C3143.627,1043.084 3143.286,1042.586 3143.24,1042.195C3143.146,1041.396 3143.931,1040.274 3145.384,1041.007C3146.558,1041.6 3148.666,1043.011 3151.169,1044.067C3151.193,1044.077 3151.836,1044.258 3152.06,1044.876C3152.273,1045.462 3152.005,1046.123 3151.462,1046.409C3151.846,1046.72 3151.971,1047.2 3151.878,1047.635C3152.237,1047.755 3152.751,1048.02 3152.895,1048.594C3152.921,1048.698 3152.933,1048.802 3152.932,1048.903C3153.738,1049.49 3153.543,1050.887 3152.466,1051.131C3152.466,1051.131 3152.368,1051.138 3152.189,1051.149L3152.19,1051.162C3152.123,1051.162 3152.057,1051.162 3151.991,1051.161C3150.497,1051.253 3145.808,1051.518 3142.768,1051.432Z" style="fill:white;"/>
                    </g>
                    <g transform="matrix(1.078109,0,0,1.078109,-230.566562,-82.163966)">
                        <path d="M2994.66,964.171C2985.899,946.443 2985.303,937.297 2987.446,927.955C2987.743,926.659 2988.11,925.202 2988.25,924.138C2988.272,923.978 2988.405,922.967 2988.777,922.195C2990.05,919.553 2992.548,919.227 2992.957,919.174C2995.864,918.795 2997.503,920.709 2997.771,921.022C2998.087,921.39 2998.325,921.783 2998.506,922.165C2999.298,922.506 2999.807,922.947 2999.957,923.077C3001.043,924.019 3001.446,925.166 3001.519,925.376C3001.664,925.789 3002.484,929.585 3002.525,933.929C3002.556,937.205 3002.234,941.527 3001.922,950.798C3002.495,953.328 3003.43,956.233 3004.896,960.265C3007.272,966.796 3010.256,974.301 3009.25,978.33C3009.013,979.278 3008.615,979.983 3008.295,980.439C3009.629,991.475 3010.718,1003.295 3011.358,1006.709L3011.324,1006.718C3011.417,1007.353 3011.584,1007.987 3011.534,1008.624C3011.508,1008.95 3011.359,1010.829 3009.709,1012.275C3009.457,1012.496 3008.006,1013.766 3005.736,1013.599C3005.411,1013.575 3003.535,1013.437 3002.086,1011.774C3001.931,1011.596 3001.146,1010.696 3000.798,1009.128C2999.689,1004.132 2996.918,970.58 2994.66,964.171Z" style="fill:white;"/>
                    </g>
                    <g transform="matrix(1.078109,0,0,1.078109,-230.566562,-82.163966)">
                        <path d="M2997.407,930.651C2997.209,932.64 2997.25,935.703 2997.115,936.152C2996.911,936.834 2996.833,937.568 2996.5,938.198C2996.348,938.487 2995.47,940.149 2993.365,940.811C2991.192,941.493 2989.478,940.587 2989.181,940.43C2988.74,940.197 2986.046,938.772 2986.353,934.864C2986.79,929.282 2985.221,921.846 2997.618,915.5C2999.189,914.695 3002.267,913.192 3008.213,911.184C3008.322,911.147 3009.143,910.87 3009.605,910.798C3010.49,910.659 3011.262,910.736 3011.917,910.92C3012.49,910.7 3013.04,910.495 3013.563,910.308C3026.285,905.74 3033.369,906.74 3036.445,907.322C3038.629,907.735 3039.71,909.343 3039.895,909.618C3040.282,910.192 3040.568,910.852 3040.707,911.531C3040.775,911.861 3041.165,913.763 3039.901,915.659C3039.625,916.073 3037.937,918.605 3034.115,917.906C3026.266,916.469 3014.55,921.066 3006.705,925.127C3002.937,927.547 2999.029,929.966 2998.252,930.328C2997.968,930.461 2997.686,930.568 2997.407,930.651Z" style="fill:white;"/>
                    </g>
                    <g transform="matrix(1.078109,0,0,1.078109,-230.566562,-82.163966)">
                        <path d="M3081.122,933.603C3079.959,933.389 3078.746,933.182 3077.482,932.983C3069.464,931.723 3067.367,931.897 3065.185,929.422C3064.01,928.091 3063.937,926.2 3063.925,925.901C3063.842,923.749 3065.282,922.309 3065.516,922.075C3066.006,921.585 3066.599,921.178 3067.239,920.911C3069.333,920.038 3071.076,920.781 3071.381,920.911C3071.59,921 3071.774,921.088 3071.936,921.172C3078.272,922.405 3098.755,923.787 3112.039,934.347C3115.034,935.687 3117.689,937.334 3119.59,938.588C3119.737,938.685 3120.674,939.303 3121.238,940.051C3121.492,940.388 3123.056,942.461 3121.963,945.274C3121.834,945.607 3121.079,947.551 3118.786,948.396C3117.321,948.936 3113.762,948.981 3111.8,951.276C3111.127,952.576 3110.395,953.996 3109.647,955.484C3108.495,958.465 3107.214,962.574 3105.08,967.786C3105.028,967.915 3104.607,968.943 3104.347,969.355C3104.005,969.897 3103.619,970.324 3103.218,970.659C3101.747,975.82 3101.061,980.145 3098.953,1004.611C3097.618,1020.106 3097.472,1025.21 3097.797,1027.449C3098.197,1028.016 3098.674,1028.546 3098.936,1029.188C3099.059,1029.49 3099.77,1031.231 3098.924,1033.269C3098.051,1035.374 3096.252,1036.108 3095.941,1036.235C3095.371,1036.467 3091.844,1037.906 3088.753,1033.509C3086.251,1029.95 3086.318,1025.317 3088.159,1003.687C3090.483,976.386 3091.335,972.974 3092.736,967.91C3093.477,965.236 3094.491,962.498 3095.757,959.562C3096.361,957.474 3097.206,955.027 3098.377,952.373C3100.045,948.592 3101.949,945.355 3103.413,943.128C3103.026,942.947 3102.632,942.765 3102.234,942.584C3100.531,942.275 3098.625,942.037 3096.005,941.535C3090.996,940.576 3086.778,938.901 3084.79,938.075C3084.625,938.007 3083.566,937.567 3082.87,936.938C3081.657,935.841 3081.238,934.588 3081.122,933.603ZM3074.627,925.699C3074.668,925.764 3074.712,925.831 3074.758,925.9L3074.75,925.695L3074.627,925.699Z" style="fill:white;"/>
                    </g>
                    <g transform="matrix(1.078109,0,0,1.078109,-230.566562,-82.163966)">
                        <path d="M2954.187,1008.47C2953.145,1003.551 2952.709,1003.667 2950.948,999.474C2947.707,991.756 2948.019,986.689 2944.076,973.287C2939.135,956.498 2934.312,951.739 2930.434,924.893C2923.278,875.344 2899.759,832.523 2898.187,813.227C2897.923,809.994 2898.085,806.211 2899.829,802.512C2900.166,801.797 2902.124,797.646 2907.211,795.95C2912.137,794.308 2916.065,796.272 2916.749,796.614C2918.979,797.729 2918.993,797.763 2920.619,799.652C2922.751,802.128 2922.916,803.446 2922.964,803.826C2923.433,807.575 2922.418,808.377 2922.242,810.842C2922.519,810.851 2922.8,810.86 2923.085,810.869C2923.64,820.817 2941.406,858.592 2950.554,897.303C2955.774,919.393 2954.93,924.7 2958.334,937.627C2962.149,952.114 2966.92,956.958 2972.52,984.659C2973.881,991.391 2975.276,991.213 2977.367,998.145C2978.118,1000.634 2978.567,1002.906 2978.698,1003.545C2978.852,1004.298 2979.735,1008.623 2976.838,1012.969C2975.951,1014.299 2974.794,1015.489 2973.467,1016.381C2969.105,1019.314 2964.717,1018.436 2963.956,1018.284C2958.967,1017.285 2956.54,1013.684 2956.119,1013.059C2956.114,1013.051 2954.431,1009.064 2954.208,1008.536L2954.202,1008.538C2954.199,1008.527 2954.197,1008.516 2954.195,1008.504C2954.191,1008.492 2954.188,1008.481 2954.187,1008.47ZM2922.324,813.261C2922.329,813.302 2922.334,813.343 2922.339,813.384L2922.385,813.29L2922.324,813.261Z" style="fill:white;"/>
                    </g>
                    <g transform="matrix(1.078109,0,0,1.078109,-230.566562,-82.163966)">
                        <path d="M2922.719,815.224C2921.79,816.047 2920.627,816.829 2919.184,817.423C2918.487,817.71 2914.475,819.364 2909.765,817.423C2909.322,817.241 2906.778,816.192 2904.912,813.905C2902.935,811.482 2901.731,808.86 2901.684,805.019C2901.63,800.706 2904.125,796.98 2904.53,796.375C2910.161,787.965 2928.758,775.721 2936.638,765.419C2938.526,762.949 2956.379,743.619 2961.278,739.998C2961.704,739.683 2967.92,735.332 2975.229,732.211C2985.131,727.982 2990.324,728.203 2992.857,725.939C2995.801,723.307 2996.503,719.754 3002.195,716.076C3011.522,710.048 3026.154,709.847 3043.956,712.738C3054.927,714.52 3074.019,719.112 3081.044,723.571C3084.4,724.976 3090.423,727.587 3092.357,733.96C3094.325,740.448 3091.165,748.444 3082.262,750.71C3066.572,754.704 3056.72,753.838 3046.602,757.942C3041.863,759.865 3038.319,761.985 3027.395,769.415C3025.219,770.894 3023.396,772.16 3021.867,773.245C3019.418,775.298 3016.78,777.502 3013.934,779.87C3013.303,780.395 3012.691,780.947 3012.039,781.446C3011.465,781.885 3010.886,782.323 3010.259,782.682C3007.678,784.161 3005.195,784.435 3003.282,784.313C3003.214,784.608 3003.144,784.909 3003.073,785.214C2998.208,806.089 2991.557,831.728 2985.812,847.883C2982.012,858.569 2978.594,866.063 2974.049,870.428C2973.941,874.642 2974.057,878.741 2974.438,882.664C2974.79,886.299 2975.058,886.489 2975.063,890.044C2975.064,890.459 2975.064,890.825 2975.063,891.152C2975.349,891.704 2975.607,892.304 2975.829,892.955C2977.472,897.776 2975.571,901.678 2975.241,902.355C2975.001,902.85 2973.946,905.015 2971.583,906.839C2964.072,913.623 2952.724,909.683 2950.545,900.157C2949.811,896.951 2950.14,892.717 2950.048,889.259C2949.65,886.311 2948.841,880.115 2949.049,870.531C2946.193,868.867 2942.944,866.6 2939.292,863.519C2937.332,861.865 2927.068,853.131 2922.854,843.693C2920.518,838.463 2920.792,835.159 2921.037,830.685C2921.343,825.071 2921.895,819.931 2922.719,815.224ZM2923.352,797.196L2923.425,797.125L2923.313,797.011C2923.326,797.073 2923.339,797.134 2923.352,797.196ZM2951.168,840.473C2951.487,840.794 2951.812,841.116 2952.143,841.435C2952.232,840.937 2952.324,840.435 2952.419,839.929C2951.997,840.144 2951.576,840.323 2951.168,840.473Z" style="fill:white;"/>
                    </g>
                    <g transform="matrix(1.078109,0,0,1.078109,-230.566562,-82.163966)">
                        <path d="M2920.376,819.232C2921.014,821.999 2924.041,831.608 2933.31,841.021C2935.183,842.923 2935.253,842.916 2936.265,845.39C2936.55,846.088 2938.193,850.105 2936.24,854.809C2934.224,859.665 2930.076,861.361 2929.357,861.655C2924.642,863.582 2920.634,861.918 2919.938,861.629C2917.06,860.434 2917.133,860.258 2914.963,858.016C2901.094,843.693 2895.671,827.292 2895.321,820.183C2894.975,813.132 2897.488,809.948 2899.596,803.777C2900.42,802.35 2900.987,800.739 2902.07,799.497C2902.565,798.929 2905.42,795.657 2910.495,795.284C2911.268,795.228 2915.732,794.9 2919.696,798.352C2923.538,801.696 2923.854,806.025 2923.909,806.776C2924.127,809.77 2923.981,809.789 2922.991,812.626C2921.891,815.779 2921.104,817.385 2920.376,819.232Z" style="fill:white;"/>
                    </g>
                    <g transform="matrix(1.078109,0,0,1.078109,-230.566562,-82.163966)">
                        <path d="M2976.217,953.941C2974.897,954.724 2973.497,955.251 2971.973,955.625C2969.356,956.267 2966.884,955.698 2966.453,955.599C2961.704,954.506 2959.367,951.143 2958.954,950.549C2958.074,949.283 2956.663,947.162 2951.271,933.941C2945.914,920.805 2937.917,898.944 2934.812,883.691C2932.977,874.677 2932.194,866.379 2935.264,859.915C2935.603,859.2 2937.583,855.031 2942.651,853.342C2944.168,852.836 2945.812,852.607 2947.407,852.717C2952.648,853.08 2955.558,856.459 2956.063,857.045C2958.196,859.522 2958.36,860.84 2958.408,861.22C2958.944,865.506 2957.539,865.939 2957.666,869.412C2957.848,869.445 2958.039,869.481 2958.241,869.518C2957.719,875.124 2961.868,890.661 2968.294,908.518C2969.232,903.905 2970.181,899.293 2971.219,894.701C2971.372,894.027 2971.771,893.431 2972.123,892.836C2972.533,892.143 2974.925,888.099 2980.312,886.967C2981.101,886.802 2985.699,885.836 2990.171,889.046C2990.609,889.361 2992.461,890.69 2993.835,893.172C2996.14,893.389 2997.771,894.187 2998.202,894.397C2998.665,894.624 3001.203,895.866 3003.071,898.636C3003.887,899.846 3004.069,900.373 3004.125,900.538C3004.171,900.671 3004.213,900.795 3004.25,900.913C3007.831,906.843 3009.98,914.804 3003.261,932.292C3004.151,940.823 3006.27,954.938 3009.509,971.4C3011.783,982.952 3013.678,989.973 3008.853,997.201C3004.546,1003.655 2993.881,1007.538 2990.122,1010.727C2988.87,1011.789 2987.852,1013.151 2987.011,1014.571C2987.55,1015.981 2987.934,1017.75 2987.791,1019.815C2987.711,1020.976 2987.223,1028.028 2978.791,1031.251C2967.987,1035.382 2956.592,1026.464 2960.439,1013.135C2961.194,1010.518 2964.798,1000.617 2971.597,993.84C2977.087,988.368 2981.553,986.731 2986.422,983.755C2985.531,978.766 2983.488,969.145 2981.398,956.401C2978.97,955.874 2977.352,954.763 2976.942,954.481C2976.839,954.411 2976.574,954.229 2976.217,953.941ZM2957.766,870.665C2957.77,870.702 2957.775,870.739 2957.78,870.776L2957.821,870.692L2957.766,870.665ZM2964.859,1012.977L2964.511,1012.777L2964.142,1013.416C2964.388,1013.28 2964.626,1013.133 2964.859,1012.977Z" style="fill:white;"/>
                    </g>
                    <g transform="matrix(1.078109,0,0,1.078109,-230.566562,-82.163966)">
                        <path d="M2997.585,1018.691C2997.437,1014.929 2997.398,1012.13 2996.78,1010.47C2994.968,1005.603 2985.867,991.514 2987.031,978.894C2987.281,976.185 2987.242,976.137 2988.529,973.742C2990.939,969.254 2995.089,967.987 2995.81,967.767C2996.553,967.54 3000.838,966.232 3005.47,968.719C3009.958,971.129 3011.225,975.28 3011.445,976.001C3011.566,976.398 3012.158,978.337 3011.931,981.167C3012,982.884 3012.746,985.217 3013.738,987.651C3018.384,989.378 3020.239,993.19 3020.577,993.885C3020.894,994.536 3021.155,995.217 3021.354,995.914C3021.545,996.58 3021.619,996.954 3021.768,998.164L3021.78,998.162C3021.799,998.354 3021.817,998.541 3021.835,998.724C3022.023,1000.32 3022.33,1003.092 3023.003,1008.495C3023.682,1013.951 3023.617,1016.41 3022.809,1021.391C3022.686,1022.15 3021.979,1026.507 3017.727,1029.544C3016.426,1030.473 3014.923,1031.176 3013.365,1031.54C3008.246,1032.735 3004.449,1030.356 3003.79,1029.944C3002.436,1029.095 3000.965,1028.101 3000.311,1026.641C3000.239,1026.48 3000.173,1026.317 3000.11,1026.153C2999.139,1024.86 2998.676,1023.734 2998.532,1023.382C2998.394,1023.048 2997.759,1021.503 2997.607,1019.118L2997.602,1019.118C2997.598,1019.001 2997.593,1018.884 2997.588,1018.768C2997.587,1018.742 2997.586,1018.716 2997.585,1018.691Z" style="fill:white;"/>
                    </g>
                    <g transform="matrix(1.078109,0,0,1.078109,-230.566562,-82.163966)">
                        <path d="M3009.274,1023.467C3011.599,1024.281 3013.059,1025.551 3013.425,1025.87C3013.993,1026.365 3017.267,1029.214 3017.637,1034.295C3017.67,1034.74 3017.869,1037.467 3016.816,1039.823C3015.952,1041.758 3015.933,1041.755 3014.658,1043.448C3014.64,1043.472 3013.561,1044.594 3013.539,1044.612C3013.517,1044.63 3007.584,1050.58 2998.933,1046.617C2994.76,1044.705 2988.377,1038.609 2986.83,1035.092C2986.223,1033.71 2985.514,1031.902 2985.58,1028.974C2985.626,1026.939 2986.378,1025.106 2986.508,1024.788C2987.933,1021.315 2990.569,1019.515 2991.045,1019.19C2994.169,1017.056 2997.139,1017.02 2997.699,1017.013C2999.761,1016.988 3001.64,1017.295 3003.966,1018.408C3006.729,1019.731 3008.348,1021.83 3009.25,1023.444C3009.258,1023.452 3009.266,1023.46 3009.274,1023.467ZM2992.998,1040.744C2992.929,1040.752 2992.858,1040.76 2992.787,1040.77L2992.949,1040.848C2992.966,1040.813 2992.982,1040.778 2992.998,1040.744Z" style="fill:white;"/>
                    </g>
                    <g transform="matrix(1.078109,0,0,1.078109,-230.566562,-82.163966)">
                        <path d="M2999.761,1018.133L2999.731,1018.123C3000.276,1016.227 2998.458,1013.487 2997.873,1012.17C2994.916,1005.519 2998.386,1000.536 2998.958,999.716C3001.633,995.875 3005.494,994.905 3006.174,994.734C3011.902,993.294 3016.092,996.379 3016.79,996.892C3017.415,997.352 3020.706,999.774 3021.826,1004.228C3023.896,1008.782 3026.462,1016.684 3023.494,1025.889C3023.257,1026.624 3021.897,1030.842 3017.188,1033.197C3015.758,1033.912 3014.163,1034.372 3012.568,1034.488C3007.325,1034.87 3003.945,1031.928 3003.359,1031.418C3002.153,1030.368 3000.856,1029.157 3000.438,1027.614C2999.61,1024.556 3000.568,1021.195 2999.761,1018.133Z" style="fill:white;"/>
                    </g>
                    <g transform="matrix(1.078109,0,0,1.078109,-230.566562,-82.163966)">
                        <path d="M3125.79,919.31C3125.797,919.304 3125.804,919.298 3125.811,919.291C3128.272,917.149 3131.011,916.529 3131.509,916.417C3135.26,915.568 3137.582,916.396 3138.431,916.6C3138.79,916.686 3140.656,917.417 3141.963,918.339C3143.465,919.399 3144.422,920.622 3144.602,920.852C3144.997,921.357 3147.21,924.185 3147.264,928.424C3147.267,928.679 3147.284,930.02 3146.899,931.582C3146.836,931.837 3146.54,933.041 3145.704,934.637C3144.239,937.435 3141.531,939.18 3141.082,939.47C3136.259,942.578 3119.855,949.023 3107.901,953.586C3083.026,963.08 3026.515,970.801 3004.751,965.885C2997.196,964.179 2993.19,961.081 2990.682,957.032C2988.004,952.709 2989.103,948.314 2989.288,947.572C2989.676,946.021 2990.365,944.511 2991.315,943.224C2994.433,938.999 2998.836,938.363 2999.601,938.252C3002.83,937.786 3004.033,938.354 3004.379,938.517C3006.995,939.754 3007.687,940.796 3008.761,941.878C3008.868,941.635 3008.972,941.399 3009.073,941.171C3016.823,943.827 3047.839,942.277 3077.052,936.204C3092.764,932.937 3099.144,930.178 3103.013,928.686C3116.621,923.438 3123.011,920.622 3125.79,919.31ZM3011.972,944.099C3012.02,944.122 3012.069,944.145 3012.119,944.169L3012.047,944.052L3011.972,944.099ZM3137.952,940.547C3137.953,940.55 3137.954,940.553 3137.955,940.556C3137.96,940.57 3138.015,940.54 3138,940.541C3137.984,940.543 3137.968,940.545 3137.952,940.547Z" style="fill:white;"/>
                    </g>
                    <g transform="matrix(1.078109,0,0,1.078109,-230.566562,-82.163966)">
                        <path d="M3079.588,1033.812C3078.183,1029.819 3077.205,1023.606 3080.777,1016.363C3084.191,1009.44 3084.085,1009.009 3085.081,1006.091C3085.754,1004.12 3086.734,1002.813 3086.925,1002.558C3087.229,1002.154 3087.623,1001.694 3087.685,1001.621C3087.898,1001.373 3087.93,1001.38 3088.123,1001.161C3088.083,1001.12 3088.095,1001.122 3088.136,1001.141C3088.137,1001.141 3088.138,1001.142 3088.139,1001.142C3088.143,1001.137 3088.147,1001.133 3088.151,1001.128L3088.148,1001.126C3089.442,999.357 3090.872,996.393 3092.825,992.809C3092.154,989.53 3091.994,987.192 3094.455,978.891C3095.851,974.181 3098.618,966.181 3101.469,958.172C3101.446,958.113 3101.423,958.054 3101.399,957.995L3101.387,957.993C3101.388,957.987 3101.389,957.981 3101.39,957.975C3103.556,946.86 3103.555,944.388 3110.24,934.315C3111.109,933.005 3111.042,932.953 3112.12,931.812C3116.03,927.673 3120.891,927.872 3121.72,927.906C3122.061,927.92 3122.394,927.947 3122.716,927.986C3123.43,927.785 3124.203,927.637 3125.036,927.565C3125.839,927.495 3130.516,927.088 3134.569,930.806C3135.049,931.246 3137.741,933.715 3138.449,937.961C3138.563,938.641 3138.594,939.334 3138.62,940.024C3138.62,940.045 3138.621,940.287 3138.621,940.707C3139.226,940.924 3139.779,941.175 3140.278,941.44C3140.966,940.182 3141.692,938.862 3142.459,937.473C3142.96,936.565 3143.966,934.75 3143.969,934.745C3144.344,934.141 3144.713,933.529 3145.158,932.975C3145.677,932.33 3148.719,928.543 3154.401,928.315C3160.082,928.087 3163.418,931.618 3163.987,932.22C3164.556,932.821 3167.892,936.352 3167.344,942.011C3167.275,942.719 3167.145,943.423 3166.958,944.108C3166.77,944.793 3166.495,945.453 3166.221,946.108C3165.795,947.127 3165.733,947.098 3160.403,958.626C3148.149,985.133 3142.154,998.137 3138.29,1002.602C3137.375,1003.659 3136.38,1004.514 3135.351,1005.199C3134.927,1005.991 3134.61,1006.573 3134.492,1006.77C3134.133,1007.369 3133.779,1007.976 3133.35,1008.528C3131.577,1010.814 3129.446,1012.005 3127.691,1012.631C3127.173,1016.438 3126.782,1020.38 3126.556,1024.435C3126.171,1031.331 3125.38,1041.981 3112.586,1047.025C3108.672,1048.568 3108.324,1048.297 3103.409,1050.553C3102.211,1051.103 3092.149,1056.109 3084.16,1049.872C3079.767,1046.441 3078.857,1041.657 3078.764,1039.639C3078.658,1037.341 3079.013,1035.411 3079.588,1033.812ZM3088.272,1001.229C3088.279,1001.234 3088.286,1001.237 3088.294,1001.241L3088.241,1001.199L3088.272,1001.229ZM3092.729,1038.839L3092.538,1038.951C3092.544,1038.948 3092.621,1038.93 3092.73,1038.84L3092.729,1038.839Z" style="fill:white;"/>
                    </g>
                    <g transform="matrix(1.078109,0,0,1.078109,-230.566562,-82.163966)">
                        <path d="M3061.739,855.245C3061.089,852.924 3061.279,851.045 3061.325,850.59C3061.604,847.837 3064.225,840.469 3064.532,839.607C3068.659,828.008 3072.72,821.347 3077.605,806.798C3079.244,801.917 3083.199,799.94 3083.882,799.598C3085.312,798.883 3086.907,798.424 3088.501,798.307C3089.275,798.25 3093.74,797.923 3097.705,801.375C3098.274,801.87 3101.547,804.72 3101.917,809.8C3102.133,812.753 3101.979,812.769 3101.031,815.571C3099.783,819.26 3098.558,822.531 3097.392,825.467C3098.274,826.552 3099.175,828.019 3099.716,829.895C3100.918,834.054 3099.552,837.484 3099.309,838.094C3097.462,842.733 3096.031,842.913 3091.385,849.78C3091.098,850.204 3089.335,852.809 3088.081,855.266C3087.787,855.841 3087.544,856.351 3087.342,856.802C3089.592,859.929 3092.469,863.352 3093.416,866.567C3093.825,867.956 3094.136,868.79 3094.074,874.929C3094.039,878.363 3093.807,881.607 3093.5,884.548C3094.469,884.424 3095.727,884.371 3097.149,884.571C3102.25,885.289 3157.17,896.038 3167.5,900.461C3167.748,900.567 3170.113,901.418 3173.525,904.334C3184.857,914.019 3185.394,928.745 3178.679,941.067C3149.298,994.984 3150.2,995.614 3145.908,1000.243C3143.683,1002.644 3141.517,1003.545 3141.077,1003.729C3140.381,1004.018 3136.375,1005.687 3131.658,1003.764C3126.79,1001.78 3125.067,997.643 3124.768,996.926C3124.479,996.231 3122.81,992.224 3124.733,987.507C3124.834,987.258 3127.224,983.703 3127.445,983.375C3127.484,983.316 3127.545,983.275 3127.597,983.227C3129.957,979.483 3133.118,972.416 3156.718,929.122C3156.893,928.8 3158.056,926.666 3158.047,924.73C3158.045,924.113 3157.806,923.752 3157.248,923.305C3148.189,920.218 3113.325,912.995 3098.786,910.247C3096.66,911.603 3094.001,912.639 3089.375,913.827C3084.546,915.067 3077.326,916.068 3071.44,910.502C3067.66,906.928 3067.004,902.075 3066.893,901.258C3066.263,896.598 3067.293,892.151 3068.165,885.842C3068.894,880.561 3069.069,876.887 3069.081,874.17C3065.759,869.653 3061.252,863.968 3061.455,857.978C3061.485,857.084 3061.583,856.171 3061.739,855.245Z" style="fill:white;"/>
                    </g>
                    <g transform="matrix(1.078109,0,0,1.078109,-230.566562,-82.163966)">
                        <path d="M2957.965,864.018C2952.862,869.033 2949.41,870.385 2945.48,870.7C2944.726,870.76 2943.108,870.656 2942.546,870.542C2940.461,870.121 2939.861,869.854 2938.259,869.046C2936.476,868.145 2929.266,863.126 2932.061,852.271C2934.622,842.321 2947.325,821.253 2961.75,815.094C2963.251,813.595 2965.043,812.059 2967.227,810.471C2971.439,807.411 2975.377,804.47 2979.063,801.648C2986.653,785.374 2993.243,774.762 2994.162,773.268C2995.962,770.344 2996.82,769.278 2997.773,768.377C3001.232,765.109 3006.459,764.401 3009.264,764.909C3012.769,765.543 3014.6,766.722 3016.658,768.642C3016.789,768.764 3016.948,768.926 3017.127,769.125C3017.32,768.94 3017.511,768.756 3017.7,768.573C3018.362,766.722 3019.053,764.797 3019.775,762.792C3020.06,761.999 3020.316,761.195 3020.632,760.414C3020.898,759.758 3021.171,759.1 3021.52,758.484C3021.928,757.766 3024.316,753.558 3029.863,752.413C3030.348,752.313 3032.245,751.921 3034.661,752.359C3036.38,750.968 3037.964,749.899 3039.54,749.141C3043.229,747.368 3047.023,747.012 3050.433,747.949C3051.358,747.045 3052.375,746.229 3053.492,745.514C3058.683,742.196 3065.452,741.58 3071.931,744.941C3087.136,752.829 3089.637,770.628 3084.483,779.351C3083.777,780.545 3082.955,781.597 3082.045,782.5C3081.743,783.748 3081.337,785.028 3080.799,786.323C3078.789,791.162 3077.965,790.979 3075.627,797.685C3075.622,797.698 3075.605,797.75 3075.601,797.763C3070.655,812.907 3065.086,832.209 3068.719,845.519C3070.815,853.199 3076.406,860.574 3077.544,866.791C3079.589,877.967 3072.81,894.346 3065.226,901.386C3063.863,902.652 3060.903,905.234 3056.514,906.311C3056.577,907.028 3056.638,907.743 3056.696,908.457C3060.592,907.726 3064.464,907.215 3068.27,906.931C3070.522,906.251 3072.762,905.612 3075.347,905.019C3086.199,902.532 3092.824,903.978 3103.199,905.131C3116.449,906.604 3133.798,908.149 3145.425,909.142C3148.461,908.844 3151.757,908.825 3155.063,909.53C3156.576,909.852 3157.358,910.113 3158.044,910.201C3160.429,910.51 3161.986,911.285 3162.304,911.443C3163.019,911.799 3167.065,913.814 3168.649,918.854C3169.014,919.294 3169.347,919.758 3169.642,920.242C3172.377,924.731 3171.303,929.077 3171.117,929.831C3169.896,934.772 3166.19,937.034 3165.547,937.426C3162.723,939.15 3162.585,938.859 3159.316,939.397C3146.406,941.521 3134.707,944.86 3130.547,945.036C3127.22,945.177 3124.776,943.996 3124.651,943.947C3124.599,943.928 3124.548,943.907 3124.496,943.885C3123.191,944.156 3122.114,944.371 3121.708,944.433C3121.008,944.538 3120.306,944.653 3119.599,944.674C3118.774,944.698 3113.942,944.837 3110.086,940.694C3107.648,938.074 3106.947,935.186 3106.781,933.21C3106.667,933.618 3106.562,933.908 3106.509,934.057C3106.233,934.819 3104.628,939.267 3099.505,941.374C3098.863,941.638 3098.197,941.849 3097.52,942.003C3095.877,942.376 3095.862,942.258 3094.183,942.371C3089.499,942.684 3086.99,943.253 3083.56,943.526C3081.689,944.502 3080.073,944.748 3079.627,944.816C3078.079,945.052 3078.074,944.968 3076.509,944.936C3065.032,944.701 3052.197,944.809 3045.326,944.539C3039.926,945.268 3033.723,946.476 3026.542,948.384C3019.459,950.266 3013.762,952.234 3013.644,952.262C3012.95,952.428 3012.268,952.653 3011.562,952.759C3005.912,953.603 3002.207,950.424 3001.576,949.883C3000.945,949.342 2997.24,946.163 2997.215,940.45C2997.211,939.619 2997.19,934.737 3001.493,930.98C3001.595,930.892 3001.697,930.805 3001.801,930.72C3001.866,930.48 3001.946,930.213 3002.045,929.925C3001.495,928.679 3001.08,927.181 3001.006,925.433C3000.976,924.744 3001.037,924.053 3001.089,923.365C3001.248,921.242 3001.825,919.388 3003.528,899.683C3003.625,898.571 3003.72,897.478 3003.816,896.401C3003.497,896.878 3003.159,897.363 3002.801,897.859C3000.51,901.033 3000.347,900.927 2999.322,902.901C2998.987,903.546 2998.7,904.218 2998.308,904.829C2995.157,909.727 2990.217,910.359 2989.379,910.466C2983.602,911.204 2979.941,907.828 2979.32,907.256C2979.056,907.012 2978.81,906.764 2978.58,906.513C2977.197,907.461 2975.37,908.304 2973.05,908.586C2972.276,908.68 2967.977,909.202 2963.96,906.117C2963.672,906.05 2963.455,905.999 2963.444,905.994C2963.296,905.934 2961.629,905.26 2961.599,905.241C2960.831,904.785 2954.778,902.021 2954.355,893.29C2954.195,889.98 2954.913,878.985 2957.965,864.018Z" style="fill:white;"/>
                    </g>
                    <g transform="matrix(1.078109,0,0,1.078109,-230.566562,-82.163966)">
                        <path d="M3015.636,913.195C3000.363,913.642 2996.012,912.996 2990.029,909.449C2988.888,908.772 2988.867,908.806 2987.862,907.947C2987.244,907.419 2983.631,904.332 2983.487,898.768C2983.466,897.954 2983.343,893.204 2987.382,889.374C2990.541,886.379 2994.222,886.052 2994.877,885.994C2995.572,885.932 2996.272,885.959 2996.969,885.984C2998.435,886.036 3005.117,886.669 3005.825,886.736C3010.722,887.2 3014.005,887.597 3017.345,888.13C3021.891,887.977 3027.276,887.742 3033.3,887.471C3033.307,887.471 3033.334,887.469 3033.341,887.469C3040.502,887.122 3044.214,886.557 3046.509,885.903C3046.642,885.552 3046.798,885.142 3046.807,885.125C3047.868,883.079 3047.845,883.052 3049.378,881.327C3050.246,880.351 3051.546,879.558 3051.754,879.432C3057.407,875.986 3065.36,877.224 3069.557,884.081C3069.976,884.765 3070.344,885.462 3070.648,886.077C3072.158,887.792 3072.937,889.426 3073.143,889.859C3074.775,893.281 3076.191,898.347 3077.622,913.629C3077.816,915.702 3077.756,916.508 3077.737,916.758C3077.677,917.564 3077.327,922.262 3072.983,925.667C3068.64,929.073 3063.993,928.29 3063.197,928.156C3057.754,927.24 3055.202,923.279 3054.764,922.6C3053.856,921.19 3053.955,921.139 3053.285,919.601C3051.498,915.497 3050.668,914.015 3049.698,910.823C3049.595,910.843 3049.491,910.864 3049.387,910.884C3049.227,911.176 3049.052,911.469 3048.86,911.762C3046.069,916.023 3041.824,916.924 3041.087,917.081C3039.475,917.423 3037.791,917.227 3036.144,917.157C3035.496,917.13 3022.865,914.474 3015.636,913.195Z" style="fill:white;"/>
                    </g>
                    <g transform="matrix(1.078109,0,0,1.078109,-230.566562,-82.163966)">
                        <path d="M3082.191,827.017C3081.954,828.234 3081.983,828.363 3081.452,829.717C3081.144,830.504 3079.326,835.143 3073.803,837.003C3073.002,837.273 3068.281,838.863 3063.305,835.829C3058.33,832.795 3057.582,827.869 3057.455,827.033C3057.346,826.315 3057.3,825.585 3057.317,824.859C3057.335,824.133 3057.452,823.412 3057.559,822.694C3057.559,822.693 3057.559,822.691 3057.56,822.687C3057.6,822.478 3058.494,817.971 3059.998,810.912C3060.027,809.857 3060.158,808.727 3060.413,807.518C3060.683,806.242 3061.134,804.707 3061.7,803.051C3061.975,801.799 3062.262,800.505 3062.559,799.175C3066.545,781.323 3070.15,766.222 3070.242,761.248C3069.175,751.274 3077.608,744.609 3086.588,746.387C3086.931,746.455 3093.123,747.141 3104.324,756.884C3108.732,760.719 3113.255,765.441 3116.819,770.494C3122.396,778.402 3123.453,784.05 3123.843,786.169C3123.866,786.234 3123.908,786.35 3123.97,786.505C3125.693,786.11 3127.447,786.089 3129.13,786.403C3129.828,785.774 3130.651,785.179 3131.621,784.661C3136.67,781.961 3141.235,783.722 3142.012,784.022C3147.354,786.082 3149.003,790.689 3149.283,791.473C3149.752,792.782 3149.812,793.376 3149.83,793.547C3149.974,794.952 3149.934,795.578 3149.916,796.294L3149.999,796.296C3149.985,796.594 3149.971,796.892 3149.957,797.189C3150.011,797.608 3150.231,799.328 3149.757,801.514C3149.401,809.206 3149.048,816.67 3148.517,823.685C3148.582,823.969 3148.618,824.178 3148.638,824.294C3148.71,824.71 3149.098,826.951 3148.426,829.559C3148.368,829.781 3148.205,830.414 3147.848,831.257C3146.272,846.539 3143.408,859.014 3137.077,865.987C3129.458,874.378 3116.308,875.745 3104.42,862.102C3104.25,862.039 3104.082,861.976 3103.915,861.914C3103.654,861.817 3101.518,861.021 3100.702,860.569C3097.362,858.722 3095.89,855.843 3095.624,855.323C3095.326,854.742 3094.574,852.631 3094.34,852.148C3093.654,850.728 3090.575,848.745 3087.483,841.41C3086.666,839.471 3086.392,837.288 3085.386,831.368L3083.564,820.64C3083.23,822.077 3082.878,823.681 3082.503,825.487C3082.4,825.991 3082.296,826.501 3082.191,827.017Z" style="fill:white;"/>
                    </g>
                    <g transform="matrix(1.078109,0,0,1.078109,-230.566562,-82.163966)">
                        <path d="M3131.896,794.964C3131.425,791.61 3130.851,790.344 3131.515,781.696C3131.517,781.679 3131.518,781.662 3131.519,781.645C3131.551,780.689 3131.579,779.886 3131.599,779.448C3131.598,779.437 3131.598,779.426 3131.597,779.415L3131.6,779.415C3131.604,779.33 3131.608,779.259 3131.611,779.206C3131.598,778.832 3131.594,778.543 3131.603,778.313C3131.602,778.31 3131.602,778.306 3131.602,778.303L3131.603,778.303C3131.623,777.767 3131.709,777.562 3131.884,777.37C3131.886,777.361 3131.887,777.352 3131.888,777.343C3131.955,776.834 3132.01,776.736 3132.1,776.603C3132.235,776.402 3132.408,776.26 3132.598,776.171C3132.678,775.96 3132.794,775.845 3132.985,775.706C3133.257,775.508 3133.579,775.441 3133.883,775.483C3134.569,775.429 3135.298,775.922 3135.261,776.772C3135.254,776.933 3135.236,777.344 3135.211,777.927C3136.035,777.522 3137.131,778.176 3137.004,779.206C3136.883,780.179 3135.527,791.165 3135.466,791.364C3135.31,791.881 3134.892,792.169 3134.444,792.228C3134.427,792.595 3134.408,792.983 3134.386,793.394C3134.386,793.397 3134.386,793.4 3134.386,793.403C3134.376,793.582 3134.336,793.741 3134.272,793.881C3134.3,794.075 3134.332,794.311 3134.376,794.646C3134.501,795.598 3133.878,795.291 3133.292,796.049L3131.903,794.969L3131.897,794.969C3131.897,794.967 3131.897,794.966 3131.896,794.964Z" style="fill:white;"/>
                    </g>
                    <g transform="matrix(1.078109,0,0,1.078109,-230.566562,-82.163966)">
                        <path d="M3116.88,790.516C3116.339,791.057 3113.234,794.162 3108.041,794.162C3106.442,794.162 3104.81,793.86 3103.332,793.251C3100.821,792.216 3100.829,792.143 3098.911,790.224C3098.37,789.684 3095.264,786.579 3095.264,781.386C3095.264,779.787 3095.567,778.155 3096.176,776.676C3096.472,775.958 3098.179,771.815 3103.039,769.812C3103.736,769.525 3107.749,767.872 3112.458,769.812C3114.97,770.847 3114.961,770.92 3116.88,772.838C3117.421,773.379 3120.526,776.484 3120.526,781.677C3120.526,786.87 3117.421,789.975 3116.88,790.516Z" style="fill:white;"/>
                    </g>
                    <g transform="matrix(1.078109,0,0,1.078109,-230.566562,-82.163966)">
                        <path d="M3121.826,787.617C3122.482,790.217 3122.537,790.248 3122.143,792.903C3122.033,793.649 3121.396,797.942 3117.316,800.991C3113.104,804.138 3108.672,803.481 3107.904,803.367C3102.866,802.619 3100.267,799.143 3099.816,798.539C3097.981,796.083 3098.233,795.933 3097.385,792.985C3097.045,791.805 3096.394,790.664 3093.107,783.231C3092.798,782.531 3091.022,778.515 3092.895,773.672C3093.472,772.18 3094.343,770.767 3095.444,769.608C3095.979,769.045 3099.066,765.797 3104.322,765.683C3109.414,765.572 3112.56,768.561 3113.107,769.08C3115.561,771.413 3115.303,771.632 3116.681,774.722C3119.883,781.901 3120.738,783.305 3121.826,787.617Z" style="fill:white;"/>
                    </g>
                    <g transform="matrix(1.078109,0,0,1.078109,-230.566562,-82.163966)">
                        <path d="M3022.631,717.027C3020.999,716.333 3019.952,715.486 3019.639,715.233C3015.157,711.607 3015.027,706.68 3015.005,705.843C3014.983,705.006 3014.854,700.079 3019.139,696.223C3019.674,695.742 3020.253,695.305 3020.862,694.923C3021.179,694.724 3023.486,693.677 3023.919,693.3C3027.086,690.543 3027.263,678.797 3032.426,670.316C3034.861,666.316 3042.561,655.402 3062.916,659.161C3066.753,659.87 3074.898,661.918 3077.52,670.781C3079.302,676.806 3076.353,682.592 3075.602,685.207C3075.585,685.269 3075.568,685.329 3075.551,685.389C3078.304,688.418 3081.735,692.328 3083.317,696.745C3084.446,699.898 3084.053,702.513 3083.978,703.012C3083.892,703.584 3083.498,706.209 3081.52,708.784C3081.706,709.778 3081.721,710.515 3081.727,710.794C3081.741,711.424 3081.757,712.212 3080.907,717.351C3081.224,723.799 3080.677,728.974 3079.203,731.882C3079.009,732.265 3077.75,734.749 3075.956,736.166C3074.401,737.394 3074.382,737.371 3072.606,738.248C3072.594,738.254 3071.015,738.799 3071.003,738.801C3070.86,738.829 3069.227,739.149 3069.213,739.15C3067.309,739.237 3067.298,739.373 3065.422,739.033C3060.682,738.172 3058.197,734.986 3057.646,734.246C3056.133,733.735 3053.461,732.626 3051.246,729.9C3050.961,729.97 3050.666,730.033 3050.362,730.085C3044.867,731.041 3041.125,728.094 3040.485,727.59C3040.323,727.463 3040.167,727.334 3040.017,727.203C3038.486,727.852 3035.133,728.896 3031.132,727.58C3026.293,725.988 3024.323,722.121 3023.981,721.45C3022.853,719.237 3022.735,718.794 3022.631,717.027Z" style="fill:white;"/>
                    </g>
                    <g transform="matrix(1.078109,0,0,1.078109,-230.566562,-82.163966)">
                        <path d="M3075.728,686.497C3075.082,685.834 3074.56,685.35 3074.223,685.294C3073.975,685.253 3073.826,684.911 3069.07,687.495C3063.998,690.252 3062.468,692.315 3058.131,695.56C3054.584,698.214 3051.35,697.762 3050.614,697.712L3050.598,696.658L3050.601,697.717C3050.091,697.608 3050.029,697.717 3049.663,697.345C3049.097,696.769 3049.182,695.676 3050.122,695.295C3050.705,695.059 3050.778,695.101 3052.029,694.456C3052.398,694.266 3052.907,694 3053.85,693.666C3053.977,693.622 3054.105,693.493 3054.233,693.535C3054.72,693.696 3055.138,694.028 3055.607,694.233C3055.989,694.017 3056.383,693.755 3056.788,693.441C3062.85,688.722 3063.44,687.396 3071.013,683.674C3072.912,682.741 3074.141,682.593 3075.149,682.947C3074.985,681.586 3074.916,680.277 3074.937,678.664C3074.905,678.408 3074.872,678.151 3074.84,677.895C3074.487,676.721 3074.077,675.362 3073.593,673.765C3072.37,669.733 3071.663,667.665 3072.915,666.591C3072.676,666.356 3072.434,666.119 3072.186,665.88C3071.293,665.019 3071.932,663.298 3073.576,663.814C3089.485,668.81 3084.693,685.915 3083.926,691.421C3083.923,691.442 3083.92,691.614 3083.856,691.83C3083.855,691.842 3083.854,691.854 3083.854,691.867C3084.302,693 3084.881,694.299 3085.655,695.986C3086.529,696.948 3088.8,699.451 3090.085,700.884C3090.699,701.182 3091.429,701.693 3092.285,702.581C3092.426,702.727 3092.537,702.927 3092.599,703.147C3093.121,703.142 3093.679,703.134 3094.285,703.111C3094.294,703.11 3094.987,702.986 3095.473,703.436C3095.798,703.514 3096.132,703.696 3096.325,704.091C3096.633,704.722 3096.348,705.544 3095.631,705.813C3095.365,705.912 3095.1,706.011 3094.836,706.109C3094.664,706.436 3094.344,706.693 3093.884,706.756C3093.51,706.808 3093.079,706.861 3092.605,706.92C3089.027,708.204 3085.759,709.319 3083.58,710.366C3083.522,710.394 3082.606,711.033 3081.842,710.522C3081.642,710.388 3081.487,710.195 3081.393,709.974C3081.308,710.027 3081.225,710.082 3081.143,710.137C3080.365,710.664 3079.155,711.671 3078.264,710.772C3077.801,710.305 3077.727,709.423 3078.404,708.89C3078.658,708.69 3079.638,707.919 3081.06,706.947C3079.771,707.04 3078.906,706.996 3078.522,706.779C3077.692,706.31 3077.1,704.97 3078.995,703.986C3079.823,703.556 3082.347,702.583 3083.468,702.293C3082.968,701.575 3082.504,700.732 3082.09,699.746C3081.516,699.757 3080.935,699.403 3080.829,698.663C3080.778,698.308 3080.73,697.949 3080.694,697.384C3080.638,697.284 3080.592,697.171 3080.561,697.045C3080.261,695.848 3079.889,694.25 3079.482,692.441C3079.469,692.487 3079.454,692.531 3079.437,692.573C3079.449,692.668 3079.46,692.755 3079.47,692.832C3079.482,692.901 3079.495,692.971 3079.507,693.041L3079.496,693.043C3079.516,693.201 3079.526,693.292 3079.525,693.306C3079.47,694.749 3077.33,694.954 3077.045,693.475C3076.683,691.595 3076.724,691.591 3075.896,687.366C3075.837,687.066 3075.781,686.776 3075.728,686.497ZM3074.754,668.425C3074.793,668.893 3074.876,669.289 3075.123,670.144C3075.202,669.82 3075.384,669.556 3075.72,669.36C3075.746,669.345 3075.772,669.33 3075.799,669.317C3075.457,669.025 3075.123,668.724 3074.793,668.416C3074.78,668.419 3074.767,668.422 3074.754,668.425ZM3080.682,672.269C3080.678,672.277 3080.69,672.295 3080.7,672.306C3080.698,672.3 3080.696,672.295 3080.695,672.289C3080.691,672.282 3080.686,672.276 3080.682,672.269Z" style="fill:white;"/>
                    </g>
                    <g transform="matrix(1.078109,0,0,1.078109,-230.566562,-82.163966)">
                        <path d="M3127.736,1034.842C3127.648,1035.113 3127.559,1035.376 3127.469,1035.629C3126.46,1038.469 3123.519,1041.686 3116.063,1046.009C3112.332,1048.172 3111.834,1048.01 3110.275,1048.318C3099.719,1050.407 3090.534,1053.269 3085.434,1047.12C3081.274,1042.104 3083.278,1034.177 3084.17,1029.121C3090.559,992.91 3087.639,992.02 3090.243,987.618C3090.521,987.148 3090.95,986.562 3091.478,986.014C3093.165,984.263 3095.126,984.263 3095.475,984.263C3096.168,984.263 3096.875,984.395 3097.516,984.658C3099.622,985.525 3100.355,987.314 3100.482,987.624C3101.019,988.937 3100.906,989.499 3100.874,989.662C3100.542,991.316 3099.991,991.467 3099.575,992.539L3099.793,992.589C3099.501,994.555 3099.443,1001.349 3097.336,1015.631C3094.764,1033.072 3093.307,1037.357 3093.802,1039.978C3096.316,1040.299 3101.376,1039.03 3108.984,1037.534C3112.194,1035.857 3115.91,1033.451 3117.336,1031.758C3120.807,1020.527 3121.674,1002.662 3123.826,998.121C3123.911,997.941 3124.392,996.928 3125.32,996.123C3128.003,993.799 3133.079,994.057 3134.673,999.392C3134.722,999.299 3134.783,999.189 3134.864,999.048C3134.993,998.827 3135.516,997.924 3136.568,997.222C3142.892,978.295 3150.309,966.683 3153.713,946.643C3156.461,930.457 3159.468,930.738 3158.277,918.233C3157.868,913.942 3157.053,911.267 3159.785,908.41C3161.053,907.085 3165.955,904.739 3169.748,910.769C3171.967,914.298 3174.552,921.445 3173.787,927.566C3171.183,948.395 3158.556,975.345 3145.75,1007.287C3145.658,1007.517 3145.239,1008.562 3144.169,1009.446C3143.631,1011.418 3143.119,1013.455 3142.641,1015.567C3142.464,1016.345 3142.521,1016.361 3142.214,1017.1C3142.091,1017.398 3141.484,1018.862 3139.889,1019.755C3139.981,1025.205 3140.491,1037.712 3139.588,1040.794C3138.943,1042.993 3137.4,1043.92 3137.227,1044.045C3136.383,1044.653 3135.3,1044.832 3135.122,1044.862C3133.918,1045.061 3129.961,1045.047 3128.669,1040.192C3128.375,1039.088 3128.059,1037.197 3127.736,1034.842Z" style="fill:white;"/>
                    </g>
                    <g transform="matrix(1.078109,0,0,1.078109,-230.566562,-82.163966)">
                        <path d="M2967.973,967.373C2966.45,962.395 2964.936,957.544 2962.884,947.44C2962.576,945.923 2962.498,945.933 2962.455,944.387C2962.431,943.558 2962.296,938.696 2966.484,934.84C2970.673,930.985 2975.507,931.523 2976.331,931.614C2977.155,931.706 2981.989,932.243 2985.229,936.925C2985.633,937.51 2985.989,938.132 2986.289,938.777C2986.743,939.756 2987.315,941.88 2987.388,942.154C2989.541,950.155 2991.019,955.921 2992.143,960.872C2993.091,963.944 2994.097,967.313 2995.429,972.951C2999.642,990.782 2998.325,991.373 3002.077,1003.02C3002.739,1005.074 3002.785,1005.06 3002.808,1005.246C3003.005,1006.882 3003.52,1008.51 3003.398,1010.153C3003.246,1012.214 3002.616,1013.907 3001.883,1015.224C3002.16,1016.576 3002.337,1017.782 3002.337,1018.71C3002.338,1021.468 3001.865,1022.61 3001.422,1023.893C3001.327,1024.167 3000.972,1025.196 2999.608,1027.036C2999.356,1027.377 2999.066,1027.69 2998.771,1027.995C2997.839,1028.961 2996.597,1029.884 2995.14,1030.597C2994.516,1031.696 2993.647,1032.833 2992.438,1033.878C2988.584,1037.208 2984.255,1036.908 2983.503,1036.856C2982.982,1036.82 2980.123,1036.623 2977.321,1034.764C2974.053,1032.596 2970.353,1027.954 2971.794,1020.711C2972.121,1019.068 2972.77,1016.678 2973.776,1011.106C2974.029,1009.704 2973.983,1009.55 2974.365,1008.443C2974.165,1007.524 2973.999,1006.653 2973.885,1005.86C2971.625,990.087 2970.727,981.463 2969.202,973.322C2968.838,971.385 2968.423,969.392 2967.973,967.373Z" style="fill:white;"/>
                    </g>
                    <g transform="matrix(1.078109,0,0,1.078109,-230.566562,-82.163966)">
                        <path d="M2962.957,858.289C2963.368,859.197 2963.596,860.222 2963.789,861.186C2963.941,861.948 2964.819,866.342 2961.885,870.705C2961.464,871.33 2959.043,874.932 2954.048,875.929C2953.569,876.025 2951.222,876.494 2947.95,875.693C2944.917,874.951 2937.969,872.813 2935.777,864.769C2934.55,860.265 2936.275,855.986 2936.56,855.28C2937.614,852.667 2938.941,850.962 2939.909,848.593C2939.909,848.592 2939.909,848.592 2939.909,848.592C2940.808,847.209 2941.459,845.63 2942.606,844.446C2943.13,843.904 2946.152,840.784 2951.235,840.67C2952.01,840.653 2956.48,840.553 2960.262,844.203C2963.927,847.739 2964.021,852.078 2964.037,852.832C2964.099,855.698 2964.001,855.809 2962.957,858.289Z" style="fill:white;"/>
                    </g>
                    <g transform="matrix(1.078109,0,0,1.078109,-230.566562,-82.163966)">
                        <path d="M3126.917,1024.137C3125.363,1020.789 3122.477,1016.662 3122.407,1016.488C3122.017,1015.518 3121.434,1014.605 3121.238,1013.578C3121.148,1013.108 3120.63,1010.401 3122.432,1007.718C3122.442,1007.703 3122.453,1007.687 3122.466,1007.668C3122.708,1007.197 3123.024,1006.752 3123.331,1006.336C3125.313,1003.649 3128.128,1003.236 3128.616,1003.165C3129.09,1003.095 3131.816,1002.696 3134.419,1004.615C3134.935,1004.996 3136.572,1006.204 3138.876,1011.281C3139.678,1013.05 3139.69,1013.299 3141.508,1017.856C3141.898,1018.717 3142.197,1019.471 3142.433,1020.146C3142.977,1021.701 3142.963,1022.862 3142.96,1023.102C3142.954,1023.63 3142.916,1026.728 3140.146,1029.069C3139.743,1029.41 3137.375,1031.41 3133.792,1030.848C3130.209,1030.285 3128.569,1027.656 3128.289,1027.208C3127.823,1026.46 3127.708,1026.178 3126.917,1024.137Z" style="fill:white;"/>
                    </g>
                </g>
                <g>
                    <g transform="matrix(0.749596,-0.661896,-0.661896,-0.749596,234.863434,1454.306708)">
                        <path d="M-1.283,3.393C4.95,3.253 8.122,3.354 8.967,3.393" style="fill:none;fill-rule:nonzero;stroke:black;stroke-width:6.69px;"/>
                    </g>
                    <g transform="matrix(1,0,0,1,239.3403,1542.8188)">
                        <path d="M0,-96.991C-2.012,-94.967 -21.564,-74.518 -26.145,-46.729C-29.225,-28.037 -26.55,-3.687 -26.145,0" style="fill:none;fill-rule:nonzero;stroke:black;stroke-width:6.69px;"/>
                    </g>
                    <g transform="matrix(1,0,0,1,283.7819,1542.7709)">
                        <path d="M0,-98.482C28.701,-80.113 26.121,-6.617 27.064,-3.754C28.3,0 -52.443,-12.869 -69.523,-0.821" style="fill:none;fill-rule:nonzero;stroke:black;stroke-width:6.69px;"/>
                    </g>
                    <g transform="matrix(2.67567,0,0,2.67567,-7756.656291,-1265.245464)">
                        <path d="M3143.306,938.816C3141.647,940.277 3135.692,944.885 3117.951,952.598C3081.346,968.514 3062.233,963.408 3027.203,964.975C3004.09,966.009 2997.645,965.839 2984.619,963.314C2978.128,962.055 2978.128,962.066 2971.749,960.94C2949.954,957.091 2937.576,942.58 2935.03,939.508C2929.306,932.606 2922.92,918.159 2927.827,903.134C2927.862,903.143 2927.896,903.152 2927.929,903.161C2927.912,903.092 2927.896,903.022 2927.88,902.953C2927.844,902.793 2928.745,901.779 2929.712,902.404C2930.709,903.049 2930.066,904.318 2929.979,904.599C2929.101,907.427 2925.491,920.651 2935.158,935.502C2935.567,936.13 2947.862,954.356 2972.738,958.573C2993.281,962.055 2993.594,964.006 3024.61,962.593C3048.762,961.492 3058.077,962.692 3072.979,961.608C3085.215,960.717 3102.296,958.192 3129.61,944.371C3139.779,939.226 3141.987,936.451 3142.584,936.18C3143.823,935.617 3145.465,937.326 3143.387,938.903C3143.357,938.871 3143.33,938.842 3143.306,938.816Z"/>
                    </g>
                    <g transform="matrix(2.67567,0,0,2.67567,-7756.656291,-1265.245464)">
                        <path d="M3119.095,1039.517L3118.113,1040.664C3115.179,1038.136 3115.364,1037.951 3113.278,1034.691C3106.258,1023.721 3100.167,1026.252 3095.488,1029.424C3090.042,1033.116 3084.938,1039.297 3080.287,1038.136C3077.174,1037.359 3076.53,1032.241 3077.284,1025.71C3077.543,1023.471 3078.069,1019.657 3086.617,993.395C3091.275,979.083 3098.4,958.235 3098.91,957.384C3098.955,957.309 3099.235,956.842 3099.8,956.743C3099.871,956.731 3099.961,956.678 3100.016,956.725C3100.695,957.295 3100.586,957.404 3101.266,957.975L3100.819,958.421L3101.106,958.578C3098.326,965.905 3081.045,1016.623 3079.864,1025.23C3079.157,1030.38 3079.459,1035.528 3081.072,1035.747C3087.299,1036.59 3097.779,1016.718 3110.328,1027.306C3114.328,1030.681 3116.496,1035.641 3117.927,1037.125C3118.26,1037.47 3119.586,1038.631 3119.74,1038.766C3119.74,1038.766 3119.74,1038.766 3119.741,1038.767L3119.095,1039.517ZM3100.347,958.894L3100.016,959.225L3100.414,959.081L3100.347,958.894Z"/>
                    </g>
                    <g transform="matrix(2.67567,0,0,2.67567,-7756.656291,-1265.245464)">
                        <path d="M3156.364,898.66C3149.338,896.562 3106.389,886.387 3096.707,888.115C3096.245,888.197 3094.228,888.65 3093.365,887.304C3092.738,886.328 3093.399,885.135 3093.408,885.132C3093.955,884.912 3094.538,884.791 3095.085,884.572L3095.477,885.747C3097.08,885.75 3098.584,884.331 3116.436,887.332C3132.808,890.084 3156.622,895.848 3157.678,896.501C3158.551,897.042 3160.136,899.547 3164.513,900.901C3165.997,901.36 3170.544,902.19 3175.36,906.952C3193.361,924.755 3169.464,960.095 3165.309,969.536C3161.452,978.302 3157.407,987.536 3148.098,1002.101C3146.413,1004.737 3144.437,1007.714 3144.267,1008.697C3144.254,1008.774 3144.213,1008.723 3144.144,1008.757C3144.183,1008.747 3144.225,1008.782 3144.264,1008.773C3145.332,1016.01 3145.988,1016.003 3145.488,1023.33C3144.269,1041.205 3147.407,1045.754 3137.961,1051.347C3135.558,1052.77 3131.888,1054.905 3126.483,1051.475C3121.517,1048.324 3117.324,1041.511 3117.368,1040.027C3117.368,1040.023 3117.385,1039.732 3117.408,1039.716C3117.895,1039.385 3118.437,1039.139 3118.924,1038.807L3118.808,1040.058L3119.851,1039.896C3121.008,1042.791 3128.214,1053.511 3134.845,1050.183C3145.161,1045.005 3141.708,1042.012 3142.994,1023.16C3143.454,1016.419 3142.898,1016.433 3141.881,1009.756C3141.61,1007.971 3141.646,1007.55 3144.849,1002.537C3150.018,994.447 3155.614,985.678 3162.918,968.766C3167.168,958.925 3193.32,920.487 3169.792,905.706C3166.865,903.867 3164.809,903.761 3162.395,902.809C3159.525,901.677 3157.587,899.848 3156.364,898.66ZM3144.264,1008.773C3144.262,1008.758 3144.26,1008.744 3144.258,1008.729C3144.256,1008.715 3144.278,1008.769 3144.264,1008.773Z"/>
                    </g>
                    <g transform="matrix(2.67567,0,0,2.67567,-7756.656291,-1265.245464)">
                        <path d="M3144.138,1040.919L3143.87,1041.755C3143.316,1041.518 3142.73,1041.361 3142.176,1041.123C3142.048,1041.068 3141.425,1039.171 3143.082,1038.556C3144.755,1037.936 3148.981,1039.495 3150.907,1041.57C3153.197,1044.039 3154.475,1046.523 3155.64,1048.768L3155.495,1048.867L3155.495,1050.358C3153.997,1050.358 3153.878,1050.598 3153.576,1050.178C3153.525,1050.107 3151.043,1045.049 3148.786,1042.979C3147.786,1042.062 3145.473,1041.009 3144.138,1040.919Z"/>
                    </g>
                    <g transform="matrix(2.67567,0,0,2.67567,-7756.656291,-1265.245464)">
                        <path d="M3080.575,1046.567L3080.799,1046.432C3081.073,1046.954 3081.435,1047.426 3081.709,1047.948C3081.753,1048.032 3081.064,1050.551 3079.263,1049.622C3077.552,1048.74 3077.475,1042.065 3079.682,1038.082C3080.958,1035.779 3082.703,1034.728 3084.231,1034.294C3084.308,1034.272 3084.391,1034.197 3084.463,1034.232C3085.262,1034.619 3085.181,1034.755 3085.979,1035.142C3085.65,1035.628 3085.407,1036.169 3085.077,1036.655C3084.984,1036.793 3082.853,1036.789 3081.424,1040.23C3080.683,1042.014 3080.359,1044.677 3080.575,1046.567Z"/>
                    </g>
                    <g transform="matrix(2.67567,0,0,2.67567,-7756.656291,-1265.245464)">
                        <path d="M2939.366,943.029C2939.69,945.961 2942.288,953.711 2948.437,984.264C2949.779,990.934 2961.259,1020.819 2962.527,1022.47C2967.809,1029.348 2971.488,1034.548 2976.978,1029.223C2977.031,1029.172 2977.062,1029.074 2977.135,1029.068C2978.019,1028.998 2978.018,1029.14 2978.9,1029.071C2978.843,1029.658 2978.956,1030.253 2978.899,1030.839C2978.899,1030.839 2978.471,1031.272 2977.983,1031.685C2970.44,1038.076 2964.555,1029.18 2961.335,1025.004C2960.567,1024.008 2960.328,1024.125 2958.202,1018.992C2954.063,1008.997 2947.053,990.026 2945.987,984.762C2939.979,955.109 2938.938,953.232 2937.217,945.124C2936.763,942.987 2936.419,941.185 2937.983,940.65C2938.642,940.425 2939.565,940.864 2939.69,940.923C2939.74,940.947 2939.819,940.945 2939.84,940.997C2940.174,941.819 2940.067,941.853 2940.399,942.674C2940.045,942.759 2939.707,942.901 2939.366,943.029Z"/>
                    </g>
                    <g transform="matrix(2.67567,0,0,2.67567,-7756.656291,-1265.245464)">
                        <path d="M3019.867,1030.422C3022.917,1021.186 3026.484,1002.677 3017.565,993.499C3017.037,992.956 3014.325,990.515 3011.377,980.051C3010.228,975.973 3008.637,968.493 3009.395,964.294C3009.405,964.241 3009.382,964.168 3009.425,964.135C3010.13,963.6 3010.189,963.691 3010.896,963.154L3011.872,964.619L3011.878,964.62C3011.878,964.622 3011.877,964.624 3011.877,964.626C3010.759,971.577 3015.631,987.922 3019.083,991.477C3021.219,993.677 3028.824,1001.525 3024.324,1023.387C3023.27,1028.508 3020.801,1036.526 3019.328,1037.372C3018.572,1037.805 3017.067,1037.554 3017.356,1035.587C3017.555,1034.233 3018.505,1031.417 3018.614,1031.088C3018.873,1030.306 3019.226,1030.601 3019.867,1030.422Z"/>
                    </g>
                    <g transform="matrix(2.67567,0,0,2.67567,-7756.656291,-1265.245464)">
                        <path d="M3087.673,891.161C3089.45,893.2 3097.007,900.339 3091.219,906.133C3089.716,907.638 3088.603,907.968 3086.169,909.458C3074.08,916.856 3036.459,939.873 2984.667,933.522C2957.364,930.174 2946.352,932.642 2927.27,915.255C2926.561,914.608 2927.233,914.441 2927.19,913.486C2927.773,913.57 2928.373,913.324 2928.955,913.408C2929.19,913.442 2935.999,920.589 2945.542,924.66C2956.163,929.192 2966.437,928.767 2984.971,931.04C2995.519,932.334 3034.449,936.709 3079.096,910.799C3083.655,908.152 3083.549,907.98 3087.141,906.026C3093.715,902.451 3090.33,897.809 3086.555,893.675C3086.533,893.65 3086.509,893.625 3086.485,893.599C3086.435,893.597 3086.385,893.595 3086.335,893.591C3086.271,893.587 3085.941,893.156 3085.91,893.115C3085.701,892.842 3085.675,892.745 3085.559,892.52C3085.161,891.936 3084.941,891.27 3085.454,890.671C3085.468,890.655 3086.643,889.442 3087.616,891.063C3087.637,891.098 3087.656,891.131 3087.673,891.161Z"/>
                    </g>
                    <g transform="matrix(2.67567,0,0,2.67567,-7756.656291,-1265.245464)">
                        <path d="M3088.044,893.592L3088.055,893.944C3082.528,895.16 3048.588,906.828 3040.004,909.317C3024.212,913.896 3020.154,912.254 2998.192,910.682C2984.653,909.712 2939.188,911.537 2931.717,904.695C2931.312,904.324 2929.969,903.036 2930.556,901.013C2930.569,900.969 2930.557,900.903 2930.597,900.88C2931.367,900.442 2931.407,900.529 2932.178,900.09C2932.429,900.62 2932.723,901.129 2932.973,901.659C2933.024,901.767 2932.275,902.544 2934.91,903.773C2945.257,908.598 2987.062,907.399 2998.019,908.164C3023.824,909.965 3024.387,911.996 3048.148,904.141C3052.186,902.806 3071.84,896.226 3083.144,892.737C3087.997,891.239 3088.257,891.288 3088.812,891.729C3088.849,891.758 3088.916,891.776 3088.918,891.824C3088.969,892.708 3088.868,892.706 3088.919,893.592L3088.044,893.592ZM3087.332,893.592L3087.151,893.592L3087.262,893.68L3087.332,893.592Z"/>
                    </g>
                    <g transform="matrix(2.67567,0,0,2.67567,-7756.656291,-1265.245464)">
                        <path d="M2937.797,905.506C2937.215,905.598 2936.701,905.973 2936.119,906.065C2936.111,906.066 2934.747,905.37 2933.941,904.919C2903.581,887.923 2928.692,864.12 2942.185,828.482C2946.485,817.125 2947.612,809.723 2947.692,809.645C2948.115,809.235 2948.74,809.075 2949.163,808.665C2949.394,809.207 2949.912,809.594 2950.143,810.137C2950.147,810.146 2949.604,812.82 2949.012,815.164C2938.537,856.661 2908.006,881.818 2929.673,899.121C2933.228,901.96 2937.22,903.793 2937.239,903.83C2937.512,904.352 2937.524,904.984 2937.797,905.506Z"/>
                    </g>
                    <g transform="matrix(2.67567,0,0,2.67567,-7756.656291,-1265.245464)">
                        <path d="M3063.07,903.65L3062.938,903.946C3056.264,902.34 2986.331,900.696 2977.71,904.801C2976.412,905.419 2965.419,911.291 2948.424,909.914C2945.208,909.653 2938.861,908.693 2936.343,906.373L2936.22,906.256C2935.867,905.917 2936.216,905.828 2936.203,904.471C2936.789,904.489 2937.377,904.446 2937.963,904.464C2938.034,904.466 2938.184,904.879 2939.894,905.599C2945.198,907.833 2961.964,909.75 2976.514,902.602C2979.962,900.909 2990.716,900.044 3007.57,899.779C3028.821,899.444 3061.64,900.429 3064.013,901.691C3064.101,901.737 3064.665,902.037 3064.784,902.661C3064.791,902.702 3064.826,902.751 3064.801,902.784C3064.272,903.497 3064.206,903.44 3063.679,904.151L3063.07,903.65Z"/>
                    </g>
                    <g transform="matrix(2.67567,0,0,2.67567,-7756.656291,-1265.245464)">
                        <path d="M3086.353,890.2C3086.359,890.165 3086.366,890.127 3086.373,890.086C3089.857,889.959 3101.258,883.569 3086.1,853.284C3077.148,835.398 3076.31,835.142 3076.995,815.152C3077.027,814.197 3077.59,814.597 3078.289,813.945C3078.493,814.498 3079.289,814.686 3079.493,815.239C3079.629,815.605 3078.639,826.455 3080.054,833.163C3082.12,842.967 3090.954,853.732 3094.979,869.143C3098.339,882.005 3094.075,887.492 3093.821,887.875C3090.949,892.213 3086.578,893.011 3085.467,892.396C3084.066,891.62 3084.98,890.199 3085.111,890.193C3085.524,890.173 3085.939,890.195 3086.353,890.2Z"/>
                    </g>
                    <g transform="matrix(2.67567,0,0,2.67567,-7756.656291,-1265.245464)">
                        <path d="M2943.274,833.905L2943.274,835.66C2942.686,835.625 2942.094,835.696 2941.506,835.66C2941.498,835.66 2940.897,835.068 2940.466,834.163C2936.145,825.071 2946.329,794.198 2946.068,789.394L2946.062,789.339C2945.929,788.39 2946.528,788.648 2947.062,787.854C2947.537,788.222 2948.05,788.54 2948.524,788.908C2948.629,788.989 2948.56,790.005 2948.553,790.1C2948.102,796.672 2938.296,828.266 2943.274,833.892C2943.276,833.894 2943.278,833.896 2943.28,833.899L2943.274,833.905Z"/>
                    </g>
                    <g transform="matrix(2.67567,0,0,2.67567,-7756.656291,-1265.245464)">
                        <path d="M3085.642,743.397C3087.35,746.448 3105.051,752.715 3112.562,766.626C3114.217,769.69 3113.861,769.921 3115.057,771.478C3117.262,774.347 3120.284,777.142 3123.909,789.129C3128.651,804.81 3129.53,804.48 3136.886,819.123C3136.055,819.057 3135.48,820.306 3134.65,820.241C3134.649,820.241 3133.188,817.299 3131.098,813.304C3126.392,804.309 3125.382,802.638 3121.516,789.852C3116.944,774.733 3113.555,775.14 3111.678,770.577C3105.195,754.814 3085.768,749.014 3083.464,744.636C3083.359,744.436 3082.644,743.077 3083.762,741.824C3083.799,741.784 3083.82,741.71 3083.874,741.706C3084.759,741.637 3084.759,741.747 3085.641,741.678C3085.63,742.251 3085.65,742.824 3085.642,743.397Z"/>
                    </g>
                    <g transform="matrix(2.67567,0,0,2.67567,-7756.656291,-1265.245464)">
                        <path d="M3088.862,860.44C3088.719,859.868 3088.217,859.429 3088.074,858.858C3088.07,858.842 3089.486,854.648 3090.147,853.017C3090.205,852.874 3090.857,851.263 3090.893,851.239C3091.382,850.909 3091.891,850.611 3092.379,850.282C3092.665,850.813 3093.038,851.295 3093.324,851.826C3093.393,851.954 3092.975,852.459 3091.755,855.848C3091.118,857.619 3090.445,859.651 3090.445,859.652C3089.986,860.021 3089.321,860.07 3088.862,860.44Z"/>
                    </g>
                    <g transform="matrix(2.67567,0,0,2.67567,-7756.656291,-1265.245464)">
                        <path d="M3132.62,807.57C3135.004,807.182 3138.312,806.87 3142.675,808.596C3155.785,813.781 3151.317,831.481 3147.901,842.877C3146.904,846.204 3143.09,857.877 3142.052,860.32C3132.608,882.523 3108.434,871.357 3090.525,850.263C3081.764,839.945 3078.323,831.198 3078.321,831.194C3078.265,831.064 3078.369,831.075 3078.976,829.548L3080.614,830.203L3080.616,830.202C3080.616,830.203 3080.617,830.204 3080.617,830.204C3089.654,850.737 3114.074,873.134 3129.143,869.598C3137.671,867.597 3140.271,858.091 3141.344,854.901C3147.74,835.898 3154.951,815.462 3141.042,810.654C3133.825,808.159 3130.045,811.971 3129.006,809.614C3128.457,808.367 3129.985,807.491 3130.988,806.815C3131.784,806.278 3131.787,806.972 3132.728,807.157C3132.679,807.291 3132.646,807.43 3132.62,807.57Z"/>
                    </g>
                    <g transform="matrix(2.67567,0,0,2.67567,-7756.656291,-1265.245464)">
                        <path d="M3044.321,741.289C3042.163,741.178 3038.971,740.619 3026.76,734.987C3011.251,727.835 3002.394,721.568 2992.525,724.166C2987.364,725.524 2983.622,728.181 2970.14,734.995C2961.436,739.394 2946.132,749.935 2914.391,788.653C2893.55,814.075 2896.182,827.42 2907.875,849.783C2917.569,868.324 2921.475,867.153 2923.135,874.933C2923.163,875.062 2923.273,875.201 2923.216,875.319C2922.832,876.121 2922.628,875.993 2922.242,876.798C2921.795,876.413 2921.213,876.205 2920.766,875.82C2920.599,875.675 2920.698,873.478 2918.41,870.305C2916.547,867.722 2910.691,861.845 2902.727,845.072C2893.503,825.648 2892.399,811.537 2912.458,787.068C2941.313,751.868 2957.785,738.438 2968.713,732.915C2983.404,725.49 2987.424,722.547 2993.367,721.411C3003.637,719.448 3012.955,725.902 3028.684,733.121C3043.499,739.922 3044.03,738.485 3045.185,738.937C3046.709,739.534 3048.672,740.984 3055.005,740.055C3061.541,739.097 3069.106,736.418 3078.899,741.694C3078.958,741.726 3079.836,742.052 3079.899,742.89C3079.944,743.494 3079.519,744.108 3078.843,744.219C3078.486,744.277 3071.534,745.333 3063.38,746.67C3052.256,748.495 3052.307,748.748 3051.592,748.944C3036.193,753.165 3020.992,737.773 3016.934,735.96C3015.143,735.159 2997.16,727.122 2994.364,726.26C2994.366,726.26 2994.366,726.26 2994.365,726.259C2993.88,725.516 2993.868,725.528 2993.385,724.788C2993.892,724.487 2994.349,724.108 2994.857,723.807C2995.209,723.599 3017.727,733.509 3018.609,734.013C3023.465,736.788 3037.905,750.599 3051.413,746.39C3053.374,745.779 3058.956,744.794 3074.37,742.385C3070.234,740.821 3066.319,740.631 3060.306,741.671C3054.629,742.652 3049.829,743.951 3044.321,741.289ZM3044.27,741.264C3044.261,741.26 3044.251,741.255 3044.242,741.251C3044.232,741.246 3044.265,741.274 3044.27,741.264Z"/>
                    </g>
                    <g transform="matrix(2.67567,0,0,2.67567,-7756.656291,-1265.245464)">
                        <path d="M3087.425,746.9C3087.218,746.348 3086.726,745.933 3086.519,745.381C3086.518,745.379 3086.911,743.805 3087.26,742.758C3087.713,741.398 3089.856,737.979 3088.732,733.96C3087.472,729.454 3082.132,727.635 3080.667,727.146C3032.882,711.201 3027.821,709.623 3001.45,716.162C2997.999,717.017 2998.804,718.082 2997.926,720.013C2997.359,721.261 2997.024,721.046 2995.996,722.799C2995.106,724.318 2995.226,724.403 2995.093,724.476C2994.576,724.761 2993.93,724.746 2993.414,725.03C2993.334,724.393 2993.036,723.796 2992.957,723.16C2992.956,723.157 2993.494,722.1 2994.002,721.262C2995.059,719.52 2995.417,719.735 2995.797,718.607C2996.327,717.037 2996.266,714.88 3000.848,713.735C3027.912,706.97 3033.861,708.891 3081.465,724.777C3091.615,728.164 3093.462,735.472 3089.874,742.913C3089.586,743.511 3089.128,745.27 3089.074,745.478C3088.951,745.95 3088.977,745.962 3088.943,745.992C3088.266,746.575 3088.1,746.318 3087.425,746.9Z"/>
                    </g>
                    <g transform="matrix(2.67567,0,0,2.67567,-7756.656291,-1265.245464)">
                        <path d="M3133.568,775.673C3132.965,779.095 3134.267,789.498 3126.859,794.702C3126.772,794.763 3126.703,794.889 3126.598,794.881C3126.01,794.835 3125.45,794.591 3124.862,794.545C3125.038,793.948 3125.136,793.33 3125.311,792.733C3125.331,792.665 3128.414,791.026 3129.819,786.148C3131.745,779.46 3129.759,773.341 3132.947,772.889C3133.236,772.848 3134.346,772.691 3136.135,774.656C3138.745,777.522 3138.009,785.653 3139.49,786.984C3139.565,787.052 3139.514,787.066 3139.516,787.17L3139.557,787.016L3139.545,787.103C3139.592,787.055 3139.564,787.021 3139.629,787.017C3140.726,786.944 3142.573,784.666 3143.469,784.227C3144.501,783.721 3145.8,783.935 3146.376,785.788C3146.934,787.584 3147.09,791.384 3148.7,793.101C3150.411,794.926 3150.722,797.515 3149.85,805.197C3149.488,808.383 3149.098,811.408 3149.459,812.579C3149.401,812.615 3149.354,812.645 3149.312,812.67L3150.202,813.598C3149.762,813.99 3149.363,814.427 3148.923,814.819C3148.917,814.825 3148.204,814.832 3147.665,814.304C3145.754,812.434 3147.624,805.855 3147.807,799.627C3147.937,795.193 3147.003,795.058 3146.421,794.258C3144.699,791.893 3144.567,788.794 3144.088,786.921C3142.824,788.123 3139.757,790.966 3137.599,788.626C3135.321,786.158 3136.181,778.195 3134.218,776.267C3133.929,775.984 3133.722,775.799 3133.568,775.673Z"/>
                    </g>
                    <g transform="matrix(2.67567,0,0,2.67567,-7756.656291,-1265.245464)">
                        <path d="M3125.501,788.303L3125.501,788.837C3124.913,788.8 3124.321,788.875 3123.733,788.837C3123.673,788.833 3123.147,788.15 3123.472,787.42C3123.834,786.609 3128.381,780.248 3129.86,779.61C3129.957,779.568 3130.567,779.305 3131.181,779.714C3132.016,780.27 3131.451,780.495 3131.068,781.899L3130.922,781.851C3130.925,781.855 3130.927,781.859 3130.93,781.864C3129.875,782.771 3127.108,786.324 3125.766,788.411L3125.501,788.303ZM3130.45,780.81L3130.492,780.789C3130.473,780.797 3130.46,780.803 3130.45,780.81ZM3125.501,787.355L3125.633,787.266L3125.501,787.07L3125.501,787.355Z"/>
                    </g>
                    <g transform="matrix(2.67567,0,0,2.67567,-7756.656291,-1265.245464)">
                        <path d="M3130.697,790.058L3130.68,790.066C3129.776,788.937 3125.509,786.575 3126.968,782.564C3126.991,782.502 3126.98,782.409 3127.038,782.377C3127.559,782.101 3128.136,781.942 3128.656,781.665C3128.86,782.237 3129.137,782.782 3129.341,783.354C3129.368,783.431 3128.676,784.434 3129.909,785.878C3130.932,787.077 3132.277,787.816 3132.856,788.834C3132.874,788.866 3132.918,788.896 3132.908,788.931C3132.746,789.498 3132.511,790.042 3132.349,790.609L3130.697,790.058Z"/>
                    </g>
                    <g transform="matrix(2.67567,0,0,2.67567,-7756.656291,-1265.245464)">
                        <path d="M3141.151,783.96C3142.393,784.135 3142.513,784.239 3143.666,784.461C3144.362,784.595 3145.218,784.659 3145.219,784.659C3145.657,785.053 3145.917,785.62 3146.355,786.013C3145.852,786.32 3145.504,786.843 3145.001,787.15C3145,787.15 3144.161,787.082 3143.483,786.968C3142.502,786.804 3142.019,786.587 3140.71,786.418C3139.712,786.289 3139.695,786.209 3139.082,785.36C3137.031,782.517 3135.572,782.422 3135.85,780.655C3135.888,780.419 3135.982,780.131 3135.983,780.13C3136.494,779.835 3137.054,779.633 3137.564,779.339L3138.193,780.761C3138.206,780.751 3138.22,780.741 3138.235,780.73C3139.709,782.142 3140.114,782.525 3141.151,783.96Z"/>
                    </g>
                    <g transform="matrix(2.67567,0,0,2.67567,-7756.656291,-1265.245464)">
                        <path d="M3012.954,699.923C3016.143,698.695 3024.247,692.377 3025.791,688.039C3026.633,685.674 3027.29,685.999 3028.181,683.654C3029.8,679.388 3028.972,676.227 3030.559,670.809C3033.821,659.677 3044.114,658.825 3051.278,658.484C3063.233,657.915 3083.451,660.032 3086.64,672.899C3089.899,686.049 3082.508,694.438 3091.094,699.254C3093.973,700.869 3095.445,700.719 3098.854,702.348C3098.931,702.385 3099.807,702.803 3099.813,702.814C3100.101,703.328 3100.089,703.976 3100.377,704.49C3099.793,704.575 3099.283,704.967 3098.7,705.052C3098.694,705.053 3096.93,704.151 3095.624,703.692C3093.176,702.833 3085.727,701.304 3084.49,694.303C3083.496,688.675 3086.375,682.034 3084.174,673.349C3080.638,659.396 3050.148,659.63 3041.793,662.37C3030.801,665.975 3032.609,677.06 3031.186,682.421C3029.982,686.958 3028.819,687.036 3028.261,688.547C3027.803,689.79 3026.889,692.424 3021.637,697.033C3020.46,698.067 3014.021,703.392 3011.75,702.486C3010.039,701.803 3010.979,699.815 3011.046,699.788C3011.592,699.567 3012.177,699.451 3012.723,699.229C3012.794,699.462 3012.873,699.693 3012.954,699.923Z"/>
                    </g>
                    <g transform="matrix(2.67567,0,0,2.67567,-7756.656291,-1265.245464)">
                        <path d="M3099.285,707.18L3099.301,707.462C3094.986,708.694 3072.303,718.514 3061.96,713.577C3056.231,710.843 3047.837,710.738 3035.493,709.853C3027.312,709.266 3020.028,708.419 3013.103,705.083C3013.093,705.078 3009.078,703.368 3010.457,701.132C3010.527,701.019 3010.609,700.913 3010.699,700.815C3010.722,700.791 3010.735,700.745 3010.767,700.744C3011.654,700.71 3011.651,700.778 3012.535,700.744L3012.539,701.857C3012.563,701.843 3012.59,701.828 3012.619,701.812C3012.753,701.947 3013.442,702.842 3018.851,704.674C3031.292,708.885 3053.162,706.582 3062.686,711.15C3065.371,712.438 3071.372,714.463 3091.072,707.695C3096.784,705.733 3098.664,704.796 3099.53,705.009C3100.124,705.155 3100.378,705.67 3100.375,705.679C3100.217,706.247 3099.975,706.789 3099.816,707.357L3099.285,707.18ZM3098.29,706.848L3098.139,706.798L3098.205,706.901L3098.29,706.848Z"/>
                    </g>
                    <g transform="matrix(2.67567,0,0,2.67567,-7756.656291,-1265.245464)">
                        <path d="M3084.097,696.573L3085.613,697.483C3085.247,697.944 3085.069,698.537 3084.703,698.999C3084.697,699.007 3083.019,699.407 3082.172,699.575C3067.691,702.463 3060.688,698.908 3056.705,698.134C3044.828,695.826 3030.19,695.001 3029.788,694.899C3029.675,694.87 3029.569,694.827 3029.468,694.769C3024.981,692.184 3024.944,692.243 3024.601,691.951C3023.877,691.336 3024.872,690.86 3024.146,690.243L3030.285,692.449C3032.928,692.647 3046.825,693.604 3057.745,695.791C3059.514,696.145 3063.466,697.839 3069.861,698.134C3076.626,698.446 3082.313,697.002 3084.097,696.573Z"/>
                    </g>
                    <g transform="matrix(2.67567,0,0,2.67567,-7756.656291,-1265.245464)">
                        <path d="M3067.814,678.84C3068.264,679.229 3068.634,679.787 3068.832,680.511C3069.22,681.931 3068.688,684.513 3066.269,683.956C3064.096,683.455 3062.228,680.491 3064.778,678.665C3064.959,678.497 3065.169,678.372 3065.398,678.29C3065.638,678.167 3065.904,678.051 3066.199,677.945C3066.239,677.931 3066.281,677.886 3066.321,677.903C3067.136,678.254 3067.095,678.331 3067.908,678.682C3067.876,678.734 3067.845,678.787 3067.814,678.84ZM3066.289,681.206C3066.332,681.246 3066.384,681.288 3066.45,681.33C3066.445,681.239 3066.427,681.145 3066.39,681.054L3066.289,681.206Z"/>
                    </g>
                    <g transform="matrix(2.67567,0,0,2.67567,-7756.656291,-1265.245464)">
                        <path d="M3080.932,677.222C3081.677,677.781 3082.319,678.787 3081.598,681.276C3081.16,682.789 3080.515,683.983 3078.918,684.29C3076.21,684.811 3075.064,680.857 3076.173,677.972C3076.931,675.999 3078.91,675.248 3080.809,677.061C3080.85,677.099 3080.926,677.122 3080.929,677.178C3080.93,677.193 3080.931,677.207 3080.932,677.222ZM3078.26,680.54C3078.284,681.021 3078.385,681.476 3078.567,681.793C3078.623,681.765 3078.676,681.735 3078.73,681.702C3079.171,680.916 3079.431,679.983 3079.398,679.222C3079.329,679.176 3079.271,679.138 3079.218,679.103L3078.26,680.54Z"/>
                    </g>
                    <g transform="matrix(2.67567,0,0,2.67567,-7756.656291,-1265.245464)">
                        <path d="M3070.258,715.087C3070.364,716.564 3070.324,718.103 3068.02,718.558C3067.449,718.671 3059.938,719.936 3058.413,719.174C3056.989,718.463 3057.821,716.926 3058.002,716.91C3058.589,716.858 3059.182,716.908 3059.769,716.856C3059.76,716.873 3059.752,716.891 3059.745,716.908C3060.46,716.948 3062.018,716.939 3065.729,716.4C3067.163,716.191 3067.624,716.078 3067.783,716.051C3067.847,715.161 3067.288,713.448 3068.985,713.124C3069.063,713.109 3069.146,713.107 3069.225,713.113C3070.515,713.207 3070.083,713.785 3070.533,714.995L3070.258,715.087Z"/>
                    </g>
                    <g transform="matrix(2.67567,0,0,2.67567,-7756.656291,-1265.245464)">
                        <path d="M3075.994,721.493L3077.215,721.493C3077.131,722.076 3077.299,722.678 3077.215,723.261C3077.215,723.261 3076.567,723.924 3076.073,724.252C3074.875,725.046 3073.338,724.644 3073.413,722.475C3073.476,720.685 3074.055,718.115 3073.803,714.266C3073.794,714.125 3073.887,714.169 3074.961,712.933C3075.358,713.369 3075.901,713.656 3076.297,714.092C3076.31,714.106 3076.445,716.2 3076.295,718.316C3076.18,719.945 3076.067,720.837 3075.994,721.493Z"/>
                    </g>
                    <g transform="matrix(2.67567,0,0,2.67567,-7756.656291,-1265.245464)">
                        <path d="M3078.868,723.309C3078.912,723.439 3078.953,723.571 3078.986,723.705C3079.019,723.837 3078.143,724.829 3077.166,724.192C3076.261,723.601 3076.756,722.374 3076.818,722.137C3077.446,719.748 3078.532,715.833 3079.225,713.335C3079.48,712.413 3079.934,712.933 3080.764,712.463L3081.634,714.002C3079.965,720.024 3079.422,722.024 3079.094,723.345L3078.868,723.309Z"/>
                    </g>
                    <g transform="matrix(2.67567,0,0,2.67567,-7756.656291,-1265.245464)">
                        <path d="M3027.844,711.098L3028.189,712.824C3027.603,712.889 3027.041,713.106 3026.455,713.171C3026.449,713.171 3026.184,712.985 3026.142,712.954C3024.613,711.835 3025.305,711.412 3024.581,709.002C3024.466,708.621 3023.886,707.319 3024.798,706.629C3025.878,705.811 3027.007,707.137 3027.008,707.148C3027.033,707.554 3027.006,707.962 3026.999,708.369C3027.311,709.444 3027.338,709.658 3027.471,710.821C3027.631,710.952 3027.649,710.956 3027.842,711.09C3027.844,711.091 3027.845,711.092 3027.846,711.093L3027.844,711.098Z"/>
                    </g>
                    <g transform="matrix(-0.992766,0.120061,0.120061,0.992766,238.253956,1461.45173)">
                        <path d="M-50.954,-13.057C-40.961,1.979 -13.74,-12.744 -0.421,-13.057" style="fill:none;fill-rule:nonzero;stroke:black;stroke-width:6.69px;"/>
                    </g>
                    <g transform="matrix(-0.9694,-0.245487,-0.245487,0.9694,304.300633,1503.204702)">
                        <path d="M-20.232,-11.863C-16.325,5.763 -10.374,-16.367 2.164,-11.863" style="fill:none;fill-rule:nonzero;stroke:black;stroke-width:6.69px;"/>
                    </g>
                </g>
            </g>
        </g>
    </g>
</svg>
